<?xml version="1.0" encoding="utf-8"?>
<!-- Generator: Adobe Illustrator 27.8.0, SVG Export Plug-In . SVG Version: 6.00 Build 0)  -->
<svg version="1.1" id="Layer_1" xmlns="http://www.w3.org/2000/svg" xmlns:xlink="http://www.w3.org/1999/xlink" x="0px" y="0px"
	 viewBox="0 0 500 218" style="enable-background:new 0 0 500 218;" xml:space="preserve">
<style type="text/css">
	.st0{clip-path:url(#SVGID_00000090992260653226606850000012571782159350283690_);}
	.st1{clip-path:url(#SVGID_00000131365906257702878270000000288367212535227548_);}
	.st2{fill:#CCECEA;}
	.st3{fill:#2C3152;}
</style>
<g>
	<defs>
		<rect id="SVGID_1_" x="7" y="1" width="485.9" height="216"/>
	</defs>
	<clipPath id="SVGID_00000026164489255329219640000015134458971806994081_">
		<use xlink:href="#SVGID_1_"  style="overflow:visible;"/>
	</clipPath>
	<g style="clip-path:url(#SVGID_00000026164489255329219640000015134458971806994081_);">
		<g>
			<defs>
				<path id="SVGID_00000070108369372753655290000010092045085575445892_" d="M30,1H470c6.1,0,11.9,2.4,16.3,6.7
					c4.3,4.3,6.7,10.2,6.7,16.3v170c0,6.1-2.4,11.9-6.7,16.3c-4.3,4.3-10.2,6.7-16.3,6.7H30c-6.1,0-11.9-2.4-16.3-6.7
					C9.5,205.9,7,200.1,7,194V24c0-6.1,2.4-11.9,6.7-16.3C18.1,3.4,23.9,1,30,1z"/>
			</defs>
			<clipPath id="SVGID_00000084510039518592005100000015363278694895235741_">
				<use xlink:href="#SVGID_00000070108369372753655290000010092045085575445892_"  style="overflow:visible;"/>
			</clipPath>
			<g style="clip-path:url(#SVGID_00000084510039518592005100000015363278694895235741_);">
				<path class="st2" d="M7,1v216H493V1H7z"/>
			</g>
		</g>
	</g>
</g>
<g>
	<g transform="translate(69.87938, 202.499987)">
		<g>
			<path class="st3" d="M44.8-73.5h-5.6v-29.9h-9.9v-4.2c3.4-0.1,6-0.7,7.7-1.7c1.7-1,2.9-3.1,3.7-6.4h4.1V-73.5z"/>
		</g>
	</g>
	<g transform="translate(94.906234, 202.499987)">
		<g>
			<path class="st3" d="M34.3-100.6c0-5,1.3-8.7,3.8-11.3c2.6-2.6,6.1-3.8,10.8-3.8c3.9,0,7,1.2,9.5,3.5c2.5,2.3,3.7,5.4,3.7,9.1
				c0,2.9-0.7,5.3-2.1,7.3c-1.4,2-3.5,3.7-6.2,5.2l-7.3,4c-4.3,2.3-6.7,5-7.3,8.1h22.9v5H33.2c0.2-4,1-7.3,2.6-9.9
				c1.6-2.6,4-4.9,7.3-6.8l7.6-4.4c2-1.2,3.5-2.3,4.4-3.6c0.9-1.2,1.4-2.9,1.4-5.1c0-2.1-0.8-3.9-2.3-5.4c-1.5-1.5-3.5-2.2-6.1-2.2
				c-2.8,0-5,0.9-6.4,2.8c-1.4,1.9-2.1,4.4-2.2,7.6H34.3z"/>
		</g>
	</g>
	<g transform="translate(119.933088, 202.499987)">
		<g>
			<path class="st3" d="M57.3-87.4H42.6v-5.4h14.7V-87.4z"/>
		</g>
	</g>
	<g transform="translate(134.918438, 202.499987)">
		<g>
			<path class="st3" d="M66.5-73.5h-5.6v-29.9H51v-4.2c3.4-0.1,6-0.7,7.7-1.7c1.7-1,2.9-3.1,3.7-6.4h4.1V-73.5z"/>
		</g>
	</g>
	<g transform="translate(159.945292, 202.499987)">
		<g>
			<path class="st3" d="M59.7-88.3h13.6v-19.1h-0.1L59.7-88.3z M78.5-83.8v10.2h-5.3v-10.2H54.8v-5.2l19.3-26.8h4.4v27.4h6.2v4.6
				H78.5z"/>
		</g>
	</g>
	<g transform="translate(184.972145, 202.499987)">
	</g>
	<g transform="translate(195.958473, 202.499987)">
		<g>
			<path class="st3" d="M88.7-104.9h5.7L83.3-74.1c-0.2,0.5-0.4,1.1-0.6,1.5c-1.7,4.5-3.2,7.7-4.4,9.3c-1.2,1.7-3.2,2.5-6,2.5
				c-1.4,0-2.6-0.2-3.5-0.5v-4.8c1,0.3,2.1,0.5,3.3,0.5c1.3,0,2.2-0.4,2.8-1.2c0.6-0.8,1.5-2.8,2.6-5.9l-11.7-32.3h6l8.4,25.5h0.1
				L88.7-104.9z"/>
		</g>
	</g>
	<g transform="translate(218.28269, 202.499987)">
		<g>
			<path class="st3" d="M98.2-91.7c-0.3-3.4-1.2-5.8-2.7-7.2c-1.5-1.4-3.6-2.1-6.1-2.1c-2.6,0-4.6,0.9-6.2,2.7
				c-1.6,1.8-2.4,4-2.5,6.6H98.2z M103.3-83.4c-0.6,3.2-2.2,5.9-4.8,8.1c-2.3,1.8-5.3,2.7-9,2.8c-4.4,0-7.9-1.5-10.5-4.3
				c-2.6-2.8-3.9-6.7-3.9-11.5c0-5.5,1.3-9.8,4-12.9c2.7-3.1,6.4-4.6,11.1-4.6c4.2,0,7.5,1.6,9.9,4.8c2.4,3.2,3.6,7.7,3.6,13.6H80.8
				c0,3.3,0.8,5.8,2.3,7.6c1.5,1.8,3.8,2.7,6.9,2.7c2.2,0,4-0.6,5.5-1.9c1.5-1.3,2.4-2.7,2.5-4.2H103.3z"/>
		</g>
	</g>
	<g transform="translate(243.221654, 202.499987)">
		<g>
			<path class="st3" d="M104.1-89.5c-0.4,0.4-1.2,0.7-2.3,1c-1.1,0.2-3.3,0.6-6.4,1c-2.3,0.3-4,0.8-5.1,1.7c-1.1,0.9-1.6,2-1.6,3.4
				c0,1.7,0.5,3.1,1.4,4c0.9,1,2.4,1.4,4.4,1.4c2.5,0,4.7-0.7,6.7-2.1c2-1.4,2.9-3.2,2.9-5.2V-89.5z M84.8-95.3
				c0.1-3.5,1.3-6.2,3.4-7.9c2.2-1.7,5.3-2.6,9.5-2.6c3.3,0,6.1,0.8,8.4,2.3c2.2,1.5,3.4,3.7,3.4,6.5V-79c0,1.2,0.6,1.9,1.7,1.9
				c0.4,0,1-0.1,1.7-0.2v3.8c-1,0.4-2,0.6-3,0.6c-1.8,0-3.1-0.4-4-1.1c-0.9-0.8-1.3-2-1.4-3.6c-3,3.4-6.8,5.1-11.4,5.1
				c-3,0-5.3-0.8-7.1-2.5c-1.8-1.7-2.7-3.9-2.7-6.6c0-2.8,0.8-5,2.3-6.7c1.6-1.7,3.8-2.7,6.8-3.1l9.3-1.1c1.7-0.3,2.5-1.5,2.5-3.7
				c0-1.6-0.6-2.9-1.8-3.8c-1.2-0.9-3.1-1.3-5.5-1.3c-2.2,0-3.9,0.5-5.1,1.5c-1.2,1-1.9,2.5-2.1,4.6H84.8z"/>
		</g>
	</g>
	<g transform="translate(267.94089, 202.499987)">
		<g>
			<path class="st3" d="M98.5-73.5h-5.3v-31.4h5v5.2h0.1c2.3-4.1,5.2-6.1,8.8-6.1c0.6,0,1,0.1,1.4,0.2v5.5h-2
				c-2.4,0-4.3,0.8-5.8,2.4c-1.5,1.6-2.2,3.6-2.2,6V-73.5z"/>
		</g>
	</g>
	<g transform="translate(282.596651, 202.499987)">
		<g>
			<path class="st3" d="M115.8-95.9c-0.1-1.9-0.7-3.2-2-4c-1.3-0.8-3.1-1.2-5.4-1.2c-1.7,0-3.2,0.4-4.4,1.1
				c-1.2,0.8-1.8,1.8-1.8,3.3c0,1.1,0.4,2,1.1,2.5c0.7,0.5,2.3,1.1,4.7,1.7l5.2,1.3c3.2,0.8,5.4,1.8,6.8,3.1c1.4,1.2,2,3,2,5.2
				c0,3.1-1.1,5.6-3.4,7.5c-2.2,1.9-5.3,2.9-9,2.9c-4.4,0-7.7-0.9-10-2.7c-2.2-1.8-3.4-4.6-3.4-8.3h5.1c0.1,2.2,0.8,3.8,2.1,4.8
				c1.4,1.1,3.4,1.6,6.1,1.6c2.2,0,4-0.4,5.2-1.3c1.3-0.9,2-2.1,2-3.7c0-1.1-0.4-2-1.3-2.7c-0.8-0.7-2.5-1.3-5-1.8l-6.1-1.5
				c-2.5-0.6-4.3-1.6-5.5-2.8c-1.2-1.2-1.8-2.9-1.8-4.8c0-3.1,1.1-5.5,3.3-7.3c2.2-1.8,5.1-2.7,8.6-2.7c3.8,0,6.7,0.9,8.7,2.8
				c2,1.8,3.1,4.2,3.2,7.1H115.8z"/>
		</g>
	</g>
</g>
</svg>
