<?xml version="1.0" encoding="utf-8"?>
<!-- Generator: Adobe Illustrator 27.8.0, SVG Export Plug-In . SVG Version: 6.00 Build 0)  -->
<svg version="1.1" id="Layer_1" xmlns="http://www.w3.org/2000/svg" xmlns:xlink="http://www.w3.org/1999/xlink" x="0px" y="0px"
	 viewBox="0 0 500 218" style="enable-background:new 0 0 500 218;" xml:space="preserve">
<style type="text/css">
	.st0{clip-path:url(#SVGID_00000021838708452196284140000012977673490621646510_);}
	.st1{clip-path:url(#SVGID_00000156554728137603371540000007850587701884775846_);}
	.st2{fill:#CCECEA;}
	.st3{fill:#2C3152;}
</style>
<g>
	<defs>
		<rect id="SVGID_1_" x="7" y="1" width="485.9" height="216"/>
	</defs>
	<clipPath id="SVGID_00000174581834866923554400000002078673461439329689_">
		<use xlink:href="#SVGID_1_"  style="overflow:visible;"/>
	</clipPath>
	<g style="clip-path:url(#SVGID_00000174581834866923554400000002078673461439329689_);">
		<g>
			<defs>
				<path id="SVGID_00000091731601368047755670000003104805922464838817_" d="M30,1H470c6.1,0,11.9,2.4,16.3,6.7
					c4.3,4.3,6.7,10.2,6.7,16.3v170c0,6.1-2.4,11.9-6.7,16.3c-4.3,4.3-10.2,6.7-16.3,6.7H30c-6.1,0-11.9-2.4-16.3-6.7
					C9.5,205.9,7,200.1,7,194V24c0-6.1,2.4-11.9,6.7-16.3C18.1,3.4,23.9,1,30,1z"/>
			</defs>
			<clipPath id="SVGID_00000069368990314299608130000016596083010502055553_">
				<use xlink:href="#SVGID_00000091731601368047755670000003104805922464838817_"  style="overflow:visible;"/>
			</clipPath>
			<g style="clip-path:url(#SVGID_00000069368990314299608130000016596083010502055553_);">
				<path class="st2" d="M7,1v216H493V1H7z"/>
			</g>
		</g>
	</g>
</g>
<g>
	<g transform="translate(64.383287, 202.499987)">
		<g>
			<path class="st3" d="M43-73.5h-5.6v-29.9h-9.9v-4.2c3.4-0.1,6-0.7,7.7-1.7c1.7-1,2.9-3.1,3.7-6.4H43V-73.5z"/>
		</g>
	</g>
	<g transform="translate(89.410141, 202.499987)">
		<g>
			<path class="st3" d="M38.6-98c2.3-1.8,5.1-2.6,8.2-2.6c3.8,0,7,1.3,9.8,3.8c2.7,2.5,4.1,5.8,4.1,9.7c0,4.3-1.3,7.9-3.9,10.7
				c-2.6,2.8-6.3,4.2-11.1,4.2c-4.1,0-7.4-1-9.8-3c-2.4-2-3.8-4.9-4.1-8.6h5.4c0.3,2.3,1.2,4,2.7,5.2c1.5,1.2,3.6,1.8,6.3,1.8
				c2.6,0,4.7-0.9,6.4-2.7c1.7-1.8,2.5-4.1,2.5-6.9c0-2.9-0.9-5.1-2.6-6.9c-1.7-1.7-4-2.6-6.7-2.6c-3.1,0-5.7,1.3-7.8,4l-4.5-0.2
				l3.2-22.6h21.9v5.1H40.4L38.6-98z"/>
		</g>
	</g>
	<g transform="translate(114.436994, 202.499987)">
		<g>
			<path class="st3" d="M55.5-87.4H40.8v-5.4h14.7V-87.4z"/>
		</g>
	</g>
	<g transform="translate(129.422345, 202.499987)">
		<g>
			<path class="st3" d="M64.7-73.5h-5.6v-29.9h-9.9v-4.2c3.4-0.1,6-0.7,7.7-1.7c1.7-1,2.9-3.1,3.7-6.4h4.1V-73.5z"/>
		</g>
	</g>
	<g transform="translate(154.449198, 202.499987)">
		<g>
			<path class="st3" d="M68-97.9c2.2,0,4-0.6,5.4-1.9c1.4-1.2,2.1-2.9,2.1-4.9c0-1.8-0.7-3.3-2-4.5c-1.4-1.2-3.3-1.8-5.8-1.8
				c-2.2,0-4,0.6-5.2,1.9c-1.2,1.2-1.8,2.8-1.8,4.7c0,2.1,0.8,3.7,2.3,4.8C64.5-98.4,66.2-97.9,68-97.9z M68.1-93.3
				c-2.7,0-4.8,0.8-6.4,2.3c-1.5,1.5-2.3,3.3-2.3,5.5c0,2.5,0.8,4.6,2.3,6.1c1.6,1.5,3.8,2.3,6.7,2.3c2.6,0,4.6-0.8,6.1-2.3
				c1.5-1.5,2.3-3.6,2.3-6.1c0-2.2-0.8-4-2.3-5.5C73-92.6,70.9-93.3,68.1-93.3z M81-104.8c0,4.2-1.8,7.2-5.4,8.9
				c2.5,1.1,4.3,2.6,5.3,4.4c1.1,1.8,1.6,3.8,1.6,5.8c0,4-1.3,7.2-3.9,9.7c-2.6,2.4-6,3.7-10.4,3.7c-3.8,0-7.2-1.1-10.1-3.1
				c-2.9-2.1-4.3-5.5-4.3-10.2c0-4.8,2.4-8.1,7.1-10.1c-3.8-1.5-5.7-4.3-5.7-8.2c0-3.3,1.1-6.1,3.4-8.3c2.2-2.2,5.4-3.3,9.4-3.3
				c4,0,7.2,1,9.5,3.1C79.8-110.5,81-107.9,81-104.8z"/>
		</g>
	</g>
	<g transform="translate(179.476052, 202.499987)">
	</g>
	<g transform="translate(190.46238, 202.499987)">
		<g>
			<path class="st3" d="M86.9-104.9h5.7L81.4-74.1c-0.2,0.5-0.4,1.1-0.6,1.5c-1.7,4.5-3.2,7.7-4.4,9.3c-1.2,1.7-3.2,2.5-6,2.5
				c-1.4,0-2.6-0.2-3.5-0.5v-4.8c1,0.3,2.1,0.5,3.3,0.5c1.3,0,2.2-0.4,2.8-1.2c0.6-0.8,1.5-2.8,2.6-5.9L64-104.9h6l8.4,25.5h0.1
				L86.9-104.9z"/>
		</g>
	</g>
	<g transform="translate(212.786597, 202.499987)">
		<g>
			<path class="st3" d="M96.4-91.7c-0.3-3.4-1.2-5.8-2.7-7.2c-1.5-1.4-3.6-2.1-6.1-2.1c-2.6,0-4.6,0.9-6.2,2.7
				c-1.6,1.8-2.4,4-2.5,6.6H96.4z M101.4-83.4c-0.6,3.2-2.2,5.9-4.8,8.1c-2.3,1.8-5.3,2.7-9,2.8c-4.4,0-7.9-1.5-10.5-4.3
				c-2.6-2.8-3.9-6.7-3.9-11.5c0-5.5,1.3-9.8,4-12.9c2.7-3.1,6.4-4.6,11.1-4.6c4.2,0,7.5,1.6,9.9,4.8c2.4,3.2,3.6,7.7,3.6,13.6H78.9
				c0,3.3,0.8,5.8,2.3,7.6c1.5,1.8,3.8,2.7,6.9,2.7c2.2,0,4-0.6,5.5-1.9c1.5-1.3,2.4-2.7,2.5-4.2H101.4z"/>
		</g>
	</g>
	<g transform="translate(237.72556, 202.499987)">
		<g>
			<path class="st3" d="M102.3-89.5c-0.4,0.4-1.2,0.7-2.3,1c-1.1,0.2-3.3,0.6-6.4,1c-2.3,0.3-4,0.8-5.1,1.7c-1.1,0.9-1.6,2-1.6,3.4
				c0,1.7,0.5,3.1,1.4,4c0.9,1,2.4,1.4,4.4,1.4c2.5,0,4.7-0.7,6.7-2.1c2-1.4,2.9-3.2,2.9-5.2V-89.5z M83-95.3
				c0.1-3.5,1.3-6.2,3.4-7.9c2.2-1.7,5.3-2.6,9.5-2.6c3.3,0,6.1,0.8,8.4,2.3c2.2,1.5,3.4,3.7,3.4,6.5V-79c0,1.2,0.6,1.9,1.7,1.9
				c0.4,0,1-0.1,1.7-0.2v3.8c-1,0.4-2,0.6-3,0.6c-1.8,0-3.1-0.4-4-1.1c-0.9-0.8-1.3-2-1.4-3.6c-3,3.4-6.8,5.1-11.4,5.1
				c-3,0-5.3-0.8-7.1-2.5c-1.8-1.7-2.7-3.9-2.7-6.6c0-2.8,0.8-5,2.3-6.7c1.6-1.7,3.8-2.7,6.8-3.1l9.3-1.1c1.7-0.3,2.5-1.5,2.5-3.7
				c0-1.6-0.6-2.9-1.8-3.8c-1.2-0.9-3.1-1.3-5.5-1.3c-2.2,0-3.9,0.5-5.1,1.5c-1.2,1-1.9,2.5-2.1,4.6H83z"/>
		</g>
	</g>
	<g transform="translate(262.444797, 202.499987)">
		<g>
			<path class="st3" d="M96.7-73.5h-5.3v-31.4h5v5.2h0.1c2.3-4.1,5.2-6.1,8.8-6.1c0.6,0,1,0.1,1.4,0.2v5.5h-2
				c-2.4,0-4.3,0.8-5.8,2.4c-1.5,1.6-2.2,3.6-2.2,6V-73.5z"/>
		</g>
	</g>
	<g transform="translate(277.100558, 202.499987)">
		<g>
			<path class="st3" d="M114-95.9c-0.1-1.9-0.7-3.2-2-4c-1.3-0.8-3.1-1.2-5.4-1.2c-1.7,0-3.2,0.4-4.4,1.1c-1.2,0.8-1.8,1.8-1.8,3.3
				c0,1.1,0.4,2,1.1,2.5c0.7,0.5,2.3,1.1,4.7,1.7l5.2,1.3c3.2,0.8,5.4,1.8,6.8,3.1c1.4,1.2,2,3,2,5.2c0,3.1-1.1,5.6-3.4,7.5
				c-2.2,1.9-5.3,2.9-9,2.9c-4.4,0-7.7-0.9-10-2.7c-2.2-1.8-3.4-4.6-3.4-8.3h5.1c0.1,2.2,0.8,3.8,2.1,4.8c1.4,1.1,3.4,1.6,6.1,1.6
				c2.2,0,4-0.4,5.2-1.3c1.3-0.9,2-2.1,2-3.7c0-1.1-0.4-2-1.3-2.7c-0.8-0.7-2.5-1.3-5-1.8l-6.1-1.5c-2.5-0.6-4.3-1.6-5.5-2.8
				c-1.2-1.2-1.8-2.9-1.8-4.8c0-3.1,1.1-5.5,3.3-7.3c2.2-1.8,5.1-2.7,8.6-2.7c3.8,0,6.7,0.9,8.7,2.8c2,1.8,3.1,4.2,3.2,7.1H114z"/>
		</g>
	</g>
</g>
<g>
	<g transform="translate(299.602025, 202.499987)">
	</g>
</g>
</svg>
