<svg xmlns="http://www.w3.org/2000/svg" xmlns:xlink="http://www.w3.org/1999/xlink" width="309" zoomAndPan="magnify" viewBox="0 0 231.75 100.499997" height="134" preserveAspectRatio="xMidYMid meet" version="1.0"><defs><filter x="0%" y="0%" width="100%" height="100%" id="146a2ef3db"><feColorMatrix values="0 0 0 0 1 0 0 0 0 1 0 0 0 0 1 0 0 0 1 0" color-interpolation-filters="sRGB"/></filter><g/><mask id="82a0757ca0"><g filter="url(#146a2ef3db)"><rect x="-23.175" width="278.1" fill="#000000" y="-10.05" height="120.599996" fill-opacity="0.89"/></g></mask><clipPath id="44b521d5ef"><path d="M 0.765625 0 L 223.25 0 L 223.25 99.398438 L 0.765625 99.398438 Z M 0.765625 0 " clip-rule="nonzero"/></clipPath><clipPath id="b532da7537"><path d="M 14.199219 0 L 209.730469 0 C 213.292969 0 216.710938 1.414062 219.230469 3.933594 C 221.746094 6.453125 223.164062 9.871094 223.164062 13.433594 L 223.164062 85.964844 C 223.164062 89.527344 221.746094 92.945312 219.230469 95.464844 C 216.710938 97.984375 213.292969 99.398438 209.730469 99.398438 L 14.199219 99.398438 C 10.636719 99.398438 7.21875 97.984375 4.699219 95.464844 C 2.179688 92.945312 0.765625 89.527344 0.765625 85.964844 L 0.765625 13.433594 C 0.765625 9.871094 2.179688 6.453125 4.699219 3.933594 C 7.21875 1.414062 10.636719 0 14.199219 0 Z M 14.199219 0 " clip-rule="nonzero"/></clipPath><clipPath id="027c0a568f"><rect x="0" width="224" y="0" height="100"/></clipPath></defs><g mask="url(#82a0757ca0)"><g transform="matrix(1, 0, 0, 1, 2, 0)"><g clip-path="url(#027c0a568f)"><g clip-path="url(#44b521d5ef)"><g clip-path="url(#b532da7537)"><path fill="#fbb88b" d="M 0.765625 0 L 223.25 0 L 223.25 99.398438 L 0.765625 99.398438 Z M 0.765625 0 " fill-opacity="1" fill-rule="nonzero"/></g></g></g></g></g><g fill="#2c3152" fill-opacity="1"><g transform="translate(46.858728, 41.490275)"><g><path d="M 14.515625 -17.625 C 15.148438 -17.113281 15.625 -16.492188 15.9375 -15.765625 C 16.25 -15.035156 16.40625 -14.296875 16.40625 -13.546875 C 16.40625 -11.453125 15.660156 -9.867188 14.171875 -8.796875 C 13.171875 -8.054688 11.632812 -7.6875 9.5625 -7.6875 L 4.53125 -7.6875 L 4.53125 0 L 2.03125 0 L 2.03125 -18.859375 L 9.53125 -18.859375 C 10.75 -18.859375 11.734375 -18.769531 12.484375 -18.59375 C 13.242188 -18.414062 13.921875 -18.09375 14.515625 -17.625 Z M 13.828125 -13.484375 C 13.828125 -13.867188 13.734375 -14.285156 13.546875 -14.734375 C 13.367188 -15.179688 13.117188 -15.546875 12.796875 -15.828125 C 12.453125 -16.148438 12.050781 -16.367188 11.59375 -16.484375 C 11.132812 -16.597656 10.53125 -16.65625 9.78125 -16.65625 L 4.53125 -16.65625 L 4.53125 -9.90625 L 9.53125 -9.90625 C 10.988281 -9.90625 12.066406 -10.191406 12.765625 -10.765625 C 13.472656 -11.347656 13.828125 -12.253906 13.828125 -13.484375 Z M 13.828125 -13.484375 "/></g></g></g><g fill="#2c3152" fill-opacity="1"><g transform="translate(64.420764, 41.490275)"><g><path d="M 7.40625 -13.96875 C 8.71875 -13.96875 9.84375 -13.65625 10.78125 -13.03125 C 11.726562 -12.40625 12.4375 -11.566406 12.90625 -10.515625 C 13.382812 -9.460938 13.625 -8.285156 13.625 -6.984375 L 13.625 -6.25 L 3.421875 -6.25 C 3.492188 -4.789062 3.90625 -3.648438 4.65625 -2.828125 C 5.414062 -2.015625 6.382812 -1.609375 7.5625 -1.609375 C 8.457031 -1.609375 9.195312 -1.84375 9.78125 -2.3125 C 10.375 -2.789062 10.828125 -3.488281 11.140625 -4.40625 L 13.546875 -4.109375 C 13.171875 -2.742188 12.46875 -1.664062 11.4375 -0.875 C 10.414062 -0.09375 9.160156 0.296875 7.671875 0.296875 C 5.578125 0.296875 3.945312 -0.316406 2.78125 -1.546875 C 1.613281 -2.773438 1.03125 -4.5 1.03125 -6.71875 C 1.03125 -8.195312 1.289062 -9.476562 1.8125 -10.5625 C 2.34375 -11.65625 3.085938 -12.492188 4.046875 -13.078125 C 5.003906 -13.671875 6.125 -13.96875 7.40625 -13.96875 Z M 3.5625 -8.171875 L 11.171875 -8.171875 C 11.117188 -9.460938 10.71875 -10.429688 9.96875 -11.078125 C 9.21875 -11.734375 8.363281 -12.0625 7.40625 -12.0625 C 6.3125 -12.0625 5.414062 -11.691406 4.71875 -10.953125 C 4.03125 -10.222656 3.644531 -9.296875 3.5625 -8.171875 Z M 3.5625 -8.171875 "/></g></g></g><g fill="#2c3152" fill-opacity="1"><g transform="translate(79.060179, 41.490275)"><g><path d="M 6.765625 -13.96875 C 7.554688 -13.96875 8.335938 -13.71875 9.109375 -13.21875 L 8.328125 -11.09375 C 7.765625 -11.425781 7.175781 -11.59375 6.5625 -11.59375 C 5.6875 -11.59375 5.039062 -11.191406 4.625 -10.390625 C 4.207031 -9.585938 4 -8.554688 4 -7.296875 L 4 0 L 1.6875 0 L 1.6875 -13.640625 L 3.765625 -13.640625 L 3.765625 -11.59375 C 4.203125 -12.382812 4.632812 -12.976562 5.0625 -13.375 C 5.5 -13.769531 6.066406 -13.96875 6.765625 -13.96875 Z M 6.765625 -13.96875 "/></g></g></g><g fill="#2c3152" fill-opacity="1"><g transform="translate(87.828028, 41.490275)"><g><path d="M 6.265625 -13.96875 C 7.816406 -13.96875 9.066406 -13.644531 10.015625 -13 C 10.960938 -12.363281 11.503906 -11.410156 11.640625 -10.140625 L 9.375 -9.828125 C 9.269531 -10.515625 8.976562 -11.054688 8.5 -11.453125 C 8.03125 -11.859375 7.332031 -12.0625 6.40625 -12.0625 C 5.46875 -12.0625 4.738281 -11.898438 4.21875 -11.578125 C 3.707031 -11.265625 3.453125 -10.832031 3.453125 -10.28125 C 3.453125 -9.882812 3.601562 -9.5625 3.90625 -9.3125 C 4.21875 -9.0625 4.582031 -8.867188 5 -8.734375 C 5.425781 -8.597656 6.066406 -8.425781 6.921875 -8.21875 C 8.035156 -7.957031 8.9375 -7.691406 9.625 -7.421875 C 10.320312 -7.160156 10.921875 -6.757812 11.421875 -6.21875 C 11.921875 -5.675781 12.171875 -4.945312 12.171875 -4.03125 C 12.171875 -3.238281 11.953125 -2.515625 11.515625 -1.859375 C 11.078125 -1.203125 10.445312 -0.675781 9.625 -0.28125 C 8.8125 0.101562 7.878906 0.296875 6.828125 0.296875 C 4.992188 0.296875 3.59375 -0.0625 2.625 -0.78125 C 1.664062 -1.507812 1.0625 -2.609375 0.8125 -4.078125 L 3.109375 -4.421875 C 3.234375 -3.492188 3.601562 -2.789062 4.21875 -2.3125 C 4.84375 -1.84375 5.648438 -1.609375 6.640625 -1.609375 C 7.640625 -1.609375 8.414062 -1.8125 8.96875 -2.21875 C 9.519531 -2.632812 9.796875 -3.148438 9.796875 -3.765625 C 9.796875 -4.347656 9.519531 -4.78125 8.96875 -5.0625 C 8.414062 -5.34375 7.566406 -5.613281 6.421875 -5.875 C 5.296875 -6.132812 4.394531 -6.390625 3.71875 -6.640625 C 3.050781 -6.898438 2.46875 -7.300781 1.96875 -7.84375 C 1.46875 -8.394531 1.21875 -9.125 1.21875 -10.03125 C 1.21875 -10.769531 1.410156 -11.4375 1.796875 -12.03125 C 2.191406 -12.632812 2.769531 -13.109375 3.53125 -13.453125 C 4.300781 -13.796875 5.210938 -13.96875 6.265625 -13.96875 Z M 6.265625 -13.96875 "/></g></g></g><g fill="#2c3152" fill-opacity="1"><g transform="translate(100.992975, 41.490275)"><g><path d="M 7.328125 -13.96875 C 8.359375 -13.96875 9.359375 -13.738281 10.328125 -13.28125 C 11.304688 -12.820312 12.113281 -12.0625 12.75 -11 C 13.394531 -9.9375 13.71875 -8.546875 13.71875 -6.828125 C 13.71875 -5.296875 13.445312 -4 12.90625 -2.9375 C 12.363281 -1.875 11.609375 -1.066406 10.640625 -0.515625 C 9.671875 0.0234375 8.566406 0.296875 7.328125 0.296875 C 5.492188 0.296875 4 -0.273438 2.84375 -1.421875 C 1.5625 -2.671875 0.921875 -4.472656 0.921875 -6.828125 C 0.921875 -8.347656 1.191406 -9.644531 1.734375 -10.71875 C 2.285156 -11.789062 3.039062 -12.597656 4 -13.140625 C 4.96875 -13.691406 6.078125 -13.96875 7.328125 -13.96875 Z M 3.296875 -6.828125 C 3.296875 -5.171875 3.660156 -3.882812 4.390625 -2.96875 C 5.117188 -2.0625 6.097656 -1.609375 7.328125 -1.609375 C 8.535156 -1.609375 9.507812 -2.0625 10.25 -2.96875 C 10.988281 -3.875 11.359375 -5.160156 11.359375 -6.828125 C 11.359375 -8.441406 10.992188 -9.71875 10.265625 -10.65625 C 9.546875 -11.59375 8.554688 -12.0625 7.296875 -12.0625 C 6.097656 -12.0625 5.128906 -11.597656 4.390625 -10.671875 C 3.660156 -9.753906 3.296875 -8.472656 3.296875 -6.828125 Z M 3.296875 -6.828125 "/></g></g></g><g fill="#2c3152" fill-opacity="1"><g transform="translate(115.632391, 41.490275)"><g><path d="M 8.21875 -13.96875 C 9.195312 -13.96875 10.039062 -13.769531 10.75 -13.375 C 11.46875 -12.988281 11.992188 -12.5 12.328125 -11.90625 C 12.535156 -11.5 12.679688 -11.0625 12.765625 -10.59375 C 12.859375 -10.132812 12.90625 -9.550781 12.90625 -8.84375 L 12.90625 0 L 10.59375 0 L 10.59375 -8.4375 C 10.59375 -10.78125 9.632812 -11.953125 7.71875 -11.953125 C 7 -11.953125 6.335938 -11.773438 5.734375 -11.421875 C 5.128906 -11.078125 4.691406 -10.570312 4.421875 -9.90625 C 4.210938 -9.34375 4.109375 -8.585938 4.109375 -7.640625 L 4.109375 0 L 1.796875 0 L 1.796875 -13.640625 L 3.875 -13.640625 L 3.875 -11.71875 C 4.90625 -13.21875 6.351562 -13.96875 8.21875 -13.96875 Z M 8.21875 -13.96875 "/></g></g></g><g fill="#2c3152" fill-opacity="1"><g transform="translate(130.271807, 41.490275)"><g/></g></g><g fill="#2c3152" fill-opacity="1"><g transform="translate(137.591514, 41.490275)"><g><path d="M 2.53125 -13.640625 L 4.984375 -4.71875 L 5.5 -2.84375 C 5.570312 -3.15625 5.632812 -3.382812 5.6875 -3.53125 C 5.894531 -4.425781 6.113281 -5.304688 6.34375 -6.171875 L 8.375 -13.640625 L 10.78125 -13.640625 L 12.75 -5.953125 L 13.484375 -3.140625 L 14.125 -5.265625 L 16.625 -13.640625 L 18.890625 -13.640625 L 14.59375 0 L 12.203125 0 L 9.984375 -8.265625 C 9.878906 -8.671875 9.710938 -9.421875 9.484375 -10.515625 L 6.75 0 L 4.328125 0 L 0.125 -13.640625 Z M 2.53125 -13.640625 "/></g></g></g><g fill="#2c3152" fill-opacity="1"><g transform="translate(156.60169, 41.490275)"><g><path d="M 4.078125 -16.234375 L 1.765625 -16.234375 L 1.765625 -18.859375 L 4.078125 -18.859375 Z M 4.078125 0 L 1.765625 0 L 1.765625 -13.640625 L 4.078125 -13.640625 Z M 4.078125 0 "/></g></g></g><g fill="#2c3152" fill-opacity="1"><g transform="translate(162.44693, 41.490275)"><g><path d="M 4.453125 -13.640625 L 6.765625 -13.640625 L 6.765625 -11.90625 L 4.453125 -11.90625 L 4.453125 -3.453125 C 4.453125 -2.859375 4.535156 -2.4375 4.703125 -2.1875 C 4.867188 -1.9375 5.21875 -1.8125 5.75 -1.8125 C 5.863281 -1.8125 6.203125 -1.859375 6.765625 -1.953125 L 7.109375 0.109375 C 6.410156 0.242188 5.84375 0.3125 5.40625 0.3125 C 4.507812 0.3125 3.820312 0.171875 3.34375 -0.109375 C 2.875 -0.398438 2.554688 -0.804688 2.390625 -1.328125 C 2.222656 -1.847656 2.140625 -2.519531 2.140625 -3.34375 L 2.140625 -11.90625 L 0.453125 -11.90625 L 0.453125 -13.640625 L 2.140625 -13.640625 L 2.140625 -17.046875 L 4.453125 -18.4375 Z M 4.453125 -13.640625 "/></g></g></g><g fill="#2c3152" fill-opacity="1"><g transform="translate(169.766638, 41.490275)"><g><path d="M 4.078125 -12.09375 C 4.609375 -12.707031 5.207031 -13.171875 5.875 -13.484375 C 6.539062 -13.804688 7.3125 -13.96875 8.1875 -13.96875 C 8.925781 -13.96875 9.59375 -13.851562 10.1875 -13.625 C 10.789062 -13.394531 11.296875 -13.085938 11.703125 -12.703125 C 12.117188 -12.296875 12.421875 -11.785156 12.609375 -11.171875 C 12.804688 -10.554688 12.90625 -9.765625 12.90625 -8.796875 L 12.90625 0 L 10.59375 0 L 10.59375 -8.75 C 10.59375 -9.78125 10.34375 -10.570312 9.84375 -11.125 C 9.351562 -11.675781 8.628906 -11.953125 7.671875 -11.953125 C 6.960938 -11.953125 6.289062 -11.753906 5.65625 -11.359375 C 5.03125 -10.972656 4.59375 -10.425781 4.34375 -9.71875 C 4.164062 -9.195312 4.078125 -8.519531 4.078125 -7.6875 L 4.078125 0 L 1.765625 0 L 1.765625 -18.859375 L 4.078125 -18.859375 Z M 4.078125 -12.09375 "/></g></g></g><g fill="#2c3152" fill-opacity="1"><g transform="translate(11.001966, 72.834332)"><g><path d="M 17.625 0 L 14.78125 0 L 12.5625 -5.75 L 4.6875 -5.75 L 2.640625 0 L -0.03125 0 L 7.21875 -18.859375 L 9.90625 -18.859375 Z M 7.484375 -13.28125 L 5.421875 -7.75 L 11.796875 -7.75 L 9.484375 -13.96875 C 9.203125 -14.695312 8.878906 -15.671875 8.515625 -16.890625 C 8.515625 -16.796875 8.40625 -16.347656 8.1875 -15.546875 C 7.976562 -14.753906 7.742188 -14 7.484375 -13.28125 Z M 7.484375 -13.28125 "/></g></g></g><g fill="#2c3152" fill-opacity="1"><g transform="translate(28.564002, 72.834332)"><g><path d="M 8.21875 -13.96875 C 9.195312 -13.96875 10.039062 -13.769531 10.75 -13.375 C 11.46875 -12.988281 11.992188 -12.5 12.328125 -11.90625 C 12.535156 -11.5 12.679688 -11.0625 12.765625 -10.59375 C 12.859375 -10.132812 12.90625 -9.550781 12.90625 -8.84375 L 12.90625 0 L 10.59375 0 L 10.59375 -8.4375 C 10.59375 -10.78125 9.632812 -11.953125 7.71875 -11.953125 C 7 -11.953125 6.335938 -11.773438 5.734375 -11.421875 C 5.128906 -11.078125 4.691406 -10.570312 4.421875 -9.90625 C 4.210938 -9.34375 4.109375 -8.585938 4.109375 -7.640625 L 4.109375 0 L 1.796875 0 L 1.796875 -13.640625 L 3.875 -13.640625 L 3.875 -11.71875 C 4.90625 -13.21875 6.351562 -13.96875 8.21875 -13.96875 Z M 8.21875 -13.96875 "/></g></g></g><g fill="#2c3152" fill-opacity="1"><g transform="translate(43.203418, 72.834332)"><g><path d="M 7.328125 -13.96875 C 8.359375 -13.96875 9.359375 -13.738281 10.328125 -13.28125 C 11.304688 -12.820312 12.113281 -12.0625 12.75 -11 C 13.394531 -9.9375 13.71875 -8.546875 13.71875 -6.828125 C 13.71875 -5.296875 13.445312 -4 12.90625 -2.9375 C 12.363281 -1.875 11.609375 -1.066406 10.640625 -0.515625 C 9.671875 0.0234375 8.566406 0.296875 7.328125 0.296875 C 5.492188 0.296875 4 -0.273438 2.84375 -1.421875 C 1.5625 -2.671875 0.921875 -4.472656 0.921875 -6.828125 C 0.921875 -8.347656 1.191406 -9.644531 1.734375 -10.71875 C 2.285156 -11.789062 3.039062 -12.597656 4 -13.140625 C 4.96875 -13.691406 6.078125 -13.96875 7.328125 -13.96875 Z M 3.296875 -6.828125 C 3.296875 -5.171875 3.660156 -3.882812 4.390625 -2.96875 C 5.117188 -2.0625 6.097656 -1.609375 7.328125 -1.609375 C 8.535156 -1.609375 9.507812 -2.0625 10.25 -2.96875 C 10.988281 -3.875 11.359375 -5.160156 11.359375 -6.828125 C 11.359375 -8.441406 10.992188 -9.71875 10.265625 -10.65625 C 9.546875 -11.59375 8.554688 -12.0625 7.296875 -12.0625 C 6.097656 -12.0625 5.128906 -11.597656 4.390625 -10.671875 C 3.660156 -9.753906 3.296875 -8.472656 3.296875 -6.828125 Z M 3.296875 -6.828125 "/></g></g></g><g fill="#2c3152" fill-opacity="1"><g transform="translate(57.842833, 72.834332)"><g><path d="M 6.765625 -13.96875 C 7.554688 -13.96875 8.335938 -13.71875 9.109375 -13.21875 L 8.328125 -11.09375 C 7.765625 -11.425781 7.175781 -11.59375 6.5625 -11.59375 C 5.6875 -11.59375 5.039062 -11.191406 4.625 -10.390625 C 4.207031 -9.585938 4 -8.554688 4 -7.296875 L 4 0 L 1.6875 0 L 1.6875 -13.640625 L 3.765625 -13.640625 L 3.765625 -11.59375 C 4.203125 -12.382812 4.632812 -12.976562 5.0625 -13.375 C 5.5 -13.769531 6.066406 -13.96875 6.765625 -13.96875 Z M 6.765625 -13.96875 "/></g></g></g><g fill="#2c3152" fill-opacity="1"><g transform="translate(66.610682, 72.834332)"><g><path d="M 7.40625 -13.96875 C 8.71875 -13.96875 9.84375 -13.65625 10.78125 -13.03125 C 11.726562 -12.40625 12.4375 -11.566406 12.90625 -10.515625 C 13.382812 -9.460938 13.625 -8.285156 13.625 -6.984375 L 13.625 -6.25 L 3.421875 -6.25 C 3.492188 -4.789062 3.90625 -3.648438 4.65625 -2.828125 C 5.414062 -2.015625 6.382812 -1.609375 7.5625 -1.609375 C 8.457031 -1.609375 9.195312 -1.84375 9.78125 -2.3125 C 10.375 -2.789062 10.828125 -3.488281 11.140625 -4.40625 L 13.546875 -4.109375 C 13.171875 -2.742188 12.46875 -1.664062 11.4375 -0.875 C 10.414062 -0.09375 9.160156 0.296875 7.671875 0.296875 C 5.578125 0.296875 3.945312 -0.316406 2.78125 -1.546875 C 1.613281 -2.773438 1.03125 -4.5 1.03125 -6.71875 C 1.03125 -8.195312 1.289062 -9.476562 1.8125 -10.5625 C 2.34375 -11.65625 3.085938 -12.492188 4.046875 -13.078125 C 5.003906 -13.671875 6.125 -13.96875 7.40625 -13.96875 Z M 3.5625 -8.171875 L 11.171875 -8.171875 C 11.117188 -9.460938 10.71875 -10.429688 9.96875 -11.078125 C 9.21875 -11.734375 8.363281 -12.0625 7.40625 -12.0625 C 6.3125 -12.0625 5.414062 -11.691406 4.71875 -10.953125 C 4.03125 -10.222656 3.644531 -9.296875 3.5625 -8.171875 Z M 3.5625 -8.171875 "/></g></g></g><g fill="#2c3152" fill-opacity="1"><g transform="translate(81.250097, 72.834332)"><g><path d="M 3.453125 -13.640625 L 5.484375 -10.5625 L 6.5 -8.9375 C 6.71875 -9.269531 7.035156 -9.734375 7.453125 -10.328125 L 9.859375 -13.640625 L 12.625 -13.640625 L 7.90625 -7.25 L 12.984375 0 L 10.140625 0 L 7.515625 -3.953125 C 7.085938 -4.585938 6.78125 -5.070312 6.59375 -5.40625 L 2.984375 0 L 0.1875 0 L 5.15625 -7.109375 L 0.546875 -13.640625 Z M 3.453125 -13.640625 "/></g></g></g><g fill="#2c3152" fill-opacity="1"><g transform="translate(94.415045, 72.834332)"><g><path d="M 4.078125 -16.234375 L 1.765625 -16.234375 L 1.765625 -18.859375 L 4.078125 -18.859375 Z M 4.078125 0 L 1.765625 0 L 1.765625 -13.640625 L 4.078125 -13.640625 Z M 4.078125 0 "/></g></g></g><g fill="#2c3152" fill-opacity="1"><g transform="translate(100.260284, 72.834332)"><g><path d="M 7.484375 -13.96875 C 8.609375 -13.96875 9.515625 -13.851562 10.203125 -13.625 C 10.898438 -13.40625 11.453125 -13.085938 11.859375 -12.671875 C 12.242188 -12.265625 12.503906 -11.816406 12.640625 -11.328125 C 12.785156 -10.835938 12.859375 -10.1875 12.859375 -9.375 L 12.859375 -3.875 C 12.859375 -2.101562 13.101562 -0.8125 13.59375 0 L 11.171875 0 C 10.941406 -0.476562 10.785156 -1.039062 10.703125 -1.6875 C 9.859375 -0.976562 9.035156 -0.46875 8.234375 -0.15625 C 7.429688 0.15625 6.601562 0.3125 5.75 0.3125 C 4.269531 0.3125 3.109375 -0.046875 2.265625 -0.765625 C 1.421875 -1.484375 1 -2.429688 1 -3.609375 C 1 -4.222656 1.140625 -4.816406 1.421875 -5.390625 C 1.703125 -5.960938 2.085938 -6.40625 2.578125 -6.71875 C 3.109375 -7.070312 3.644531 -7.328125 4.1875 -7.484375 C 4.726562 -7.640625 5.394531 -7.757812 6.1875 -7.84375 C 7.03125 -7.9375 7.867188 -8.054688 8.703125 -8.203125 C 9.535156 -8.359375 10.144531 -8.515625 10.53125 -8.671875 L 10.53125 -9.25 C 10.53125 -10.175781 10.28125 -10.875 9.78125 -11.34375 C 9.28125 -11.820312 8.425781 -12.0625 7.21875 -12.0625 C 6.070312 -12.0625 5.25 -11.859375 4.75 -11.453125 C 4.25 -11.054688 3.882812 -10.390625 3.65625 -9.453125 L 1.390625 -9.75 C 1.710938 -11.21875 2.378906 -12.285156 3.390625 -12.953125 C 4.398438 -13.628906 5.765625 -13.96875 7.484375 -13.96875 Z M 7.21875 -6.0625 C 6.320312 -5.914062 5.628906 -5.773438 5.140625 -5.640625 C 4.660156 -5.515625 4.265625 -5.296875 3.953125 -4.984375 C 3.640625 -4.679688 3.484375 -4.238281 3.484375 -3.65625 C 3.484375 -2.976562 3.734375 -2.445312 4.234375 -2.0625 C 4.734375 -1.6875 5.4375 -1.5 6.34375 -1.5 C 6.875 -1.5 7.445312 -1.609375 8.0625 -1.828125 C 8.675781 -2.046875 9.210938 -2.429688 9.671875 -2.984375 C 9.960938 -3.328125 10.175781 -3.71875 10.3125 -4.15625 C 10.457031 -4.601562 10.53125 -5.164062 10.53125 -5.84375 L 10.53125 -6.84375 C 9.832031 -6.5625 8.726562 -6.300781 7.21875 -6.0625 Z M 7.21875 -6.0625 "/></g></g></g><g fill="#2c3152" fill-opacity="1"><g transform="translate(114.8997, 72.834332)"><g/></g></g><g fill="#2c3152" fill-opacity="1"><g transform="translate(122.219408, 72.834332)"><g><path d="M 14.546875 -4.0625 L 14.546875 -18.859375 L 16.9375 -18.859375 L 16.9375 0 L 14.390625 0 L 4.484375 -14.8125 L 4.484375 0 L 2.078125 0 L 2.078125 -18.859375 L 4.640625 -18.859375 Z M 14.546875 -4.0625 "/></g></g></g><g fill="#2c3152" fill-opacity="1"><g transform="translate(141.229584, 72.834332)"><g><path d="M 7.40625 -13.96875 C 8.71875 -13.96875 9.84375 -13.65625 10.78125 -13.03125 C 11.726562 -12.40625 12.4375 -11.566406 12.90625 -10.515625 C 13.382812 -9.460938 13.625 -8.285156 13.625 -6.984375 L 13.625 -6.25 L 3.421875 -6.25 C 3.492188 -4.789062 3.90625 -3.648438 4.65625 -2.828125 C 5.414062 -2.015625 6.382812 -1.609375 7.5625 -1.609375 C 8.457031 -1.609375 9.195312 -1.84375 9.78125 -2.3125 C 10.375 -2.789062 10.828125 -3.488281 11.140625 -4.40625 L 13.546875 -4.109375 C 13.171875 -2.742188 12.46875 -1.664062 11.4375 -0.875 C 10.414062 -0.09375 9.160156 0.296875 7.671875 0.296875 C 5.578125 0.296875 3.945312 -0.316406 2.78125 -1.546875 C 1.613281 -2.773438 1.03125 -4.5 1.03125 -6.71875 C 1.03125 -8.195312 1.289062 -9.476562 1.8125 -10.5625 C 2.34375 -11.65625 3.085938 -12.492188 4.046875 -13.078125 C 5.003906 -13.671875 6.125 -13.96875 7.40625 -13.96875 Z M 3.5625 -8.171875 L 11.171875 -8.171875 C 11.117188 -9.460938 10.71875 -10.429688 9.96875 -11.078125 C 9.21875 -11.734375 8.363281 -12.0625 7.40625 -12.0625 C 6.3125 -12.0625 5.414062 -11.691406 4.71875 -10.953125 C 4.03125 -10.222656 3.644531 -9.296875 3.5625 -8.171875 Z M 3.5625 -8.171875 "/></g></g></g><g fill="#2c3152" fill-opacity="1"><g transform="translate(155.869, 72.834332)"><g><path d="M 6.765625 -13.96875 C 7.554688 -13.96875 8.335938 -13.71875 9.109375 -13.21875 L 8.328125 -11.09375 C 7.765625 -11.425781 7.175781 -11.59375 6.5625 -11.59375 C 5.6875 -11.59375 5.039062 -11.191406 4.625 -10.390625 C 4.207031 -9.585938 4 -8.554688 4 -7.296875 L 4 0 L 1.6875 0 L 1.6875 -13.640625 L 3.765625 -13.640625 L 3.765625 -11.59375 C 4.203125 -12.382812 4.632812 -12.976562 5.0625 -13.375 C 5.5 -13.769531 6.066406 -13.96875 6.765625 -13.96875 Z M 6.765625 -13.96875 "/></g></g></g><g fill="#2c3152" fill-opacity="1"><g transform="translate(164.636848, 72.834332)"><g><path d="M 5.578125 -5.84375 C 5.742188 -5.425781 5.972656 -4.722656 6.265625 -3.734375 L 6.609375 -2.71875 C 6.992188 -4.007812 7.273438 -4.867188 7.453125 -5.296875 L 10.484375 -13.640625 L 12.875 -13.640625 L 7.71875 0 L 5.53125 0 L 0.34375 -13.640625 L 2.796875 -13.640625 Z M 5.578125 -5.84375 "/></g></g></g><g fill="#2c3152" fill-opacity="1"><g transform="translate(177.801795, 72.834332)"><g><path d="M 7.328125 -13.96875 C 8.359375 -13.96875 9.359375 -13.738281 10.328125 -13.28125 C 11.304688 -12.820312 12.113281 -12.0625 12.75 -11 C 13.394531 -9.9375 13.71875 -8.546875 13.71875 -6.828125 C 13.71875 -5.296875 13.445312 -4 12.90625 -2.9375 C 12.363281 -1.875 11.609375 -1.066406 10.640625 -0.515625 C 9.671875 0.0234375 8.566406 0.296875 7.328125 0.296875 C 5.492188 0.296875 4 -0.273438 2.84375 -1.421875 C 1.5625 -2.671875 0.921875 -4.472656 0.921875 -6.828125 C 0.921875 -8.347656 1.191406 -9.644531 1.734375 -10.71875 C 2.285156 -11.789062 3.039062 -12.597656 4 -13.140625 C 4.96875 -13.691406 6.078125 -13.96875 7.328125 -13.96875 Z M 3.296875 -6.828125 C 3.296875 -5.171875 3.660156 -3.882812 4.390625 -2.96875 C 5.117188 -2.0625 6.097656 -1.609375 7.328125 -1.609375 C 8.535156 -1.609375 9.507812 -2.0625 10.25 -2.96875 C 10.988281 -3.875 11.359375 -5.160156 11.359375 -6.828125 C 11.359375 -8.441406 10.992188 -9.71875 10.265625 -10.65625 C 9.546875 -11.59375 8.554688 -12.0625 7.296875 -12.0625 C 6.097656 -12.0625 5.128906 -11.597656 4.390625 -10.671875 C 3.660156 -9.753906 3.296875 -8.472656 3.296875 -6.828125 Z M 3.296875 -6.828125 "/></g></g></g><g fill="#2c3152" fill-opacity="1"><g transform="translate(192.441211, 72.834332)"><g><path d="M 6.265625 -13.96875 C 7.816406 -13.96875 9.066406 -13.644531 10.015625 -13 C 10.960938 -12.363281 11.503906 -11.410156 11.640625 -10.140625 L 9.375 -9.828125 C 9.269531 -10.515625 8.976562 -11.054688 8.5 -11.453125 C 8.03125 -11.859375 7.332031 -12.0625 6.40625 -12.0625 C 5.46875 -12.0625 4.738281 -11.898438 4.21875 -11.578125 C 3.707031 -11.265625 3.453125 -10.832031 3.453125 -10.28125 C 3.453125 -9.882812 3.601562 -9.5625 3.90625 -9.3125 C 4.21875 -9.0625 4.582031 -8.867188 5 -8.734375 C 5.425781 -8.597656 6.066406 -8.425781 6.921875 -8.21875 C 8.035156 -7.957031 8.9375 -7.691406 9.625 -7.421875 C 10.320312 -7.160156 10.921875 -6.757812 11.421875 -6.21875 C 11.921875 -5.675781 12.171875 -4.945312 12.171875 -4.03125 C 12.171875 -3.238281 11.953125 -2.515625 11.515625 -1.859375 C 11.078125 -1.203125 10.445312 -0.675781 9.625 -0.28125 C 8.8125 0.101562 7.878906 0.296875 6.828125 0.296875 C 4.992188 0.296875 3.59375 -0.0625 2.625 -0.78125 C 1.664062 -1.507812 1.0625 -2.609375 0.8125 -4.078125 L 3.109375 -4.421875 C 3.234375 -3.492188 3.601562 -2.789062 4.21875 -2.3125 C 4.84375 -1.84375 5.648438 -1.609375 6.640625 -1.609375 C 7.640625 -1.609375 8.414062 -1.8125 8.96875 -2.21875 C 9.519531 -2.632812 9.796875 -3.148438 9.796875 -3.765625 C 9.796875 -4.347656 9.519531 -4.78125 8.96875 -5.0625 C 8.414062 -5.34375 7.566406 -5.613281 6.421875 -5.875 C 5.296875 -6.132812 4.394531 -6.390625 3.71875 -6.640625 C 3.050781 -6.898438 2.46875 -7.300781 1.96875 -7.84375 C 1.46875 -8.394531 1.21875 -9.125 1.21875 -10.03125 C 1.21875 -10.769531 1.410156 -11.4375 1.796875 -12.03125 C 2.191406 -12.632812 2.769531 -13.109375 3.53125 -13.453125 C 4.300781 -13.796875 5.210938 -13.96875 6.265625 -13.96875 Z M 6.265625 -13.96875 "/></g></g></g><g fill="#2c3152" fill-opacity="1"><g transform="translate(205.606158, 72.834332)"><g><path d="M 7.484375 -13.96875 C 8.609375 -13.96875 9.515625 -13.851562 10.203125 -13.625 C 10.898438 -13.40625 11.453125 -13.085938 11.859375 -12.671875 C 12.242188 -12.265625 12.503906 -11.816406 12.640625 -11.328125 C 12.785156 -10.835938 12.859375 -10.1875 12.859375 -9.375 L 12.859375 -3.875 C 12.859375 -2.101562 13.101562 -0.8125 13.59375 0 L 11.171875 0 C 10.941406 -0.476562 10.785156 -1.039062 10.703125 -1.6875 C 9.859375 -0.976562 9.035156 -0.46875 8.234375 -0.15625 C 7.429688 0.15625 6.601562 0.3125 5.75 0.3125 C 4.269531 0.3125 3.109375 -0.046875 2.265625 -0.765625 C 1.421875 -1.484375 1 -2.429688 1 -3.609375 C 1 -4.222656 1.140625 -4.816406 1.421875 -5.390625 C 1.703125 -5.960938 2.085938 -6.40625 2.578125 -6.71875 C 3.109375 -7.070312 3.644531 -7.328125 4.1875 -7.484375 C 4.726562 -7.640625 5.394531 -7.757812 6.1875 -7.84375 C 7.03125 -7.9375 7.867188 -8.054688 8.703125 -8.203125 C 9.535156 -8.359375 10.144531 -8.515625 10.53125 -8.671875 L 10.53125 -9.25 C 10.53125 -10.175781 10.28125 -10.875 9.78125 -11.34375 C 9.28125 -11.820312 8.425781 -12.0625 7.21875 -12.0625 C 6.070312 -12.0625 5.25 -11.859375 4.75 -11.453125 C 4.25 -11.054688 3.882812 -10.390625 3.65625 -9.453125 L 1.390625 -9.75 C 1.710938 -11.21875 2.378906 -12.285156 3.390625 -12.953125 C 4.398438 -13.628906 5.765625 -13.96875 7.484375 -13.96875 Z M 7.21875 -6.0625 C 6.320312 -5.914062 5.628906 -5.773438 5.140625 -5.640625 C 4.660156 -5.515625 4.265625 -5.296875 3.953125 -4.984375 C 3.640625 -4.679688 3.484375 -4.238281 3.484375 -3.65625 C 3.484375 -2.976562 3.734375 -2.445312 4.234375 -2.0625 C 4.734375 -1.6875 5.4375 -1.5 6.34375 -1.5 C 6.875 -1.5 7.445312 -1.609375 8.0625 -1.828125 C 8.675781 -2.046875 9.210938 -2.429688 9.671875 -2.984375 C 9.960938 -3.328125 10.175781 -3.71875 10.3125 -4.15625 C 10.457031 -4.601562 10.53125 -5.164062 10.53125 -5.84375 L 10.53125 -6.84375 C 9.832031 -6.5625 8.726562 -6.300781 7.21875 -6.0625 Z M 7.21875 -6.0625 "/></g></g></g></svg>