<?xml version="1.0" encoding="utf-8"?>
<!-- Generator: Adobe Illustrator 27.8.0, SVG Export Plug-In . SVG Version: 6.00 Build 0)  -->
<svg version="1.1" id="Layer_2_00000071528253565673317480000007336280263191448758_"
	 xmlns="http://www.w3.org/2000/svg" xmlns:xlink="http://www.w3.org/1999/xlink" x="0px" y="0px" viewBox="0 0 916.3 200.4"
	 style="enable-background:new 0 0 916.3 200.4;" xml:space="preserve">
<style type="text/css">
	.st0{clip-path:url(#SVGID_00000009585684821376125570000002010295604343954108_);}
	.st1{fill:#CCECEA;}
</style>
<g id="_Layer_">
	<g>
		<defs>
			<polygon id="SVGID_1_" points="-3,35.9 918,-14 918,201.5 -1.1,201.5 			"/>
		</defs>
		<clipPath id="SVGID_00000083770358418955051740000003262913357086151049_">
			<use xlink:href="#SVGID_1_"  style="overflow:visible;"/>
		</clipPath>
		<g style="clip-path:url(#SVGID_00000083770358418955051740000003262913357086151049_);">
			<path class="st1" d="M-48.5,87.9c2.8-8.1,9.5-27.5,28.5-36.8C20.2,31.3,85.7,71.7,114.6,87.9C220,147.3,379,190.5,499.2,180.8
				c124-10.1,278.4-82.4,325.3-129.6c5.6-5.6,33.4-34.8,79.3-46.4c15.5-3.9,29.6-7.5,44.7-3.3C993,13.8,1007,83.3,1004,129
				c0,0-3.3,51.3-33.3,94.4C856,388,94.2,353-15.6,206.3C-66.1,138.8-48.5,87.9-48.5,87.9z"/>
		</g>
	</g>
</g>
</svg>
