<?xml version="1.0" encoding="UTF-8"?>
<svg id="Layer_2" data-name="Layer 2" xmlns="http://www.w3.org/2000/svg" xmlns:xlink="http://www.w3.org/1999/xlink" viewBox="0 0 300 200" preserveAspectRatio="none">
  <defs>
    <style>
      .cls-1 {
        fill: none;
      }

      .cls-2 {
        clip-path: url(#clippath);
      }

      .cls-3 {
        fill: #d7e2f7;
      }
    </style>
    <clipPath id="clippath">
      <polygon class="cls-1" points="28.86 57.43 27.47 324.55 824.31 324.55 826.94 57.43 28.86 57.43"/>
    </clipPath>
  </defs>
  <g id="_Layer_" data-name="&amp;lt;Layer&amp;gt;">
    <g class="cls-2">
      <path class="cls-3" d="m47.38,302.12c9.71,6.32,25.99,13.29,85.39,8.76,86.68-6.61,143.6-28.69,179.8-39.17,111.32-32.24,220.85-11.08,383.17,20.28,0,0,140.38,27.12,145.16,9.61,1.36-5-8.42-22.06-7.35-22.77,0,0,0,0,0,0,16.73-165.59,20.33-201.42,20.33-201.6,0,0,0,0,0,0-1.99-19.08-3.51-31.12-12.98-41.39-23.16-25.11-71.17-15.02-89.65-11.74-69.21,12.27-50.61-13.2-239.08-21.35-195.85-8.47-168.28,21.09-302.05,7.47C130.9,2.15,69.79-13.45,33.2,23.74,16.85,40.37,13.43,59.37,7,95.14c-3.9,21.68-27.12,163.03,40.39,206.98Z"/>
    </g>
  </g>
</svg>