<?xml version="1.0" encoding="utf-8"?>
<!-- Generator: Adobe Illustrator 27.8.0, SVG Export Plug-In . SVG Version: 6.00 Build 0)  -->
<svg version="1.1" id="Layer_2_00000033343766641711587220000016106728011566694557_"
	 xmlns="http://www.w3.org/2000/svg" xmlns:xlink="http://www.w3.org/1999/xlink" x="0px" y="0px" viewBox="0 0 1036.6 126.6"
	 style="enable-background:new 0 0 1036.6 126.6;" xml:space="preserve">
<style type="text/css">
	.st0{fill:none;}
	.st1{clip-path:url(#SVGID_00000057865836296936516080000007094216820987303099_);}
	.st2{fill:url(#SVGID_00000181792826032315080950000007135194464348474273_);}
	.st3{clip-path:url(#SVGID_00000165939280399983262010000008869395424385721018_);}
	.st4{opacity:0.49;fill:url(#SVGID_00000034786184537461756840000006695225373495601580_);enable-background:new    ;}
</style>
<pattern  y="126.6" width="375" height="376" patternUnits="userSpaceOnUse" id="Unnamed_Pattern" viewBox="82.5 -458.5 375 376" style="overflow:visible;">
	<g>
		<rect x="82.5" y="-458.5" class="st0" width="375" height="376"/>
		<g>
			<rect x="82.5" y="-458.5" class="st0" width="375" height="376"/>
			<g>
				<defs>
					<rect id="SVGID_1_" x="82.5" y="-458.5" width="375" height="376"/>
				</defs>
				<clipPath id="SVGID_00000053518591558991903070000012683705706424838843_">
					<use xlink:href="#SVGID_1_"  style="overflow:visible;"/>
				</clipPath>
				<g style="clip-path:url(#SVGID_00000053518591558991903070000012683705706424838843_);">
					<g>
						
							<radialGradient id="SVGID_00000006666309328467891350000004719904262639692938_" cx="13907.6289" cy="-17978.5703" r="1" gradientTransform="matrix(1.623698e-14 -265.17 265.17 1.623698e-14 4767605.5 3687577.5)" gradientUnits="userSpaceOnUse">
							<stop  offset="0" style="stop-color:#FBB88B"/>
							<stop  offset="0.5" style="stop-color:#FAB88A"/>
							<stop  offset="1" style="stop-color:#FAB88A"/>
						</radialGradient>
						<rect y="-540" style="fill:url(#SVGID_00000006666309328467891350000004719904262639692938_);" width="540" height="540"/>
					</g>
				</g>
			</g>
		</g>
	</g>
</pattern>
<g id="_Layer_">
	<g>
		<defs>
			<polygon id="SVGID_00000175310830849471786130000015342630001624491666_" points="0,-543.1 213.5,-564.7 636.5,-536.5 
				925.4,-508.5 1028,-508.5 1041,-508.5 1039,61.3 276.4,90.8 94.1,115.7 0,126.6 			"/>
		</defs>
		<clipPath id="SVGID_00000178905327941334774180000001098302231194318779_">
			<use xlink:href="#SVGID_00000175310830849471786130000015342630001624491666_"  style="overflow:visible;"/>
		</clipPath>
		<g style="clip-path:url(#SVGID_00000178905327941334774180000001098302231194318779_);">
			
				<pattern  id="SVGID_00000061430034841894125520000015243392988661965440_" xlink:href="#Unnamed_Pattern" patternTransform="matrix(0.55 0 0 0.55 -3081.4348 -1709.533)">
			</pattern>
			
				<path style="opacity:0.49;fill:url(#SVGID_00000061430034841894125520000015243392988661965440_);enable-background:new    ;" d="
				M-109-1.2C-83.3,68-50.6,116.6-19.6,119.1c16.1,1.3,27.6,1.5,51.5-2.1C61,112.5,373,46,432,34.6c30.7-6,261.8-50.8,412-11.7
				c0,0,111,28.9,237.1,21.3c0,0,0.5,0,1.6-0.2c19.2-2.9,37.6-19.5,53.6-45.2H-109z"/>
		</g>
	</g>
</g>
</svg>
