<?xml version="1.0" encoding="UTF-8"?><svg id="Layer_2" xmlns="http://www.w3.org/2000/svg" xmlns:xlink="http://www.w3.org/1999/xlink" viewBox="0 0 1347.33 691.28"><defs><style>.cls-1{clip-path:url(#clippath);}.cls-2{fill:none;}.cls-2,.cls-3,.cls-4{stroke-width:0px;}.cls-3{fill:url(#radial-gradient);}.cls-5{clip-path:url(#clippath-1);}.cls-4{fill:url(#Unnamed_Pattern);isolation:isolate;opacity:.49;}</style><clipPath id="clippath"><polygon class="cls-2" points="156.24 21.59 369.78 0 792.72 28.17 1081.59 56.12 1184.26 56.12 1197.24 56.12 1195.23 626 432.67 655.49 250.3 680.31 156.24 691.28 156.24 21.59"/></clipPath><clipPath id="clippath-1"><rect class="cls-2" width="375" height="376"/></clipPath><radialGradient id="radial-gradient" cx="13825.13" cy="-17520.11" fx="13825.13" fy="-17520.11" r="1" gradientTransform="translate(4645952.92 3666159.41) rotate(-90) scale(265.17)" gradientUnits="userSpaceOnUse"><stop offset="0" stop-color="#fbb88b"/><stop offset=".5" stop-color="#fab88a"/><stop offset="1" stop-color="#fab88a"/></radialGradient><pattern id="Unnamed_Pattern" x="0" y="0" width="375" height="376" patternTransform="translate(-2962.32 -811.95) scale(.55)" patternUnits="userSpaceOnUse" viewBox="0 0 375 376"><rect class="cls-2" width="375" height="376"/><rect class="cls-2" width="375" height="376"/><g class="cls-5"><rect class="cls-3" x="-82.5" y="-81.54" width="540" height="540"/></g></pattern></defs><g id="_Layer_"><g class="cls-1"><path class="cls-4" d="m266.32,26.99c45.64-6.36,92.22-11.07,147.87-9.89,4.35.09,16.75.22,33.67,1.38,34.52,2.38,67.12,7.83,139.91,18.4h0s154.73,23.42,285.01,37.92c223.49,24.88,274.82-25.84,354.77,11.64,196.7,92.2,114.94,506.31,11.35,522.21-1.12.17-1.62.18-1.62.18-126.13,7.57-237.1-21.3-237.1-21.3-150.21-39.08-381.32,5.75-411.98,11.7-58.96,11.44-370.92,77.94-400.05,82.36-23.85,3.62-35.36,3.44-51.47,2.13C31.48,675.2-93.78,137.18,105.6,56.66c27.48-11.09,73.57-17.52,160.72-29.68h0Z"/></g></g></svg>