<svg xmlns="http://www.w3.org/2000/svg" xmlns:xlink="http://www.w3.org/1999/xlink" width="500" zoomAndPan="magnify" viewBox="0 0 375 374.999991" height="500" preserveAspectRatio="xMidYMid meet" version="1.0"><defs><g/><clipPath id="b1986e999f"><path d="M 0 187.5 C 0 291.054688 83.945312 375 187.5 375 C 291.054688 375 375 291.054688 375 187.5 C 375 83.945312 291.054688 0 187.5 0 C 83.945312 0 0 83.945312 0 187.5 Z M 0 187.5 " clip-rule="nonzero"/></clipPath></defs><g clip-path="url(#b1986e999f)"><rect x="-37.5" width="450" fill="#ccecea" y="-37.499999" height="449.999989" fill-opacity="1"/></g><g fill="#2c3152" fill-opacity="1"><g transform="translate(83.965317, 138.01921)"><g><path d="M 22.9375 -14.390625 C 23.832031 -11.710938 24.429688 -9.875 24.734375 -8.875 C 25.003906 -7.9375 25.195312 -7.234375 25.3125 -6.765625 L 25.4375 -6.765625 C 25.550781 -7.117188 25.878906 -8.132812 26.421875 -9.8125 L 27.71875 -13.6875 L 37.734375 -42.953125 L 45.53125 -42.953125 L 45.53125 0 L 40.140625 0 L 40.140625 -35.953125 L 40.015625 -35.953125 L 27.65625 0 L 22.5625 0 L 10.25 -36.53125 L 10.078125 -36.53125 L 10.078125 0 L 4.6875 0 L 4.6875 -42.953125 L 13.390625 -42.953125 Z M 22.9375 -14.390625 "/></g></g><g transform="translate(134.180157, 138.01921)"><g><path d="M 17 -3.609375 C 18.988281 -3.609375 20.707031 -4.191406 22.15625 -5.359375 C 23.613281 -6.535156 24.628906 -8.085938 25.203125 -10.015625 L 30.359375 -9.234375 C 29.472656 -6.085938 27.820312 -3.640625 25.40625 -1.890625 C 23 -0.140625 20.109375 0.734375 16.734375 0.734375 C 13.765625 0.734375 11.179688 0.0820312 8.984375 -1.21875 C 6.785156 -2.53125 5.085938 -4.394531 3.890625 -6.8125 C 2.703125 -9.226562 2.109375 -12.054688 2.109375 -15.296875 C 2.109375 -18.628906 2.691406 -21.535156 3.859375 -24.015625 C 5.035156 -26.503906 6.722656 -28.421875 8.921875 -29.765625 C 11.117188 -31.109375 13.703125 -31.78125 16.671875 -31.78125 C 19.546875 -31.78125 22.046875 -31.140625 24.171875 -29.859375 C 26.296875 -28.585938 27.9375 -26.710938 29.09375 -24.234375 C 30.25 -21.753906 30.828125 -18.773438 30.828125 -15.296875 L 30.828125 -14.203125 L 7.5625 -14.203125 C 7.675781 -11.984375 8.132812 -10.078125 8.9375 -8.484375 C 9.738281 -6.890625 10.828125 -5.675781 12.203125 -4.84375 C 13.578125 -4.019531 15.175781 -3.609375 17 -3.609375 Z M 16.609375 -27.484375 C 15.046875 -27.484375 13.640625 -27.109375 12.390625 -26.359375 C 11.140625 -25.617188 10.109375 -24.578125 9.296875 -23.234375 C 8.492188 -21.890625 7.972656 -20.328125 7.734375 -18.546875 L 25.25 -18.546875 C 24.9375 -21.421875 24.03125 -23.628906 22.53125 -25.171875 C 21.039062 -26.710938 19.066406 -27.484375 16.609375 -27.484375 Z M 16.609375 -27.484375 "/></g></g><g transform="translate(167.051249, 138.01921)"><g><path d="M 30.234375 0 L 25.3125 0 L 25.3125 -3.953125 L 25.203125 -3.953125 C 24.265625 -2.523438 22.953125 -1.382812 21.265625 -0.53125 C 19.585938 0.3125 17.832031 0.734375 16 0.734375 C 13.300781 0.734375 10.894531 0.0546875 8.78125 -1.296875 C 6.675781 -2.660156 5.035156 -4.570312 3.859375 -7.03125 C 2.691406 -9.488281 2.109375 -12.320312 2.109375 -15.53125 C 2.109375 -18.851562 2.65625 -21.734375 3.75 -24.171875 C 4.84375 -26.609375 6.398438 -28.484375 8.421875 -29.796875 C 10.441406 -31.117188 12.8125 -31.78125 15.53125 -31.78125 C 17.539062 -31.78125 19.296875 -31.425781 20.796875 -30.71875 C 22.304688 -30.019531 23.65625 -28.960938 24.84375 -27.546875 L 24.96875 -27.546875 L 24.96875 -42.953125 L 30.234375 -42.953125 Z M 16.03125 -27.484375 C 14.25 -27.484375 12.71875 -26.992188 11.4375 -26.015625 C 10.15625 -25.035156 9.175781 -23.640625 8.5 -21.828125 C 7.832031 -20.023438 7.5 -17.914062 7.5 -15.5 C 7.5 -12.957031 7.875 -10.789062 8.625 -9 C 9.375 -7.21875 10.410156 -5.875 11.734375 -4.96875 C 13.066406 -4.0625 14.601562 -3.609375 16.34375 -3.609375 C 18.21875 -3.609375 19.828125 -4.078125 21.171875 -5.015625 C 22.523438 -5.953125 23.550781 -7.285156 24.25 -9.015625 C 24.957031 -10.742188 25.3125 -12.769531 25.3125 -15.09375 C 25.3125 -17.664062 24.929688 -19.878906 24.171875 -21.734375 C 23.410156 -23.585938 22.332031 -25.007812 20.9375 -26 C 19.539062 -26.988281 17.90625 -27.484375 16.03125 -27.484375 Z M 16.03125 -27.484375 "/></g></g><g transform="translate(201.357887, 138.01921)"><g><path d="M 9.34375 -36.96875 L 4.078125 -36.96875 L 4.078125 -42.953125 L 9.34375 -42.953125 Z M 9.34375 0 L 4.078125 0 L 4.078125 -31.078125 L 9.34375 -31.078125 Z M 9.34375 0 "/></g></g><g transform="translate(214.775855, 138.01921)"><g><path d="M 17.078125 -27.453125 C 14.015625 -27.453125 11.648438 -26.414062 9.984375 -24.34375 C 8.328125 -22.269531 7.5 -19.351562 7.5 -15.59375 C 7.5 -13.25 7.867188 -11.171875 8.609375 -9.359375 C 9.359375 -7.554688 10.4375 -6.144531 11.84375 -5.125 C 13.25 -4.113281 14.894531 -3.609375 16.78125 -3.609375 C 19.03125 -3.609375 20.878906 -4.300781 22.328125 -5.6875 C 23.773438 -7.070312 24.671875 -8.972656 25.015625 -11.390625 L 30.234375 -10.609375 C 29.898438 -8.304688 29.097656 -6.296875 27.828125 -4.578125 C 26.554688 -2.867188 24.941406 -1.554688 22.984375 -0.640625 C 21.035156 0.273438 18.898438 0.734375 16.578125 0.734375 C 13.710938 0.734375 11.1875 0.078125 9 -1.234375 C 6.8125 -2.554688 5.113281 -4.4375 3.90625 -6.875 C 2.707031 -9.320312 2.109375 -12.195312 2.109375 -15.5 C 2.109375 -18.976562 2.707031 -21.9375 3.90625 -24.375 C 5.113281 -26.8125 6.816406 -28.65625 9.015625 -29.90625 C 11.222656 -31.15625 13.832031 -31.78125 16.84375 -31.78125 C 19.050781 -31.78125 21.0625 -31.394531 22.875 -30.625 C 24.695312 -29.851562 26.195312 -28.726562 27.375 -27.25 C 28.5625 -25.78125 29.335938 -24.019531 29.703125 -21.96875 L 24.609375 -21.21875 C 24.117188 -23.1875 23.207031 -24.71875 21.875 -25.8125 C 20.550781 -26.90625 18.953125 -27.453125 17.078125 -27.453125 Z M 17.078125 -27.453125 "/></g></g><g transform="translate(246.211399, 138.01921)"><g><path d="M 29.09375 0 L 23.578125 0 C 23.265625 -0.664062 23.050781 -1.203125 22.9375 -1.609375 C 22.820312 -2.023438 22.675781 -2.769531 22.5 -3.84375 C 21 -2.238281 19.40625 -1.070312 17.71875 -0.34375 C 16.039062 0.375 14.117188 0.734375 11.953125 0.734375 C 10.003906 0.734375 8.28125 0.359375 6.78125 -0.390625 C 5.289062 -1.148438 4.140625 -2.207031 3.328125 -3.5625 C 2.515625 -4.914062 2.109375 -6.472656 2.109375 -8.234375 C 2.109375 -10.910156 2.976562 -13.039062 4.71875 -14.625 C 6.457031 -16.207031 9.316406 -17.300781 13.296875 -17.90625 C 17.441406 -18.53125 20.394531 -19.125 22.15625 -19.6875 L 22.15625 -20.515625 C 22.15625 -22.242188 21.925781 -23.613281 21.46875 -24.625 C 21.019531 -25.632812 20.300781 -26.363281 19.3125 -26.8125 C 18.332031 -27.257812 17.003906 -27.484375 15.328125 -27.484375 C 13.210938 -27.484375 11.546875 -27.003906 10.328125 -26.046875 C 9.109375 -25.085938 8.300781 -23.582031 7.90625 -21.53125 L 2.75 -22.328125 C 3.375 -25.472656 4.773438 -27.832031 6.953125 -29.40625 C 9.128906 -30.988281 12.015625 -31.78125 15.609375 -31.78125 C 18.367188 -31.78125 20.609375 -31.429688 22.328125 -30.734375 C 24.046875 -30.046875 25.320312 -28.914062 26.15625 -27.34375 C 27 -25.769531 27.421875 -23.65625 27.421875 -21 L 27.421875 -9.84375 C 27.421875 -7.90625 27.460938 -6.410156 27.546875 -5.359375 C 27.640625 -4.304688 27.796875 -3.398438 28.015625 -2.640625 C 28.242188 -1.878906 28.601562 -1 29.09375 0 Z M 13.53125 -13.484375 C 11.445312 -13.109375 9.921875 -12.488281 8.953125 -11.625 C 7.984375 -10.769531 7.5 -9.640625 7.5 -8.234375 C 7.5 -6.734375 7.984375 -5.554688 8.953125 -4.703125 C 9.921875 -3.847656 11.3125 -3.421875 13.125 -3.421875 C 14.644531 -3.421875 16.238281 -3.910156 17.90625 -4.890625 C 19.050781 -5.578125 19.921875 -6.316406 20.515625 -7.109375 C 21.117188 -7.898438 21.539062 -8.859375 21.78125 -9.984375 C 22.03125 -11.117188 22.15625 -12.597656 22.15625 -14.421875 L 22.15625 -15.53125 C 21.6875 -15.3125 20.625 -15.003906 18.96875 -14.609375 C 17.320312 -14.222656 15.507812 -13.847656 13.53125 -13.484375 Z M 13.53125 -13.484375 "/></g></g><g transform="translate(277.58835, 138.01921)"><g><path d="M 9.34375 0 L 4.078125 0 L 4.078125 -42.953125 L 9.34375 -42.953125 Z M 9.34375 0 "/></g></g></g><g fill="#2c3152" fill-opacity="1"><g transform="translate(21.949696, 210.019205)"><g><path d="M 35.21875 -30.359375 C 35.21875 -27.503906 34.585938 -25.078125 33.328125 -23.078125 C 32.066406 -21.085938 30.253906 -19.582031 27.890625 -18.5625 C 25.523438 -17.550781 22.703125 -17.046875 19.421875 -17.046875 L 10.375 -17.046875 L 10.375 0 L 4.6875 0 L 4.6875 -42.953125 L 19.578125 -42.953125 C 24.609375 -42.953125 28.472656 -41.878906 31.171875 -39.734375 C 33.867188 -37.597656 35.21875 -34.472656 35.21875 -30.359375 Z M 29.328125 -30.171875 C 29.328125 -32.804688 28.515625 -34.742188 26.890625 -35.984375 C 25.273438 -37.234375 22.765625 -37.859375 19.359375 -37.859375 L 10.375 -37.859375 L 10.375 -22.15625 L 19.453125 -22.15625 C 22.773438 -22.15625 25.25 -22.816406 26.875 -24.140625 C 28.507812 -25.472656 29.328125 -27.484375 29.328125 -30.171875 Z M 29.328125 -30.171875 "/></g></g><g transform="translate(59.215319, 210.019205)"><g><path d="M 16.265625 -26.390625 C 14.015625 -26.390625 12.296875 -25.523438 11.109375 -23.796875 C 9.929688 -22.078125 9.34375 -19.671875 9.34375 -16.578125 L 9.34375 0 L 4.078125 0 L 4.078125 -31.078125 L 9 -31.078125 L 9 -26.390625 C 10.144531 -28.347656 11.3125 -29.734375 12.5 -30.546875 C 13.695312 -31.367188 15.132812 -31.78125 16.8125 -31.78125 C 17.75 -31.78125 18.625 -31.664062 19.4375 -31.4375 C 20.25 -31.21875 21.078125 -30.859375 21.921875 -30.359375 L 20.09375 -25.484375 C 18.96875 -26.085938 17.691406 -26.390625 16.265625 -26.390625 Z M 16.265625 -26.390625 "/></g></g><g transform="translate(80.865708, 210.019205)"><g><path d="M 29.09375 0 L 23.578125 0 C 23.265625 -0.664062 23.050781 -1.203125 22.9375 -1.609375 C 22.820312 -2.023438 22.675781 -2.769531 22.5 -3.84375 C 21 -2.238281 19.40625 -1.070312 17.71875 -0.34375 C 16.039062 0.375 14.117188 0.734375 11.953125 0.734375 C 10.003906 0.734375 8.28125 0.359375 6.78125 -0.390625 C 5.289062 -1.148438 4.140625 -2.207031 3.328125 -3.5625 C 2.515625 -4.914062 2.109375 -6.472656 2.109375 -8.234375 C 2.109375 -10.910156 2.976562 -13.039062 4.71875 -14.625 C 6.457031 -16.207031 9.316406 -17.300781 13.296875 -17.90625 C 17.441406 -18.53125 20.394531 -19.125 22.15625 -19.6875 L 22.15625 -20.515625 C 22.15625 -22.242188 21.925781 -23.613281 21.46875 -24.625 C 21.019531 -25.632812 20.300781 -26.363281 19.3125 -26.8125 C 18.332031 -27.257812 17.003906 -27.484375 15.328125 -27.484375 C 13.210938 -27.484375 11.546875 -27.003906 10.328125 -26.046875 C 9.109375 -25.085938 8.300781 -23.582031 7.90625 -21.53125 L 2.75 -22.328125 C 3.375 -25.472656 4.773438 -27.832031 6.953125 -29.40625 C 9.128906 -30.988281 12.015625 -31.78125 15.609375 -31.78125 C 18.367188 -31.78125 20.609375 -31.429688 22.328125 -30.734375 C 24.046875 -30.046875 25.320312 -28.914062 26.15625 -27.34375 C 27 -25.769531 27.421875 -23.65625 27.421875 -21 L 27.421875 -9.84375 C 27.421875 -7.90625 27.460938 -6.410156 27.546875 -5.359375 C 27.640625 -4.304688 27.796875 -3.398438 28.015625 -2.640625 C 28.242188 -1.878906 28.601562 -1 29.09375 0 Z M 13.53125 -13.484375 C 11.445312 -13.109375 9.921875 -12.488281 8.953125 -11.625 C 7.984375 -10.769531 7.5 -9.640625 7.5 -8.234375 C 7.5 -6.734375 7.984375 -5.554688 8.953125 -4.703125 C 9.921875 -3.847656 11.3125 -3.421875 13.125 -3.421875 C 14.644531 -3.421875 16.238281 -3.910156 17.90625 -4.890625 C 19.050781 -5.578125 19.921875 -6.316406 20.515625 -7.109375 C 21.117188 -7.898438 21.539062 -8.859375 21.78125 -9.984375 C 22.03125 -11.117188 22.15625 -12.597656 22.15625 -14.421875 L 22.15625 -15.53125 C 21.6875 -15.3125 20.625 -15.003906 18.96875 -14.609375 C 17.320312 -14.222656 15.507812 -13.847656 13.53125 -13.484375 Z M 13.53125 -13.484375 "/></g></g><g transform="translate(112.242659, 210.019205)"><g><path d="M 17.078125 -27.453125 C 14.015625 -27.453125 11.648438 -26.414062 9.984375 -24.34375 C 8.328125 -22.269531 7.5 -19.351562 7.5 -15.59375 C 7.5 -13.25 7.867188 -11.171875 8.609375 -9.359375 C 9.359375 -7.554688 10.4375 -6.144531 11.84375 -5.125 C 13.25 -4.113281 14.894531 -3.609375 16.78125 -3.609375 C 19.03125 -3.609375 20.878906 -4.300781 22.328125 -5.6875 C 23.773438 -7.070312 24.671875 -8.972656 25.015625 -11.390625 L 30.234375 -10.609375 C 29.898438 -8.304688 29.097656 -6.296875 27.828125 -4.578125 C 26.554688 -2.867188 24.941406 -1.554688 22.984375 -0.640625 C 21.035156 0.273438 18.898438 0.734375 16.578125 0.734375 C 13.710938 0.734375 11.1875 0.078125 9 -1.234375 C 6.8125 -2.554688 5.113281 -4.4375 3.90625 -6.875 C 2.707031 -9.320312 2.109375 -12.195312 2.109375 -15.5 C 2.109375 -18.976562 2.707031 -21.9375 3.90625 -24.375 C 5.113281 -26.8125 6.816406 -28.65625 9.015625 -29.90625 C 11.222656 -31.15625 13.832031 -31.78125 16.84375 -31.78125 C 19.050781 -31.78125 21.0625 -31.394531 22.875 -30.625 C 24.695312 -29.851562 26.195312 -28.726562 27.375 -27.25 C 28.5625 -25.78125 29.335938 -24.019531 29.703125 -21.96875 L 24.609375 -21.21875 C 24.117188 -23.1875 23.207031 -24.71875 21.875 -25.8125 C 20.550781 -26.90625 18.953125 -27.453125 17.078125 -27.453125 Z M 17.078125 -27.453125 "/></g></g><g transform="translate(143.678203, 210.019205)"><g><path d="M 10.140625 -31.078125 L 16.03125 -31.078125 L 16.03125 -27.015625 L 10.140625 -27.015625 L 10.140625 -8.171875 C 10.140625 -7.023438 10.238281 -6.164062 10.4375 -5.59375 C 10.644531 -5.03125 10.953125 -4.65625 11.359375 -4.46875 C 11.773438 -4.28125 12.34375 -4.1875 13.0625 -4.1875 C 13.769531 -4.1875 14.757812 -4.316406 16.03125 -4.578125 L 16.734375 -0.171875 C 15.222656 0.179688 13.707031 0.359375 12.1875 0.359375 C 10.289062 0.359375 8.828125 0.0820312 7.796875 -0.46875 C 6.773438 -1.03125 6.019531 -1.859375 5.53125 -2.953125 C 5.082031 -4.015625 4.859375 -5.921875 4.859375 -8.671875 L 4.859375 -27.015625 L 0.40625 -27.015625 L 0.40625 -31.078125 L 4.859375 -31.078125 L 4.859375 -38.234375 L 10.140625 -42.015625 Z M 10.140625 -31.078125 "/></g></g><g transform="translate(161.13914, 210.019205)"><g><path d="M 9.34375 -36.96875 L 4.078125 -36.96875 L 4.078125 -42.953125 L 9.34375 -42.953125 Z M 9.34375 0 L 4.078125 0 L 4.078125 -31.078125 L 9.34375 -31.078125 Z M 9.34375 0 "/></g></g><g transform="translate(174.557108, 210.019205)"><g><path d="M 10.140625 -31.078125 L 16.03125 -31.078125 L 16.03125 -27.015625 L 10.140625 -27.015625 L 10.140625 -8.171875 C 10.140625 -7.023438 10.238281 -6.164062 10.4375 -5.59375 C 10.644531 -5.03125 10.953125 -4.65625 11.359375 -4.46875 C 11.773438 -4.28125 12.34375 -4.1875 13.0625 -4.1875 C 13.769531 -4.1875 14.757812 -4.316406 16.03125 -4.578125 L 16.734375 -0.171875 C 15.222656 0.179688 13.707031 0.359375 12.1875 0.359375 C 10.289062 0.359375 8.828125 0.0820312 7.796875 -0.46875 C 6.773438 -1.03125 6.019531 -1.859375 5.53125 -2.953125 C 5.082031 -4.015625 4.859375 -5.921875 4.859375 -8.671875 L 4.859375 -27.015625 L 0.40625 -27.015625 L 0.40625 -31.078125 L 4.859375 -31.078125 L 4.859375 -38.234375 L 10.140625 -42.015625 Z M 10.140625 -31.078125 "/></g></g><g transform="translate(192.018044, 210.019205)"><g><path d="M 9.34375 -36.96875 L 4.078125 -36.96875 L 4.078125 -42.953125 L 9.34375 -42.953125 Z M 9.34375 0 L 4.078125 0 L 4.078125 -31.078125 L 9.34375 -31.078125 Z M 9.34375 0 "/></g></g><g transform="translate(205.436012, 210.019205)"><g><path d="M 2.109375 -15.53125 C 2.109375 -18.90625 2.710938 -21.8125 3.921875 -24.25 C 5.140625 -26.695312 6.84375 -28.5625 9.03125 -29.84375 C 11.226562 -31.132812 13.773438 -31.78125 16.671875 -31.78125 C 19.578125 -31.78125 22.125 -31.15625 24.3125 -29.90625 C 26.5 -28.65625 28.203125 -26.816406 29.421875 -24.390625 C 30.648438 -21.960938 31.265625 -19.03125 31.265625 -15.59375 C 31.265625 -12.164062 30.644531 -9.226562 29.40625 -6.78125 C 28.175781 -4.332031 26.460938 -2.46875 24.265625 -1.1875 C 22.078125 0.09375 19.546875 0.734375 16.671875 0.734375 C 13.816406 0.734375 11.296875 0.113281 9.109375 -1.125 C 6.921875 -2.363281 5.207031 -4.203125 3.96875 -6.640625 C 2.726562 -9.085938 2.109375 -12.050781 2.109375 -15.53125 Z M 16.640625 -27.453125 C 14.878906 -27.453125 13.3125 -27 11.9375 -26.09375 C 10.5625 -25.1875 9.476562 -23.835938 8.6875 -22.046875 C 7.894531 -20.253906 7.5 -18.082031 7.5 -15.53125 C 7.5 -12.96875 7.890625 -10.789062 8.671875 -9 C 9.453125 -7.21875 10.53125 -5.875 11.90625 -4.96875 C 13.28125 -4.0625 14.867188 -3.609375 16.671875 -3.609375 C 18.523438 -3.609375 20.144531 -4.078125 21.53125 -5.015625 C 22.914062 -5.953125 23.984375 -7.316406 24.734375 -9.109375 C 25.492188 -10.910156 25.875 -13.070312 25.875 -15.59375 C 25.875 -18.125 25.484375 -20.28125 24.703125 -22.0625 C 23.921875 -23.84375 22.832031 -25.1875 21.4375 -26.09375 C 20.050781 -27 18.453125 -27.453125 16.640625 -27.453125 Z M 16.640625 -27.453125 "/></g></g><g transform="translate(238.80515, 210.019205)"><g><path d="M 24.140625 0 L 24.140625 -20.328125 C 24.140625 -22.597656 23.570312 -24.316406 22.4375 -25.484375 C 21.3125 -26.660156 19.710938 -27.25 17.640625 -27.25 C 15.023438 -27.25 12.988281 -26.457031 11.53125 -24.875 C 10.070312 -23.289062 9.34375 -20.769531 9.34375 -17.3125 L 9.34375 0 L 4.078125 0 L 4.078125 -31.078125 L 9 -31.078125 L 9 -26.75 C 10.03125 -28.3125 11.367188 -29.539062 13.015625 -30.4375 C 14.671875 -31.332031 16.503906 -31.78125 18.515625 -31.78125 C 22.109375 -31.78125 24.820312 -30.851562 26.65625 -29 C 28.5 -27.144531 29.421875 -24.488281 29.421875 -21.03125 L 29.421875 0 Z M 24.140625 0 "/></g></g><g transform="translate(272.174289, 210.019205)"><g><path d="M 17 -3.609375 C 18.988281 -3.609375 20.707031 -4.191406 22.15625 -5.359375 C 23.613281 -6.535156 24.628906 -8.085938 25.203125 -10.015625 L 30.359375 -9.234375 C 29.472656 -6.085938 27.820312 -3.640625 25.40625 -1.890625 C 23 -0.140625 20.109375 0.734375 16.734375 0.734375 C 13.765625 0.734375 11.179688 0.0820312 8.984375 -1.21875 C 6.785156 -2.53125 5.085938 -4.394531 3.890625 -6.8125 C 2.703125 -9.226562 2.109375 -12.054688 2.109375 -15.296875 C 2.109375 -18.628906 2.691406 -21.535156 3.859375 -24.015625 C 5.035156 -26.503906 6.722656 -28.421875 8.921875 -29.765625 C 11.117188 -31.109375 13.703125 -31.78125 16.671875 -31.78125 C 19.546875 -31.78125 22.046875 -31.140625 24.171875 -29.859375 C 26.296875 -28.585938 27.9375 -26.710938 29.09375 -24.234375 C 30.25 -21.753906 30.828125 -18.773438 30.828125 -15.296875 L 30.828125 -14.203125 L 7.5625 -14.203125 C 7.675781 -11.984375 8.132812 -10.078125 8.9375 -8.484375 C 9.738281 -6.890625 10.828125 -5.675781 12.203125 -4.84375 C 13.578125 -4.019531 15.175781 -3.609375 17 -3.609375 Z M 16.609375 -27.484375 C 15.046875 -27.484375 13.640625 -27.109375 12.390625 -26.359375 C 11.140625 -25.617188 10.109375 -24.578125 9.296875 -23.234375 C 8.492188 -21.890625 7.972656 -20.328125 7.734375 -18.546875 L 25.25 -18.546875 C 24.9375 -21.421875 24.03125 -23.628906 22.53125 -25.171875 C 21.039062 -26.710938 19.066406 -27.484375 16.609375 -27.484375 Z M 16.609375 -27.484375 "/></g></g><g transform="translate(305.04538, 210.019205)"><g><path d="M 16.265625 -26.390625 C 14.015625 -26.390625 12.296875 -25.523438 11.109375 -23.796875 C 9.929688 -22.078125 9.34375 -19.671875 9.34375 -16.578125 L 9.34375 0 L 4.078125 0 L 4.078125 -31.078125 L 9 -31.078125 L 9 -26.390625 C 10.144531 -28.347656 11.3125 -29.734375 12.5 -30.546875 C 13.695312 -31.367188 15.132812 -31.78125 16.8125 -31.78125 C 17.75 -31.78125 18.625 -31.664062 19.4375 -31.4375 C 20.25 -31.21875 21.078125 -30.859375 21.921875 -30.359375 L 20.09375 -25.484375 C 18.96875 -26.085938 17.691406 -26.390625 16.265625 -26.390625 Z M 16.265625 -26.390625 "/></g></g></g><g fill="#2c3152" fill-opacity="1"><g transform="translate(326.695774, 210.019205)"><g/></g><g transform="translate(343.189913, 210.019205)"><g/></g></g><g fill="#2c3152" fill-opacity="1"><g transform="translate(72.173098, 266.372678)"><g><path d="M 8.40625 -5.28125 C 8.738281 -4.289062 8.957031 -3.613281 9.0625 -3.25 C 9.164062 -2.90625 9.238281 -2.648438 9.28125 -2.484375 L 9.328125 -2.484375 C 9.367188 -2.609375 9.488281 -2.976562 9.6875 -3.59375 L 10.15625 -5.015625 L 13.84375 -15.75 L 16.6875 -15.75 L 16.6875 0 L 14.71875 0 L 14.71875 -13.1875 L 14.671875 -13.1875 L 10.140625 0 L 8.265625 0 L 3.765625 -13.390625 L 3.703125 -13.390625 L 3.703125 0 L 1.71875 0 L 1.71875 -15.75 L 4.90625 -15.75 Z M 8.40625 -5.28125 "/></g></g></g><g fill="#2c3152" fill-opacity="1"><g transform="translate(90.581936, 266.372678)"><g><path d="M 0.78125 -5.6875 C 0.78125 -6.925781 1 -7.992188 1.4375 -8.890625 C 1.882812 -9.785156 2.507812 -10.46875 3.3125 -10.9375 C 4.113281 -11.414062 5.046875 -11.65625 6.109375 -11.65625 C 7.179688 -11.65625 8.117188 -11.425781 8.921875 -10.96875 C 9.722656 -10.507812 10.347656 -9.832031 10.796875 -8.9375 C 11.242188 -8.050781 11.46875 -6.976562 11.46875 -5.71875 C 11.46875 -4.457031 11.238281 -3.378906 10.78125 -2.484375 C 10.332031 -1.585938 9.703125 -0.90625 8.890625 -0.4375 C 8.085938 0.03125 7.160156 0.265625 6.109375 0.265625 C 5.066406 0.265625 4.144531 0.0390625 3.34375 -0.40625 C 2.539062 -0.863281 1.910156 -1.539062 1.453125 -2.4375 C 1.003906 -3.332031 0.78125 -4.414062 0.78125 -5.6875 Z M 6.109375 -10.0625 C 5.460938 -10.0625 4.882812 -9.894531 4.375 -9.5625 C 3.875 -9.226562 3.476562 -8.734375 3.1875 -8.078125 C 2.894531 -7.421875 2.75 -6.625 2.75 -5.6875 C 2.75 -4.75 2.890625 -3.953125 3.171875 -3.296875 C 3.460938 -2.648438 3.859375 -2.160156 4.359375 -1.828125 C 4.867188 -1.492188 5.453125 -1.328125 6.109375 -1.328125 C 6.796875 -1.328125 7.390625 -1.5 7.890625 -1.84375 C 8.398438 -2.1875 8.789062 -2.6875 9.0625 -3.34375 C 9.34375 -4 9.484375 -4.789062 9.484375 -5.71875 C 9.484375 -6.644531 9.335938 -7.429688 9.046875 -8.078125 C 8.765625 -8.734375 8.367188 -9.226562 7.859375 -9.5625 C 7.347656 -9.894531 6.765625 -10.0625 6.109375 -10.0625 Z M 6.109375 -10.0625 "/></g></g></g><g fill="#2c3152" fill-opacity="1"><g transform="translate(102.81512, 266.372678)"><g><path d="M 8.859375 0 L 8.859375 -7.453125 C 8.859375 -8.285156 8.648438 -8.914062 8.234375 -9.34375 C 7.816406 -9.769531 7.226562 -9.984375 6.46875 -9.984375 C 5.507812 -9.984375 4.757812 -9.691406 4.21875 -9.109375 C 3.6875 -8.535156 3.421875 -7.613281 3.421875 -6.34375 L 3.421875 0 L 1.5 0 L 1.5 -11.390625 L 3.296875 -11.390625 L 3.296875 -9.8125 C 3.679688 -10.382812 4.175781 -10.832031 4.78125 -11.15625 C 5.382812 -11.488281 6.054688 -11.65625 6.796875 -11.65625 C 8.109375 -11.65625 9.097656 -11.3125 9.765625 -10.625 C 10.441406 -9.945312 10.78125 -8.976562 10.78125 -7.71875 L 10.78125 0 Z M 8.859375 0 "/></g></g></g><g fill="#2c3152" fill-opacity="1"><g transform="translate(115.048304, 266.372678)"><g><path d="M 3.421875 -13.5625 L 1.5 -13.5625 L 1.5 -15.75 L 3.421875 -15.75 Z M 3.421875 0 L 1.5 0 L 1.5 -11.390625 L 3.421875 -11.390625 Z M 3.421875 0 "/></g></g></g><g fill="#2c3152" fill-opacity="1"><g transform="translate(119.967352, 266.372678)"><g><path d="M 3.71875 -11.390625 L 5.875 -11.390625 L 5.875 -9.90625 L 3.71875 -9.90625 L 3.71875 -3 C 3.71875 -2.570312 3.753906 -2.253906 3.828125 -2.046875 C 3.898438 -1.835938 4.007812 -1.695312 4.15625 -1.625 C 4.3125 -1.5625 4.523438 -1.53125 4.796875 -1.53125 C 5.046875 -1.53125 5.40625 -1.578125 5.875 -1.671875 L 6.140625 -0.0625 C 5.585938 0.0625 5.03125 0.125 4.46875 0.125 C 3.769531 0.125 3.234375 0.0234375 2.859375 -0.171875 C 2.484375 -0.378906 2.207031 -0.679688 2.03125 -1.078125 C 1.863281 -1.472656 1.78125 -2.175781 1.78125 -3.1875 L 1.78125 -9.90625 L 0.15625 -9.90625 L 0.15625 -11.390625 L 1.78125 -11.390625 L 1.78125 -14.015625 L 3.71875 -15.40625 Z M 3.71875 -11.390625 "/></g></g></g><g fill="#2c3152" fill-opacity="1"><g transform="translate(126.368559, 266.372678)"><g><path d="M 0.78125 -5.6875 C 0.78125 -6.925781 1 -7.992188 1.4375 -8.890625 C 1.882812 -9.785156 2.507812 -10.46875 3.3125 -10.9375 C 4.113281 -11.414062 5.046875 -11.65625 6.109375 -11.65625 C 7.179688 -11.65625 8.117188 -11.425781 8.921875 -10.96875 C 9.722656 -10.507812 10.347656 -9.832031 10.796875 -8.9375 C 11.242188 -8.050781 11.46875 -6.976562 11.46875 -5.71875 C 11.46875 -4.457031 11.238281 -3.378906 10.78125 -2.484375 C 10.332031 -1.585938 9.703125 -0.90625 8.890625 -0.4375 C 8.085938 0.03125 7.160156 0.265625 6.109375 0.265625 C 5.066406 0.265625 4.144531 0.0390625 3.34375 -0.40625 C 2.539062 -0.863281 1.910156 -1.539062 1.453125 -2.4375 C 1.003906 -3.332031 0.78125 -4.414062 0.78125 -5.6875 Z M 6.109375 -10.0625 C 5.460938 -10.0625 4.882812 -9.894531 4.375 -9.5625 C 3.875 -9.226562 3.476562 -8.734375 3.1875 -8.078125 C 2.894531 -7.421875 2.75 -6.625 2.75 -5.6875 C 2.75 -4.75 2.890625 -3.953125 3.171875 -3.296875 C 3.460938 -2.648438 3.859375 -2.160156 4.359375 -1.828125 C 4.867188 -1.492188 5.453125 -1.328125 6.109375 -1.328125 C 6.796875 -1.328125 7.390625 -1.5 7.890625 -1.84375 C 8.398438 -2.1875 8.789062 -2.6875 9.0625 -3.34375 C 9.34375 -4 9.484375 -4.789062 9.484375 -5.71875 C 9.484375 -6.644531 9.335938 -7.429688 9.046875 -8.078125 C 8.765625 -8.734375 8.367188 -9.226562 7.859375 -9.5625 C 7.347656 -9.894531 6.765625 -10.0625 6.109375 -10.0625 Z M 6.109375 -10.0625 "/></g></g></g><g fill="#2c3152" fill-opacity="1"><g transform="translate(138.601743, 266.372678)"><g><path d="M 5.96875 -9.671875 C 5.144531 -9.671875 4.515625 -9.351562 4.078125 -8.71875 C 3.640625 -8.09375 3.421875 -7.210938 3.421875 -6.078125 L 3.421875 0 L 1.5 0 L 1.5 -11.390625 L 3.296875 -11.390625 L 3.296875 -9.671875 C 3.722656 -10.390625 4.15625 -10.898438 4.59375 -11.203125 C 5.03125 -11.503906 5.554688 -11.65625 6.171875 -11.65625 C 6.515625 -11.65625 6.832031 -11.613281 7.125 -11.53125 C 7.425781 -11.445312 7.726562 -11.3125 8.03125 -11.125 L 7.375 -9.34375 C 6.957031 -9.5625 6.488281 -9.671875 5.96875 -9.671875 Z M 5.96875 -9.671875 "/></g></g></g><g fill="#2c3152" fill-opacity="1"><g transform="translate(146.538815, 266.372678)"><g><path d="M 4.984375 -10.078125 C 4.316406 -10.078125 3.785156 -9.941406 3.390625 -9.671875 C 3.003906 -9.398438 2.8125 -9.046875 2.8125 -8.609375 C 2.8125 -8.265625 2.894531 -7.984375 3.0625 -7.765625 C 3.226562 -7.554688 3.492188 -7.378906 3.859375 -7.234375 C 4.222656 -7.097656 4.726562 -6.976562 5.375 -6.875 C 6.363281 -6.707031 7.171875 -6.488281 7.796875 -6.21875 C 8.429688 -5.945312 8.910156 -5.578125 9.234375 -5.109375 C 9.554688 -4.648438 9.71875 -4.066406 9.71875 -3.359375 C 9.71875 -2.671875 9.535156 -2.046875 9.171875 -1.484375 C 8.816406 -0.929688 8.304688 -0.5 7.640625 -0.1875 C 6.984375 0.113281 6.21875 0.265625 5.34375 0.265625 C 2.632812 0.265625 1.070312 -0.953125 0.65625 -3.390625 L 2.578125 -3.703125 C 2.703125 -2.898438 2.988281 -2.300781 3.4375 -1.90625 C 3.882812 -1.519531 4.515625 -1.328125 5.328125 -1.328125 C 6.097656 -1.328125 6.691406 -1.488281 7.109375 -1.8125 C 7.535156 -2.144531 7.75 -2.582031 7.75 -3.125 C 7.75 -3.644531 7.507812 -4.046875 7.03125 -4.328125 C 6.550781 -4.617188 5.882812 -4.832031 5.03125 -4.96875 C 3.6875 -5.175781 2.671875 -5.539062 1.984375 -6.0625 C 1.296875 -6.59375 0.953125 -7.363281 0.953125 -8.375 C 0.953125 -9 1.113281 -9.5625 1.4375 -10.0625 C 1.769531 -10.5625 2.238281 -10.953125 2.84375 -11.234375 C 3.457031 -11.515625 4.171875 -11.65625 4.984375 -11.65625 C 6.234375 -11.65625 7.222656 -11.390625 7.953125 -10.859375 C 8.691406 -10.328125 9.148438 -9.539062 9.328125 -8.5 L 7.4375 -8.203125 C 7.34375 -8.785156 7.082031 -9.242188 6.65625 -9.578125 C 6.226562 -9.910156 5.671875 -10.078125 4.984375 -10.078125 Z M 4.984375 -10.078125 "/></g></g></g><g fill="#2c3152" fill-opacity="1"><g transform="translate(157.010593, 266.372678)"><g/></g></g><g fill="#2c3152" fill-opacity="1"><g transform="translate(163.057376, 266.372678)"><g><path d="M 4.8125 -4.828125 C 5.03125 -4.210938 5.1875 -3.742188 5.28125 -3.421875 C 5.382812 -3.097656 5.5 -2.675781 5.625 -2.15625 L 5.671875 -2.15625 C 5.816406 -2.789062 5.929688 -3.242188 6.015625 -3.515625 C 6.097656 -3.785156 6.289062 -4.34375 6.59375 -5.1875 L 8.859375 -11.390625 L 10.828125 -11.390625 L 6.203125 0.84375 C 5.835938 1.832031 5.484375 2.597656 5.140625 3.140625 C 4.796875 3.679688 4.425781 4.0625 4.03125 4.28125 C 3.632812 4.507812 3.164062 4.625 2.625 4.625 C 2.425781 4.625 2.164062 4.597656 1.84375 4.546875 C 1.519531 4.503906 1.242188 4.457031 1.015625 4.40625 L 1.40625 2.765625 C 1.707031 2.878906 2 2.9375 2.28125 2.9375 C 2.695312 2.9375 3.035156 2.832031 3.296875 2.625 C 3.566406 2.425781 3.785156 2.148438 3.953125 1.796875 C 4.128906 1.453125 4.285156 1.085938 4.421875 0.703125 C 4.566406 0.328125 4.65625 0.0976562 4.6875 0.015625 L 0.359375 -11.390625 L 2.4375 -11.390625 Z M 4.8125 -4.828125 "/></g></g></g><g fill="#2c3152" fill-opacity="1"><g transform="translate(174.055422, 266.372678)"><g><path d="M 0.78125 -5.6875 C 0.78125 -6.925781 1 -7.992188 1.4375 -8.890625 C 1.882812 -9.785156 2.507812 -10.46875 3.3125 -10.9375 C 4.113281 -11.414062 5.046875 -11.65625 6.109375 -11.65625 C 7.179688 -11.65625 8.117188 -11.425781 8.921875 -10.96875 C 9.722656 -10.507812 10.347656 -9.832031 10.796875 -8.9375 C 11.242188 -8.050781 11.46875 -6.976562 11.46875 -5.71875 C 11.46875 -4.457031 11.238281 -3.378906 10.78125 -2.484375 C 10.332031 -1.585938 9.703125 -0.90625 8.890625 -0.4375 C 8.085938 0.03125 7.160156 0.265625 6.109375 0.265625 C 5.066406 0.265625 4.144531 0.0390625 3.34375 -0.40625 C 2.539062 -0.863281 1.910156 -1.539062 1.453125 -2.4375 C 1.003906 -3.332031 0.78125 -4.414062 0.78125 -5.6875 Z M 6.109375 -10.0625 C 5.460938 -10.0625 4.882812 -9.894531 4.375 -9.5625 C 3.875 -9.226562 3.476562 -8.734375 3.1875 -8.078125 C 2.894531 -7.421875 2.75 -6.625 2.75 -5.6875 C 2.75 -4.75 2.890625 -3.953125 3.171875 -3.296875 C 3.460938 -2.648438 3.859375 -2.160156 4.359375 -1.828125 C 4.867188 -1.492188 5.453125 -1.328125 6.109375 -1.328125 C 6.796875 -1.328125 7.390625 -1.5 7.890625 -1.84375 C 8.398438 -2.1875 8.789062 -2.6875 9.0625 -3.34375 C 9.34375 -4 9.484375 -4.789062 9.484375 -5.71875 C 9.484375 -6.644531 9.335938 -7.429688 9.046875 -8.078125 C 8.765625 -8.734375 8.367188 -9.226562 7.859375 -9.5625 C 7.347656 -9.894531 6.765625 -10.0625 6.109375 -10.0625 Z M 6.109375 -10.0625 "/></g></g></g><g fill="#2c3152" fill-opacity="1"><g transform="translate(186.288607, 266.372678)"><g><path d="M 3.390625 -3.9375 C 3.390625 -3.113281 3.59375 -2.484375 4 -2.046875 C 4.414062 -1.617188 5.003906 -1.40625 5.765625 -1.40625 C 6.398438 -1.40625 6.957031 -1.546875 7.4375 -1.828125 C 7.914062 -2.117188 8.257812 -2.507812 8.46875 -3 C 8.6875 -3.488281 8.796875 -4.164062 8.796875 -5.03125 L 8.796875 -11.390625 L 10.734375 -11.390625 L 10.734375 0 L 8.921875 0 L 8.921875 -1.578125 C 8.515625 -0.972656 8.015625 -0.515625 7.421875 -0.203125 C 6.835938 0.109375 6.179688 0.265625 5.453125 0.265625 C 4.117188 0.265625 3.117188 -0.0703125 2.453125 -0.75 C 1.785156 -1.4375 1.453125 -2.414062 1.453125 -3.6875 L 1.453125 -11.390625 L 3.390625 -11.390625 Z M 3.390625 -3.9375 "/></g></g></g><g fill="#2c3152" fill-opacity="1"><g transform="translate(198.521791, 266.372678)"><g><path d="M 8.859375 0 L 8.859375 -7.453125 C 8.859375 -8.285156 8.648438 -8.914062 8.234375 -9.34375 C 7.816406 -9.769531 7.226562 -9.984375 6.46875 -9.984375 C 5.507812 -9.984375 4.757812 -9.691406 4.21875 -9.109375 C 3.6875 -8.535156 3.421875 -7.613281 3.421875 -6.34375 L 3.421875 0 L 1.5 0 L 1.5 -11.390625 L 3.296875 -11.390625 L 3.296875 -9.8125 C 3.679688 -10.382812 4.175781 -10.832031 4.78125 -11.15625 C 5.382812 -11.488281 6.054688 -11.65625 6.796875 -11.65625 C 8.109375 -11.65625 9.097656 -11.3125 9.765625 -10.625 C 10.441406 -9.945312 10.78125 -8.976562 10.78125 -7.71875 L 10.78125 0 Z M 8.859375 0 "/></g></g></g><g fill="#2c3152" fill-opacity="1"><g transform="translate(210.754975, 266.372678)"><g><path d="M 9.15625 -11.390625 L 10.953125 -11.390625 L 10.953125 -0.96875 C 10.953125 0.894531 10.535156 2.289062 9.703125 3.21875 C 8.878906 4.15625 7.585938 4.625 5.828125 4.625 C 4.429688 4.625 3.347656 4.304688 2.578125 3.671875 C 1.804688 3.035156 1.378906 2.128906 1.296875 0.953125 L 3.171875 1.234375 C 3.265625 1.847656 3.523438 2.300781 3.953125 2.59375 C 4.390625 2.894531 5.003906 3.046875 5.796875 3.046875 C 6.890625 3.046875 7.703125 2.765625 8.234375 2.203125 C 8.765625 1.640625 9.03125 0.488281 9.03125 -1.25 L 9.03125 -1.5 C 8.195312 -0.5 7.109375 0 5.765625 0 C 4.773438 0 3.898438 -0.242188 3.140625 -0.734375 C 2.390625 -1.222656 1.804688 -1.90625 1.390625 -2.78125 C 0.984375 -3.65625 0.78125 -4.660156 0.78125 -5.796875 C 0.78125 -6.953125 0.96875 -7.972656 1.34375 -8.859375 C 1.71875 -9.742188 2.269531 -10.429688 3 -10.921875 C 3.738281 -11.410156 4.617188 -11.65625 5.640625 -11.65625 C 6.429688 -11.65625 7.097656 -11.519531 7.640625 -11.25 C 8.191406 -10.976562 8.679688 -10.570312 9.109375 -10.03125 L 9.15625 -10.03125 Z M 5.78125 -10.078125 C 5.1875 -10.078125 4.660156 -9.910156 4.203125 -9.578125 C 3.742188 -9.253906 3.382812 -8.773438 3.125 -8.140625 C 2.875 -7.515625 2.75 -6.765625 2.75 -5.890625 C 2.75 -5.003906 2.875 -4.234375 3.125 -3.578125 C 3.382812 -2.929688 3.753906 -2.4375 4.234375 -2.09375 C 4.710938 -1.75 5.28125 -1.578125 5.9375 -1.578125 C 6.613281 -1.578125 7.191406 -1.75 7.671875 -2.09375 C 8.160156 -2.4375 8.53125 -2.925781 8.78125 -3.5625 C 9.03125 -4.207031 9.15625 -4.972656 9.15625 -5.859375 C 9.15625 -6.710938 9.019531 -7.457031 8.75 -8.09375 C 8.476562 -8.738281 8.085938 -9.226562 7.578125 -9.5625 C 7.078125 -9.90625 6.476562 -10.078125 5.78125 -10.078125 Z M 5.78125 -10.078125 "/></g></g></g><g fill="#2c3152" fill-opacity="1"><g transform="translate(223.202964, 266.372678)"><g/></g></g><g fill="#2c3152" fill-opacity="1"><g transform="translate(229.249747, 266.372678)"><g><path d="M 3.484375 -1.296875 L 3.421875 -1.296875 L 3.421875 4.359375 L 1.5 4.359375 L 1.5 -11.390625 L 3.296875 -11.390625 L 3.296875 -9.953125 L 3.34375 -9.953125 C 3.738281 -10.503906 4.21875 -10.925781 4.78125 -11.21875 C 5.351562 -11.507812 6.003906 -11.65625 6.734375 -11.65625 C 7.753906 -11.65625 8.648438 -11.410156 9.421875 -10.921875 C 10.191406 -10.429688 10.78125 -9.738281 11.1875 -8.84375 C 11.601562 -7.945312 11.8125 -6.894531 11.8125 -5.6875 C 11.8125 -4.5 11.609375 -3.457031 11.203125 -2.5625 C 10.796875 -1.664062 10.21875 -0.96875 9.46875 -0.46875 C 8.726562 0.0195312 7.867188 0.265625 6.890625 0.265625 C 5.460938 0.265625 4.328125 -0.253906 3.484375 -1.296875 Z M 6.5625 -10.078125 C 5.90625 -10.078125 5.328125 -9.894531 4.828125 -9.53125 C 4.335938 -9.164062 3.957031 -8.660156 3.6875 -8.015625 C 3.425781 -7.378906 3.296875 -6.660156 3.296875 -5.859375 C 3.296875 -4.921875 3.429688 -4.109375 3.703125 -3.421875 C 3.984375 -2.742188 4.375 -2.222656 4.875 -1.859375 C 5.382812 -1.503906 5.976562 -1.328125 6.65625 -1.328125 C 7.320312 -1.328125 7.894531 -1.507812 8.375 -1.875 C 8.851562 -2.25 9.210938 -2.765625 9.453125 -3.421875 C 9.703125 -4.085938 9.828125 -4.847656 9.828125 -5.703125 C 9.828125 -6.609375 9.691406 -7.390625 9.421875 -8.046875 C 9.148438 -8.710938 8.769531 -9.21875 8.28125 -9.5625 C 7.789062 -9.90625 7.21875 -10.078125 6.5625 -10.078125 Z M 6.5625 -10.078125 "/></g></g></g><g fill="#2c3152" fill-opacity="1"><g transform="translate(241.82662, 266.372678)"><g><path d="M 6.234375 -1.328125 C 6.960938 -1.328125 7.59375 -1.539062 8.125 -1.96875 C 8.65625 -2.394531 9.023438 -2.960938 9.234375 -3.671875 L 11.125 -3.390625 C 10.800781 -2.234375 10.195312 -1.332031 9.3125 -0.6875 C 8.4375 -0.0507812 7.378906 0.265625 6.140625 0.265625 C 5.046875 0.265625 4.09375 0.0234375 3.28125 -0.453125 C 2.476562 -0.929688 1.859375 -1.613281 1.421875 -2.5 C 0.992188 -3.382812 0.78125 -4.421875 0.78125 -5.609375 C 0.78125 -6.828125 0.992188 -7.890625 1.421875 -8.796875 C 1.847656 -9.710938 2.460938 -10.414062 3.265625 -10.90625 C 4.078125 -11.40625 5.023438 -11.65625 6.109375 -11.65625 C 7.160156 -11.65625 8.078125 -11.421875 8.859375 -10.953125 C 9.640625 -10.484375 10.238281 -9.789062 10.65625 -8.875 C 11.082031 -7.96875 11.296875 -6.878906 11.296875 -5.609375 L 11.296875 -5.203125 L 2.765625 -5.203125 C 2.816406 -4.390625 2.988281 -3.691406 3.28125 -3.109375 C 3.570312 -2.523438 3.96875 -2.082031 4.46875 -1.78125 C 4.976562 -1.476562 5.566406 -1.328125 6.234375 -1.328125 Z M 6.09375 -10.078125 C 5.519531 -10.078125 5.003906 -9.941406 4.546875 -9.671875 C 4.085938 -9.398438 3.707031 -9.015625 3.40625 -8.515625 C 3.113281 -8.023438 2.925781 -7.453125 2.84375 -6.796875 L 9.265625 -6.796875 C 9.148438 -7.847656 8.816406 -8.65625 8.265625 -9.21875 C 7.710938 -9.789062 6.988281 -10.078125 6.09375 -10.078125 Z M 6.09375 -10.078125 "/></g></g></g><g fill="#2c3152" fill-opacity="1"><g transform="translate(253.877214, 266.372678)"><g><path d="M 5.96875 -9.671875 C 5.144531 -9.671875 4.515625 -9.351562 4.078125 -8.71875 C 3.640625 -8.09375 3.421875 -7.210938 3.421875 -6.078125 L 3.421875 0 L 1.5 0 L 1.5 -11.390625 L 3.296875 -11.390625 L 3.296875 -9.671875 C 3.722656 -10.390625 4.15625 -10.898438 4.59375 -11.203125 C 5.03125 -11.503906 5.554688 -11.65625 6.171875 -11.65625 C 6.515625 -11.65625 6.832031 -11.613281 7.125 -11.53125 C 7.425781 -11.445312 7.726562 -11.3125 8.03125 -11.125 L 7.375 -9.34375 C 6.957031 -9.5625 6.488281 -9.671875 5.96875 -9.671875 Z M 5.96875 -9.671875 "/></g></g></g><g fill="#2c3152" fill-opacity="1"><g transform="translate(261.814286, 266.372678)"><g><path d="M 4.984375 -10.078125 C 4.316406 -10.078125 3.785156 -9.941406 3.390625 -9.671875 C 3.003906 -9.398438 2.8125 -9.046875 2.8125 -8.609375 C 2.8125 -8.265625 2.894531 -7.984375 3.0625 -7.765625 C 3.226562 -7.554688 3.492188 -7.378906 3.859375 -7.234375 C 4.222656 -7.097656 4.726562 -6.976562 5.375 -6.875 C 6.363281 -6.707031 7.171875 -6.488281 7.796875 -6.21875 C 8.429688 -5.945312 8.910156 -5.578125 9.234375 -5.109375 C 9.554688 -4.648438 9.71875 -4.066406 9.71875 -3.359375 C 9.71875 -2.671875 9.535156 -2.046875 9.171875 -1.484375 C 8.816406 -0.929688 8.304688 -0.5 7.640625 -0.1875 C 6.984375 0.113281 6.21875 0.265625 5.34375 0.265625 C 2.632812 0.265625 1.070312 -0.953125 0.65625 -3.390625 L 2.578125 -3.703125 C 2.703125 -2.898438 2.988281 -2.300781 3.4375 -1.90625 C 3.882812 -1.519531 4.515625 -1.328125 5.328125 -1.328125 C 6.097656 -1.328125 6.691406 -1.488281 7.109375 -1.8125 C 7.535156 -2.144531 7.75 -2.582031 7.75 -3.125 C 7.75 -3.644531 7.507812 -4.046875 7.03125 -4.328125 C 6.550781 -4.617188 5.882812 -4.832031 5.03125 -4.96875 C 3.6875 -5.175781 2.671875 -5.539062 1.984375 -6.0625 C 1.296875 -6.59375 0.953125 -7.363281 0.953125 -8.375 C 0.953125 -9 1.113281 -9.5625 1.4375 -10.0625 C 1.769531 -10.5625 2.238281 -10.953125 2.84375 -11.234375 C 3.457031 -11.515625 4.171875 -11.65625 4.984375 -11.65625 C 6.234375 -11.65625 7.222656 -11.390625 7.953125 -10.859375 C 8.691406 -10.328125 9.148438 -9.539062 9.328125 -8.5 L 7.4375 -8.203125 C 7.34375 -8.785156 7.082031 -9.242188 6.65625 -9.578125 C 6.226562 -9.910156 5.671875 -10.078125 4.984375 -10.078125 Z M 4.984375 -10.078125 "/></g></g></g><g fill="#2c3152" fill-opacity="1"><g transform="translate(272.286076, 266.372678)"><g><path d="M 0.78125 -5.6875 C 0.78125 -6.925781 1 -7.992188 1.4375 -8.890625 C 1.882812 -9.785156 2.507812 -10.46875 3.3125 -10.9375 C 4.113281 -11.414062 5.046875 -11.65625 6.109375 -11.65625 C 7.179688 -11.65625 8.117188 -11.425781 8.921875 -10.96875 C 9.722656 -10.507812 10.347656 -9.832031 10.796875 -8.9375 C 11.242188 -8.050781 11.46875 -6.976562 11.46875 -5.71875 C 11.46875 -4.457031 11.238281 -3.378906 10.78125 -2.484375 C 10.332031 -1.585938 9.703125 -0.90625 8.890625 -0.4375 C 8.085938 0.03125 7.160156 0.265625 6.109375 0.265625 C 5.066406 0.265625 4.144531 0.0390625 3.34375 -0.40625 C 2.539062 -0.863281 1.910156 -1.539062 1.453125 -2.4375 C 1.003906 -3.332031 0.78125 -4.414062 0.78125 -5.6875 Z M 6.109375 -10.0625 C 5.460938 -10.0625 4.882812 -9.894531 4.375 -9.5625 C 3.875 -9.226562 3.476562 -8.734375 3.1875 -8.078125 C 2.894531 -7.421875 2.75 -6.625 2.75 -5.6875 C 2.75 -4.75 2.890625 -3.953125 3.171875 -3.296875 C 3.460938 -2.648438 3.859375 -2.160156 4.359375 -1.828125 C 4.867188 -1.492188 5.453125 -1.328125 6.109375 -1.328125 C 6.796875 -1.328125 7.390625 -1.5 7.890625 -1.84375 C 8.398438 -2.1875 8.789062 -2.6875 9.0625 -3.34375 C 9.34375 -4 9.484375 -4.789062 9.484375 -5.71875 C 9.484375 -6.644531 9.335938 -7.429688 9.046875 -8.078125 C 8.765625 -8.734375 8.367188 -9.226562 7.859375 -9.5625 C 7.347656 -9.894531 6.765625 -10.0625 6.109375 -10.0625 Z M 6.109375 -10.0625 "/></g></g></g><g fill="#2c3152" fill-opacity="1"><g transform="translate(284.51926, 266.372678)"><g><path d="M 8.859375 0 L 8.859375 -7.453125 C 8.859375 -8.285156 8.648438 -8.914062 8.234375 -9.34375 C 7.816406 -9.769531 7.226562 -9.984375 6.46875 -9.984375 C 5.507812 -9.984375 4.757812 -9.691406 4.21875 -9.109375 C 3.6875 -8.535156 3.421875 -7.613281 3.421875 -6.34375 L 3.421875 0 L 1.5 0 L 1.5 -11.390625 L 3.296875 -11.390625 L 3.296875 -9.8125 C 3.679688 -10.382812 4.175781 -10.832031 4.78125 -11.15625 C 5.382812 -11.488281 6.054688 -11.65625 6.796875 -11.65625 C 8.109375 -11.65625 9.097656 -11.3125 9.765625 -10.625 C 10.441406 -9.945312 10.78125 -8.976562 10.78125 -7.71875 L 10.78125 0 Z M 8.859375 0 "/></g></g></g><g fill="#2c3152" fill-opacity="1"><g transform="translate(296.762927, 266.372678)"><g/></g></g><g fill="#2c3152" fill-opacity="1"><g transform="translate(81.524659, 292.622676)"><g><path d="M 3.96875 -4.71875 C 4.257812 -3.664062 4.46875 -2.890625 4.59375 -2.390625 C 4.613281 -2.492188 4.691406 -2.816406 4.828125 -3.359375 C 4.960938 -3.898438 5.082031 -4.359375 5.1875 -4.734375 L 7.015625 -11.390625 L 9 -11.390625 L 10.671875 -4.84375 C 10.984375 -3.664062 11.175781 -2.925781 11.25 -2.625 L 11.296875 -2.625 L 11.953125 -4.890625 L 13.875 -11.390625 L 15.765625 -11.390625 L 12.1875 0 L 10.1875 0 L 8.40625 -6.765625 C 8.332031 -7.003906 8.175781 -7.675781 7.9375 -8.78125 L 7.890625 -8.78125 C 7.816406 -8.488281 7.65625 -7.816406 7.40625 -6.765625 L 5.625 0 L 3.609375 0 L 0.109375 -11.390625 L 2.109375 -11.390625 Z M 3.96875 -4.71875 "/></g></g></g><g fill="#2c3152" fill-opacity="1"><g transform="translate(97.409538, 292.622676)"><g><path d="M 3.421875 -13.5625 L 1.5 -13.5625 L 1.5 -15.75 L 3.421875 -15.75 Z M 3.421875 0 L 1.5 0 L 1.5 -11.390625 L 3.421875 -11.390625 Z M 3.421875 0 "/></g></g></g><g fill="#2c3152" fill-opacity="1"><g transform="translate(102.328586, 292.622676)"><g><path d="M 3.71875 -11.390625 L 5.875 -11.390625 L 5.875 -9.90625 L 3.71875 -9.90625 L 3.71875 -3 C 3.71875 -2.570312 3.753906 -2.253906 3.828125 -2.046875 C 3.898438 -1.835938 4.007812 -1.695312 4.15625 -1.625 C 4.3125 -1.5625 4.523438 -1.53125 4.796875 -1.53125 C 5.046875 -1.53125 5.40625 -1.578125 5.875 -1.671875 L 6.140625 -0.0625 C 5.585938 0.0625 5.03125 0.125 4.46875 0.125 C 3.769531 0.125 3.234375 0.0234375 2.859375 -0.171875 C 2.484375 -0.378906 2.207031 -0.679688 2.03125 -1.078125 C 1.863281 -1.472656 1.78125 -2.175781 1.78125 -3.1875 L 1.78125 -9.90625 L 0.15625 -9.90625 L 0.15625 -11.390625 L 1.78125 -11.390625 L 1.78125 -14.015625 L 3.71875 -15.40625 Z M 3.71875 -11.390625 "/></g></g></g><g fill="#2c3152" fill-opacity="1"><g transform="translate(108.729793, 292.622676)"><g><path d="M 3.421875 -9.984375 C 3.773438 -10.492188 4.257812 -10.898438 4.875 -11.203125 C 5.488281 -11.503906 6.128906 -11.65625 6.796875 -11.65625 C 8.109375 -11.65625 9.097656 -11.3125 9.765625 -10.625 C 10.441406 -9.945312 10.78125 -8.976562 10.78125 -7.71875 L 10.78125 0 L 8.859375 0 L 8.859375 -7.453125 C 8.859375 -8.285156 8.648438 -8.914062 8.234375 -9.34375 C 7.816406 -9.769531 7.226562 -9.984375 6.46875 -9.984375 C 5.5625 -9.984375 4.828125 -9.703125 4.265625 -9.140625 C 3.703125 -8.585938 3.421875 -7.65625 3.421875 -6.34375 L 3.421875 0 L 1.5 0 L 1.5 -15.75 L 3.421875 -15.75 Z M 3.421875 -9.984375 "/></g></g></g><g fill="#2c3152" fill-opacity="1"><g transform="translate(120.962977, 292.622676)"><g/></g></g><g fill="#2c3152" fill-opacity="1"><g transform="translate(127.00976, 292.622676)"><g><path d="M 10.671875 0 L 8.640625 0 C 8.523438 -0.238281 8.445312 -0.429688 8.40625 -0.578125 C 8.363281 -0.734375 8.3125 -1.007812 8.25 -1.40625 C 7.695312 -0.820312 7.113281 -0.394531 6.5 -0.125 C 5.882812 0.132812 5.179688 0.265625 4.390625 0.265625 C 3.671875 0.265625 3.035156 0.128906 2.484375 -0.140625 C 1.941406 -0.421875 1.519531 -0.804688 1.21875 -1.296875 C 0.925781 -1.796875 0.78125 -2.367188 0.78125 -3.015625 C 0.78125 -3.992188 1.097656 -4.773438 1.734375 -5.359375 C 2.367188 -5.941406 3.414062 -6.34375 4.875 -6.5625 C 6.394531 -6.789062 7.476562 -7.007812 8.125 -7.21875 L 8.125 -7.515625 C 8.125 -8.148438 8.039062 -8.648438 7.875 -9.015625 C 7.707031 -9.390625 7.441406 -9.660156 7.078125 -9.828125 C 6.722656 -9.992188 6.238281 -10.078125 5.625 -10.078125 C 4.84375 -10.078125 4.226562 -9.898438 3.78125 -9.546875 C 3.332031 -9.203125 3.039062 -8.648438 2.90625 -7.890625 L 1.015625 -8.1875 C 1.242188 -9.34375 1.753906 -10.207031 2.546875 -10.78125 C 3.347656 -11.363281 4.40625 -11.65625 5.71875 -11.65625 C 6.726562 -11.65625 7.546875 -11.523438 8.171875 -11.265625 C 8.804688 -11.015625 9.28125 -10.597656 9.59375 -10.015625 C 9.90625 -9.441406 10.0625 -8.671875 10.0625 -7.703125 L 10.0625 -3.609375 C 10.0625 -2.898438 10.078125 -2.351562 10.109375 -1.96875 C 10.140625 -1.582031 10.195312 -1.25 10.28125 -0.96875 C 10.363281 -0.6875 10.492188 -0.363281 10.671875 0 Z M 4.96875 -4.9375 C 4.195312 -4.800781 3.632812 -4.578125 3.28125 -4.265625 C 2.925781 -3.953125 2.75 -3.535156 2.75 -3.015625 C 2.75 -2.460938 2.925781 -2.03125 3.28125 -1.71875 C 3.632812 -1.40625 4.144531 -1.25 4.8125 -1.25 C 5.375 -1.25 5.957031 -1.429688 6.5625 -1.796875 C 6.988281 -2.046875 7.3125 -2.316406 7.53125 -2.609375 C 7.75 -2.898438 7.898438 -3.25 7.984375 -3.65625 C 8.078125 -4.070312 8.125 -4.613281 8.125 -5.28125 L 8.125 -5.6875 C 7.945312 -5.613281 7.554688 -5.503906 6.953125 -5.359375 C 6.347656 -5.210938 5.6875 -5.070312 4.96875 -4.9375 Z M 4.96875 -4.9375 "/></g></g></g><g fill="#2c3152" fill-opacity="1"><g transform="translate(138.512605, 292.622676)"><g><path d="M 8.859375 0 L 8.859375 -7.453125 C 8.859375 -8.285156 8.648438 -8.914062 8.234375 -9.34375 C 7.816406 -9.769531 7.226562 -9.984375 6.46875 -9.984375 C 5.507812 -9.984375 4.757812 -9.691406 4.21875 -9.109375 C 3.6875 -8.535156 3.421875 -7.613281 3.421875 -6.34375 L 3.421875 0 L 1.5 0 L 1.5 -11.390625 L 3.296875 -11.390625 L 3.296875 -9.8125 C 3.679688 -10.382812 4.175781 -10.832031 4.78125 -11.15625 C 5.382812 -11.488281 6.054688 -11.65625 6.796875 -11.65625 C 8.109375 -11.65625 9.097656 -11.3125 9.765625 -10.625 C 10.441406 -9.945312 10.78125 -8.976562 10.78125 -7.71875 L 10.78125 0 Z M 8.859375 0 "/></g></g></g><g fill="#2c3152" fill-opacity="1"><g transform="translate(150.745789, 292.622676)"><g><path d="M 0.78125 -5.6875 C 0.78125 -6.925781 1 -7.992188 1.4375 -8.890625 C 1.882812 -9.785156 2.507812 -10.46875 3.3125 -10.9375 C 4.113281 -11.414062 5.046875 -11.65625 6.109375 -11.65625 C 7.179688 -11.65625 8.117188 -11.425781 8.921875 -10.96875 C 9.722656 -10.507812 10.347656 -9.832031 10.796875 -8.9375 C 11.242188 -8.050781 11.46875 -6.976562 11.46875 -5.71875 C 11.46875 -4.457031 11.238281 -3.378906 10.78125 -2.484375 C 10.332031 -1.585938 9.703125 -0.90625 8.890625 -0.4375 C 8.085938 0.03125 7.160156 0.265625 6.109375 0.265625 C 5.066406 0.265625 4.144531 0.0390625 3.34375 -0.40625 C 2.539062 -0.863281 1.910156 -1.539062 1.453125 -2.4375 C 1.003906 -3.332031 0.78125 -4.414062 0.78125 -5.6875 Z M 6.109375 -10.0625 C 5.460938 -10.0625 4.882812 -9.894531 4.375 -9.5625 C 3.875 -9.226562 3.476562 -8.734375 3.1875 -8.078125 C 2.894531 -7.421875 2.75 -6.625 2.75 -5.6875 C 2.75 -4.75 2.890625 -3.953125 3.171875 -3.296875 C 3.460938 -2.648438 3.859375 -2.160156 4.359375 -1.828125 C 4.867188 -1.492188 5.453125 -1.328125 6.109375 -1.328125 C 6.796875 -1.328125 7.390625 -1.5 7.890625 -1.84375 C 8.398438 -2.1875 8.789062 -2.6875 9.0625 -3.34375 C 9.34375 -4 9.484375 -4.789062 9.484375 -5.71875 C 9.484375 -6.644531 9.335938 -7.429688 9.046875 -8.078125 C 8.765625 -8.734375 8.367188 -9.226562 7.859375 -9.5625 C 7.347656 -9.894531 6.765625 -10.0625 6.109375 -10.0625 Z M 6.109375 -10.0625 "/></g></g></g><g fill="#2c3152" fill-opacity="1"><g transform="translate(162.978973, 292.622676)"><g><path d="M 5.96875 -9.671875 C 5.144531 -9.671875 4.515625 -9.351562 4.078125 -8.71875 C 3.640625 -8.09375 3.421875 -7.210938 3.421875 -6.078125 L 3.421875 0 L 1.5 0 L 1.5 -11.390625 L 3.296875 -11.390625 L 3.296875 -9.671875 C 3.722656 -10.390625 4.15625 -10.898438 4.59375 -11.203125 C 5.03125 -11.503906 5.554688 -11.65625 6.171875 -11.65625 C 6.515625 -11.65625 6.832031 -11.613281 7.125 -11.53125 C 7.425781 -11.445312 7.726562 -11.3125 8.03125 -11.125 L 7.375 -9.34375 C 6.957031 -9.5625 6.488281 -9.671875 5.96875 -9.671875 Z M 5.96875 -9.671875 "/></g></g></g><g fill="#2c3152" fill-opacity="1"><g transform="translate(170.916045, 292.622676)"><g><path d="M 6.234375 -1.328125 C 6.960938 -1.328125 7.59375 -1.539062 8.125 -1.96875 C 8.65625 -2.394531 9.023438 -2.960938 9.234375 -3.671875 L 11.125 -3.390625 C 10.800781 -2.234375 10.195312 -1.332031 9.3125 -0.6875 C 8.4375 -0.0507812 7.378906 0.265625 6.140625 0.265625 C 5.046875 0.265625 4.09375 0.0234375 3.28125 -0.453125 C 2.476562 -0.929688 1.859375 -1.613281 1.421875 -2.5 C 0.992188 -3.382812 0.78125 -4.421875 0.78125 -5.609375 C 0.78125 -6.828125 0.992188 -7.890625 1.421875 -8.796875 C 1.847656 -9.710938 2.460938 -10.414062 3.265625 -10.90625 C 4.078125 -11.40625 5.023438 -11.65625 6.109375 -11.65625 C 7.160156 -11.65625 8.078125 -11.421875 8.859375 -10.953125 C 9.640625 -10.484375 10.238281 -9.789062 10.65625 -8.875 C 11.082031 -7.96875 11.296875 -6.878906 11.296875 -5.609375 L 11.296875 -5.203125 L 2.765625 -5.203125 C 2.816406 -4.390625 2.988281 -3.691406 3.28125 -3.109375 C 3.570312 -2.523438 3.96875 -2.082031 4.46875 -1.78125 C 4.976562 -1.476562 5.566406 -1.328125 6.234375 -1.328125 Z M 6.09375 -10.078125 C 5.519531 -10.078125 5.003906 -9.941406 4.546875 -9.671875 C 4.085938 -9.398438 3.707031 -9.015625 3.40625 -8.515625 C 3.113281 -8.023438 2.925781 -7.453125 2.84375 -6.796875 L 9.265625 -6.796875 C 9.148438 -7.847656 8.816406 -8.65625 8.265625 -9.21875 C 7.710938 -9.789062 6.988281 -10.078125 6.09375 -10.078125 Z M 6.09375 -10.078125 "/></g></g></g><g fill="#2c3152" fill-opacity="1"><g transform="translate(182.966639, 292.622676)"><g><path d="M 4.515625 -8.8125 C 4.867188 -8.289062 5.171875 -7.796875 5.421875 -7.328125 C 5.671875 -7.785156 5.957031 -8.25 6.28125 -8.71875 L 8.078125 -11.390625 L 10.328125 -11.390625 L 6.53125 -5.9375 L 10.625 0 L 8.296875 0 L 6.40625 -2.828125 C 6.09375 -3.316406 5.753906 -3.878906 5.390625 -4.515625 C 5.109375 -4.046875 4.851562 -3.632812 4.625 -3.28125 L 2.421875 0 L 0.15625 0 L 4.265625 -5.890625 L 0.484375 -11.390625 L 2.8125 -11.390625 Z M 4.515625 -8.8125 "/></g></g></g><g fill="#2c3152" fill-opacity="1"><g transform="translate(193.749879, 292.622676)"><g><path d="M 3.421875 -13.5625 L 1.5 -13.5625 L 1.5 -15.75 L 3.421875 -15.75 Z M 3.421875 0 L 1.5 0 L 1.5 -11.390625 L 3.421875 -11.390625 Z M 3.421875 0 "/></g></g></g><g fill="#2c3152" fill-opacity="1"><g transform="translate(198.668927, 292.622676)"><g><path d="M 10.671875 0 L 8.640625 0 C 8.523438 -0.238281 8.445312 -0.429688 8.40625 -0.578125 C 8.363281 -0.734375 8.3125 -1.007812 8.25 -1.40625 C 7.695312 -0.820312 7.113281 -0.394531 6.5 -0.125 C 5.882812 0.132812 5.179688 0.265625 4.390625 0.265625 C 3.671875 0.265625 3.035156 0.128906 2.484375 -0.140625 C 1.941406 -0.421875 1.519531 -0.804688 1.21875 -1.296875 C 0.925781 -1.796875 0.78125 -2.367188 0.78125 -3.015625 C 0.78125 -3.992188 1.097656 -4.773438 1.734375 -5.359375 C 2.367188 -5.941406 3.414062 -6.34375 4.875 -6.5625 C 6.394531 -6.789062 7.476562 -7.007812 8.125 -7.21875 L 8.125 -7.515625 C 8.125 -8.148438 8.039062 -8.648438 7.875 -9.015625 C 7.707031 -9.390625 7.441406 -9.660156 7.078125 -9.828125 C 6.722656 -9.992188 6.238281 -10.078125 5.625 -10.078125 C 4.84375 -10.078125 4.226562 -9.898438 3.78125 -9.546875 C 3.332031 -9.203125 3.039062 -8.648438 2.90625 -7.890625 L 1.015625 -8.1875 C 1.242188 -9.34375 1.753906 -10.207031 2.546875 -10.78125 C 3.347656 -11.363281 4.40625 -11.65625 5.71875 -11.65625 C 6.726562 -11.65625 7.546875 -11.523438 8.171875 -11.265625 C 8.804688 -11.015625 9.28125 -10.597656 9.59375 -10.015625 C 9.90625 -9.441406 10.0625 -8.671875 10.0625 -7.703125 L 10.0625 -3.609375 C 10.0625 -2.898438 10.078125 -2.351562 10.109375 -1.96875 C 10.140625 -1.582031 10.195312 -1.25 10.28125 -0.96875 C 10.363281 -0.6875 10.492188 -0.363281 10.671875 0 Z M 4.96875 -4.9375 C 4.195312 -4.800781 3.632812 -4.578125 3.28125 -4.265625 C 2.925781 -3.953125 2.75 -3.535156 2.75 -3.015625 C 2.75 -2.460938 2.925781 -2.03125 3.28125 -1.71875 C 3.632812 -1.40625 4.144531 -1.25 4.8125 -1.25 C 5.375 -1.25 5.957031 -1.429688 6.5625 -1.796875 C 6.988281 -2.046875 7.3125 -2.316406 7.53125 -2.609375 C 7.75 -2.898438 7.898438 -3.25 7.984375 -3.65625 C 8.078125 -4.070312 8.125 -4.613281 8.125 -5.28125 L 8.125 -5.6875 C 7.945312 -5.613281 7.554688 -5.503906 6.953125 -5.359375 C 6.347656 -5.210938 5.6875 -5.070312 4.96875 -4.9375 Z M 4.96875 -4.9375 "/></g></g></g><g fill="#2c3152" fill-opacity="1"><g transform="translate(210.171772, 292.622676)"><g/></g></g><g fill="#2c3152" fill-opacity="1"><g transform="translate(216.218555, 292.622676)"><g><path d="M 8.859375 0 L 8.859375 -7.453125 C 8.859375 -8.285156 8.648438 -8.914062 8.234375 -9.34375 C 7.816406 -9.769531 7.226562 -9.984375 6.46875 -9.984375 C 5.507812 -9.984375 4.757812 -9.691406 4.21875 -9.109375 C 3.6875 -8.535156 3.421875 -7.613281 3.421875 -6.34375 L 3.421875 0 L 1.5 0 L 1.5 -11.390625 L 3.296875 -11.390625 L 3.296875 -9.8125 C 3.679688 -10.382812 4.175781 -10.832031 4.78125 -11.15625 C 5.382812 -11.488281 6.054688 -11.65625 6.796875 -11.65625 C 8.109375 -11.65625 9.097656 -11.3125 9.765625 -10.625 C 10.441406 -9.945312 10.78125 -8.976562 10.78125 -7.71875 L 10.78125 0 Z M 8.859375 0 "/></g></g></g><g fill="#2c3152" fill-opacity="1"><g transform="translate(228.451739, 292.622676)"><g><path d="M 6.234375 -1.328125 C 6.960938 -1.328125 7.59375 -1.539062 8.125 -1.96875 C 8.65625 -2.394531 9.023438 -2.960938 9.234375 -3.671875 L 11.125 -3.390625 C 10.800781 -2.234375 10.195312 -1.332031 9.3125 -0.6875 C 8.4375 -0.0507812 7.378906 0.265625 6.140625 0.265625 C 5.046875 0.265625 4.09375 0.0234375 3.28125 -0.453125 C 2.476562 -0.929688 1.859375 -1.613281 1.421875 -2.5 C 0.992188 -3.382812 0.78125 -4.421875 0.78125 -5.609375 C 0.78125 -6.828125 0.992188 -7.890625 1.421875 -8.796875 C 1.847656 -9.710938 2.460938 -10.414062 3.265625 -10.90625 C 4.078125 -11.40625 5.023438 -11.65625 6.109375 -11.65625 C 7.160156 -11.65625 8.078125 -11.421875 8.859375 -10.953125 C 9.640625 -10.484375 10.238281 -9.789062 10.65625 -8.875 C 11.082031 -7.96875 11.296875 -6.878906 11.296875 -5.609375 L 11.296875 -5.203125 L 2.765625 -5.203125 C 2.816406 -4.390625 2.988281 -3.691406 3.28125 -3.109375 C 3.570312 -2.523438 3.96875 -2.082031 4.46875 -1.78125 C 4.976562 -1.476562 5.566406 -1.328125 6.234375 -1.328125 Z M 6.09375 -10.078125 C 5.519531 -10.078125 5.003906 -9.941406 4.546875 -9.671875 C 4.085938 -9.398438 3.707031 -9.015625 3.40625 -8.515625 C 3.113281 -8.023438 2.925781 -7.453125 2.84375 -6.796875 L 9.265625 -6.796875 C 9.148438 -7.847656 8.816406 -8.65625 8.265625 -9.21875 C 7.710938 -9.789062 6.988281 -10.078125 6.09375 -10.078125 Z M 6.09375 -10.078125 "/></g></g></g><g fill="#2c3152" fill-opacity="1"><g transform="translate(240.502333, 292.622676)"><g><path d="M 5.96875 -9.671875 C 5.144531 -9.671875 4.515625 -9.351562 4.078125 -8.71875 C 3.640625 -8.09375 3.421875 -7.210938 3.421875 -6.078125 L 3.421875 0 L 1.5 0 L 1.5 -11.390625 L 3.296875 -11.390625 L 3.296875 -9.671875 C 3.722656 -10.390625 4.15625 -10.898438 4.59375 -11.203125 C 5.03125 -11.503906 5.554688 -11.65625 6.171875 -11.65625 C 6.515625 -11.65625 6.832031 -11.613281 7.125 -11.53125 C 7.425781 -11.445312 7.726562 -11.3125 8.03125 -11.125 L 7.375 -9.34375 C 6.957031 -9.5625 6.488281 -9.671875 5.96875 -9.671875 Z M 5.96875 -9.671875 "/></g></g></g><g fill="#2c3152" fill-opacity="1"><g transform="translate(248.439405, 292.622676)"><g><path d="M 4.5625 -4.84375 C 4.851562 -4.03125 5.125 -3.171875 5.375 -2.265625 L 5.421875 -2.265625 C 5.554688 -2.828125 5.785156 -3.554688 6.109375 -4.453125 L 8.640625 -11.390625 L 10.625 -11.390625 L 6.3125 0 L 4.515625 0 L 0.171875 -11.390625 L 2.21875 -11.390625 Z M 4.5625 -4.84375 "/></g></g></g><g fill="#2c3152" fill-opacity="1"><g transform="translate(259.244126, 292.622676)"><g><path d="M 0.78125 -5.6875 C 0.78125 -6.925781 1 -7.992188 1.4375 -8.890625 C 1.882812 -9.785156 2.507812 -10.46875 3.3125 -10.9375 C 4.113281 -11.414062 5.046875 -11.65625 6.109375 -11.65625 C 7.179688 -11.65625 8.117188 -11.425781 8.921875 -10.96875 C 9.722656 -10.507812 10.347656 -9.832031 10.796875 -8.9375 C 11.242188 -8.050781 11.46875 -6.976562 11.46875 -5.71875 C 11.46875 -4.457031 11.238281 -3.378906 10.78125 -2.484375 C 10.332031 -1.585938 9.703125 -0.90625 8.890625 -0.4375 C 8.085938 0.03125 7.160156 0.265625 6.109375 0.265625 C 5.066406 0.265625 4.144531 0.0390625 3.34375 -0.40625 C 2.539062 -0.863281 1.910156 -1.539062 1.453125 -2.4375 C 1.003906 -3.332031 0.78125 -4.414062 0.78125 -5.6875 Z M 6.109375 -10.0625 C 5.460938 -10.0625 4.882812 -9.894531 4.375 -9.5625 C 3.875 -9.226562 3.476562 -8.734375 3.1875 -8.078125 C 2.894531 -7.421875 2.75 -6.625 2.75 -5.6875 C 2.75 -4.75 2.890625 -3.953125 3.171875 -3.296875 C 3.460938 -2.648438 3.859375 -2.160156 4.359375 -1.828125 C 4.867188 -1.492188 5.453125 -1.328125 6.109375 -1.328125 C 6.796875 -1.328125 7.390625 -1.5 7.890625 -1.84375 C 8.398438 -2.1875 8.789062 -2.6875 9.0625 -3.34375 C 9.34375 -4 9.484375 -4.789062 9.484375 -5.71875 C 9.484375 -6.644531 9.335938 -7.429688 9.046875 -8.078125 C 8.765625 -8.734375 8.367188 -9.226562 7.859375 -9.5625 C 7.347656 -9.894531 6.765625 -10.0625 6.109375 -10.0625 Z M 6.109375 -10.0625 "/></g></g></g><g fill="#2c3152" fill-opacity="1"><g transform="translate(271.47731, 292.622676)"><g><path d="M 4.984375 -10.078125 C 4.316406 -10.078125 3.785156 -9.941406 3.390625 -9.671875 C 3.003906 -9.398438 2.8125 -9.046875 2.8125 -8.609375 C 2.8125 -8.265625 2.894531 -7.984375 3.0625 -7.765625 C 3.226562 -7.554688 3.492188 -7.378906 3.859375 -7.234375 C 4.222656 -7.097656 4.726562 -6.976562 5.375 -6.875 C 6.363281 -6.707031 7.171875 -6.488281 7.796875 -6.21875 C 8.429688 -5.945312 8.910156 -5.578125 9.234375 -5.109375 C 9.554688 -4.648438 9.71875 -4.066406 9.71875 -3.359375 C 9.71875 -2.671875 9.535156 -2.046875 9.171875 -1.484375 C 8.816406 -0.929688 8.304688 -0.5 7.640625 -0.1875 C 6.984375 0.113281 6.21875 0.265625 5.34375 0.265625 C 2.632812 0.265625 1.070312 -0.953125 0.65625 -3.390625 L 2.578125 -3.703125 C 2.703125 -2.898438 2.988281 -2.300781 3.4375 -1.90625 C 3.882812 -1.519531 4.515625 -1.328125 5.328125 -1.328125 C 6.097656 -1.328125 6.691406 -1.488281 7.109375 -1.8125 C 7.535156 -2.144531 7.75 -2.582031 7.75 -3.125 C 7.75 -3.644531 7.507812 -4.046875 7.03125 -4.328125 C 6.550781 -4.617188 5.882812 -4.832031 5.03125 -4.96875 C 3.6875 -5.175781 2.671875 -5.539062 1.984375 -6.0625 C 1.296875 -6.59375 0.953125 -7.363281 0.953125 -8.375 C 0.953125 -9 1.113281 -9.5625 1.4375 -10.0625 C 1.769531 -10.5625 2.238281 -10.953125 2.84375 -11.234375 C 3.457031 -11.515625 4.171875 -11.65625 4.984375 -11.65625 C 6.234375 -11.65625 7.222656 -11.390625 7.953125 -10.859375 C 8.691406 -10.328125 9.148438 -9.539062 9.328125 -8.5 L 7.4375 -8.203125 C 7.34375 -8.785156 7.082031 -9.242188 6.65625 -9.578125 C 6.226562 -9.910156 5.671875 -10.078125 4.984375 -10.078125 Z M 4.984375 -10.078125 "/></g></g></g><g fill="#2c3152" fill-opacity="1"><g transform="translate(281.9491, 292.622676)"><g><path d="M 10.671875 0 L 8.640625 0 C 8.523438 -0.238281 8.445312 -0.429688 8.40625 -0.578125 C 8.363281 -0.734375 8.3125 -1.007812 8.25 -1.40625 C 7.695312 -0.820312 7.113281 -0.394531 6.5 -0.125 C 5.882812 0.132812 5.179688 0.265625 4.390625 0.265625 C 3.671875 0.265625 3.035156 0.128906 2.484375 -0.140625 C 1.941406 -0.421875 1.519531 -0.804688 1.21875 -1.296875 C 0.925781 -1.796875 0.78125 -2.367188 0.78125 -3.015625 C 0.78125 -3.992188 1.097656 -4.773438 1.734375 -5.359375 C 2.367188 -5.941406 3.414062 -6.34375 4.875 -6.5625 C 6.394531 -6.789062 7.476562 -7.007812 8.125 -7.21875 L 8.125 -7.515625 C 8.125 -8.148438 8.039062 -8.648438 7.875 -9.015625 C 7.707031 -9.390625 7.441406 -9.660156 7.078125 -9.828125 C 6.722656 -9.992188 6.238281 -10.078125 5.625 -10.078125 C 4.84375 -10.078125 4.226562 -9.898438 3.78125 -9.546875 C 3.332031 -9.203125 3.039062 -8.648438 2.90625 -7.890625 L 1.015625 -8.1875 C 1.242188 -9.34375 1.753906 -10.207031 2.546875 -10.78125 C 3.347656 -11.363281 4.40625 -11.65625 5.71875 -11.65625 C 6.726562 -11.65625 7.546875 -11.523438 8.171875 -11.265625 C 8.804688 -11.015625 9.28125 -10.597656 9.59375 -10.015625 C 9.90625 -9.441406 10.0625 -8.671875 10.0625 -7.703125 L 10.0625 -3.609375 C 10.0625 -2.898438 10.078125 -2.351562 10.109375 -1.96875 C 10.140625 -1.582031 10.195312 -1.25 10.28125 -0.96875 C 10.363281 -0.6875 10.492188 -0.363281 10.671875 0 Z M 4.96875 -4.9375 C 4.195312 -4.800781 3.632812 -4.578125 3.28125 -4.265625 C 2.925781 -3.953125 2.75 -3.535156 2.75 -3.015625 C 2.75 -2.460938 2.925781 -2.03125 3.28125 -1.71875 C 3.632812 -1.40625 4.144531 -1.25 4.8125 -1.25 C 5.375 -1.25 5.957031 -1.429688 6.5625 -1.796875 C 6.988281 -2.046875 7.3125 -2.316406 7.53125 -2.609375 C 7.75 -2.898438 7.898438 -3.25 7.984375 -3.65625 C 8.078125 -4.070312 8.125 -4.613281 8.125 -5.28125 L 8.125 -5.6875 C 7.945312 -5.613281 7.554688 -5.503906 6.953125 -5.359375 C 6.347656 -5.210938 5.6875 -5.070312 4.96875 -4.9375 Z M 4.96875 -4.9375 "/></g></g></g></svg>