<svg xmlns="http://www.w3.org/2000/svg" xmlns:xlink="http://www.w3.org/1999/xlink" width="500" zoomAndPan="magnify" viewBox="0 0 375 374.999991" height="500" preserveAspectRatio="xMidYMid meet" version="1.0"><defs><clipPath id="4425c97fd9"><path d="M 138 8.265625 L 237 8.265625 L 237 117 L 138 117 Z M 138 8.265625 " clip-rule="nonzero"/></clipPath></defs><g clip-path="url(#4425c97fd9)"><path fill="#2c3152" d="M 234.292969 60.34375 C 234.292969 60.351562 229.460938 81.898438 235.757812 97.507812 C 242.492188 114.21875 184.898438 122.6875 151.796875 111.355469 C 131.160156 104.292969 140.035156 70.9375 139.511719 63.453125 C 137.589844 36.011719 157.085938 8.300781 182.953125 8.300781 C 208.820312 8.300781 233.015625 27.816406 234.292969 60.34375 Z M 234.292969 60.34375 " fill-opacity="1" fill-rule="evenodd"/></g><path fill="#ffb1a5" d="M 219.441406 60.011719 C 222.667969 60.011719 225.289062 64.386719 225.289062 69.773438 C 225.289062 75.160156 218.433594 82.027344 215.207031 82.027344 C 214.574219 82.027344 213.960938 81.855469 213.390625 81.542969 C 211.050781 80.269531 213.59375 74.101562 213.59375 69.773438 C 213.59375 64.386719 216.214844 60.011719 219.441406 60.011719 Z M 219.441406 60.011719 " fill-opacity="1" fill-rule="evenodd"/><path fill="#ffb1a5" d="M 197.453125 101.621094 C 197.453125 101.621094 197.671875 103.871094 197.453125 106.730469 C 197.171875 110.3125 197.199219 116.40625 200 119.195312 C 201.476562 120.667969 215.027344 124.679688 224.25 128.042969 C 229.152344 129.832031 229.710938 130.707031 233.472656 132.535156 C 237.644531 134.570312 236.472656 138.226562 236.226562 139.867188 C 235.167969 147.054688 206.625 153.929688 206.625 153.929688 L 204.199219 153.941406 L 204.324219 154.105469 L 185.683594 154.019531 L 167.042969 154.105469 L 167.171875 153.941406 L 164.746094 153.929688 C 164.746094 153.929688 136.203125 147.054688 135.140625 139.867188 C 134.898438 138.226562 133.726562 134.570312 137.898438 132.535156 C 142.574219 130.261719 146.417969 127.609375 152.425781 125.460938 C 160.335938 122.632812 170.085938 120.476562 171.371094 119.195312 C 174.171875 116.40625 174.195312 110.3125 173.917969 106.730469 C 173.695312 103.871094 173.917969 101.621094 173.917969 101.621094 Z M 197.453125 101.621094 " fill-opacity="1" fill-rule="evenodd"/><path fill="#2c3152" d="M 202.917969 101.417969 C 195.328125 107.558594 174.332031 107.121094 174.183594 105.222656 C 173.960938 102.363281 173.90625 101.621094 173.90625 101.621094 L 197.980469 99.769531 C 197.980469 99.769531 202.933594 100.835938 202.917969 101.417969 Z M 202.917969 101.417969 " fill-opacity="1" fill-rule="evenodd"/><path fill="#ffb1a5" d="M 194.542969 49.671875 C 200.179688 52.222656 206.085938 56.464844 211.328125 57.265625 C 214.367188 57.734375 218.488281 62.835938 218.144531 64.875 C 216.851562 72.476562 213.542969 78.492188 211.109375 84.023438 C 205.132812 97.613281 191.414062 106.097656 178.480469 106.097656 C 168.445312 106.097656 165.316406 101.316406 159.375 93.191406 C 153.707031 85.441406 150.699219 73.902344 150.699219 58.394531 C 150.699219 48.089844 158 42.410156 165.691406 36.617188 C 175.367188 29.328125 186.832031 46.183594 194.542969 49.671875 Z M 194.542969 49.671875 " fill-opacity="1" fill-rule="evenodd"/><path fill="#2c3152" d="M 175.738281 85.183594 C 175.738281 85.183594 177.59375 85.414062 180.261719 85.21875 C 180.765625 85.175781 181.269531 85.140625 181.800781 85.09375 C 182.300781 85.046875 182.835938 85.011719 183.363281 84.953125 C 184.992188 84.769531 186.734375 84.5 188.5625 83.816406 C 188.964844 83.597656 189.484375 83.738281 189.707031 84.140625 C 189.929688 84.542969 189.761719 85.058594 189.359375 85.277344 C 187.859375 86.414062 186.34375 87.242188 184.835938 87.871094 C 184.097656 88.179688 183.382812 88.414062 182.699219 88.585938 C 181.917969 88.789062 181.15625 88.90625 180.460938 88.972656 C 177.265625 89.292969 175.050781 88.757812 175.050781 88.757812 C 174.078125 88.5625 173.429688 87.609375 173.609375 86.628906 C 173.8125 85.636719 174.765625 84.992188 175.738281 85.183594 Z M 175.738281 85.183594 " fill-opacity="1" fill-rule="evenodd"/><path fill="#2c3152" d="M 168.351562 57.917969 C 168.351562 57.917969 165.933594 56.054688 161.335938 56.875 C 157.003906 57.648438 154.398438 60.203125 154.398438 60.203125 C 154.398438 60.203125 155.054688 57.90625 157.113281 56.394531 C 158.332031 55.5 160.949219 55.109375 161.75 55.015625 C 164.859375 54.652344 168.699219 55.554688 168.589844 56.027344 C 168.589844 56.027344 168.308594 57.6875 168.351562 57.917969 Z M 168.351562 57.917969 " fill-opacity="1" fill-rule="evenodd"/><path fill="#2c3152" d="M 185.832031 57.496094 C 185.832031 57.496094 188.25 55.628906 192.847656 56.445312 C 197.183594 57.214844 199.789062 59.765625 199.789062 59.765625 C 199.789062 59.765625 199.132812 57.46875 197.070312 55.957031 C 195.851562 55.066406 193.230469 54.675781 192.433594 54.582031 C 189.320312 54.222656 185.484375 55.132812 185.59375 55.601562 C 185.59375 55.601562 185.878906 57.265625 185.832031 57.496094 Z M 185.832031 57.496094 " fill-opacity="1" fill-rule="evenodd"/><path fill="#2c3152" d="M 175.753906 70.03125 L 173.605469 78.089844 C 173.535156 78.347656 173.679688 78.613281 173.933594 78.695312 L 178.285156 80.121094 C 178.550781 80.207031 178.835938 80.0625 178.921875 79.800781 C 179.003906 79.535156 178.863281 79.25 178.597656 79.164062 L 174.699219 77.886719 C 174.699219 77.886719 176.730469 70.289062 176.730469 70.289062 C 176.800781 70.023438 176.640625 69.746094 176.371094 69.675781 C 176.105469 69.601562 175.828125 69.761719 175.753906 70.03125 Z M 175.753906 70.03125 " fill-opacity="1" fill-rule="evenodd"/><path fill="#2c3152" d="M 168.828125 65.300781 C 168.804688 65.78125 168.710938 66.238281 168.546875 66.675781 C 168.382812 67.113281 168.164062 67.496094 167.882812 67.820312 C 167.605469 68.148438 167.292969 68.394531 166.941406 68.5625 C 166.589844 68.730469 166.230469 68.804688 165.859375 68.785156 C 165.488281 68.765625 165.136719 68.65625 164.804688 68.457031 C 164.472656 68.257812 164.183594 67.980469 163.9375 67.625 C 163.691406 67.273438 163.511719 66.871094 163.390625 66.421875 C 163.269531 65.972656 163.222656 65.503906 163.246094 65.023438 C 163.269531 64.542969 163.363281 64.085938 163.527344 63.648438 C 163.691406 63.210938 163.914062 62.832031 164.191406 62.503906 C 164.46875 62.175781 164.785156 61.929688 165.136719 61.761719 C 165.484375 61.597656 165.847656 61.519531 166.214844 61.539062 C 166.585938 61.558594 166.9375 61.667969 167.269531 61.867188 C 167.605469 62.070312 167.890625 62.34375 168.136719 62.699219 C 168.382812 63.050781 168.566406 63.453125 168.683594 63.902344 C 168.804688 64.355469 168.851562 64.820312 168.828125 65.300781 Z M 168.828125 65.300781 " fill-opacity="1" fill-rule="nonzero"/><path fill="#2c3152" d="M 193.910156 65.554688 C 193.914062 66.0625 193.839844 66.554688 193.691406 67.027344 C 193.542969 67.5 193.332031 67.914062 193.054688 68.277344 C 192.777344 68.640625 192.460938 68.917969 192.097656 69.117188 C 191.734375 69.3125 191.359375 69.410156 190.964844 69.414062 C 190.570312 69.414062 190.195312 69.320312 189.828125 69.125 C 189.464844 68.933594 189.144531 68.65625 188.863281 68.296875 C 188.585938 67.9375 188.367188 67.523438 188.214844 67.050781 C 188.0625 66.582031 187.988281 66.089844 187.984375 65.582031 C 187.980469 65.070312 188.054688 64.578125 188.203125 64.105469 C 188.351562 63.636719 188.5625 63.21875 188.839844 62.855469 C 189.117188 62.496094 189.433594 62.214844 189.796875 62.019531 C 190.160156 61.820312 190.535156 61.722656 190.929688 61.71875 C 191.324219 61.71875 191.699219 61.8125 192.066406 62.007812 C 192.429688 62.199219 192.75 62.476562 193.03125 62.835938 C 193.308594 63.195312 193.527344 63.609375 193.679688 64.082031 C 193.832031 64.550781 193.910156 65.042969 193.910156 65.554688 Z M 193.910156 65.554688 " fill-opacity="1" fill-rule="nonzero"/><path fill="#2c3152" d="M 208.796875 57.003906 C 208.796875 57.003906 215.136719 71.601562 211.261719 83.691406 C 211.261719 83.691406 220.726562 67.46875 217.125 56.363281 Z M 208.796875 57.003906 " fill-opacity="1" fill-rule="evenodd"/><path fill="#ffffff" d="M 220.277344 79.699219 C 220.277344 80.046875 220.214844 80.375 220.085938 80.695312 C 219.957031 81.011719 219.773438 81.292969 219.535156 81.539062 C 219.300781 81.78125 219.023438 81.96875 218.714844 82.101562 C 218.402344 82.234375 218.082031 82.300781 217.746094 82.300781 C 217.410156 82.300781 217.085938 82.234375 216.777344 82.101562 C 216.464844 81.96875 216.191406 81.78125 215.953125 81.539062 C 215.714844 81.292969 215.535156 81.011719 215.40625 80.695312 C 215.277344 80.375 215.210938 80.046875 215.210938 79.699219 C 215.210938 79.355469 215.277344 79.023438 215.40625 78.707031 C 215.535156 78.386719 215.714844 78.109375 215.953125 77.863281 C 216.191406 77.621094 216.464844 77.433594 216.777344 77.300781 C 217.085938 77.167969 217.410156 77.101562 217.746094 77.101562 C 218.082031 77.101562 218.402344 77.167969 218.714844 77.300781 C 219.023438 77.433594 219.300781 77.621094 219.535156 77.863281 C 219.773438 78.109375 219.957031 78.386719 220.085938 78.707031 C 220.214844 79.023438 220.277344 79.355469 220.277344 79.699219 Z M 220.277344 79.699219 " fill-opacity="1" fill-rule="nonzero"/><path fill="#ffb1a5" d="M 87.867188 313.210938 C 87.867188 313.210938 87.511719 350.445312 114.898438 358.058594 L 122.921875 329.253906 L 111.226562 311.386719 Z M 87.867188 313.210938 " fill-opacity="1" fill-rule="evenodd"/><path fill="#46bdb6" d="M 155.300781 123.765625 L 185.351562 144.03125 L 215.148438 123.765625 C 215.148438 123.765625 256.292969 132.71875 268.183594 147.015625 C 283.914062 165.933594 244.71875 183.203125 239.8125 204.566406 C 233.390625 232.507812 220.777344 365.683594 220.777344 365.683594 L 170.160156 366.4375 L 149.644531 362.113281 C 149.644531 362.113281 143.234375 202.34375 142.019531 169.609375 C 141.269531 149.363281 89.480469 167.660156 103.867188 150.359375 C 115.757812 136.0625 155.300781 123.765625 155.300781 123.765625 Z M 155.300781 123.765625 " fill-opacity="1" fill-rule="evenodd"/><path fill="#ffffff" d="M 225.429688 126.210938 C 226.921875 126.90625 232.1875 128.3125 237.582031 129.988281 C 243.480469 131.820312 249.546875 133.9375 251.222656 134.832031 C 261.167969 140.128906 269.753906 145.003906 277.113281 158.3125 C 281.976562 167.109375 298.414062 208.957031 302.3125 233.132812 C 306.535156 259.292969 297.0625 288.660156 279.296875 298.878906 C 267.417969 305.714844 261.171875 308.222656 258.242188 286.996094 C 257.976562 285.050781 261.457031 279.289062 264.03125 269.199219 C 268.230469 252.738281 253.273438 220.84375 252.496094 217.945312 C 255.367188 257.910156 262.683594 361.296875 262.683594 361.296875 C 247.132812 363.683594 223.015625 368.066406 200.871094 367.097656 C 200.871094 367.097656 198.183594 188.449219 200.871094 182.214844 Z M 225.429688 126.210938 " fill-opacity="1" fill-rule="evenodd"/><path fill="#ffb1a5" d="M 218.101562 323.199219 C 218.101562 323.199219 215.296875 323.78125 213.847656 328.421875 L 248.683594 328.421875 C 248.683594 330.824219 251.347656 327.203125 251.695312 325.933594 Z M 218.101562 323.199219 " fill-opacity="1" fill-rule="evenodd"/><path fill="#ffffff" d="M 99.824219 155.03125 C 99.449219 155.710938 82.203125 206.351562 83.296875 252.867188 C 83.554688 263.761719 82.335938 281.605469 84.167969 289.785156 C 87.667969 305.390625 96.238281 312.472656 104.996094 312.265625 C 124.523438 311.808594 118.339844 232.777344 118.484375 232.25 C 115.609375 272.214844 109.324219 360.75 109.324219 360.75 C 124.875 363.140625 148.988281 367.519531 171.136719 366.550781 C 171.136719 366.550781 173.824219 188.453125 171.136719 182.21875 L 146.578125 126.214844 C 145.085938 126.90625 139.820312 128.316406 134.425781 129.992188 C 128.527344 131.824219 122.460938 133.941406 120.785156 134.832031 C 110.839844 140.128906 107.179688 141.722656 99.824219 155.03125 Z M 99.824219 155.03125 " fill-opacity="1" fill-rule="evenodd"/><path fill="#ffffff" d="M 117.761719 236.476562 C 117.761719 236.476562 141.316406 312.503906 148.4375 319.066406 C 155.554688 325.632812 144.601562 343.132812 144.601562 343.132812 C 144.601562 343.132812 133.726562 334.597656 119.65625 327.949219 C 110.796875 323.761719 92.179688 310.757812 88.367188 288.984375 C 78.511719 232.648438 100.234375 248.507812 100.234375 248.507812 Z M 117.761719 236.476562 " fill-opacity="1" fill-rule="evenodd"/><path fill="#46bdb6" d="M 134.324219 129.644531 L 140.847656 167.867188 L 149.851562 167.867188 L 149.851562 184.285156 L 171.410156 191.484375 L 171.121094 172.695312 L 143.4375 126.824219 Z M 134.324219 129.644531 " fill-opacity="0.27" fill-rule="evenodd"/><path fill="#46bdb6" d="M 236.59375 129.804688 L 235.054688 169.679688 L 226.046875 169.679688 L 227.933594 182.644531 L 199.917969 191.523438 C 199.917969 191.523438 198.191406 186.789062 199.78125 182.710938 C 204.578125 170.421875 218.082031 145.703125 227.933594 127.09375 Z M 236.59375 129.804688 " fill-opacity="0.27" fill-rule="evenodd"/><path fill="#ffffff" d="M 134.324219 129.644531 L 143.4375 166.574219 L 152.445312 166.574219 L 152.445312 182.992188 L 170.953125 187.921875 C 170.953125 187.921875 171.816406 175.078125 169.628906 170.21875 C 165.042969 160.035156 155.296875 123.765625 155.296875 123.765625 Z M 134.324219 129.644531 " fill-opacity="1" fill-rule="evenodd"/><path fill="#46bdb6" d="M 159.179688 228.074219 C 159.179688 228.074219 159.410156 237.667969 155.601562 247.675781 C 151.742188 257.835938 143.777344 268.394531 127.425781 270.078125 L 125.984375 270.222656 L 125.6875 267.34375 L 127.128906 267.195312 C 142.097656 265.65625 149.359375 255.949219 152.894531 246.648438 C 156.488281 237.199219 156.285156 228.140625 156.285156 228.140625 L 156.25 226.695312 L 159.152344 226.628906 Z M 159.179688 228.074219 " fill-opacity="1" fill-rule="evenodd"/><path fill="#46bdb6" d="M 132.71875 228.421875 C 132.71875 228.421875 132.726562 237.480469 136.535156 246.847656 C 140.285156 256.0625 147.769531 265.597656 162.769531 266.792969 L 164.214844 266.90625 L 163.984375 269.792969 L 162.539062 269.679688 C 146.15625 268.375 137.945312 258.003906 133.851562 247.9375 C 129.816406 238.019531 129.820312 228.421875 129.820312 228.421875 L 129.820312 226.972656 L 132.71875 226.972656 Z M 132.71875 228.421875 " fill-opacity="1" fill-rule="evenodd"/><path fill="#2c3152" d="M 145.085938 124.253906 C 142.289062 145.90625 142.550781 167.019531 145.78125 187.597656 C 146.011719 189.058594 145.011719 190.429688 143.546875 190.660156 C 142.082031 190.886719 140.710938 189.886719 140.480469 188.425781 C 137.171875 167.355469 136.898438 145.738281 139.761719 123.570312 C 139.949219 122.101562 144.179688 121.765625 144.597656 122.34375 C 144.984375 122.878906 145.175781 123.550781 145.085938 124.253906 Z M 145.085938 124.253906 " fill-opacity="1" fill-rule="evenodd"/><path fill="#2c3152" d="M 154.761719 228.679688 L 152.796875 192.914062 C 152.796875 192.914062 142.96875 190.816406 142.96875 190.816406 C 142.96875 190.816406 136.175781 192.921875 136.175781 192.921875 L 134.351562 228.464844 L 128.988281 228.191406 L 131.003906 188.90625 L 142.71875 185.28125 L 157.933594 188.527344 L 160.121094 228.386719 Z M 154.761719 228.679688 " fill-opacity="1" fill-rule="evenodd"/><path fill="#2c3152" d="M 165.621094 264.019531 C 163.558594 264.042969 161.90625 266.183594 161.933594 268.796875 C 161.964844 271.410156 163.667969 273.511719 165.730469 273.488281 C 167.796875 273.464844 168.285156 271.339844 168.257812 268.722656 C 168.25 268.359375 168.238281 268 168.210938 267.65625 C 168.042969 265.558594 167.398438 264 165.621094 264.019531 Z M 165.621094 264.019531 " fill-opacity="1" fill-rule="evenodd"/><path fill="#2c3152" d="M 123.746094 262.84375 C 125.808594 262.960938 127.359375 265.175781 127.210938 267.78125 C 127.058594 270.394531 125.265625 272.414062 123.203125 272.292969 C 121.136719 272.175781 120.75 270.03125 120.898438 267.421875 C 120.921875 267.054688 120.949219 266.699219 120.992188 266.355469 C 121.257812 264.269531 121.972656 262.742188 123.746094 262.84375 Z M 123.746094 262.84375 " fill-opacity="1" fill-rule="evenodd"/><path fill="#2c3152" d="M 217.253906 123.824219 C 217.253906 123.824219 223.457031 124.855469 223.464844 125.738281 C 223.546875 134.785156 223.460938 186.9375 220.449219 207.320312 L 220 210.378906 L 213.871094 209.476562 L 214.324219 206.417969 C 217.59375 184.308594 217.257812 124.453125 217.257812 124.453125 Z M 217.253906 123.824219 " fill-opacity="1" fill-rule="evenodd"/><path fill="#46bdb6" d="M 217.386719 201.589844 C 223.546875 201.589844 228.515625 206.507812 228.515625 212.519531 C 228.515625 218.535156 223.546875 223.453125 217.386719 223.453125 C 211.226562 223.453125 206.257812 218.535156 206.257812 212.519531 C 206.257812 206.507812 211.226562 201.589844 217.386719 201.589844 Z M 217.386719 201.589844 " fill-opacity="1" fill-rule="evenodd"/><path fill="#2c3152" d="M 209.347656 212.84375 C 209.320312 210.597656 210.199219 208.570312 211.625 207.085938 C 213.121094 205.523438 215.21875 204.585938 217.523438 204.574219 C 219.890625 204.585938 222.035156 205.582031 223.5625 207.191406 C 225.09375 208.792969 225.980469 211.015625 225.925781 213.429688 C 225.800781 215.839844 224.757812 217.984375 223.117188 219.476562 C 221.480469 220.964844 219.273438 221.808594 216.917969 221.652344 C 214.628906 221.476562 212.605469 220.398438 211.222656 218.742188 C 209.90625 217.164062 209.167969 215.082031 209.347656 212.84375 Z M 209.347656 212.84375 C 209.371094 215.011719 210.242188 216.953125 211.640625 218.363281 C 213.011719 219.742188 214.886719 220.59375 216.957031 220.582031 C 218.964844 220.589844 220.777344 219.75 222.105469 218.417969 C 223.398438 217.128906 224.226562 215.359375 224.261719 213.371094 C 224.359375 211.386719 223.652344 209.570312 222.457031 208.195312 C 221.222656 206.777344 219.484375 205.816406 217.484375 205.683594 C 215.425781 205.523438 213.496094 206.238281 212.035156 207.511719 C 210.539062 208.816406 209.527344 210.6875 209.347656 212.84375 Z M 209.347656 212.84375 " fill-opacity="1" fill-rule="evenodd"/><path fill="#ffffff" d="M 236.59375 129.804688 L 230.789062 166.574219 L 221.785156 166.574219 L 223.671875 179.539062 C 215.707031 182.332031 207.746094 185.125 199.78125 187.921875 C 198.492188 168.53125 208.5 147.316406 215.144531 123.765625 C 222.722656 124.078125 229.792969 126.402344 236.59375 129.804688 Z M 236.59375 129.804688 " fill-opacity="1" fill-rule="evenodd"/><path fill="#46bdb6" d="M 166.941406 204.65625 C 166.941406 204.953125 166.886719 205.238281 166.777344 205.511719 C 166.667969 205.785156 166.511719 206.027344 166.308594 206.238281 C 166.109375 206.449219 165.875 206.609375 165.609375 206.722656 C 165.347656 206.835938 165.074219 206.894531 164.789062 206.894531 C 164.5 206.894531 164.226562 206.835938 163.964844 206.722656 C 163.699219 206.609375 163.464844 206.449219 163.265625 206.238281 C 163.0625 206.027344 162.90625 205.785156 162.796875 205.511719 C 162.6875 205.238281 162.632812 204.953125 162.632812 204.65625 C 162.632812 204.355469 162.6875 204.070312 162.796875 203.796875 C 162.90625 203.523438 163.0625 203.28125 163.265625 203.070312 C 163.464844 202.859375 163.699219 202.699219 163.964844 202.585938 C 164.226562 202.472656 164.5 202.414062 164.789062 202.414062 C 165.074219 202.414062 165.347656 202.472656 165.609375 202.585938 C 165.875 202.699219 166.109375 202.859375 166.308594 203.070312 C 166.511719 203.28125 166.667969 203.523438 166.777344 203.796875 C 166.886719 204.070312 166.941406 204.355469 166.941406 204.65625 Z M 166.941406 204.65625 " fill-opacity="0.27" fill-rule="nonzero"/><path fill="#46bdb6" d="M 166.941406 238.046875 C 166.941406 238.34375 166.886719 238.628906 166.777344 238.90625 C 166.667969 239.179688 166.511719 239.421875 166.308594 239.632812 C 166.109375 239.839844 165.875 240.003906 165.609375 240.117188 C 165.347656 240.230469 165.074219 240.289062 164.789062 240.289062 C 164.5 240.289062 164.226562 240.230469 163.964844 240.117188 C 163.699219 240.003906 163.464844 239.839844 163.265625 239.632812 C 163.0625 239.421875 162.90625 239.179688 162.796875 238.90625 C 162.6875 238.628906 162.632812 238.34375 162.632812 238.046875 C 162.632812 237.75 162.6875 237.464844 162.796875 237.191406 C 162.90625 236.917969 163.0625 236.675781 163.265625 236.464844 C 163.464844 236.253906 163.699219 236.09375 163.964844 235.980469 C 164.226562 235.863281 164.5 235.808594 164.789062 235.808594 C 165.074219 235.808594 165.347656 235.863281 165.609375 235.980469 C 165.875 236.09375 166.109375 236.253906 166.308594 236.464844 C 166.511719 236.675781 166.667969 236.917969 166.777344 237.191406 C 166.886719 237.464844 166.941406 237.75 166.941406 238.046875 Z M 166.941406 238.046875 " fill-opacity="0.27" fill-rule="nonzero"/><path fill="#46bdb6" d="M 166.941406 271.441406 C 166.941406 271.738281 166.886719 272.023438 166.777344 272.300781 C 166.667969 272.574219 166.511719 272.816406 166.308594 273.027344 C 166.109375 273.234375 165.875 273.398438 165.609375 273.511719 C 165.347656 273.625 165.074219 273.683594 164.789062 273.683594 C 164.5 273.683594 164.226562 273.625 163.964844 273.511719 C 163.699219 273.398438 163.464844 273.234375 163.265625 273.027344 C 163.0625 272.816406 162.90625 272.574219 162.796875 272.300781 C 162.6875 272.023438 162.632812 271.738281 162.632812 271.441406 C 162.632812 271.144531 162.6875 270.859375 162.796875 270.585938 C 162.90625 270.3125 163.0625 270.070312 163.265625 269.859375 C 163.464844 269.648438 163.699219 269.488281 163.964844 269.371094 C 164.226562 269.257812 164.5 269.203125 164.789062 269.203125 C 165.074219 269.203125 165.347656 269.257812 165.609375 269.371094 C 165.875 269.488281 166.109375 269.648438 166.308594 269.859375 C 166.511719 270.070312 166.667969 270.3125 166.777344 270.585938 C 166.886719 270.859375 166.941406 271.144531 166.941406 271.441406 Z M 166.941406 271.441406 " fill-opacity="0.27" fill-rule="nonzero"/><path fill="#ffffff" d="M 244.140625 207.914062 C 244.140625 207.914062 256.882812 248.117188 246.636719 263.183594 C 230.652344 286.695312 229.542969 302.113281 228.792969 305.523438 C 227.167969 313 251.226562 330.539062 251.226562 322.953125 C 251.226562 322.953125 307.203125 293.242188 303.304688 244.738281 C 299.40625 196.234375 244.140625 207.914062 244.140625 207.914062 Z M 244.140625 207.914062 " fill-opacity="1" fill-rule="evenodd"/><path fill="#46bdb6" d="M 249 185.667969 L 250.433594 254.507812 C 250.445312 254.84375 250.175781 255.121094 249.84375 255.132812 C 249.507812 255.140625 249.226562 254.878906 249.21875 254.546875 L 247.789062 185.707031 C 247.777344 185.371094 248.039062 185.09375 248.375 185.082031 C 248.707031 185.070312 248.988281 185.332031 249 185.667969 Z M 249 185.667969 " fill-opacity="1" fill-rule="evenodd"/><path fill="#46bdb6" d="M 251.910156 251.308594 C 251.910156 251.308594 246.398438 265.261719 236.378906 278.597656 C 236.171875 278.867188 235.792969 278.921875 235.527344 278.71875 C 235.261719 278.519531 235.207031 278.140625 235.40625 277.871094 C 245.320312 264.671875 250.78125 250.863281 250.78125 250.863281 C 250.90625 250.550781 251.257812 250.398438 251.570312 250.519531 C 251.886719 250.644531 252.035156 250.996094 251.910156 251.308594 Z M 251.910156 251.308594 " fill-opacity="1" fill-rule="evenodd"/><path fill="#46bdb6" d="M 119.996094 286.214844 C 119.996094 286.214844 116.164062 223.789062 117.257812 182.886719 L 117.273438 182.332031 L 116.164062 182.304688 L 116.148438 182.859375 C 115.054688 223.796875 118.886719 286.28125 118.886719 286.28125 L 118.925781 286.835938 L 120.03125 286.769531 Z M 119.996094 286.214844 " fill-opacity="1" fill-rule="evenodd"/><path fill="#46bdb6" d="M 119.519531 285.460938 C 119.519531 285.460938 114.636719 314.019531 110.550781 321.359375 L 110.246094 321.90625 L 111.339844 322.515625 L 111.644531 321.96875 C 115.777344 314.542969 120.753906 285.671875 120.753906 285.671875 L 120.859375 285.054688 L 119.625 284.839844 Z M 119.519531 285.460938 " fill-opacity="1" fill-rule="evenodd"/><path fill="#46bdb6" d="M 124.027344 204.089844 L 149.949219 204.089844 L 149.949219 213.234375 L 124.027344 213.234375 Z M 124.027344 204.089844 " fill-opacity="0.27" fill-rule="evenodd"/><path fill="#2c3152" d="M 118.675781 265.167969 L 82.167969 266.71875 L 85.453125 347.757812 L 110.15625 342.289062 C 110.15625 342.289062 125.976562 290.601562 118.675781 265.167969 Z M 118.675781 265.167969 " fill-opacity="1" fill-rule="evenodd"/><path fill="#ffffff" d="M 81.941406 267.054688 L 89.171875 272.085938 C 89.28125 276.371094 91.089844 345.445312 91.089844 345.445312 C 91.089844 345.671875 91.28125 345.851562 91.5 345.84375 C 91.746094 345.839844 91.910156 345.648438 91.910156 345.421875 L 89.996094 271.855469 C 89.996094 271.726562 89.941406 271.605469 89.832031 271.53125 L 82.410156 266.378906 C 82.21875 266.25 81.96875 266.296875 81.832031 266.484375 C 81.695312 266.667969 81.75 266.925781 81.941406 267.054688 Z M 81.941406 267.054688 " fill-opacity="1" fill-rule="evenodd"/></svg>