<svg xmlns="http://www.w3.org/2000/svg" xmlns:xlink="http://www.w3.org/1999/xlink" width="308" zoomAndPan="magnify" viewBox="0 0 230.87999 231" height="308" preserveAspectRatio="xMidYMid meet" version="1.0"><defs><g/><clipPath id="e40d85ca0a"><path d="M 0.207031 0.0585938 L 230.488281 0.0585938 L 230.488281 230.332031 L 0.207031 230.332031 Z M 0.207031 0.0585938 " clip-rule="nonzero"/></clipPath><clipPath id="4c2e4a2917"><path d="M 0.207031 115.191406 C 0.207031 178.78125 51.757812 230.332031 115.347656 230.332031 C 178.9375 230.332031 230.488281 178.78125 230.488281 115.191406 C 230.488281 51.601562 178.9375 0.0507812 115.347656 0.0507812 C 51.757812 0.0507812 0.207031 51.601562 0.207031 115.191406 Z M 0.207031 115.191406 " clip-rule="nonzero"/></clipPath></defs><g clip-path="url(#e40d85ca0a)"><g clip-path="url(#4c2e4a2917)"><path fill="#d7e2f7" d="M 0.207031 230.332031 L 230.488281 230.332031 L 230.488281 0.0585938 L 0.207031 0.0585938 Z M 0.207031 230.332031 " fill-opacity="1" fill-rule="nonzero"/></g></g><g fill="#2c3152" fill-opacity="1"><g transform="translate(40.413765, 109.585402)"><g><path d="M 21.21875 -22.71875 L 12.6875 -22.71875 L 12.6875 0 L 9.28125 0 L 9.28125 -22.71875 L 0.796875 -22.71875 L 0.796875 -25.75 L 21.21875 -25.75 Z M 21.21875 -22.71875 "/></g></g></g><g fill="#2c3152" fill-opacity="1"><g transform="translate(62.382503, 109.585402)"><g><path d="M 5.578125 -16.5 C 6.296875 -17.34375 7.109375 -17.976562 8.015625 -18.40625 C 8.929688 -18.84375 9.988281 -19.0625 11.1875 -19.0625 C 12.1875 -19.0625 13.09375 -18.90625 13.90625 -18.59375 C 14.726562 -18.28125 15.414062 -17.859375 15.96875 -17.328125 C 16.539062 -16.773438 16.957031 -16.078125 17.21875 -15.234375 C 17.476562 -14.398438 17.609375 -13.328125 17.609375 -12.015625 L 17.609375 0 L 14.453125 0 L 14.453125 -11.9375 C 14.453125 -13.351562 14.113281 -14.4375 13.4375 -15.1875 C 12.769531 -15.945312 11.78125 -16.328125 10.46875 -16.328125 C 9.507812 -16.328125 8.597656 -16.054688 7.734375 -15.515625 C 6.867188 -14.972656 6.269531 -14.222656 5.9375 -13.265625 C 5.695312 -12.546875 5.578125 -11.625 5.578125 -10.5 L 5.578125 0 L 2.40625 0 L 2.40625 -25.75 L 5.578125 -25.75 Z M 5.578125 -16.5 "/></g></g></g><g fill="#2c3152" fill-opacity="1"><g transform="translate(82.373692, 109.585402)"><g><path d="M 10.109375 -19.0625 C 11.898438 -19.0625 13.4375 -18.632812 14.71875 -17.78125 C 16 -16.925781 16.960938 -15.78125 17.609375 -14.34375 C 18.265625 -12.90625 18.59375 -11.300781 18.59375 -9.53125 L 18.59375 -8.515625 L 4.671875 -8.515625 C 4.765625 -6.523438 5.328125 -4.972656 6.359375 -3.859375 C 7.390625 -2.742188 8.707031 -2.1875 10.3125 -2.1875 C 11.539062 -2.1875 12.554688 -2.507812 13.359375 -3.15625 C 14.160156 -3.8125 14.773438 -4.757812 15.203125 -6 L 18.484375 -5.609375 C 17.972656 -3.734375 17.015625 -2.265625 15.609375 -1.203125 C 14.210938 -0.140625 12.5 0.390625 10.46875 0.390625 C 7.613281 0.390625 5.390625 -0.445312 3.796875 -2.125 C 2.203125 -3.800781 1.40625 -6.148438 1.40625 -9.171875 C 1.40625 -11.179688 1.765625 -12.925781 2.484375 -14.40625 C 3.203125 -15.894531 4.210938 -17.039062 5.515625 -17.84375 C 6.828125 -18.65625 8.359375 -19.0625 10.109375 -19.0625 Z M 4.859375 -11.140625 L 15.25 -11.140625 C 15.175781 -12.921875 14.628906 -14.253906 13.609375 -15.140625 C 12.585938 -16.023438 11.421875 -16.46875 10.109375 -16.46875 C 8.617188 -16.46875 7.398438 -15.960938 6.453125 -14.953125 C 5.503906 -13.953125 4.972656 -12.679688 4.859375 -11.140625 Z M 4.859375 -11.140625 "/></g></g></g><g fill="#2c3152" fill-opacity="1"><g transform="translate(102.364881, 109.585402)"><g><path d="M 9.234375 -19.0625 C 10.316406 -19.0625 11.382812 -18.722656 12.4375 -18.046875 L 11.359375 -15.140625 C 10.585938 -15.585938 9.785156 -15.8125 8.953125 -15.8125 C 7.753906 -15.8125 6.875 -15.265625 6.3125 -14.171875 C 5.75 -13.085938 5.46875 -11.679688 5.46875 -9.953125 L 5.46875 0 L 2.296875 0 L 2.296875 -18.625 L 5.140625 -18.625 L 5.140625 -15.8125 C 5.742188 -16.894531 6.335938 -17.707031 6.921875 -18.25 C 7.503906 -18.789062 8.273438 -19.0625 9.234375 -19.0625 Z M 9.234375 -19.0625 "/></g></g></g><g fill="#2c3152" fill-opacity="1"><g transform="translate(114.338025, 109.585402)"><g><path d="M 10.203125 -19.0625 C 11.742188 -19.0625 12.988281 -18.910156 13.9375 -18.609375 C 14.882812 -18.304688 15.628906 -17.867188 16.171875 -17.296875 C 16.703125 -16.742188 17.0625 -16.128906 17.25 -15.453125 C 17.445312 -14.785156 17.546875 -13.898438 17.546875 -12.796875 L 17.546875 -5.28125 C 17.546875 -2.863281 17.878906 -1.101562 18.546875 0 L 15.25 0 C 14.9375 -0.644531 14.71875 -1.410156 14.59375 -2.296875 C 13.445312 -1.335938 12.328125 -0.640625 11.234375 -0.203125 C 10.140625 0.222656 9.007812 0.4375 7.84375 0.4375 C 5.820312 0.4375 4.234375 -0.0507812 3.078125 -1.03125 C 1.929688 -2.019531 1.359375 -3.316406 1.359375 -4.921875 C 1.359375 -5.765625 1.550781 -6.570312 1.9375 -7.34375 C 2.320312 -8.125 2.847656 -8.734375 3.515625 -9.171875 C 4.242188 -9.648438 4.976562 -9.992188 5.71875 -10.203125 C 6.457031 -10.421875 7.367188 -10.59375 8.453125 -10.71875 C 9.597656 -10.832031 10.738281 -10.988281 11.875 -11.1875 C 13.019531 -11.394531 13.851562 -11.609375 14.375 -11.828125 L 14.375 -12.625 C 14.375 -13.894531 14.03125 -14.851562 13.34375 -15.5 C 12.664062 -16.144531 11.5 -16.46875 9.84375 -16.46875 C 8.289062 -16.46875 7.171875 -16.191406 6.484375 -15.640625 C 5.804688 -15.085938 5.3125 -14.175781 5 -12.90625 L 1.90625 -13.296875 C 2.332031 -15.316406 3.234375 -16.78125 4.609375 -17.6875 C 5.992188 -18.601562 7.859375 -19.0625 10.203125 -19.0625 Z M 9.84375 -8.265625 C 8.625 -8.078125 7.6875 -7.890625 7.03125 -7.703125 C 6.375 -7.523438 5.828125 -7.226562 5.390625 -6.8125 C 4.960938 -6.394531 4.75 -5.789062 4.75 -5 C 4.75 -4.0625 5.085938 -3.332031 5.765625 -2.8125 C 6.453125 -2.300781 7.421875 -2.046875 8.671875 -2.046875 C 9.390625 -2.046875 10.164062 -2.195312 11 -2.5 C 11.84375 -2.800781 12.570312 -3.320312 13.1875 -4.0625 C 13.601562 -4.539062 13.90625 -5.078125 14.09375 -5.671875 C 14.28125 -6.273438 14.375 -7.046875 14.375 -7.984375 L 14.375 -9.34375 C 13.414062 -8.957031 11.90625 -8.597656 9.84375 -8.265625 Z M 9.84375 -8.265625 "/></g></g></g><g fill="#2c3152" fill-opacity="1"><g transform="translate(134.329214, 109.585402)"><g><path d="M 10.671875 -19.0625 C 12.253906 -19.0625 13.644531 -18.664062 14.84375 -17.875 C 16.039062 -17.082031 16.96875 -15.972656 17.625 -14.546875 C 18.289062 -13.117188 18.625 -11.46875 18.625 -9.59375 C 18.625 -7.5625 18.265625 -5.789062 17.546875 -4.28125 C 16.828125 -2.769531 15.847656 -1.613281 14.609375 -0.8125 C 13.378906 -0.0078125 12.007812 0.390625 10.5 0.390625 C 9.519531 0.390625 8.609375 0.179688 7.765625 -0.234375 C 6.921875 -0.648438 6.203125 -1.21875 5.609375 -1.9375 L 5.609375 7.15625 L 2.4375 7.15625 L 2.4375 -18.625 L 5.328125 -18.625 L 5.328125 -16.21875 C 6.015625 -17.175781 6.769531 -17.890625 7.59375 -18.359375 C 8.425781 -18.828125 9.453125 -19.0625 10.671875 -19.0625 Z M 5.28125 -9.203125 C 5.28125 -6.953125 5.734375 -5.21875 6.640625 -4 C 7.554688 -2.789062 8.769531 -2.1875 10.28125 -2.1875 C 11.769531 -2.1875 12.992188 -2.8125 13.953125 -4.0625 C 14.910156 -5.3125 15.390625 -7.109375 15.390625 -9.453125 C 15.390625 -11.660156 14.929688 -13.398438 14.015625 -14.671875 C 13.109375 -15.941406 11.898438 -16.578125 10.390625 -16.578125 C 9.410156 -16.578125 8.535156 -16.269531 7.765625 -15.65625 C 6.992188 -15.039062 6.382812 -14.171875 5.9375 -13.046875 C 5.5 -11.921875 5.28125 -10.640625 5.28125 -9.203125 Z M 5.28125 -9.203125 "/></g></g></g><g fill="#2c3152" fill-opacity="1"><g transform="translate(154.320403, 109.585402)"><g><path d="M 5.578125 -22.140625 L 2.40625 -22.140625 L 2.40625 -25.75 L 5.578125 -25.75 Z M 5.578125 0 L 2.40625 0 L 2.40625 -18.625 L 5.578125 -18.625 Z M 5.578125 0 "/></g></g></g><g fill="#2c3152" fill-opacity="1"><g transform="translate(162.302502, 109.585402)"><g><path d="M 8.5625 -19.0625 C 10.664062 -19.0625 12.363281 -18.625 13.65625 -17.75 C 14.957031 -16.875 15.703125 -15.570312 15.890625 -13.84375 L 12.796875 -13.40625 C 12.648438 -14.34375 12.253906 -15.085938 11.609375 -15.640625 C 10.960938 -16.191406 10.003906 -16.46875 8.734375 -16.46875 C 7.460938 -16.46875 6.472656 -16.25 5.765625 -15.8125 C 5.054688 -15.382812 4.703125 -14.785156 4.703125 -14.015625 C 4.703125 -13.492188 4.910156 -13.054688 5.328125 -12.703125 C 5.753906 -12.359375 6.253906 -12.097656 6.828125 -11.921875 C 7.398438 -11.742188 8.273438 -11.507812 9.453125 -11.21875 C 10.960938 -10.851562 12.191406 -10.488281 13.140625 -10.125 C 14.085938 -9.769531 14.898438 -9.222656 15.578125 -8.484375 C 16.265625 -7.742188 16.609375 -6.75 16.609375 -5.5 C 16.609375 -4.425781 16.304688 -3.4375 15.703125 -2.53125 C 15.109375 -1.632812 14.253906 -0.921875 13.140625 -0.390625 C 12.023438 0.128906 10.75 0.390625 9.3125 0.390625 C 6.820312 0.390625 4.914062 -0.0976562 3.59375 -1.078125 C 2.28125 -2.054688 1.453125 -3.554688 1.109375 -5.578125 L 4.25 -6.046875 C 4.414062 -4.773438 4.921875 -3.8125 5.765625 -3.15625 C 6.617188 -2.507812 7.71875 -2.1875 9.0625 -2.1875 C 10.425781 -2.1875 11.484375 -2.46875 12.234375 -3.03125 C 12.992188 -3.601562 13.375 -4.304688 13.375 -5.140625 C 13.375 -5.929688 12.992188 -6.519531 12.234375 -6.90625 C 11.484375 -7.289062 10.328125 -7.660156 8.765625 -8.015625 C 7.234375 -8.378906 6.003906 -8.734375 5.078125 -9.078125 C 4.160156 -9.421875 3.359375 -9.960938 2.671875 -10.703125 C 1.992188 -11.453125 1.65625 -12.453125 1.65625 -13.703125 C 1.65625 -14.703125 1.921875 -15.609375 2.453125 -16.421875 C 2.992188 -17.242188 3.785156 -17.890625 4.828125 -18.359375 C 5.878906 -18.828125 7.125 -19.0625 8.5625 -19.0625 Z M 8.5625 -19.0625 "/></g></g></g><g fill="#2c3152" fill-opacity="1"><g transform="translate(180.280196, 109.585402)"><g><path d="M 6.078125 -18.625 L 9.234375 -18.625 L 9.234375 -16.25 L 6.078125 -16.25 L 6.078125 -4.703125 C 6.078125 -3.890625 6.191406 -3.316406 6.421875 -2.984375 C 6.648438 -2.648438 7.125 -2.484375 7.84375 -2.484375 C 8.007812 -2.484375 8.472656 -2.539062 9.234375 -2.65625 L 9.703125 0.140625 C 8.742188 0.335938 7.96875 0.4375 7.375 0.4375 C 6.144531 0.4375 5.207031 0.238281 4.5625 -0.15625 C 3.914062 -0.550781 3.476562 -1.101562 3.25 -1.8125 C 3.019531 -2.519531 2.90625 -3.4375 2.90625 -4.5625 L 2.90625 -16.25 L 0.609375 -16.25 L 0.609375 -18.625 L 2.90625 -18.625 L 2.90625 -23.265625 L 6.078125 -25.171875 Z M 6.078125 -18.625 "/></g></g></g><g fill="#2c3152" fill-opacity="1"><g transform="translate(56.18911, 141.514969)"><g><path d="M 7.90625 -8.46875 L 4.734375 -8.46875 L 4.734375 0 L 3.453125 0 L 3.453125 -8.46875 L 0.296875 -8.46875 L 0.296875 -9.59375 L 7.90625 -9.59375 Z M 7.90625 -8.46875 "/></g></g></g><g fill="#2c3152" fill-opacity="1"><g transform="translate(64.368951, 141.514969)"><g><path d="M 3.4375 -7.09375 C 3.84375 -7.09375 4.242188 -6.96875 4.640625 -6.71875 L 4.234375 -5.640625 C 3.941406 -5.804688 3.640625 -5.890625 3.328125 -5.890625 C 2.890625 -5.890625 2.5625 -5.6875 2.34375 -5.28125 C 2.132812 -4.875 2.03125 -4.347656 2.03125 -3.703125 L 2.03125 0 L 0.859375 0 L 0.859375 -6.9375 L 1.921875 -6.9375 L 1.921875 -5.890625 C 2.140625 -6.296875 2.359375 -6.597656 2.578125 -6.796875 C 2.796875 -6.992188 3.082031 -7.09375 3.4375 -7.09375 Z M 3.4375 -7.09375 "/></g></g></g><g fill="#2c3152" fill-opacity="1"><g transform="translate(68.827037, 141.514969)"><g><path d="M 3.765625 -7.09375 C 4.429688 -7.09375 5.003906 -6.929688 5.484375 -6.609375 C 5.960938 -6.296875 6.320312 -5.875 6.5625 -5.34375 C 6.800781 -4.8125 6.921875 -4.210938 6.921875 -3.546875 L 6.921875 -3.171875 L 1.734375 -3.171875 C 1.773438 -2.429688 1.988281 -1.851562 2.375 -1.4375 C 2.757812 -1.019531 3.25 -0.8125 3.84375 -0.8125 C 4.300781 -0.8125 4.675781 -0.929688 4.96875 -1.171875 C 5.269531 -1.421875 5.503906 -1.773438 5.671875 -2.234375 L 6.875 -2.09375 C 6.6875 -1.394531 6.332031 -0.847656 5.8125 -0.453125 C 5.289062 -0.0546875 4.648438 0.140625 3.890625 0.140625 C 2.828125 0.140625 2 -0.171875 1.40625 -0.796875 C 0.8125 -1.421875 0.515625 -2.296875 0.515625 -3.421875 C 0.515625 -4.171875 0.648438 -4.820312 0.921875 -5.375 C 1.191406 -5.925781 1.566406 -6.347656 2.046875 -6.640625 C 2.535156 -6.941406 3.109375 -7.09375 3.765625 -7.09375 Z M 1.8125 -4.15625 L 5.671875 -4.15625 C 5.648438 -4.8125 5.445312 -5.304688 5.0625 -5.640625 C 4.6875 -5.972656 4.253906 -6.140625 3.765625 -6.140625 C 3.210938 -6.140625 2.757812 -5.953125 2.40625 -5.578125 C 2.050781 -5.203125 1.851562 -4.726562 1.8125 -4.15625 Z M 1.8125 -4.15625 "/></g></g></g><g fill="#2c3152" fill-opacity="1"><g transform="translate(76.270559, 141.514969)"><g><path d="M 3.796875 -7.09375 C 4.367188 -7.09375 4.832031 -7.035156 5.1875 -6.921875 C 5.539062 -6.816406 5.820312 -6.65625 6.03125 -6.4375 C 6.226562 -6.238281 6.359375 -6.015625 6.421875 -5.765625 C 6.492188 -5.515625 6.53125 -5.179688 6.53125 -4.765625 L 6.53125 -1.96875 C 6.53125 -1.0625 6.65625 -0.40625 6.90625 0 L 5.671875 0 C 5.554688 -0.238281 5.476562 -0.523438 5.4375 -0.859375 C 5.007812 -0.503906 4.59375 -0.242188 4.1875 -0.078125 C 3.78125 0.078125 3.359375 0.15625 2.921875 0.15625 C 2.171875 0.15625 1.582031 -0.0234375 1.15625 -0.390625 C 0.726562 -0.753906 0.515625 -1.234375 0.515625 -1.828125 C 0.515625 -2.140625 0.582031 -2.441406 0.71875 -2.734375 C 0.863281 -3.023438 1.0625 -3.253906 1.3125 -3.421875 C 1.582031 -3.597656 1.851562 -3.722656 2.125 -3.796875 C 2.40625 -3.878906 2.742188 -3.941406 3.140625 -3.984375 C 3.578125 -4.035156 4.003906 -4.097656 4.421875 -4.171875 C 4.847656 -4.242188 5.160156 -4.320312 5.359375 -4.40625 L 5.359375 -4.703125 C 5.359375 -5.171875 5.226562 -5.523438 4.96875 -5.765625 C 4.71875 -6.015625 4.285156 -6.140625 3.671875 -6.140625 C 3.085938 -6.140625 2.664062 -6.035156 2.40625 -5.828125 C 2.15625 -5.617188 1.972656 -5.28125 1.859375 -4.8125 L 0.703125 -4.953125 C 0.867188 -5.703125 1.207031 -6.242188 1.71875 -6.578125 C 2.226562 -6.921875 2.921875 -7.09375 3.796875 -7.09375 Z M 3.671875 -3.078125 C 3.210938 -3.003906 2.859375 -2.929688 2.609375 -2.859375 C 2.367188 -2.796875 2.164062 -2.6875 2 -2.53125 C 1.84375 -2.375 1.765625 -2.148438 1.765625 -1.859375 C 1.765625 -1.515625 1.890625 -1.242188 2.140625 -1.046875 C 2.398438 -0.859375 2.765625 -0.765625 3.234375 -0.765625 C 3.492188 -0.765625 3.78125 -0.816406 4.09375 -0.921875 C 4.40625 -1.035156 4.679688 -1.234375 4.921875 -1.515625 C 5.066406 -1.691406 5.175781 -1.890625 5.25 -2.109375 C 5.320312 -2.335938 5.359375 -2.625 5.359375 -2.96875 L 5.359375 -3.484375 C 5.003906 -3.335938 4.441406 -3.203125 3.671875 -3.078125 Z M 3.671875 -3.078125 "/></g></g></g><g fill="#2c3152" fill-opacity="1"><g transform="translate(83.714082, 141.514969)"><g><path d="M 2.265625 -6.9375 L 3.4375 -6.9375 L 3.4375 -6.046875 L 2.265625 -6.046875 L 2.265625 -1.75 C 2.265625 -1.445312 2.304688 -1.234375 2.390625 -1.109375 C 2.472656 -0.984375 2.648438 -0.921875 2.921875 -0.921875 C 2.984375 -0.921875 3.15625 -0.941406 3.4375 -0.984375 L 3.609375 0.046875 C 3.253906 0.117188 2.96875 0.15625 2.75 0.15625 C 2.289062 0.15625 1.941406 0.0820312 1.703125 -0.0625 C 1.460938 -0.207031 1.296875 -0.410156 1.203125 -0.671875 C 1.117188 -0.941406 1.078125 -1.285156 1.078125 -1.703125 L 1.078125 -6.046875 L 0.234375 -6.046875 L 0.234375 -6.9375 L 1.078125 -6.9375 L 1.078125 -8.65625 L 2.265625 -9.375 Z M 2.265625 -6.9375 "/></g></g></g><g fill="#2c3152" fill-opacity="1"><g transform="translate(87.435848, 141.514969)"><g><path d="M 3.1875 -7.09375 C 3.96875 -7.09375 4.597656 -6.929688 5.078125 -6.609375 C 5.566406 -6.285156 5.847656 -5.800781 5.921875 -5.15625 L 4.765625 -5 C 4.710938 -5.34375 4.566406 -5.617188 4.328125 -5.828125 C 4.085938 -6.035156 3.726562 -6.140625 3.25 -6.140625 C 2.78125 -6.140625 2.410156 -6.054688 2.140625 -5.890625 C 1.878906 -5.734375 1.75 -5.507812 1.75 -5.21875 C 1.75 -5.019531 1.828125 -4.859375 1.984375 -4.734375 C 2.140625 -4.609375 2.320312 -4.507812 2.53125 -4.4375 C 2.75 -4.375 3.078125 -4.285156 3.515625 -4.171875 C 4.078125 -4.046875 4.535156 -3.914062 4.890625 -3.78125 C 5.242188 -3.644531 5.546875 -3.4375 5.796875 -3.15625 C 6.054688 -2.882812 6.1875 -2.515625 6.1875 -2.046875 C 6.1875 -1.648438 6.070312 -1.28125 5.84375 -0.9375 C 5.625 -0.601562 5.304688 -0.335938 4.890625 -0.140625 C 4.472656 0.046875 4 0.140625 3.46875 0.140625 C 2.539062 0.140625 1.832031 -0.0390625 1.34375 -0.40625 C 0.851562 -0.769531 0.546875 -1.328125 0.421875 -2.078125 L 1.578125 -2.25 C 1.640625 -1.78125 1.828125 -1.421875 2.140625 -1.171875 C 2.460938 -0.929688 2.875 -0.8125 3.375 -0.8125 C 3.882812 -0.8125 4.28125 -0.914062 4.5625 -1.125 C 4.84375 -1.34375 4.984375 -1.609375 4.984375 -1.921875 C 4.984375 -2.210938 4.84375 -2.425781 4.5625 -2.5625 C 4.28125 -2.707031 3.847656 -2.847656 3.265625 -2.984375 C 2.691406 -3.117188 2.234375 -3.25 1.890625 -3.375 C 1.546875 -3.507812 1.242188 -3.710938 0.984375 -3.984375 C 0.734375 -4.265625 0.609375 -4.640625 0.609375 -5.109375 C 0.609375 -5.484375 0.707031 -5.820312 0.90625 -6.125 C 1.113281 -6.425781 1.410156 -6.660156 1.796875 -6.828125 C 2.191406 -7.003906 2.65625 -7.09375 3.1875 -7.09375 Z M 3.1875 -7.09375 "/></g></g></g><g fill="#2c3152" fill-opacity="1"><g transform="translate(94.129669, 141.514969)"><g/></g></g><g fill="#2c3152" fill-opacity="1"><g transform="translate(97.851435, 141.514969)"><g><path d="M 3.796875 -7.09375 C 4.367188 -7.09375 4.832031 -7.035156 5.1875 -6.921875 C 5.539062 -6.816406 5.820312 -6.65625 6.03125 -6.4375 C 6.226562 -6.238281 6.359375 -6.015625 6.421875 -5.765625 C 6.492188 -5.515625 6.53125 -5.179688 6.53125 -4.765625 L 6.53125 -1.96875 C 6.53125 -1.0625 6.65625 -0.40625 6.90625 0 L 5.671875 0 C 5.554688 -0.238281 5.476562 -0.523438 5.4375 -0.859375 C 5.007812 -0.503906 4.59375 -0.242188 4.1875 -0.078125 C 3.78125 0.078125 3.359375 0.15625 2.921875 0.15625 C 2.171875 0.15625 1.582031 -0.0234375 1.15625 -0.390625 C 0.726562 -0.753906 0.515625 -1.234375 0.515625 -1.828125 C 0.515625 -2.140625 0.582031 -2.441406 0.71875 -2.734375 C 0.863281 -3.023438 1.0625 -3.253906 1.3125 -3.421875 C 1.582031 -3.597656 1.851562 -3.722656 2.125 -3.796875 C 2.40625 -3.878906 2.742188 -3.941406 3.140625 -3.984375 C 3.578125 -4.035156 4.003906 -4.097656 4.421875 -4.171875 C 4.847656 -4.242188 5.160156 -4.320312 5.359375 -4.40625 L 5.359375 -4.703125 C 5.359375 -5.171875 5.226562 -5.523438 4.96875 -5.765625 C 4.71875 -6.015625 4.285156 -6.140625 3.671875 -6.140625 C 3.085938 -6.140625 2.664062 -6.035156 2.40625 -5.828125 C 2.15625 -5.617188 1.972656 -5.28125 1.859375 -4.8125 L 0.703125 -4.953125 C 0.867188 -5.703125 1.207031 -6.242188 1.71875 -6.578125 C 2.226562 -6.921875 2.921875 -7.09375 3.796875 -7.09375 Z M 3.671875 -3.078125 C 3.210938 -3.003906 2.859375 -2.929688 2.609375 -2.859375 C 2.367188 -2.796875 2.164062 -2.6875 2 -2.53125 C 1.84375 -2.375 1.765625 -2.148438 1.765625 -1.859375 C 1.765625 -1.515625 1.890625 -1.242188 2.140625 -1.046875 C 2.398438 -0.859375 2.765625 -0.765625 3.234375 -0.765625 C 3.492188 -0.765625 3.78125 -0.816406 4.09375 -0.921875 C 4.40625 -1.035156 4.679688 -1.234375 4.921875 -1.515625 C 5.066406 -1.691406 5.175781 -1.890625 5.25 -2.109375 C 5.320312 -2.335938 5.359375 -2.625 5.359375 -2.96875 L 5.359375 -3.484375 C 5.003906 -3.335938 4.441406 -3.203125 3.671875 -3.078125 Z M 3.671875 -3.078125 "/></g></g></g><g fill="#2c3152" fill-opacity="1"><g transform="translate(105.294957, 141.514969)"><g/></g></g><g fill="#2c3152" fill-opacity="1"><g transform="translate(109.016724, 141.514969)"><g><path d="M 3.984375 -7.09375 C 4.566406 -7.09375 5.082031 -6.945312 5.53125 -6.65625 C 5.976562 -6.363281 6.320312 -5.953125 6.5625 -5.421875 C 6.8125 -4.890625 6.9375 -4.273438 6.9375 -3.578125 C 6.9375 -2.816406 6.800781 -2.15625 6.53125 -1.59375 C 6.269531 -1.03125 5.90625 -0.597656 5.4375 -0.296875 C 4.976562 -0.00390625 4.46875 0.140625 3.90625 0.140625 C 3.539062 0.140625 3.203125 0.0625 2.890625 -0.09375 C 2.578125 -0.25 2.3125 -0.457031 2.09375 -0.71875 L 2.09375 2.671875 L 0.90625 2.671875 L 0.90625 -6.9375 L 1.984375 -6.9375 L 1.984375 -6.046875 C 2.242188 -6.398438 2.523438 -6.660156 2.828125 -6.828125 C 3.140625 -7.003906 3.523438 -7.09375 3.984375 -7.09375 Z M 1.96875 -3.421875 C 1.96875 -2.585938 2.132812 -1.941406 2.46875 -1.484375 C 2.8125 -1.035156 3.265625 -0.8125 3.828125 -0.8125 C 4.378906 -0.8125 4.832031 -1.039062 5.1875 -1.5 C 5.550781 -1.96875 5.734375 -2.640625 5.734375 -3.515625 C 5.734375 -4.335938 5.5625 -4.984375 5.21875 -5.453125 C 4.882812 -5.929688 4.4375 -6.171875 3.875 -6.171875 C 3.507812 -6.171875 3.179688 -6.054688 2.890625 -5.828125 C 2.609375 -5.597656 2.382812 -5.273438 2.21875 -4.859375 C 2.050781 -4.441406 1.96875 -3.960938 1.96875 -3.421875 Z M 1.96875 -3.421875 "/></g></g></g><g fill="#2c3152" fill-opacity="1"><g transform="translate(116.460246, 141.514969)"><g><path d="M 3.765625 -7.09375 C 4.429688 -7.09375 5.003906 -6.929688 5.484375 -6.609375 C 5.960938 -6.296875 6.320312 -5.875 6.5625 -5.34375 C 6.800781 -4.8125 6.921875 -4.210938 6.921875 -3.546875 L 6.921875 -3.171875 L 1.734375 -3.171875 C 1.773438 -2.429688 1.988281 -1.851562 2.375 -1.4375 C 2.757812 -1.019531 3.25 -0.8125 3.84375 -0.8125 C 4.300781 -0.8125 4.675781 -0.929688 4.96875 -1.171875 C 5.269531 -1.421875 5.503906 -1.773438 5.671875 -2.234375 L 6.875 -2.09375 C 6.6875 -1.394531 6.332031 -0.847656 5.8125 -0.453125 C 5.289062 -0.0546875 4.648438 0.140625 3.890625 0.140625 C 2.828125 0.140625 2 -0.171875 1.40625 -0.796875 C 0.8125 -1.421875 0.515625 -2.296875 0.515625 -3.421875 C 0.515625 -4.171875 0.648438 -4.820312 0.921875 -5.375 C 1.191406 -5.925781 1.566406 -6.347656 2.046875 -6.640625 C 2.535156 -6.941406 3.109375 -7.09375 3.765625 -7.09375 Z M 1.8125 -4.15625 L 5.671875 -4.15625 C 5.648438 -4.8125 5.445312 -5.304688 5.0625 -5.640625 C 4.6875 -5.972656 4.253906 -6.140625 3.765625 -6.140625 C 3.210938 -6.140625 2.757812 -5.953125 2.40625 -5.578125 C 2.050781 -5.203125 1.851562 -4.726562 1.8125 -4.15625 Z M 1.8125 -4.15625 "/></g></g></g><g fill="#2c3152" fill-opacity="1"><g transform="translate(123.903768, 141.514969)"><g><path d="M 3.4375 -7.09375 C 3.84375 -7.09375 4.242188 -6.96875 4.640625 -6.71875 L 4.234375 -5.640625 C 3.941406 -5.804688 3.640625 -5.890625 3.328125 -5.890625 C 2.890625 -5.890625 2.5625 -5.6875 2.34375 -5.28125 C 2.132812 -4.875 2.03125 -4.347656 2.03125 -3.703125 L 2.03125 0 L 0.859375 0 L 0.859375 -6.9375 L 1.921875 -6.9375 L 1.921875 -5.890625 C 2.140625 -6.296875 2.359375 -6.597656 2.578125 -6.796875 C 2.796875 -6.992188 3.082031 -7.09375 3.4375 -7.09375 Z M 3.4375 -7.09375 "/></g></g></g><g fill="#2c3152" fill-opacity="1"><g transform="translate(128.361854, 141.514969)"><g><path d="M 3.1875 -7.09375 C 3.96875 -7.09375 4.597656 -6.929688 5.078125 -6.609375 C 5.566406 -6.285156 5.847656 -5.800781 5.921875 -5.15625 L 4.765625 -5 C 4.710938 -5.34375 4.566406 -5.617188 4.328125 -5.828125 C 4.085938 -6.035156 3.726562 -6.140625 3.25 -6.140625 C 2.78125 -6.140625 2.410156 -6.054688 2.140625 -5.890625 C 1.878906 -5.734375 1.75 -5.507812 1.75 -5.21875 C 1.75 -5.019531 1.828125 -4.859375 1.984375 -4.734375 C 2.140625 -4.609375 2.320312 -4.507812 2.53125 -4.4375 C 2.75 -4.375 3.078125 -4.285156 3.515625 -4.171875 C 4.078125 -4.046875 4.535156 -3.914062 4.890625 -3.78125 C 5.242188 -3.644531 5.546875 -3.4375 5.796875 -3.15625 C 6.054688 -2.882812 6.1875 -2.515625 6.1875 -2.046875 C 6.1875 -1.648438 6.070312 -1.28125 5.84375 -0.9375 C 5.625 -0.601562 5.304688 -0.335938 4.890625 -0.140625 C 4.472656 0.046875 4 0.140625 3.46875 0.140625 C 2.539062 0.140625 1.832031 -0.0390625 1.34375 -0.40625 C 0.851562 -0.769531 0.546875 -1.328125 0.421875 -2.078125 L 1.578125 -2.25 C 1.640625 -1.78125 1.828125 -1.421875 2.140625 -1.171875 C 2.460938 -0.929688 2.875 -0.8125 3.375 -0.8125 C 3.882812 -0.8125 4.28125 -0.914062 4.5625 -1.125 C 4.84375 -1.34375 4.984375 -1.609375 4.984375 -1.921875 C 4.984375 -2.210938 4.84375 -2.425781 4.5625 -2.5625 C 4.28125 -2.707031 3.847656 -2.847656 3.265625 -2.984375 C 2.691406 -3.117188 2.234375 -3.25 1.890625 -3.375 C 1.546875 -3.507812 1.242188 -3.710938 0.984375 -3.984375 C 0.734375 -4.265625 0.609375 -4.640625 0.609375 -5.109375 C 0.609375 -5.484375 0.707031 -5.820312 0.90625 -6.125 C 1.113281 -6.425781 1.410156 -6.660156 1.796875 -6.828125 C 2.191406 -7.003906 2.65625 -7.09375 3.1875 -7.09375 Z M 3.1875 -7.09375 "/></g></g></g><g fill="#2c3152" fill-opacity="1"><g transform="translate(135.055675, 141.514969)"><g><path d="M 3.71875 -7.09375 C 4.25 -7.09375 4.757812 -6.976562 5.25 -6.75 C 5.75 -6.519531 6.160156 -6.132812 6.484375 -5.59375 C 6.804688 -5.050781 6.96875 -4.34375 6.96875 -3.46875 C 6.96875 -2.6875 6.828125 -2.023438 6.546875 -1.484375 C 6.273438 -0.953125 5.894531 -0.546875 5.40625 -0.265625 C 4.914062 0.00390625 4.351562 0.140625 3.71875 0.140625 C 2.789062 0.140625 2.035156 -0.144531 1.453125 -0.71875 C 0.796875 -1.351562 0.46875 -2.269531 0.46875 -3.46875 C 0.46875 -4.25 0.601562 -4.910156 0.875 -5.453125 C 1.15625 -5.992188 1.539062 -6.398438 2.03125 -6.671875 C 2.519531 -6.953125 3.082031 -7.09375 3.71875 -7.09375 Z M 1.671875 -3.46875 C 1.671875 -2.625 1.851562 -1.96875 2.21875 -1.5 C 2.59375 -1.039062 3.09375 -0.8125 3.71875 -0.8125 C 4.332031 -0.8125 4.828125 -1.039062 5.203125 -1.5 C 5.578125 -1.96875 5.765625 -2.625 5.765625 -3.46875 C 5.765625 -4.289062 5.582031 -4.941406 5.21875 -5.421875 C 4.851562 -5.898438 4.347656 -6.140625 3.703125 -6.140625 C 3.097656 -6.140625 2.609375 -5.90625 2.234375 -5.4375 C 1.859375 -4.96875 1.671875 -4.3125 1.671875 -3.46875 Z M 1.671875 -3.46875 "/></g></g></g><g fill="#2c3152" fill-opacity="1"><g transform="translate(142.499197, 141.514969)"><g><path d="M 4.171875 -7.09375 C 4.671875 -7.09375 5.101562 -6.992188 5.46875 -6.796875 C 5.832031 -6.597656 6.097656 -6.347656 6.265625 -6.046875 C 6.367188 -5.847656 6.441406 -5.628906 6.484375 -5.390625 C 6.535156 -5.148438 6.5625 -4.851562 6.5625 -4.5 L 6.5625 0 L 5.390625 0 L 5.390625 -4.28125 C 5.390625 -5.476562 4.898438 -6.078125 3.921875 -6.078125 C 3.554688 -6.078125 3.21875 -5.988281 2.90625 -5.8125 C 2.601562 -5.632812 2.382812 -5.375 2.25 -5.03125 C 2.144531 -4.75 2.09375 -4.367188 2.09375 -3.890625 L 2.09375 0 L 0.90625 0 L 0.90625 -6.9375 L 1.96875 -6.9375 L 1.96875 -5.953125 C 2.5 -6.710938 3.234375 -7.09375 4.171875 -7.09375 Z M 4.171875 -7.09375 "/></g></g></g><g fill="#2c3152" fill-opacity="1"><g transform="translate(149.942719, 141.514969)"><g/></g></g><g fill="#2c3152" fill-opacity="1"><g transform="translate(153.664486, 141.514969)"><g><path d="M 1.28125 -6.9375 L 2.53125 -2.390625 L 2.796875 -1.453125 C 2.835938 -1.609375 2.867188 -1.722656 2.890625 -1.796875 C 2.992188 -2.253906 3.109375 -2.703125 3.234375 -3.140625 L 4.265625 -6.9375 L 5.484375 -6.9375 L 6.484375 -3.03125 L 6.859375 -1.59375 L 7.171875 -2.671875 L 8.453125 -6.9375 L 9.59375 -6.9375 L 7.421875 0 L 6.203125 0 L 5.078125 -4.203125 C 5.023438 -4.410156 4.941406 -4.789062 4.828125 -5.34375 L 3.421875 0 L 2.203125 0 L 0.0625 -6.9375 Z M 1.28125 -6.9375 "/></g></g></g><g fill="#2c3152" fill-opacity="1"><g transform="translate(163.330359, 141.514969)"><g><path d="M 2.078125 -8.25 L 0.890625 -8.25 L 0.890625 -9.59375 L 2.078125 -9.59375 Z M 2.078125 0 L 0.890625 0 L 0.890625 -6.9375 L 2.078125 -6.9375 Z M 2.078125 0 "/></g></g></g><g fill="#2c3152" fill-opacity="1"><g transform="translate(166.302413, 141.514969)"><g><path d="M 2.265625 -6.9375 L 3.4375 -6.9375 L 3.4375 -6.046875 L 2.265625 -6.046875 L 2.265625 -1.75 C 2.265625 -1.445312 2.304688 -1.234375 2.390625 -1.109375 C 2.472656 -0.984375 2.648438 -0.921875 2.921875 -0.921875 C 2.984375 -0.921875 3.15625 -0.941406 3.4375 -0.984375 L 3.609375 0.046875 C 3.253906 0.117188 2.96875 0.15625 2.75 0.15625 C 2.289062 0.15625 1.941406 0.0820312 1.703125 -0.0625 C 1.460938 -0.207031 1.296875 -0.410156 1.203125 -0.671875 C 1.117188 -0.941406 1.078125 -1.285156 1.078125 -1.703125 L 1.078125 -6.046875 L 0.234375 -6.046875 L 0.234375 -6.9375 L 1.078125 -6.9375 L 1.078125 -8.65625 L 2.265625 -9.375 Z M 2.265625 -6.9375 "/></g></g></g><g fill="#2c3152" fill-opacity="1"><g transform="translate(170.02418, 141.514969)"><g><path d="M 2.078125 -6.140625 C 2.347656 -6.453125 2.648438 -6.6875 2.984375 -6.84375 C 3.328125 -7.007812 3.722656 -7.09375 4.171875 -7.09375 C 4.546875 -7.09375 4.882812 -7.035156 5.1875 -6.921875 C 5.488281 -6.804688 5.742188 -6.648438 5.953125 -6.453125 C 6.160156 -6.242188 6.3125 -5.984375 6.40625 -5.671875 C 6.507812 -5.359375 6.5625 -4.957031 6.5625 -4.46875 L 6.5625 0 L 5.390625 0 L 5.390625 -4.453125 C 5.390625 -4.972656 5.265625 -5.375 5.015625 -5.65625 C 4.765625 -5.9375 4.390625 -6.078125 3.890625 -6.078125 C 3.535156 -6.078125 3.195312 -5.976562 2.875 -5.78125 C 2.550781 -5.582031 2.328125 -5.300781 2.203125 -4.9375 C 2.117188 -4.675781 2.078125 -4.332031 2.078125 -3.90625 L 2.078125 0 L 0.890625 0 L 0.890625 -9.59375 L 2.078125 -9.59375 Z M 2.078125 -6.140625 "/></g></g></g><g fill="#2c3152" fill-opacity="1"><g transform="translate(65.488963, 157.256786)"><g><path d="M 3.796875 -7.09375 C 4.367188 -7.09375 4.832031 -7.035156 5.1875 -6.921875 C 5.539062 -6.816406 5.820312 -6.65625 6.03125 -6.4375 C 6.226562 -6.238281 6.359375 -6.015625 6.421875 -5.765625 C 6.492188 -5.515625 6.53125 -5.179688 6.53125 -4.765625 L 6.53125 -1.96875 C 6.53125 -1.0625 6.65625 -0.40625 6.90625 0 L 5.671875 0 C 5.554688 -0.238281 5.476562 -0.523438 5.4375 -0.859375 C 5.007812 -0.503906 4.59375 -0.242188 4.1875 -0.078125 C 3.78125 0.078125 3.359375 0.15625 2.921875 0.15625 C 2.171875 0.15625 1.582031 -0.0234375 1.15625 -0.390625 C 0.726562 -0.753906 0.515625 -1.234375 0.515625 -1.828125 C 0.515625 -2.140625 0.582031 -2.441406 0.71875 -2.734375 C 0.863281 -3.023438 1.0625 -3.253906 1.3125 -3.421875 C 1.582031 -3.597656 1.851562 -3.722656 2.125 -3.796875 C 2.40625 -3.878906 2.742188 -3.941406 3.140625 -3.984375 C 3.578125 -4.035156 4.003906 -4.097656 4.421875 -4.171875 C 4.847656 -4.242188 5.160156 -4.320312 5.359375 -4.40625 L 5.359375 -4.703125 C 5.359375 -5.171875 5.226562 -5.523438 4.96875 -5.765625 C 4.71875 -6.015625 4.285156 -6.140625 3.671875 -6.140625 C 3.085938 -6.140625 2.664062 -6.035156 2.40625 -5.828125 C 2.15625 -5.617188 1.972656 -5.28125 1.859375 -4.8125 L 0.703125 -4.953125 C 0.867188 -5.703125 1.207031 -6.242188 1.71875 -6.578125 C 2.226562 -6.921875 2.921875 -7.09375 3.796875 -7.09375 Z M 3.671875 -3.078125 C 3.210938 -3.003906 2.859375 -2.929688 2.609375 -2.859375 C 2.367188 -2.796875 2.164062 -2.6875 2 -2.53125 C 1.84375 -2.375 1.765625 -2.148438 1.765625 -1.859375 C 1.765625 -1.515625 1.890625 -1.242188 2.140625 -1.046875 C 2.398438 -0.859375 2.765625 -0.765625 3.234375 -0.765625 C 3.492188 -0.765625 3.78125 -0.816406 4.09375 -0.921875 C 4.40625 -1.035156 4.679688 -1.234375 4.921875 -1.515625 C 5.066406 -1.691406 5.175781 -1.890625 5.25 -2.109375 C 5.320312 -2.335938 5.359375 -2.625 5.359375 -2.96875 L 5.359375 -3.484375 C 5.003906 -3.335938 4.441406 -3.203125 3.671875 -3.078125 Z M 3.671875 -3.078125 "/></g></g></g><g fill="#2c3152" fill-opacity="1"><g transform="translate(72.932485, 157.256786)"><g><path d="M 4.171875 -7.09375 C 4.671875 -7.09375 5.101562 -6.992188 5.46875 -6.796875 C 5.832031 -6.597656 6.097656 -6.347656 6.265625 -6.046875 C 6.367188 -5.847656 6.441406 -5.628906 6.484375 -5.390625 C 6.535156 -5.148438 6.5625 -4.851562 6.5625 -4.5 L 6.5625 0 L 5.390625 0 L 5.390625 -4.28125 C 5.390625 -5.476562 4.898438 -6.078125 3.921875 -6.078125 C 3.554688 -6.078125 3.21875 -5.988281 2.90625 -5.8125 C 2.601562 -5.632812 2.382812 -5.375 2.25 -5.03125 C 2.144531 -4.75 2.09375 -4.367188 2.09375 -3.890625 L 2.09375 0 L 0.90625 0 L 0.90625 -6.9375 L 1.96875 -6.9375 L 1.96875 -5.953125 C 2.5 -6.710938 3.234375 -7.09375 4.171875 -7.09375 Z M 4.171875 -7.09375 "/></g></g></g><g fill="#2c3152" fill-opacity="1"><g transform="translate(80.376007, 157.256786)"><g><path d="M 3.71875 -7.09375 C 4.25 -7.09375 4.757812 -6.976562 5.25 -6.75 C 5.75 -6.519531 6.160156 -6.132812 6.484375 -5.59375 C 6.804688 -5.050781 6.96875 -4.34375 6.96875 -3.46875 C 6.96875 -2.6875 6.828125 -2.023438 6.546875 -1.484375 C 6.273438 -0.953125 5.894531 -0.546875 5.40625 -0.265625 C 4.914062 0.00390625 4.351562 0.140625 3.71875 0.140625 C 2.789062 0.140625 2.035156 -0.144531 1.453125 -0.71875 C 0.796875 -1.351562 0.46875 -2.269531 0.46875 -3.46875 C 0.46875 -4.25 0.601562 -4.910156 0.875 -5.453125 C 1.15625 -5.992188 1.539062 -6.398438 2.03125 -6.671875 C 2.519531 -6.953125 3.082031 -7.09375 3.71875 -7.09375 Z M 1.671875 -3.46875 C 1.671875 -2.625 1.851562 -1.96875 2.21875 -1.5 C 2.59375 -1.039062 3.09375 -0.8125 3.71875 -0.8125 C 4.332031 -0.8125 4.828125 -1.039062 5.203125 -1.5 C 5.578125 -1.96875 5.765625 -2.625 5.765625 -3.46875 C 5.765625 -4.289062 5.582031 -4.941406 5.21875 -5.421875 C 4.851562 -5.898438 4.347656 -6.140625 3.703125 -6.140625 C 3.097656 -6.140625 2.609375 -5.90625 2.234375 -5.4375 C 1.859375 -4.96875 1.671875 -4.3125 1.671875 -3.46875 Z M 1.671875 -3.46875 "/></g></g></g><g fill="#2c3152" fill-opacity="1"><g transform="translate(87.819529, 157.256786)"><g><path d="M 3.4375 -7.09375 C 3.84375 -7.09375 4.242188 -6.96875 4.640625 -6.71875 L 4.234375 -5.640625 C 3.941406 -5.804688 3.640625 -5.890625 3.328125 -5.890625 C 2.890625 -5.890625 2.5625 -5.6875 2.34375 -5.28125 C 2.132812 -4.875 2.03125 -4.347656 2.03125 -3.703125 L 2.03125 0 L 0.859375 0 L 0.859375 -6.9375 L 1.921875 -6.9375 L 1.921875 -5.890625 C 2.140625 -6.296875 2.359375 -6.597656 2.578125 -6.796875 C 2.796875 -6.992188 3.082031 -7.09375 3.4375 -7.09375 Z M 3.4375 -7.09375 "/></g></g></g><g fill="#2c3152" fill-opacity="1"><g transform="translate(92.277615, 157.256786)"><g><path d="M 3.765625 -7.09375 C 4.429688 -7.09375 5.003906 -6.929688 5.484375 -6.609375 C 5.960938 -6.296875 6.320312 -5.875 6.5625 -5.34375 C 6.800781 -4.8125 6.921875 -4.210938 6.921875 -3.546875 L 6.921875 -3.171875 L 1.734375 -3.171875 C 1.773438 -2.429688 1.988281 -1.851562 2.375 -1.4375 C 2.757812 -1.019531 3.25 -0.8125 3.84375 -0.8125 C 4.300781 -0.8125 4.675781 -0.929688 4.96875 -1.171875 C 5.269531 -1.421875 5.503906 -1.773438 5.671875 -2.234375 L 6.875 -2.09375 C 6.6875 -1.394531 6.332031 -0.847656 5.8125 -0.453125 C 5.289062 -0.0546875 4.648438 0.140625 3.890625 0.140625 C 2.828125 0.140625 2 -0.171875 1.40625 -0.796875 C 0.8125 -1.421875 0.515625 -2.296875 0.515625 -3.421875 C 0.515625 -4.171875 0.648438 -4.820312 0.921875 -5.375 C 1.191406 -5.925781 1.566406 -6.347656 2.046875 -6.640625 C 2.535156 -6.941406 3.109375 -7.09375 3.765625 -7.09375 Z M 1.8125 -4.15625 L 5.671875 -4.15625 C 5.648438 -4.8125 5.445312 -5.304688 5.0625 -5.640625 C 4.6875 -5.972656 4.253906 -6.140625 3.765625 -6.140625 C 3.210938 -6.140625 2.757812 -5.953125 2.40625 -5.578125 C 2.050781 -5.203125 1.851562 -4.726562 1.8125 -4.15625 Z M 1.8125 -4.15625 "/></g></g></g><g fill="#2c3152" fill-opacity="1"><g transform="translate(99.721138, 157.256786)"><g><path d="M 1.75 -6.9375 L 2.78125 -5.375 L 3.3125 -4.546875 C 3.414062 -4.710938 3.578125 -4.945312 3.796875 -5.25 L 5.015625 -6.9375 L 6.421875 -6.9375 L 4.015625 -3.6875 L 6.59375 0 L 5.15625 0 L 3.8125 -2.015625 C 3.601562 -2.328125 3.445312 -2.570312 3.34375 -2.75 L 1.515625 0 L 0.09375 0 L 2.625 -3.609375 L 0.28125 -6.9375 Z M 1.75 -6.9375 "/></g></g></g><g fill="#2c3152" fill-opacity="1"><g transform="translate(106.414958, 157.256786)"><g><path d="M 2.078125 -8.25 L 0.890625 -8.25 L 0.890625 -9.59375 L 2.078125 -9.59375 Z M 2.078125 0 L 0.890625 0 L 0.890625 -6.9375 L 2.078125 -6.9375 Z M 2.078125 0 "/></g></g></g><g fill="#2c3152" fill-opacity="1"><g transform="translate(109.387011, 157.256786)"><g><path d="M 3.796875 -7.09375 C 4.367188 -7.09375 4.832031 -7.035156 5.1875 -6.921875 C 5.539062 -6.816406 5.820312 -6.65625 6.03125 -6.4375 C 6.226562 -6.238281 6.359375 -6.015625 6.421875 -5.765625 C 6.492188 -5.515625 6.53125 -5.179688 6.53125 -4.765625 L 6.53125 -1.96875 C 6.53125 -1.0625 6.65625 -0.40625 6.90625 0 L 5.671875 0 C 5.554688 -0.238281 5.476562 -0.523438 5.4375 -0.859375 C 5.007812 -0.503906 4.59375 -0.242188 4.1875 -0.078125 C 3.78125 0.078125 3.359375 0.15625 2.921875 0.15625 C 2.171875 0.15625 1.582031 -0.0234375 1.15625 -0.390625 C 0.726562 -0.753906 0.515625 -1.234375 0.515625 -1.828125 C 0.515625 -2.140625 0.582031 -2.441406 0.71875 -2.734375 C 0.863281 -3.023438 1.0625 -3.253906 1.3125 -3.421875 C 1.582031 -3.597656 1.851562 -3.722656 2.125 -3.796875 C 2.40625 -3.878906 2.742188 -3.941406 3.140625 -3.984375 C 3.578125 -4.035156 4.003906 -4.097656 4.421875 -4.171875 C 4.847656 -4.242188 5.160156 -4.320312 5.359375 -4.40625 L 5.359375 -4.703125 C 5.359375 -5.171875 5.226562 -5.523438 4.96875 -5.765625 C 4.71875 -6.015625 4.285156 -6.140625 3.671875 -6.140625 C 3.085938 -6.140625 2.664062 -6.035156 2.40625 -5.828125 C 2.15625 -5.617188 1.972656 -5.28125 1.859375 -4.8125 L 0.703125 -4.953125 C 0.867188 -5.703125 1.207031 -6.242188 1.71875 -6.578125 C 2.226562 -6.921875 2.921875 -7.09375 3.796875 -7.09375 Z M 3.671875 -3.078125 C 3.210938 -3.003906 2.859375 -2.929688 2.609375 -2.859375 C 2.367188 -2.796875 2.164062 -2.6875 2 -2.53125 C 1.84375 -2.375 1.765625 -2.148438 1.765625 -1.859375 C 1.765625 -1.515625 1.890625 -1.242188 2.140625 -1.046875 C 2.398438 -0.859375 2.765625 -0.765625 3.234375 -0.765625 C 3.492188 -0.765625 3.78125 -0.816406 4.09375 -0.921875 C 4.40625 -1.035156 4.679688 -1.234375 4.921875 -1.515625 C 5.066406 -1.691406 5.175781 -1.890625 5.25 -2.109375 C 5.320312 -2.335938 5.359375 -2.625 5.359375 -2.96875 L 5.359375 -3.484375 C 5.003906 -3.335938 4.441406 -3.203125 3.671875 -3.078125 Z M 3.671875 -3.078125 "/></g></g></g><g fill="#2c3152" fill-opacity="1"><g transform="translate(116.830533, 157.256786)"><g/></g></g><g fill="#2c3152" fill-opacity="1"><g transform="translate(120.5523, 157.256786)"><g><path d="M 4.171875 -7.09375 C 4.671875 -7.09375 5.101562 -6.992188 5.46875 -6.796875 C 5.832031 -6.597656 6.097656 -6.347656 6.265625 -6.046875 C 6.367188 -5.847656 6.441406 -5.628906 6.484375 -5.390625 C 6.535156 -5.148438 6.5625 -4.851562 6.5625 -4.5 L 6.5625 0 L 5.390625 0 L 5.390625 -4.28125 C 5.390625 -5.476562 4.898438 -6.078125 3.921875 -6.078125 C 3.554688 -6.078125 3.21875 -5.988281 2.90625 -5.8125 C 2.601562 -5.632812 2.382812 -5.375 2.25 -5.03125 C 2.144531 -4.75 2.09375 -4.367188 2.09375 -3.890625 L 2.09375 0 L 0.90625 0 L 0.90625 -6.9375 L 1.96875 -6.9375 L 1.96875 -5.953125 C 2.5 -6.710938 3.234375 -7.09375 4.171875 -7.09375 Z M 4.171875 -7.09375 "/></g></g></g><g fill="#2c3152" fill-opacity="1"><g transform="translate(127.995822, 157.256786)"><g><path d="M 3.765625 -7.09375 C 4.429688 -7.09375 5.003906 -6.929688 5.484375 -6.609375 C 5.960938 -6.296875 6.320312 -5.875 6.5625 -5.34375 C 6.800781 -4.8125 6.921875 -4.210938 6.921875 -3.546875 L 6.921875 -3.171875 L 1.734375 -3.171875 C 1.773438 -2.429688 1.988281 -1.851562 2.375 -1.4375 C 2.757812 -1.019531 3.25 -0.8125 3.84375 -0.8125 C 4.300781 -0.8125 4.675781 -0.929688 4.96875 -1.171875 C 5.269531 -1.421875 5.503906 -1.773438 5.671875 -2.234375 L 6.875 -2.09375 C 6.6875 -1.394531 6.332031 -0.847656 5.8125 -0.453125 C 5.289062 -0.0546875 4.648438 0.140625 3.890625 0.140625 C 2.828125 0.140625 2 -0.171875 1.40625 -0.796875 C 0.8125 -1.421875 0.515625 -2.296875 0.515625 -3.421875 C 0.515625 -4.171875 0.648438 -4.820312 0.921875 -5.375 C 1.191406 -5.925781 1.566406 -6.347656 2.046875 -6.640625 C 2.535156 -6.941406 3.109375 -7.09375 3.765625 -7.09375 Z M 1.8125 -4.15625 L 5.671875 -4.15625 C 5.648438 -4.8125 5.445312 -5.304688 5.0625 -5.640625 C 4.6875 -5.972656 4.253906 -6.140625 3.765625 -6.140625 C 3.210938 -6.140625 2.757812 -5.953125 2.40625 -5.578125 C 2.050781 -5.203125 1.851562 -4.726562 1.8125 -4.15625 Z M 1.8125 -4.15625 "/></g></g></g><g fill="#2c3152" fill-opacity="1"><g transform="translate(135.439344, 157.256786)"><g><path d="M 3.4375 -7.09375 C 3.84375 -7.09375 4.242188 -6.96875 4.640625 -6.71875 L 4.234375 -5.640625 C 3.941406 -5.804688 3.640625 -5.890625 3.328125 -5.890625 C 2.890625 -5.890625 2.5625 -5.6875 2.34375 -5.28125 C 2.132812 -4.875 2.03125 -4.347656 2.03125 -3.703125 L 2.03125 0 L 0.859375 0 L 0.859375 -6.9375 L 1.921875 -6.9375 L 1.921875 -5.890625 C 2.140625 -6.296875 2.359375 -6.597656 2.578125 -6.796875 C 2.796875 -6.992188 3.082031 -7.09375 3.4375 -7.09375 Z M 3.4375 -7.09375 "/></g></g></g><g fill="#2c3152" fill-opacity="1"><g transform="translate(139.89743, 157.256786)"><g><path d="M 2.84375 -2.96875 C 2.914062 -2.757812 3.03125 -2.40625 3.1875 -1.90625 L 3.359375 -1.375 C 3.554688 -2.039062 3.703125 -2.476562 3.796875 -2.6875 L 5.328125 -6.9375 L 6.546875 -6.9375 L 3.921875 0 L 2.8125 0 L 0.171875 -6.9375 L 1.421875 -6.9375 Z M 2.84375 -2.96875 "/></g></g></g><g fill="#2c3152" fill-opacity="1"><g transform="translate(146.591251, 157.256786)"><g><path d="M 3.71875 -7.09375 C 4.25 -7.09375 4.757812 -6.976562 5.25 -6.75 C 5.75 -6.519531 6.160156 -6.132812 6.484375 -5.59375 C 6.804688 -5.050781 6.96875 -4.34375 6.96875 -3.46875 C 6.96875 -2.6875 6.828125 -2.023438 6.546875 -1.484375 C 6.273438 -0.953125 5.894531 -0.546875 5.40625 -0.265625 C 4.914062 0.00390625 4.351562 0.140625 3.71875 0.140625 C 2.789062 0.140625 2.035156 -0.144531 1.453125 -0.71875 C 0.796875 -1.351562 0.46875 -2.269531 0.46875 -3.46875 C 0.46875 -4.25 0.601562 -4.910156 0.875 -5.453125 C 1.15625 -5.992188 1.539062 -6.398438 2.03125 -6.671875 C 2.519531 -6.953125 3.082031 -7.09375 3.71875 -7.09375 Z M 1.671875 -3.46875 C 1.671875 -2.625 1.851562 -1.96875 2.21875 -1.5 C 2.59375 -1.039062 3.09375 -0.8125 3.71875 -0.8125 C 4.332031 -0.8125 4.828125 -1.039062 5.203125 -1.5 C 5.578125 -1.96875 5.765625 -2.625 5.765625 -3.46875 C 5.765625 -4.289062 5.582031 -4.941406 5.21875 -5.421875 C 4.851562 -5.898438 4.347656 -6.140625 3.703125 -6.140625 C 3.097656 -6.140625 2.609375 -5.90625 2.234375 -5.4375 C 1.859375 -4.96875 1.671875 -4.3125 1.671875 -3.46875 Z M 1.671875 -3.46875 "/></g></g></g><g fill="#2c3152" fill-opacity="1"><g transform="translate(154.034773, 157.256786)"><g><path d="M 3.1875 -7.09375 C 3.96875 -7.09375 4.597656 -6.929688 5.078125 -6.609375 C 5.566406 -6.285156 5.847656 -5.800781 5.921875 -5.15625 L 4.765625 -5 C 4.710938 -5.34375 4.566406 -5.617188 4.328125 -5.828125 C 4.085938 -6.035156 3.726562 -6.140625 3.25 -6.140625 C 2.78125 -6.140625 2.410156 -6.054688 2.140625 -5.890625 C 1.878906 -5.734375 1.75 -5.507812 1.75 -5.21875 C 1.75 -5.019531 1.828125 -4.859375 1.984375 -4.734375 C 2.140625 -4.609375 2.320312 -4.507812 2.53125 -4.4375 C 2.75 -4.375 3.078125 -4.285156 3.515625 -4.171875 C 4.078125 -4.046875 4.535156 -3.914062 4.890625 -3.78125 C 5.242188 -3.644531 5.546875 -3.4375 5.796875 -3.15625 C 6.054688 -2.882812 6.1875 -2.515625 6.1875 -2.046875 C 6.1875 -1.648438 6.070312 -1.28125 5.84375 -0.9375 C 5.625 -0.601562 5.304688 -0.335938 4.890625 -0.140625 C 4.472656 0.046875 4 0.140625 3.46875 0.140625 C 2.539062 0.140625 1.832031 -0.0390625 1.34375 -0.40625 C 0.851562 -0.769531 0.546875 -1.328125 0.421875 -2.078125 L 1.578125 -2.25 C 1.640625 -1.78125 1.828125 -1.421875 2.140625 -1.171875 C 2.460938 -0.929688 2.875 -0.8125 3.375 -0.8125 C 3.882812 -0.8125 4.28125 -0.914062 4.5625 -1.125 C 4.84375 -1.34375 4.984375 -1.609375 4.984375 -1.921875 C 4.984375 -2.210938 4.84375 -2.425781 4.5625 -2.5625 C 4.28125 -2.707031 3.847656 -2.847656 3.265625 -2.984375 C 2.691406 -3.117188 2.234375 -3.25 1.890625 -3.375 C 1.546875 -3.507812 1.242188 -3.710938 0.984375 -3.984375 C 0.734375 -4.265625 0.609375 -4.640625 0.609375 -5.109375 C 0.609375 -5.484375 0.707031 -5.820312 0.90625 -6.125 C 1.113281 -6.425781 1.410156 -6.660156 1.796875 -6.828125 C 2.191406 -7.003906 2.65625 -7.09375 3.1875 -7.09375 Z M 3.1875 -7.09375 "/></g></g></g><g fill="#2c3152" fill-opacity="1"><g transform="translate(160.728593, 157.256786)"><g><path d="M 3.796875 -7.09375 C 4.367188 -7.09375 4.832031 -7.035156 5.1875 -6.921875 C 5.539062 -6.816406 5.820312 -6.65625 6.03125 -6.4375 C 6.226562 -6.238281 6.359375 -6.015625 6.421875 -5.765625 C 6.492188 -5.515625 6.53125 -5.179688 6.53125 -4.765625 L 6.53125 -1.96875 C 6.53125 -1.0625 6.65625 -0.40625 6.90625 0 L 5.671875 0 C 5.554688 -0.238281 5.476562 -0.523438 5.4375 -0.859375 C 5.007812 -0.503906 4.59375 -0.242188 4.1875 -0.078125 C 3.78125 0.078125 3.359375 0.15625 2.921875 0.15625 C 2.171875 0.15625 1.582031 -0.0234375 1.15625 -0.390625 C 0.726562 -0.753906 0.515625 -1.234375 0.515625 -1.828125 C 0.515625 -2.140625 0.582031 -2.441406 0.71875 -2.734375 C 0.863281 -3.023438 1.0625 -3.253906 1.3125 -3.421875 C 1.582031 -3.597656 1.851562 -3.722656 2.125 -3.796875 C 2.40625 -3.878906 2.742188 -3.941406 3.140625 -3.984375 C 3.578125 -4.035156 4.003906 -4.097656 4.421875 -4.171875 C 4.847656 -4.242188 5.160156 -4.320312 5.359375 -4.40625 L 5.359375 -4.703125 C 5.359375 -5.171875 5.226562 -5.523438 4.96875 -5.765625 C 4.71875 -6.015625 4.285156 -6.140625 3.671875 -6.140625 C 3.085938 -6.140625 2.664062 -6.035156 2.40625 -5.828125 C 2.15625 -5.617188 1.972656 -5.28125 1.859375 -4.8125 L 0.703125 -4.953125 C 0.867188 -5.703125 1.207031 -6.242188 1.71875 -6.578125 C 2.226562 -6.921875 2.921875 -7.09375 3.796875 -7.09375 Z M 3.671875 -3.078125 C 3.210938 -3.003906 2.859375 -2.929688 2.609375 -2.859375 C 2.367188 -2.796875 2.164062 -2.6875 2 -2.53125 C 1.84375 -2.375 1.765625 -2.148438 1.765625 -1.859375 C 1.765625 -1.515625 1.890625 -1.242188 2.140625 -1.046875 C 2.398438 -0.859375 2.765625 -0.765625 3.234375 -0.765625 C 3.492188 -0.765625 3.78125 -0.816406 4.09375 -0.921875 C 4.40625 -1.035156 4.679688 -1.234375 4.921875 -1.515625 C 5.066406 -1.691406 5.175781 -1.890625 5.25 -2.109375 C 5.320312 -2.335938 5.359375 -2.625 5.359375 -2.96875 L 5.359375 -3.484375 C 5.003906 -3.335938 4.441406 -3.203125 3.671875 -3.078125 Z M 3.671875 -3.078125 "/></g></g></g></svg>