<svg xmlns="http://www.w3.org/2000/svg" xmlns:xlink="http://www.w3.org/1999/xlink" width="500" zoomAndPan="magnify" viewBox="0 0 375 374.999991" height="500" preserveAspectRatio="xMidYMid meet" version="1.0"><defs><g/><clipPath id="1235916328"><path d="M 5.273438 106.511719 L 369.726562 106.511719 L 369.726562 268.488281 L 5.273438 268.488281 Z M 5.273438 106.511719 " clip-rule="nonzero"/></clipPath><clipPath id="8310a41053"><path d="M 22.523438 106.511719 L 352.476562 106.511719 C 357.050781 106.511719 361.4375 108.328125 364.675781 111.5625 C 367.910156 114.800781 369.726562 119.1875 369.726562 123.761719 L 369.726562 251.238281 C 369.726562 255.8125 367.910156 260.199219 364.675781 263.4375 C 361.4375 266.671875 357.050781 268.488281 352.476562 268.488281 L 22.523438 268.488281 C 17.949219 268.488281 13.5625 266.671875 10.324219 263.4375 C 7.089844 260.199219 5.273438 255.8125 5.273438 251.238281 L 5.273438 123.761719 C 5.273438 119.1875 7.089844 114.800781 10.324219 111.5625 C 13.5625 108.328125 17.949219 106.511719 22.523438 106.511719 Z M 22.523438 106.511719 " clip-rule="nonzero"/></clipPath></defs><g clip-path="url(#1235916328)"><g clip-path="url(#8310a41053)"><path fill="#ccecea" d="M 5.273438 106.511719 L 5.273438 268.488281 L 369.726562 268.488281 L 369.726562 106.511719 Z M 5.273438 106.511719 " fill-opacity="1" fill-rule="nonzero"/></g></g><g fill="#2c3152" fill-opacity="1"><g transform="translate(93.469223, 202.499987)"><g><path d="M 30.359375 0 L 30.359375 -19.078125 C 30.359375 -19.328125 30.375 -20.546875 30.40625 -22.734375 C 30.4375 -24.921875 30.453125 -26.390625 30.453125 -27.140625 L 30.328125 -27.140625 L 21.296875 0 L 16.96875 0 L 7.90625 -27.09375 L 7.78125 -27.09375 C 7.78125 -26.007812 7.789062 -24.460938 7.8125 -22.453125 C 7.84375 -20.453125 7.859375 -19.328125 7.859375 -19.078125 L 7.859375 0 L 3.640625 0 L 3.640625 -32.296875 L 9.890625 -32.296875 L 19.078125 -4.984375 L 19.203125 -4.984375 L 28.34375 -32.296875 L 34.609375 -32.296875 L 34.609375 0 Z M 30.359375 0 "/></g></g><g transform="translate(131.723615, 202.499987)"><g><path d="M 5.71875 -11.796875 C 5.71875 -9.171875 6.304688 -7.015625 7.484375 -5.328125 C 8.671875 -3.640625 10.359375 -2.796875 12.546875 -2.796875 C 14.804688 -2.796875 16.519531 -3.679688 17.6875 -5.453125 C 18.863281 -7.222656 19.453125 -9.335938 19.453125 -11.796875 C 19.453125 -14.285156 18.863281 -16.398438 17.6875 -18.140625 C 16.519531 -19.878906 14.804688 -20.75 12.546875 -20.75 C 10.453125 -20.75 8.789062 -19.929688 7.5625 -18.296875 C 6.332031 -16.660156 5.71875 -14.492188 5.71875 -11.796875 Z M 1.671875 -11.796875 C 1.671875 -15.296875 2.644531 -18.238281 4.59375 -20.625 C 6.539062 -23.019531 9.191406 -24.21875 12.546875 -24.21875 C 15.972656 -24.21875 18.648438 -23.007812 20.578125 -20.59375 C 22.515625 -18.175781 23.484375 -15.242188 23.484375 -11.796875 C 23.484375 -8.335938 22.523438 -5.390625 20.609375 -2.953125 C 18.691406 -0.523438 16.003906 0.6875 12.546875 0.6875 C 9.222656 0.6875 6.578125 -0.488281 4.609375 -2.84375 C 2.648438 -5.207031 1.671875 -8.191406 1.671875 -11.796875 Z M 1.671875 -11.796875 "/></g></g><g transform="translate(156.882304, 202.499987)"><g><path d="M 6.921875 0 L 2.96875 0 L 2.96875 -23.53125 L 6.703125 -23.53125 L 6.703125 -19.625 L 6.796875 -19.625 C 8.503906 -22.6875 10.707031 -24.21875 13.40625 -24.21875 C 13.832031 -24.21875 14.175781 -24.171875 14.4375 -24.078125 L 14.4375 -19.96875 L 12.96875 -19.96875 C 11.195312 -19.96875 9.742188 -19.367188 8.609375 -18.171875 C 7.484375 -16.972656 6.921875 -15.476562 6.921875 -13.6875 Z M 6.921875 0 "/></g></g><g transform="translate(171.538065, 202.499987)"><g><path d="M 19.109375 -13.640625 C 18.910156 -16.191406 18.238281 -18 17.09375 -19.0625 C 15.945312 -20.125 14.429688 -20.65625 12.546875 -20.65625 C 10.628906 -20.65625 9.078125 -19.976562 7.890625 -18.625 C 6.710938 -17.28125 6.085938 -15.617188 6.015625 -13.640625 Z M 22.890625 -7.390625 C 22.453125 -4.953125 21.257812 -2.9375 19.3125 -1.34375 C 17.601562 0.0078125 15.347656 0.695312 12.546875 0.71875 C 9.253906 0.695312 6.640625 -0.378906 4.703125 -2.515625 C 2.765625 -4.648438 1.796875 -7.519531 1.796875 -11.125 C 1.796875 -15.25 2.789062 -18.460938 4.78125 -20.765625 C 6.78125 -23.066406 9.550781 -24.21875 13.09375 -24.21875 C 16.269531 -24.21875 18.75 -23.03125 20.53125 -20.65625 C 22.320312 -18.28125 23.21875 -14.890625 23.21875 -10.484375 L 6.015625 -10.484375 C 6.015625 -8.023438 6.585938 -6.117188 7.734375 -4.765625 C 8.878906 -3.421875 10.59375 -2.75 12.875 -2.75 C 14.488281 -2.75 15.875 -3.234375 17.03125 -4.203125 C 18.1875 -5.179688 18.820312 -6.242188 18.9375 -7.390625 Z M 22.890625 -7.390625 "/></g></g><g transform="translate(196.477028, 202.499987)"><g/></g><g transform="translate(207.463356, 202.499987)"><g><path d="M 8.015625 0 L 3.640625 0 L 3.640625 -32.296875 L 8.015625 -32.296875 Z M 8.015625 0 "/></g></g><g transform="translate(219.064918, 202.499987)"><g><path d="M 22.15625 0 L 18.171875 0 L 18.171875 -14.484375 C 18.171875 -16.703125 17.78125 -18.285156 17 -19.234375 C 16.226562 -20.179688 14.941406 -20.65625 13.140625 -20.65625 C 11.367188 -20.65625 9.890625 -19.976562 8.703125 -18.625 C 7.515625 -17.28125 6.921875 -15.347656 6.921875 -12.828125 L 6.921875 0 L 2.96875 0 L 2.96875 -23.53125 L 6.703125 -23.53125 L 6.703125 -20.21875 L 6.796875 -20.21875 C 8.648438 -22.882812 11.019531 -24.21875 13.90625 -24.21875 C 16.570312 -24.21875 18.613281 -23.507812 20.03125 -22.09375 C 21.445312 -20.675781 22.15625 -18.648438 22.15625 -16.015625 Z M 22.15625 0 "/></g></g><g transform="translate(243.894017, 202.499987)"><g><path d="M 7.734375 -20.265625 L 7.734375 0 L 3.78125 0 L 3.78125 -20.265625 L 0.546875 -20.265625 L 0.546875 -23.53125 L 3.78125 -23.53125 L 3.78125 -27.578125 C 3.78125 -29.347656 4.316406 -30.65625 5.390625 -31.5 C 6.472656 -32.34375 7.976562 -32.765625 9.90625 -32.765625 C 10.570312 -32.765625 11.164062 -32.734375 11.6875 -32.671875 L 11.6875 -29.109375 C 11.21875 -29.171875 10.679688 -29.203125 10.078125 -29.203125 C 9.203125 -29.203125 8.59375 -28.984375 8.25 -28.546875 C 7.90625 -28.117188 7.734375 -27.421875 7.734375 -26.453125 L 7.734375 -23.53125 L 11.6875 -23.53125 L 11.6875 -20.265625 Z M 7.734375 -20.265625 "/></g></g><g transform="translate(256.352513, 202.499987)"><g><path d="M 5.71875 -11.796875 C 5.71875 -9.171875 6.304688 -7.015625 7.484375 -5.328125 C 8.671875 -3.640625 10.359375 -2.796875 12.546875 -2.796875 C 14.804688 -2.796875 16.519531 -3.679688 17.6875 -5.453125 C 18.863281 -7.222656 19.453125 -9.335938 19.453125 -11.796875 C 19.453125 -14.285156 18.863281 -16.398438 17.6875 -18.140625 C 16.519531 -19.878906 14.804688 -20.75 12.546875 -20.75 C 10.453125 -20.75 8.789062 -19.929688 7.5625 -18.296875 C 6.332031 -16.660156 5.71875 -14.492188 5.71875 -11.796875 Z M 1.671875 -11.796875 C 1.671875 -15.296875 2.644531 -18.238281 4.59375 -20.625 C 6.539062 -23.019531 9.191406 -24.21875 12.546875 -24.21875 C 15.972656 -24.21875 18.648438 -23.007812 20.578125 -20.59375 C 22.515625 -18.175781 23.484375 -15.242188 23.484375 -11.796875 C 23.484375 -8.335938 22.523438 -5.390625 20.609375 -2.953125 C 18.691406 -0.523438 16.003906 0.6875 12.546875 0.6875 C 9.222656 0.6875 6.578125 -0.488281 4.609375 -2.84375 C 2.648438 -5.207031 1.671875 -8.191406 1.671875 -11.796875 Z M 1.671875 -11.796875 "/></g></g></g></svg>