<svg xmlns="http://www.w3.org/2000/svg" xmlns:xlink="http://www.w3.org/1999/xlink" width="309" zoomAndPan="magnify" viewBox="0 0 231.75 231" height="308" preserveAspectRatio="xMidYMid meet" version="1.0"><defs><g/><clipPath id="d8a8fd09db"><path d="M 0 0.125 L 230.152344 0.125 L 230.152344 230.265625 L 0 230.265625 Z M 0 0.125 " clip-rule="nonzero"/></clipPath><clipPath id="e8440e406a"><path d="M 0 115.191406 C 0 178.746094 51.519531 230.265625 115.074219 230.265625 C 178.628906 230.265625 230.152344 178.746094 230.152344 115.191406 C 230.152344 51.636719 178.628906 0.113281 115.074219 0.113281 C 51.519531 0.113281 0 51.636719 0 115.191406 Z M 0 115.191406 " clip-rule="nonzero"/></clipPath></defs><g clip-path="url(#d8a8fd09db)"><g clip-path="url(#e8440e406a)"><path fill="#ccecea" d="M 0 230.265625 L 230.152344 230.265625 L 230.152344 0.125 L 0 0.125 Z M 0 230.265625 " fill-opacity="1" fill-rule="nonzero"/></g></g><g fill="#2c3152" fill-opacity="1"><g transform="translate(58.182436, 83.408454)"><g><path d="M 13.734375 -8.609375 C 14.273438 -7.015625 14.632812 -5.914062 14.8125 -5.3125 C 14.976562 -4.75 15.09375 -4.328125 15.15625 -4.046875 L 15.234375 -4.046875 C 15.304688 -4.265625 15.503906 -4.875 15.828125 -5.875 L 16.59375 -8.1875 L 22.59375 -25.71875 L 27.265625 -25.71875 L 27.265625 0 L 24.046875 0 L 24.046875 -21.53125 L 23.96875 -21.53125 L 16.5625 0 L 13.515625 0 L 6.140625 -21.875 L 6.03125 -21.875 L 6.03125 0 L 2.8125 0 L 2.8125 -25.71875 L 8.015625 -25.71875 Z M 13.734375 -8.609375 "/></g></g></g><g fill="#2c3152" fill-opacity="1"><g transform="translate(88.257744, 83.408454)"><g><path d="M 10.171875 -2.15625 C 11.367188 -2.15625 12.398438 -2.503906 13.265625 -3.203125 C 14.140625 -3.910156 14.75 -4.84375 15.09375 -6 L 18.171875 -5.53125 C 17.648438 -3.644531 16.664062 -2.175781 15.21875 -1.125 C 13.78125 -0.0820312 12.046875 0.4375 10.015625 0.4375 C 8.242188 0.4375 6.695312 0.046875 5.375 -0.734375 C 4.0625 -1.515625 3.046875 -2.628906 2.328125 -4.078125 C 1.617188 -5.523438 1.265625 -7.21875 1.265625 -9.15625 C 1.265625 -11.15625 1.613281 -12.898438 2.3125 -14.390625 C 3.019531 -15.878906 4.03125 -17.023438 5.34375 -17.828125 C 6.65625 -18.640625 8.203125 -19.046875 9.984375 -19.046875 C 11.703125 -19.046875 13.195312 -18.660156 14.46875 -17.890625 C 15.75 -17.117188 16.734375 -15.988281 17.421875 -14.5 C 18.109375 -13.019531 18.453125 -11.238281 18.453125 -9.15625 L 18.453125 -8.515625 L 4.53125 -8.515625 C 4.59375 -7.179688 4.863281 -6.035156 5.34375 -5.078125 C 5.832031 -4.128906 6.488281 -3.40625 7.3125 -2.90625 C 8.132812 -2.40625 9.085938 -2.15625 10.171875 -2.15625 Z M 9.953125 -16.453125 C 9.015625 -16.453125 8.171875 -16.226562 7.421875 -15.78125 C 6.671875 -15.34375 6.050781 -14.71875 5.5625 -13.90625 C 5.082031 -13.101562 4.769531 -12.171875 4.625 -11.109375 L 15.125 -11.109375 C 14.9375 -12.828125 14.394531 -14.144531 13.5 -15.0625 C 12.601562 -15.988281 11.421875 -16.453125 9.953125 -16.453125 Z M 9.953125 -16.453125 "/></g></g></g><g fill="#2c3152" fill-opacity="1"><g transform="translate(107.945314, 83.408454)"><g><path d="M 18.109375 0 L 15.15625 0 L 15.15625 -2.375 L 15.09375 -2.375 C 14.53125 -1.519531 13.742188 -0.835938 12.734375 -0.328125 C 11.734375 0.179688 10.679688 0.4375 9.578125 0.4375 C 7.960938 0.4375 6.523438 0.03125 5.265625 -0.78125 C 4.003906 -1.59375 3.019531 -2.734375 2.3125 -4.203125 C 1.613281 -5.679688 1.265625 -7.378906 1.265625 -9.296875 C 1.265625 -11.285156 1.59375 -13.007812 2.25 -14.46875 C 2.90625 -15.9375 3.835938 -17.066406 5.046875 -17.859375 C 6.253906 -18.648438 7.671875 -19.046875 9.296875 -19.046875 C 10.503906 -19.046875 11.554688 -18.832031 12.453125 -18.40625 C 13.359375 -17.988281 14.164062 -17.351562 14.875 -16.5 L 14.953125 -16.5 L 14.953125 -25.71875 L 18.109375 -25.71875 Z M 9.59375 -16.453125 C 8.53125 -16.453125 7.613281 -16.160156 6.84375 -15.578125 C 6.082031 -14.992188 5.5 -14.160156 5.09375 -13.078125 C 4.695312 -11.992188 4.5 -10.726562 4.5 -9.28125 C 4.5 -7.757812 4.722656 -6.460938 5.171875 -5.390625 C 5.617188 -4.328125 6.238281 -3.519531 7.03125 -2.96875 C 7.832031 -2.425781 8.753906 -2.15625 9.796875 -2.15625 C 10.910156 -2.15625 11.867188 -2.4375 12.671875 -3 C 13.484375 -3.5625 14.097656 -4.359375 14.515625 -5.390625 C 14.941406 -6.429688 15.15625 -7.644531 15.15625 -9.03125 C 15.15625 -10.582031 14.925781 -11.910156 14.46875 -13.015625 C 14.019531 -14.128906 13.375 -14.976562 12.53125 -15.5625 C 11.695312 -16.15625 10.71875 -16.453125 9.59375 -16.453125 Z M 9.59375 -16.453125 "/></g></g></g><g fill="#2c3152" fill-opacity="1"><g transform="translate(128.492683, 83.408454)"><g><path d="M 5.59375 -22.140625 L 2.4375 -22.140625 L 2.4375 -25.71875 L 5.59375 -25.71875 Z M 5.59375 0 L 2.4375 0 L 2.4375 -18.625 L 5.59375 -18.625 Z M 5.59375 0 "/></g></g></g><g fill="#2c3152" fill-opacity="1"><g transform="translate(136.529142, 83.408454)"><g><path d="M 10.234375 -16.4375 C 8.390625 -16.4375 6.972656 -15.816406 5.984375 -14.578125 C 4.992188 -13.335938 4.5 -11.585938 4.5 -9.328125 C 4.5 -7.929688 4.71875 -6.691406 5.15625 -5.609375 C 5.601562 -4.523438 6.25 -3.675781 7.09375 -3.0625 C 7.9375 -2.457031 8.925781 -2.15625 10.0625 -2.15625 C 11.40625 -2.15625 12.507812 -2.570312 13.375 -3.40625 C 14.238281 -4.238281 14.773438 -5.378906 14.984375 -6.828125 L 18.109375 -6.359375 C 17.910156 -4.972656 17.429688 -3.765625 16.671875 -2.734375 C 15.910156 -1.710938 14.941406 -0.925781 13.765625 -0.375 C 12.597656 0.164062 11.320312 0.4375 9.9375 0.4375 C 8.21875 0.4375 6.703125 0.0390625 5.390625 -0.75 C 4.078125 -1.539062 3.0625 -2.664062 2.34375 -4.125 C 1.625 -5.582031 1.265625 -7.300781 1.265625 -9.28125 C 1.265625 -11.363281 1.625 -13.132812 2.34375 -14.59375 C 3.0625 -16.0625 4.082031 -17.171875 5.40625 -17.921875 C 6.726562 -18.671875 8.289062 -19.046875 10.09375 -19.046875 C 11.414062 -19.046875 12.617188 -18.8125 13.703125 -18.34375 C 14.796875 -17.882812 15.691406 -17.210938 16.390625 -16.328125 C 17.097656 -15.441406 17.566406 -14.382812 17.796875 -13.15625 L 14.734375 -12.703125 C 14.441406 -13.890625 13.898438 -14.804688 13.109375 -15.453125 C 12.316406 -16.109375 11.359375 -16.4375 10.234375 -16.4375 Z M 10.234375 -16.4375 "/></g></g></g><g fill="#2c3152" fill-opacity="1"><g transform="translate(155.35692, 83.408454)"><g><path d="M 17.421875 0 L 14.125 0 C 13.9375 -0.394531 13.804688 -0.710938 13.734375 -0.953125 C 13.671875 -1.203125 13.585938 -1.648438 13.484375 -2.296875 C 12.578125 -1.335938 11.617188 -0.640625 10.609375 -0.203125 C 9.609375 0.222656 8.457031 0.4375 7.15625 0.4375 C 5.988281 0.4375 4.957031 0.210938 4.0625 -0.234375 C 3.164062 -0.679688 2.472656 -1.3125 1.984375 -2.125 C 1.503906 -2.945312 1.265625 -3.882812 1.265625 -4.9375 C 1.265625 -6.53125 1.785156 -7.800781 2.828125 -8.75 C 3.867188 -9.695312 5.582031 -10.351562 7.96875 -10.71875 C 10.445312 -11.09375 12.210938 -11.453125 13.265625 -11.796875 L 13.265625 -12.28125 C 13.265625 -13.320312 13.128906 -14.144531 12.859375 -14.75 C 12.585938 -15.351562 12.15625 -15.785156 11.5625 -16.046875 C 10.976562 -16.316406 10.179688 -16.453125 9.171875 -16.453125 C 7.910156 -16.453125 6.914062 -16.164062 6.1875 -15.59375 C 5.457031 -15.019531 4.972656 -14.117188 4.734375 -12.890625 L 1.65625 -13.375 C 2.03125 -15.257812 2.867188 -16.675781 4.171875 -17.625 C 5.472656 -18.570312 7.203125 -19.046875 9.359375 -19.046875 C 11.003906 -19.046875 12.34375 -18.835938 13.375 -18.421875 C 14.40625 -18.003906 15.171875 -17.320312 15.671875 -16.375 C 16.171875 -15.4375 16.421875 -14.171875 16.421875 -12.578125 L 16.421875 -5.890625 C 16.421875 -4.734375 16.445312 -3.835938 16.5 -3.203125 C 16.550781 -2.578125 16.644531 -2.035156 16.78125 -1.578125 C 16.914062 -1.117188 17.128906 -0.59375 17.421875 0 Z M 8.109375 -8.078125 C 6.859375 -7.847656 5.941406 -7.472656 5.359375 -6.953125 C 4.785156 -6.441406 4.5 -5.769531 4.5 -4.9375 C 4.5 -4.03125 4.785156 -3.320312 5.359375 -2.8125 C 5.941406 -2.300781 6.773438 -2.046875 7.859375 -2.046875 C 8.773438 -2.046875 9.726562 -2.34375 10.71875 -2.9375 C 11.40625 -3.34375 11.925781 -3.78125 12.28125 -4.25 C 12.644531 -4.726562 12.898438 -5.304688 13.046875 -5.984375 C 13.191406 -6.660156 13.265625 -7.546875 13.265625 -8.640625 L 13.265625 -9.296875 C 12.984375 -9.171875 12.347656 -8.988281 11.359375 -8.75 C 10.367188 -8.519531 9.285156 -8.296875 8.109375 -8.078125 Z M 8.109375 -8.078125 "/></g></g></g><g fill="#2c3152" fill-opacity="1"><g transform="translate(174.149598, 83.408454)"><g><path d="M 5.59375 0 L 2.4375 0 L 2.4375 -25.71875 L 5.59375 -25.71875 Z M 5.59375 0 "/></g></g></g><g fill="#2c3152" fill-opacity="1"><g transform="translate(19.044372, 126.261611)"><g><path d="M 21.09375 -18.171875 C 21.09375 -16.472656 20.710938 -15.023438 19.953125 -13.828125 C 19.203125 -12.628906 18.117188 -11.726562 16.703125 -11.125 C 15.285156 -10.519531 13.597656 -10.21875 11.640625 -10.21875 L 6.21875 -10.21875 L 6.21875 0 L 2.8125 0 L 2.8125 -25.71875 L 11.71875 -25.71875 C 14.738281 -25.71875 17.054688 -25.078125 18.671875 -23.796875 C 20.285156 -22.515625 21.09375 -20.640625 21.09375 -18.171875 Z M 17.5625 -18.078125 C 17.5625 -19.648438 17.078125 -20.804688 16.109375 -21.546875 C 15.140625 -22.296875 13.632812 -22.671875 11.59375 -22.671875 L 6.21875 -22.671875 L 6.21875 -13.265625 L 11.65625 -13.265625 C 13.644531 -13.265625 15.125 -13.660156 16.09375 -14.453125 C 17.070312 -15.253906 17.5625 -16.460938 17.5625 -18.078125 Z M 17.5625 -18.078125 "/></g></g></g><g fill="#2c3152" fill-opacity="1"><g transform="translate(41.36397, 126.261611)"><g><path d="M 9.734375 -15.8125 C 8.390625 -15.8125 7.363281 -15.289062 6.65625 -14.25 C 5.945312 -13.21875 5.59375 -11.78125 5.59375 -9.9375 L 5.59375 0 L 2.4375 0 L 2.4375 -18.625 L 5.390625 -18.625 L 5.390625 -15.8125 C 6.078125 -16.976562 6.773438 -17.804688 7.484375 -18.296875 C 8.203125 -18.796875 9.066406 -19.046875 10.078125 -19.046875 C 10.640625 -19.046875 11.160156 -18.976562 11.640625 -18.84375 C 12.128906 -18.707031 12.625 -18.484375 13.125 -18.171875 L 12.03125 -15.265625 C 11.351562 -15.628906 10.585938 -15.8125 9.734375 -15.8125 Z M 9.734375 -15.8125 "/></g></g></g><g fill="#2c3152" fill-opacity="1"><g transform="translate(54.331098, 126.261611)"><g><path d="M 17.421875 0 L 14.125 0 C 13.9375 -0.394531 13.804688 -0.710938 13.734375 -0.953125 C 13.671875 -1.203125 13.585938 -1.648438 13.484375 -2.296875 C 12.578125 -1.335938 11.617188 -0.640625 10.609375 -0.203125 C 9.609375 0.222656 8.457031 0.4375 7.15625 0.4375 C 5.988281 0.4375 4.957031 0.210938 4.0625 -0.234375 C 3.164062 -0.679688 2.472656 -1.3125 1.984375 -2.125 C 1.503906 -2.945312 1.265625 -3.882812 1.265625 -4.9375 C 1.265625 -6.53125 1.785156 -7.800781 2.828125 -8.75 C 3.867188 -9.695312 5.582031 -10.351562 7.96875 -10.71875 C 10.445312 -11.09375 12.210938 -11.453125 13.265625 -11.796875 L 13.265625 -12.28125 C 13.265625 -13.320312 13.128906 -14.144531 12.859375 -14.75 C 12.585938 -15.351562 12.15625 -15.785156 11.5625 -16.046875 C 10.976562 -16.316406 10.179688 -16.453125 9.171875 -16.453125 C 7.910156 -16.453125 6.914062 -16.164062 6.1875 -15.59375 C 5.457031 -15.019531 4.972656 -14.117188 4.734375 -12.890625 L 1.65625 -13.375 C 2.03125 -15.257812 2.867188 -16.675781 4.171875 -17.625 C 5.472656 -18.570312 7.203125 -19.046875 9.359375 -19.046875 C 11.003906 -19.046875 12.34375 -18.835938 13.375 -18.421875 C 14.40625 -18.003906 15.171875 -17.320312 15.671875 -16.375 C 16.171875 -15.4375 16.421875 -14.171875 16.421875 -12.578125 L 16.421875 -5.890625 C 16.421875 -4.734375 16.445312 -3.835938 16.5 -3.203125 C 16.550781 -2.578125 16.644531 -2.035156 16.78125 -1.578125 C 16.914062 -1.117188 17.128906 -0.59375 17.421875 0 Z M 8.109375 -8.078125 C 6.859375 -7.847656 5.941406 -7.472656 5.359375 -6.953125 C 4.785156 -6.441406 4.5 -5.769531 4.5 -4.9375 C 4.5 -4.03125 4.785156 -3.320312 5.359375 -2.8125 C 5.941406 -2.300781 6.773438 -2.046875 7.859375 -2.046875 C 8.773438 -2.046875 9.726562 -2.34375 10.71875 -2.9375 C 11.40625 -3.34375 11.925781 -3.78125 12.28125 -4.25 C 12.644531 -4.726562 12.898438 -5.304688 13.046875 -5.984375 C 13.191406 -6.660156 13.265625 -7.546875 13.265625 -8.640625 L 13.265625 -9.296875 C 12.984375 -9.171875 12.347656 -8.988281 11.359375 -8.75 C 10.367188 -8.519531 9.285156 -8.296875 8.109375 -8.078125 Z M 8.109375 -8.078125 "/></g></g></g><g fill="#2c3152" fill-opacity="1"><g transform="translate(73.123781, 126.261611)"><g><path d="M 10.234375 -16.4375 C 8.390625 -16.4375 6.972656 -15.816406 5.984375 -14.578125 C 4.992188 -13.335938 4.5 -11.585938 4.5 -9.328125 C 4.5 -7.929688 4.71875 -6.691406 5.15625 -5.609375 C 5.601562 -4.523438 6.25 -3.675781 7.09375 -3.0625 C 7.9375 -2.457031 8.925781 -2.15625 10.0625 -2.15625 C 11.40625 -2.15625 12.507812 -2.570312 13.375 -3.40625 C 14.238281 -4.238281 14.773438 -5.378906 14.984375 -6.828125 L 18.109375 -6.359375 C 17.910156 -4.972656 17.429688 -3.765625 16.671875 -2.734375 C 15.910156 -1.710938 14.941406 -0.925781 13.765625 -0.375 C 12.597656 0.164062 11.320312 0.4375 9.9375 0.4375 C 8.21875 0.4375 6.703125 0.0390625 5.390625 -0.75 C 4.078125 -1.539062 3.0625 -2.664062 2.34375 -4.125 C 1.625 -5.582031 1.265625 -7.300781 1.265625 -9.28125 C 1.265625 -11.363281 1.625 -13.132812 2.34375 -14.59375 C 3.0625 -16.0625 4.082031 -17.171875 5.40625 -17.921875 C 6.726562 -18.671875 8.289062 -19.046875 10.09375 -19.046875 C 11.414062 -19.046875 12.617188 -18.8125 13.703125 -18.34375 C 14.796875 -17.882812 15.691406 -17.210938 16.390625 -16.328125 C 17.097656 -15.441406 17.566406 -14.382812 17.796875 -13.15625 L 14.734375 -12.703125 C 14.441406 -13.890625 13.898438 -14.804688 13.109375 -15.453125 C 12.316406 -16.109375 11.359375 -16.4375 10.234375 -16.4375 Z M 10.234375 -16.4375 "/></g></g></g><g fill="#2c3152" fill-opacity="1"><g transform="translate(91.951558, 126.261611)"><g><path d="M 6.078125 -18.625 L 9.59375 -18.625 L 9.59375 -16.171875 L 6.078125 -16.171875 L 6.078125 -4.890625 C 6.078125 -4.203125 6.132812 -3.6875 6.25 -3.34375 C 6.375 -3.007812 6.554688 -2.785156 6.796875 -2.671875 C 7.046875 -2.566406 7.390625 -2.515625 7.828125 -2.515625 C 8.242188 -2.515625 8.832031 -2.585938 9.59375 -2.734375 L 10.015625 -0.109375 C 9.117188 0.0976562 8.210938 0.203125 7.296875 0.203125 C 6.160156 0.203125 5.285156 0.0351562 4.671875 -0.296875 C 4.054688 -0.628906 3.601562 -1.117188 3.3125 -1.765625 C 3.039062 -2.398438 2.90625 -3.539062 2.90625 -5.1875 L 2.90625 -16.171875 L 0.25 -16.171875 L 0.25 -18.625 L 2.90625 -18.625 L 2.90625 -22.90625 L 6.078125 -25.15625 Z M 6.078125 -18.625 "/></g></g></g><g fill="#2c3152" fill-opacity="1"><g transform="translate(102.409484, 126.261611)"><g><path d="M 5.59375 -22.140625 L 2.4375 -22.140625 L 2.4375 -25.71875 L 5.59375 -25.71875 Z M 5.59375 0 L 2.4375 0 L 2.4375 -18.625 L 5.59375 -18.625 Z M 5.59375 0 "/></g></g></g><g fill="#2c3152" fill-opacity="1"><g transform="translate(110.445937, 126.261611)"><g><path d="M 6.078125 -18.625 L 9.59375 -18.625 L 9.59375 -16.171875 L 6.078125 -16.171875 L 6.078125 -4.890625 C 6.078125 -4.203125 6.132812 -3.6875 6.25 -3.34375 C 6.375 -3.007812 6.554688 -2.785156 6.796875 -2.671875 C 7.046875 -2.566406 7.390625 -2.515625 7.828125 -2.515625 C 8.242188 -2.515625 8.832031 -2.585938 9.59375 -2.734375 L 10.015625 -0.109375 C 9.117188 0.0976562 8.210938 0.203125 7.296875 0.203125 C 6.160156 0.203125 5.285156 0.0351562 4.671875 -0.296875 C 4.054688 -0.628906 3.601562 -1.117188 3.3125 -1.765625 C 3.039062 -2.398438 2.90625 -3.539062 2.90625 -5.1875 L 2.90625 -16.171875 L 0.25 -16.171875 L 0.25 -18.625 L 2.90625 -18.625 L 2.90625 -22.90625 L 6.078125 -25.15625 Z M 6.078125 -18.625 "/></g></g></g><g fill="#2c3152" fill-opacity="1"><g transform="translate(120.903863, 126.261611)"><g><path d="M 5.59375 -22.140625 L 2.4375 -22.140625 L 2.4375 -25.71875 L 5.59375 -25.71875 Z M 5.59375 0 L 2.4375 0 L 2.4375 -18.625 L 5.59375 -18.625 Z M 5.59375 0 "/></g></g></g><g fill="#2c3152" fill-opacity="1"><g transform="translate(128.940317, 126.261611)"><g><path d="M 1.265625 -9.296875 C 1.265625 -11.328125 1.625 -13.070312 2.34375 -14.53125 C 3.070312 -15.988281 4.09375 -17.101562 5.40625 -17.875 C 6.726562 -18.65625 8.253906 -19.046875 9.984375 -19.046875 C 11.722656 -19.046875 13.25 -18.671875 14.5625 -17.921875 C 15.875 -17.171875 16.894531 -16.066406 17.625 -14.609375 C 18.351562 -13.148438 18.71875 -11.390625 18.71875 -9.328125 C 18.71875 -7.285156 18.347656 -5.53125 17.609375 -4.0625 C 16.878906 -2.59375 15.851562 -1.472656 14.53125 -0.703125 C 13.21875 0.0546875 11.703125 0.4375 9.984375 0.4375 C 8.273438 0.4375 6.765625 0.0664062 5.453125 -0.671875 C 4.140625 -1.421875 3.113281 -2.523438 2.375 -3.984375 C 1.632812 -5.441406 1.265625 -7.210938 1.265625 -9.296875 Z M 9.96875 -16.4375 C 8.914062 -16.4375 7.972656 -16.164062 7.140625 -15.625 C 6.316406 -15.082031 5.671875 -14.273438 5.203125 -13.203125 C 4.734375 -12.128906 4.5 -10.828125 4.5 -9.296875 C 4.5 -7.765625 4.726562 -6.460938 5.1875 -5.390625 C 5.65625 -4.328125 6.300781 -3.519531 7.125 -2.96875 C 7.957031 -2.425781 8.910156 -2.15625 9.984375 -2.15625 C 11.097656 -2.15625 12.066406 -2.4375 12.890625 -3 C 13.722656 -3.5625 14.363281 -4.378906 14.8125 -5.453125 C 15.269531 -6.535156 15.5 -7.828125 15.5 -9.328125 C 15.5 -10.847656 15.265625 -12.140625 14.796875 -13.203125 C 14.328125 -14.273438 13.675781 -15.082031 12.84375 -15.625 C 12.007812 -16.164062 11.050781 -16.4375 9.96875 -16.4375 Z M 9.96875 -16.4375 "/></g></g></g><g fill="#2c3152" fill-opacity="1"><g transform="translate(148.926191, 126.261611)"><g><path d="M 14.453125 0 L 14.453125 -12.171875 C 14.453125 -13.535156 14.113281 -14.566406 13.4375 -15.265625 C 12.757812 -15.960938 11.800781 -16.3125 10.5625 -16.3125 C 9 -16.3125 7.78125 -15.835938 6.90625 -14.890625 C 6.03125 -13.953125 5.59375 -12.445312 5.59375 -10.375 L 5.59375 0 L 2.4375 0 L 2.4375 -18.625 L 5.390625 -18.625 L 5.390625 -16.015625 C 6.003906 -16.953125 6.804688 -17.691406 7.796875 -18.234375 C 8.785156 -18.773438 9.882812 -19.046875 11.09375 -19.046875 C 13.238281 -19.046875 14.863281 -18.488281 15.96875 -17.375 C 17.070312 -16.257812 17.625 -14.664062 17.625 -12.59375 L 17.625 0 Z M 14.453125 0 "/></g></g></g><g fill="#2c3152" fill-opacity="1"><g transform="translate(168.912066, 126.261611)"><g><path d="M 10.171875 -2.15625 C 11.367188 -2.15625 12.398438 -2.503906 13.265625 -3.203125 C 14.140625 -3.910156 14.75 -4.84375 15.09375 -6 L 18.171875 -5.53125 C 17.648438 -3.644531 16.664062 -2.175781 15.21875 -1.125 C 13.78125 -0.0820312 12.046875 0.4375 10.015625 0.4375 C 8.242188 0.4375 6.695312 0.046875 5.375 -0.734375 C 4.0625 -1.515625 3.046875 -2.628906 2.328125 -4.078125 C 1.617188 -5.523438 1.265625 -7.21875 1.265625 -9.15625 C 1.265625 -11.15625 1.613281 -12.898438 2.3125 -14.390625 C 3.019531 -15.878906 4.03125 -17.023438 5.34375 -17.828125 C 6.65625 -18.640625 8.203125 -19.046875 9.984375 -19.046875 C 11.703125 -19.046875 13.195312 -18.660156 14.46875 -17.890625 C 15.75 -17.117188 16.734375 -15.988281 17.421875 -14.5 C 18.109375 -13.019531 18.453125 -11.238281 18.453125 -9.15625 L 18.453125 -8.515625 L 4.53125 -8.515625 C 4.59375 -7.179688 4.863281 -6.035156 5.34375 -5.078125 C 5.832031 -4.128906 6.488281 -3.40625 7.3125 -2.90625 C 8.132812 -2.40625 9.085938 -2.15625 10.171875 -2.15625 Z M 9.953125 -16.453125 C 9.015625 -16.453125 8.171875 -16.226562 7.421875 -15.78125 C 6.671875 -15.34375 6.050781 -14.71875 5.5625 -13.90625 C 5.082031 -13.101562 4.769531 -12.171875 4.625 -11.109375 L 15.125 -11.109375 C 14.9375 -12.828125 14.394531 -14.144531 13.5 -15.0625 C 12.601562 -15.988281 11.421875 -16.453125 9.953125 -16.453125 Z M 9.953125 -16.453125 "/></g></g></g><g fill="#2c3152" fill-opacity="1"><g transform="translate(188.599642, 126.261611)"><g><path d="M 9.734375 -15.8125 C 8.390625 -15.8125 7.363281 -15.289062 6.65625 -14.25 C 5.945312 -13.21875 5.59375 -11.78125 5.59375 -9.9375 L 5.59375 0 L 2.4375 0 L 2.4375 -18.625 L 5.390625 -18.625 L 5.390625 -15.8125 C 6.078125 -16.976562 6.773438 -17.804688 7.484375 -18.296875 C 8.203125 -18.796875 9.066406 -19.046875 10.078125 -19.046875 C 10.640625 -19.046875 11.160156 -18.976562 11.640625 -18.84375 C 12.128906 -18.707031 12.625 -18.484375 13.125 -18.171875 L 12.03125 -15.265625 C 11.351562 -15.628906 10.585938 -15.8125 9.734375 -15.8125 Z M 9.734375 -15.8125 "/></g></g></g><g fill="#2c3152" fill-opacity="1"><g transform="translate(201.569877, 126.261611)"><g/></g></g><g fill="#2c3152" fill-opacity="1"><g transform="translate(211.448759, 126.261611)"><g/></g></g><g fill="#2c3152" fill-opacity="1"><g transform="translate(61.043824, 154.707233)"><g><path d="M 5.125 -3.21875 C 5.332031 -2.613281 5.46875 -2.203125 5.53125 -1.984375 C 5.59375 -1.773438 5.632812 -1.617188 5.65625 -1.515625 L 5.6875 -1.515625 C 5.71875 -1.585938 5.789062 -1.816406 5.90625 -2.203125 L 6.203125 -3.0625 L 8.4375 -9.609375 L 10.1875 -9.609375 L 10.1875 0 L 8.984375 0 L 8.984375 -8.046875 L 8.953125 -8.046875 L 6.1875 0 L 5.046875 0 L 2.296875 -8.171875 L 2.25 -8.171875 L 2.25 0 L 1.046875 0 L 1.046875 -9.609375 L 3 -9.609375 Z M 5.125 -3.21875 "/></g></g><g transform="translate(72.277413, 154.707233)"><g><path d="M 0.46875 -3.46875 C 0.46875 -4.226562 0.601562 -4.878906 0.875 -5.421875 C 1.144531 -5.972656 1.523438 -6.390625 2.015625 -6.671875 C 2.515625 -6.960938 3.085938 -7.109375 3.734375 -7.109375 C 4.378906 -7.109375 4.945312 -6.96875 5.4375 -6.6875 C 5.925781 -6.40625 6.304688 -5.992188 6.578125 -5.453125 C 6.859375 -4.910156 7 -4.253906 7 -3.484375 C 7 -2.722656 6.859375 -2.066406 6.578125 -1.515625 C 6.304688 -0.960938 5.921875 -0.546875 5.421875 -0.265625 C 4.929688 0.015625 4.367188 0.15625 3.734375 0.15625 C 3.085938 0.15625 2.519531 0.0195312 2.03125 -0.25 C 1.539062 -0.53125 1.15625 -0.941406 0.875 -1.484375 C 0.601562 -2.035156 0.46875 -2.695312 0.46875 -3.46875 Z M 3.71875 -6.140625 C 3.320312 -6.140625 2.96875 -6.035156 2.65625 -5.828125 C 2.351562 -5.628906 2.113281 -5.328125 1.9375 -4.921875 C 1.757812 -4.523438 1.671875 -4.039062 1.671875 -3.46875 C 1.671875 -2.894531 1.757812 -2.410156 1.9375 -2.015625 C 2.113281 -1.617188 2.351562 -1.316406 2.65625 -1.109375 C 2.96875 -0.910156 3.328125 -0.8125 3.734375 -0.8125 C 4.148438 -0.8125 4.507812 -0.914062 4.8125 -1.125 C 5.125 -1.332031 5.363281 -1.632812 5.53125 -2.03125 C 5.695312 -2.4375 5.78125 -2.921875 5.78125 -3.484375 C 5.78125 -4.054688 5.691406 -4.539062 5.515625 -4.9375 C 5.347656 -5.332031 5.109375 -5.628906 4.796875 -5.828125 C 4.484375 -6.035156 4.125 -6.140625 3.71875 -6.140625 Z M 3.71875 -6.140625 "/></g></g><g transform="translate(79.742441, 154.707233)"><g><path d="M 5.40625 0 L 5.40625 -4.546875 C 5.40625 -5.054688 5.273438 -5.441406 5.015625 -5.703125 C 4.765625 -5.960938 4.40625 -6.09375 3.9375 -6.09375 C 3.351562 -6.09375 2.898438 -5.914062 2.578125 -5.5625 C 2.253906 -5.207031 2.09375 -4.644531 2.09375 -3.875 L 2.09375 0 L 0.90625 0 L 0.90625 -6.953125 L 2.015625 -6.953125 L 2.015625 -5.984375 C 2.242188 -6.328125 2.539062 -6.597656 2.90625 -6.796875 C 3.28125 -7.003906 3.691406 -7.109375 4.140625 -7.109375 C 4.941406 -7.109375 5.546875 -6.898438 5.953125 -6.484375 C 6.367188 -6.066406 6.578125 -5.472656 6.578125 -4.703125 L 6.578125 0 Z M 5.40625 0 "/></g></g><g transform="translate(87.207469, 154.707233)"><g><path d="M 2.09375 -8.265625 L 0.90625 -8.265625 L 0.90625 -9.609375 L 2.09375 -9.609375 Z M 2.09375 0 L 0.90625 0 L 0.90625 -6.953125 L 2.09375 -6.953125 Z M 2.09375 0 "/></g></g><g transform="translate(90.20921, 154.707233)"><g><path d="M 2.265625 -6.953125 L 3.578125 -6.953125 L 3.578125 -6.046875 L 2.265625 -6.046875 L 2.265625 -1.828125 C 2.265625 -1.566406 2.285156 -1.375 2.328125 -1.25 C 2.378906 -1.125 2.453125 -1.039062 2.546875 -1 C 2.640625 -0.957031 2.765625 -0.9375 2.921875 -0.9375 C 3.078125 -0.9375 3.296875 -0.960938 3.578125 -1.015625 L 3.734375 -0.046875 C 3.398438 0.0351562 3.0625 0.078125 2.71875 0.078125 C 2.300781 0.078125 1.976562 0.015625 1.75 -0.109375 C 1.519531 -0.234375 1.347656 -0.414062 1.234375 -0.65625 C 1.140625 -0.894531 1.09375 -1.320312 1.09375 -1.9375 L 1.09375 -6.046875 L 0.09375 -6.046875 L 0.09375 -6.953125 L 1.09375 -6.953125 L 1.09375 -8.546875 L 2.265625 -9.390625 Z M 2.265625 -6.953125 "/></g></g><g transform="translate(94.115406, 154.707233)"><g><path d="M 0.46875 -3.46875 C 0.46875 -4.226562 0.601562 -4.878906 0.875 -5.421875 C 1.144531 -5.972656 1.523438 -6.390625 2.015625 -6.671875 C 2.515625 -6.960938 3.085938 -7.109375 3.734375 -7.109375 C 4.378906 -7.109375 4.945312 -6.96875 5.4375 -6.6875 C 5.925781 -6.40625 6.304688 -5.992188 6.578125 -5.453125 C 6.859375 -4.910156 7 -4.253906 7 -3.484375 C 7 -2.722656 6.859375 -2.066406 6.578125 -1.515625 C 6.304688 -0.960938 5.921875 -0.546875 5.421875 -0.265625 C 4.929688 0.015625 4.367188 0.15625 3.734375 0.15625 C 3.085938 0.15625 2.519531 0.0195312 2.03125 -0.25 C 1.539062 -0.53125 1.15625 -0.941406 0.875 -1.484375 C 0.601562 -2.035156 0.46875 -2.695312 0.46875 -3.46875 Z M 3.71875 -6.140625 C 3.320312 -6.140625 2.96875 -6.035156 2.65625 -5.828125 C 2.351562 -5.628906 2.113281 -5.328125 1.9375 -4.921875 C 1.757812 -4.523438 1.671875 -4.039062 1.671875 -3.46875 C 1.671875 -2.894531 1.757812 -2.410156 1.9375 -2.015625 C 2.113281 -1.617188 2.351562 -1.316406 2.65625 -1.109375 C 2.96875 -0.910156 3.328125 -0.8125 3.734375 -0.8125 C 4.148438 -0.8125 4.507812 -0.914062 4.8125 -1.125 C 5.125 -1.332031 5.363281 -1.632812 5.53125 -2.03125 C 5.695312 -2.4375 5.78125 -2.921875 5.78125 -3.484375 C 5.78125 -4.054688 5.691406 -4.539062 5.515625 -4.9375 C 5.347656 -5.332031 5.109375 -5.628906 4.796875 -5.828125 C 4.484375 -6.035156 4.125 -6.140625 3.71875 -6.140625 Z M 3.71875 -6.140625 "/></g></g><g transform="translate(101.580434, 154.707233)"><g><path d="M 3.640625 -5.90625 C 3.140625 -5.90625 2.753906 -5.710938 2.484375 -5.328125 C 2.222656 -4.941406 2.09375 -4.398438 2.09375 -3.703125 L 2.09375 0 L 0.90625 0 L 0.90625 -6.953125 L 2.015625 -6.953125 L 2.015625 -5.90625 C 2.273438 -6.34375 2.535156 -6.648438 2.796875 -6.828125 C 3.066406 -7.015625 3.390625 -7.109375 3.765625 -7.109375 C 3.972656 -7.109375 4.164062 -7.082031 4.34375 -7.03125 C 4.53125 -6.976562 4.71875 -6.898438 4.90625 -6.796875 L 4.5 -5.703125 C 4.238281 -5.835938 3.953125 -5.90625 3.640625 -5.90625 Z M 3.640625 -5.90625 "/></g></g><g transform="translate(106.423854, 154.707233)"><g><path d="M 3.046875 -6.140625 C 2.640625 -6.140625 2.316406 -6.054688 2.078125 -5.890625 C 1.835938 -5.734375 1.71875 -5.519531 1.71875 -5.25 C 1.71875 -5.039062 1.765625 -4.867188 1.859375 -4.734375 C 1.960938 -4.609375 2.125 -4.503906 2.34375 -4.421875 C 2.570312 -4.335938 2.882812 -4.257812 3.28125 -4.1875 C 3.882812 -4.09375 4.375 -3.960938 4.75 -3.796875 C 5.132812 -3.628906 5.425781 -3.40625 5.625 -3.125 C 5.832031 -2.84375 5.9375 -2.484375 5.9375 -2.046875 C 5.9375 -1.628906 5.820312 -1.25 5.59375 -0.90625 C 5.375 -0.570312 5.0625 -0.3125 4.65625 -0.125 C 4.257812 0.0625 3.796875 0.15625 3.265625 0.15625 C 1.609375 0.15625 0.65625 -0.582031 0.40625 -2.0625 L 1.578125 -2.25 C 1.648438 -1.757812 1.820312 -1.394531 2.09375 -1.15625 C 2.375 -0.925781 2.757812 -0.8125 3.25 -0.8125 C 3.71875 -0.8125 4.078125 -0.910156 4.328125 -1.109375 C 4.585938 -1.304688 4.71875 -1.570312 4.71875 -1.90625 C 4.71875 -2.226562 4.570312 -2.472656 4.28125 -2.640625 C 4 -2.816406 3.597656 -2.945312 3.078125 -3.03125 C 2.253906 -3.15625 1.628906 -3.378906 1.203125 -3.703125 C 0.785156 -4.023438 0.578125 -4.492188 0.578125 -5.109375 C 0.578125 -5.492188 0.675781 -5.835938 0.875 -6.140625 C 1.082031 -6.441406 1.367188 -6.675781 1.734375 -6.84375 C 2.109375 -7.019531 2.546875 -7.109375 3.046875 -7.109375 C 3.804688 -7.109375 4.410156 -6.945312 4.859375 -6.625 C 5.304688 -6.300781 5.582031 -5.820312 5.6875 -5.1875 L 4.53125 -5 C 4.476562 -5.351562 4.320312 -5.628906 4.0625 -5.828125 C 3.800781 -6.035156 3.460938 -6.140625 3.046875 -6.140625 Z M 3.046875 -6.140625 "/></g></g><g transform="translate(112.814023, 154.707233)"><g/></g><g transform="translate(116.503936, 154.707233)"><g><path d="M 6.5 0 L 5.28125 0 C 5.207031 -0.144531 5.15625 -0.265625 5.125 -0.359375 C 5.101562 -0.453125 5.070312 -0.617188 5.03125 -0.859375 C 4.695312 -0.503906 4.34375 -0.242188 3.96875 -0.078125 C 3.59375 0.078125 3.160156 0.15625 2.671875 0.15625 C 2.234375 0.15625 1.847656 0.0703125 1.515625 -0.09375 C 1.179688 -0.257812 0.921875 -0.492188 0.734375 -0.796875 C 0.554688 -1.097656 0.46875 -1.445312 0.46875 -1.84375 C 0.46875 -2.4375 0.660156 -2.910156 1.046875 -3.265625 C 1.441406 -3.617188 2.082031 -3.863281 2.96875 -4 C 3.894531 -4.144531 4.554688 -4.28125 4.953125 -4.40625 L 4.953125 -4.59375 C 4.953125 -4.976562 4.898438 -5.28125 4.796875 -5.5 C 4.703125 -5.726562 4.539062 -5.890625 4.3125 -5.984375 C 4.09375 -6.085938 3.796875 -6.140625 3.421875 -6.140625 C 2.953125 -6.140625 2.582031 -6.03125 2.3125 -5.8125 C 2.039062 -5.601562 1.859375 -5.269531 1.765625 -4.8125 L 0.609375 -5 C 0.753906 -5.695312 1.066406 -6.222656 1.546875 -6.578125 C 2.035156 -6.929688 2.6875 -7.109375 3.5 -7.109375 C 4.113281 -7.109375 4.613281 -7.03125 5 -6.875 C 5.382812 -6.71875 5.671875 -6.460938 5.859375 -6.109375 C 6.046875 -5.765625 6.140625 -5.296875 6.140625 -4.703125 L 6.140625 -2.203125 C 6.140625 -1.765625 6.144531 -1.425781 6.15625 -1.1875 C 6.175781 -0.957031 6.210938 -0.753906 6.265625 -0.578125 C 6.316406 -0.410156 6.394531 -0.21875 6.5 0 Z M 3.03125 -3.015625 C 2.5625 -2.929688 2.21875 -2.789062 2 -2.59375 C 1.78125 -2.40625 1.671875 -2.15625 1.671875 -1.84375 C 1.671875 -1.507812 1.78125 -1.242188 2 -1.046875 C 2.21875 -0.859375 2.53125 -0.765625 2.9375 -0.765625 C 3.28125 -0.765625 3.632812 -0.875 4 -1.09375 C 4.257812 -1.25 4.457031 -1.414062 4.59375 -1.59375 C 4.726562 -1.769531 4.820312 -1.984375 4.875 -2.234375 C 4.925781 -2.484375 4.953125 -2.8125 4.953125 -3.21875 L 4.953125 -3.46875 C 4.847656 -3.425781 4.609375 -3.359375 4.234375 -3.265625 C 3.867188 -3.179688 3.46875 -3.097656 3.03125 -3.015625 Z M 3.03125 -3.015625 "/></g></g><g transform="translate(123.52329, 154.707233)"><g/></g><g transform="translate(127.213203, 154.707233)"><g><path d="M 2.125 -0.796875 L 2.09375 -0.796875 L 2.09375 2.65625 L 0.90625 2.65625 L 0.90625 -6.953125 L 2.015625 -6.953125 L 2.015625 -6.0625 L 2.03125 -6.0625 C 2.28125 -6.40625 2.578125 -6.664062 2.921875 -6.84375 C 3.265625 -7.019531 3.660156 -7.109375 4.109375 -7.109375 C 4.734375 -7.109375 5.28125 -6.957031 5.75 -6.65625 C 6.21875 -6.363281 6.578125 -5.941406 6.828125 -5.390625 C 7.078125 -4.847656 7.203125 -4.207031 7.203125 -3.46875 C 7.203125 -2.75 7.078125 -2.113281 6.828125 -1.5625 C 6.585938 -1.007812 6.238281 -0.582031 5.78125 -0.28125 C 5.320312 0.0078125 4.796875 0.15625 4.203125 0.15625 C 3.328125 0.15625 2.632812 -0.160156 2.125 -0.796875 Z M 4 -6.140625 C 3.601562 -6.140625 3.253906 -6.03125 2.953125 -5.8125 C 2.648438 -5.59375 2.414062 -5.285156 2.25 -4.890625 C 2.09375 -4.503906 2.015625 -4.066406 2.015625 -3.578125 C 2.015625 -3.003906 2.097656 -2.507812 2.265625 -2.09375 C 2.429688 -1.675781 2.664062 -1.359375 2.96875 -1.140625 C 3.28125 -0.921875 3.644531 -0.8125 4.0625 -0.8125 C 4.46875 -0.8125 4.816406 -0.921875 5.109375 -1.140625 C 5.398438 -1.367188 5.617188 -1.679688 5.765625 -2.078125 C 5.921875 -2.484375 6 -2.953125 6 -3.484375 C 6 -4.035156 5.914062 -4.507812 5.75 -4.90625 C 5.582031 -5.3125 5.347656 -5.617188 5.046875 -5.828125 C 4.742188 -6.035156 4.394531 -6.140625 4 -6.140625 Z M 4 -6.140625 "/></g></g><g transform="translate(134.88796, 154.707233)"><g><path d="M 3.796875 -0.8125 C 4.242188 -0.8125 4.628906 -0.941406 4.953125 -1.203125 C 5.285156 -1.460938 5.515625 -1.804688 5.640625 -2.234375 L 6.796875 -2.0625 C 6.597656 -1.363281 6.226562 -0.816406 5.6875 -0.421875 C 5.144531 -0.0351562 4.492188 0.15625 3.734375 0.15625 C 3.078125 0.15625 2.5 0.0078125 2 -0.28125 C 1.507812 -0.570312 1.128906 -0.984375 0.859375 -1.515625 C 0.597656 -2.054688 0.46875 -2.691406 0.46875 -3.421875 C 0.46875 -4.171875 0.597656 -4.820312 0.859375 -5.375 C 1.128906 -5.925781 1.507812 -6.351562 2 -6.65625 C 2.488281 -6.957031 3.066406 -7.109375 3.734375 -7.109375 C 4.367188 -7.109375 4.925781 -6.960938 5.40625 -6.671875 C 5.882812 -6.390625 6.25 -5.972656 6.5 -5.421875 C 6.757812 -4.867188 6.890625 -4.203125 6.890625 -3.421875 L 6.890625 -3.171875 L 1.6875 -3.171875 C 1.71875 -2.679688 1.820312 -2.253906 2 -1.890625 C 2.175781 -1.535156 2.414062 -1.265625 2.71875 -1.078125 C 3.03125 -0.898438 3.390625 -0.8125 3.796875 -0.8125 Z M 3.71875 -6.140625 C 3.363281 -6.140625 3.046875 -6.054688 2.765625 -5.890625 C 2.492188 -5.734375 2.265625 -5.503906 2.078125 -5.203125 C 1.898438 -4.898438 1.785156 -4.550781 1.734375 -4.15625 L 5.65625 -4.15625 C 5.582031 -4.789062 5.378906 -5.28125 5.046875 -5.625 C 4.710938 -5.96875 4.269531 -6.140625 3.71875 -6.140625 Z M 3.71875 -6.140625 "/></g></g><g transform="translate(142.24157, 154.707233)"><g><path d="M 3.640625 -5.90625 C 3.140625 -5.90625 2.753906 -5.710938 2.484375 -5.328125 C 2.222656 -4.941406 2.09375 -4.398438 2.09375 -3.703125 L 2.09375 0 L 0.90625 0 L 0.90625 -6.953125 L 2.015625 -6.953125 L 2.015625 -5.90625 C 2.273438 -6.34375 2.535156 -6.648438 2.796875 -6.828125 C 3.066406 -7.015625 3.390625 -7.109375 3.765625 -7.109375 C 3.972656 -7.109375 4.164062 -7.082031 4.34375 -7.03125 C 4.53125 -6.976562 4.71875 -6.898438 4.90625 -6.796875 L 4.5 -5.703125 C 4.238281 -5.835938 3.953125 -5.90625 3.640625 -5.90625 Z M 3.640625 -5.90625 "/></g></g><g transform="translate(147.08499, 154.707233)"><g><path d="M 3.046875 -6.140625 C 2.640625 -6.140625 2.316406 -6.054688 2.078125 -5.890625 C 1.835938 -5.734375 1.71875 -5.519531 1.71875 -5.25 C 1.71875 -5.039062 1.765625 -4.867188 1.859375 -4.734375 C 1.960938 -4.609375 2.125 -4.503906 2.34375 -4.421875 C 2.570312 -4.335938 2.882812 -4.257812 3.28125 -4.1875 C 3.882812 -4.09375 4.375 -3.960938 4.75 -3.796875 C 5.132812 -3.628906 5.425781 -3.40625 5.625 -3.125 C 5.832031 -2.84375 5.9375 -2.484375 5.9375 -2.046875 C 5.9375 -1.628906 5.820312 -1.25 5.59375 -0.90625 C 5.375 -0.570312 5.0625 -0.3125 4.65625 -0.125 C 4.257812 0.0625 3.796875 0.15625 3.265625 0.15625 C 1.609375 0.15625 0.65625 -0.582031 0.40625 -2.0625 L 1.578125 -2.25 C 1.648438 -1.757812 1.820312 -1.394531 2.09375 -1.15625 C 2.375 -0.925781 2.757812 -0.8125 3.25 -0.8125 C 3.71875 -0.8125 4.078125 -0.910156 4.328125 -1.109375 C 4.585938 -1.304688 4.71875 -1.570312 4.71875 -1.90625 C 4.71875 -2.226562 4.570312 -2.472656 4.28125 -2.640625 C 4 -2.816406 3.597656 -2.945312 3.078125 -3.03125 C 2.253906 -3.15625 1.628906 -3.378906 1.203125 -3.703125 C 0.785156 -4.023438 0.578125 -4.492188 0.578125 -5.109375 C 0.578125 -5.492188 0.675781 -5.835938 0.875 -6.140625 C 1.082031 -6.441406 1.367188 -6.675781 1.734375 -6.84375 C 2.109375 -7.019531 2.546875 -7.109375 3.046875 -7.109375 C 3.804688 -7.109375 4.410156 -6.945312 4.859375 -6.625 C 5.304688 -6.300781 5.582031 -5.820312 5.6875 -5.1875 L 4.53125 -5 C 4.476562 -5.351562 4.320312 -5.628906 4.0625 -5.828125 C 3.800781 -6.035156 3.460938 -6.140625 3.046875 -6.140625 Z M 3.046875 -6.140625 "/></g></g><g transform="translate(153.475159, 154.707233)"><g><path d="M 0.46875 -3.46875 C 0.46875 -4.226562 0.601562 -4.878906 0.875 -5.421875 C 1.144531 -5.972656 1.523438 -6.390625 2.015625 -6.671875 C 2.515625 -6.960938 3.085938 -7.109375 3.734375 -7.109375 C 4.378906 -7.109375 4.945312 -6.96875 5.4375 -6.6875 C 5.925781 -6.40625 6.304688 -5.992188 6.578125 -5.453125 C 6.859375 -4.910156 7 -4.253906 7 -3.484375 C 7 -2.722656 6.859375 -2.066406 6.578125 -1.515625 C 6.304688 -0.960938 5.921875 -0.546875 5.421875 -0.265625 C 4.929688 0.015625 4.367188 0.15625 3.734375 0.15625 C 3.085938 0.15625 2.519531 0.0195312 2.03125 -0.25 C 1.539062 -0.53125 1.15625 -0.941406 0.875 -1.484375 C 0.601562 -2.035156 0.46875 -2.695312 0.46875 -3.46875 Z M 3.71875 -6.140625 C 3.320312 -6.140625 2.96875 -6.035156 2.65625 -5.828125 C 2.351562 -5.628906 2.113281 -5.328125 1.9375 -4.921875 C 1.757812 -4.523438 1.671875 -4.039062 1.671875 -3.46875 C 1.671875 -2.894531 1.757812 -2.410156 1.9375 -2.015625 C 2.113281 -1.617188 2.351562 -1.316406 2.65625 -1.109375 C 2.96875 -0.910156 3.328125 -0.8125 3.734375 -0.8125 C 4.148438 -0.8125 4.507812 -0.914062 4.8125 -1.125 C 5.125 -1.332031 5.363281 -1.632812 5.53125 -2.03125 C 5.695312 -2.4375 5.78125 -2.921875 5.78125 -3.484375 C 5.78125 -4.054688 5.691406 -4.539062 5.515625 -4.9375 C 5.347656 -5.332031 5.109375 -5.628906 4.796875 -5.828125 C 4.484375 -6.035156 4.125 -6.140625 3.71875 -6.140625 Z M 3.71875 -6.140625 "/></g></g><g transform="translate(160.940187, 154.707233)"><g><path d="M 5.40625 0 L 5.40625 -4.546875 C 5.40625 -5.054688 5.273438 -5.441406 5.015625 -5.703125 C 4.765625 -5.960938 4.40625 -6.09375 3.9375 -6.09375 C 3.351562 -6.09375 2.898438 -5.914062 2.578125 -5.5625 C 2.253906 -5.207031 2.09375 -4.644531 2.09375 -3.875 L 2.09375 0 L 0.90625 0 L 0.90625 -6.953125 L 2.015625 -6.953125 L 2.015625 -5.984375 C 2.242188 -6.328125 2.539062 -6.597656 2.90625 -6.796875 C 3.28125 -7.003906 3.691406 -7.109375 4.140625 -7.109375 C 4.941406 -7.109375 5.546875 -6.898438 5.953125 -6.484375 C 6.367188 -6.066406 6.578125 -5.472656 6.578125 -4.703125 L 6.578125 0 Z M 5.40625 0 "/></g></g></g><g fill="#2c3152" fill-opacity="1"><g transform="translate(168.405811, 154.707233)"><g/></g></g><g fill="#2c3152" fill-opacity="1"><g transform="translate(51.911096, 170.570343)"><g><path d="M 2.421875 -2.875 C 2.597656 -2.238281 2.726562 -1.765625 2.8125 -1.453125 C 2.8125 -1.515625 2.851562 -1.710938 2.9375 -2.046875 C 3.019531 -2.378906 3.097656 -2.660156 3.171875 -2.890625 L 4.28125 -6.953125 L 5.484375 -6.953125 L 6.515625 -2.953125 C 6.703125 -2.234375 6.816406 -1.78125 6.859375 -1.59375 L 6.890625 -1.59375 L 7.28125 -2.984375 L 8.46875 -6.953125 L 9.625 -6.953125 L 7.4375 0 L 6.21875 0 L 5.125 -4.125 C 5.082031 -4.269531 4.988281 -4.679688 4.84375 -5.359375 L 4.8125 -5.359375 C 4.769531 -5.179688 4.671875 -4.769531 4.515625 -4.125 L 3.4375 0 L 2.203125 0 L 0.0625 -6.953125 L 1.296875 -6.953125 Z M 2.421875 -2.875 "/></g></g><g transform="translate(61.60449, 170.570343)"><g><path d="M 2.09375 -8.265625 L 0.90625 -8.265625 L 0.90625 -9.609375 L 2.09375 -9.609375 Z M 2.09375 0 L 0.90625 0 L 0.90625 -6.953125 L 2.09375 -6.953125 Z M 2.09375 0 "/></g></g><g transform="translate(64.606231, 170.570343)"><g><path d="M 2.265625 -6.953125 L 3.578125 -6.953125 L 3.578125 -6.046875 L 2.265625 -6.046875 L 2.265625 -1.828125 C 2.265625 -1.566406 2.285156 -1.375 2.328125 -1.25 C 2.378906 -1.125 2.453125 -1.039062 2.546875 -1 C 2.640625 -0.957031 2.765625 -0.9375 2.921875 -0.9375 C 3.078125 -0.9375 3.296875 -0.960938 3.578125 -1.015625 L 3.734375 -0.046875 C 3.398438 0.0351562 3.0625 0.078125 2.71875 0.078125 C 2.300781 0.078125 1.976562 0.015625 1.75 -0.109375 C 1.519531 -0.234375 1.347656 -0.414062 1.234375 -0.65625 C 1.140625 -0.894531 1.09375 -1.320312 1.09375 -1.9375 L 1.09375 -6.046875 L 0.09375 -6.046875 L 0.09375 -6.953125 L 1.09375 -6.953125 L 1.09375 -8.546875 L 2.265625 -9.390625 Z M 2.265625 -6.953125 "/></g></g><g transform="translate(68.512427, 170.570343)"><g><path d="M 2.09375 -6.09375 C 2.300781 -6.40625 2.59375 -6.648438 2.96875 -6.828125 C 3.34375 -7.015625 3.734375 -7.109375 4.140625 -7.109375 C 4.941406 -7.109375 5.546875 -6.898438 5.953125 -6.484375 C 6.367188 -6.066406 6.578125 -5.472656 6.578125 -4.703125 L 6.578125 0 L 5.40625 0 L 5.40625 -4.546875 C 5.40625 -5.054688 5.273438 -5.441406 5.015625 -5.703125 C 4.765625 -5.960938 4.40625 -6.09375 3.9375 -6.09375 C 3.382812 -6.09375 2.9375 -5.921875 2.59375 -5.578125 C 2.257812 -5.242188 2.09375 -4.675781 2.09375 -3.875 L 2.09375 0 L 0.90625 0 L 0.90625 -9.609375 L 2.09375 -9.609375 Z M 2.09375 -6.09375 "/></g></g><g transform="translate(75.977455, 170.570343)"><g/></g><g transform="translate(79.667368, 170.570343)"><g><path d="M 6.5 0 L 5.28125 0 C 5.207031 -0.144531 5.15625 -0.265625 5.125 -0.359375 C 5.101562 -0.453125 5.070312 -0.617188 5.03125 -0.859375 C 4.695312 -0.503906 4.34375 -0.242188 3.96875 -0.078125 C 3.59375 0.078125 3.160156 0.15625 2.671875 0.15625 C 2.234375 0.15625 1.847656 0.0703125 1.515625 -0.09375 C 1.179688 -0.257812 0.921875 -0.492188 0.734375 -0.796875 C 0.554688 -1.097656 0.46875 -1.445312 0.46875 -1.84375 C 0.46875 -2.4375 0.660156 -2.910156 1.046875 -3.265625 C 1.441406 -3.617188 2.082031 -3.863281 2.96875 -4 C 3.894531 -4.144531 4.554688 -4.28125 4.953125 -4.40625 L 4.953125 -4.59375 C 4.953125 -4.976562 4.898438 -5.28125 4.796875 -5.5 C 4.703125 -5.726562 4.539062 -5.890625 4.3125 -5.984375 C 4.09375 -6.085938 3.796875 -6.140625 3.421875 -6.140625 C 2.953125 -6.140625 2.582031 -6.03125 2.3125 -5.8125 C 2.039062 -5.601562 1.859375 -5.269531 1.765625 -4.8125 L 0.609375 -5 C 0.753906 -5.695312 1.066406 -6.222656 1.546875 -6.578125 C 2.035156 -6.929688 2.6875 -7.109375 3.5 -7.109375 C 4.113281 -7.109375 4.613281 -7.03125 5 -6.875 C 5.382812 -6.71875 5.671875 -6.460938 5.859375 -6.109375 C 6.046875 -5.765625 6.140625 -5.296875 6.140625 -4.703125 L 6.140625 -2.203125 C 6.140625 -1.765625 6.144531 -1.425781 6.15625 -1.1875 C 6.175781 -0.957031 6.210938 -0.753906 6.265625 -0.578125 C 6.316406 -0.410156 6.394531 -0.21875 6.5 0 Z M 3.03125 -3.015625 C 2.5625 -2.929688 2.21875 -2.789062 2 -2.59375 C 1.78125 -2.40625 1.671875 -2.15625 1.671875 -1.84375 C 1.671875 -1.507812 1.78125 -1.242188 2 -1.046875 C 2.21875 -0.859375 2.53125 -0.765625 2.9375 -0.765625 C 3.28125 -0.765625 3.632812 -0.875 4 -1.09375 C 4.257812 -1.25 4.457031 -1.414062 4.59375 -1.59375 C 4.726562 -1.769531 4.820312 -1.984375 4.875 -2.234375 C 4.925781 -2.484375 4.953125 -2.8125 4.953125 -3.21875 L 4.953125 -3.46875 C 4.847656 -3.425781 4.609375 -3.359375 4.234375 -3.265625 C 3.867188 -3.179688 3.46875 -3.097656 3.03125 -3.015625 Z M 3.03125 -3.015625 "/></g></g><g transform="translate(86.686723, 170.570343)"><g><path d="M 5.40625 0 L 5.40625 -4.546875 C 5.40625 -5.054688 5.273438 -5.441406 5.015625 -5.703125 C 4.765625 -5.960938 4.40625 -6.09375 3.9375 -6.09375 C 3.351562 -6.09375 2.898438 -5.914062 2.578125 -5.5625 C 2.253906 -5.207031 2.09375 -4.644531 2.09375 -3.875 L 2.09375 0 L 0.90625 0 L 0.90625 -6.953125 L 2.015625 -6.953125 L 2.015625 -5.984375 C 2.242188 -6.328125 2.539062 -6.597656 2.90625 -6.796875 C 3.28125 -7.003906 3.691406 -7.109375 4.140625 -7.109375 C 4.941406 -7.109375 5.546875 -6.898438 5.953125 -6.484375 C 6.367188 -6.066406 6.578125 -5.472656 6.578125 -4.703125 L 6.578125 0 Z M 5.40625 0 "/></g></g><g transform="translate(94.151751, 170.570343)"><g><path d="M 0.46875 -3.46875 C 0.46875 -4.226562 0.601562 -4.878906 0.875 -5.421875 C 1.144531 -5.972656 1.523438 -6.390625 2.015625 -6.671875 C 2.515625 -6.960938 3.085938 -7.109375 3.734375 -7.109375 C 4.378906 -7.109375 4.945312 -6.96875 5.4375 -6.6875 C 5.925781 -6.40625 6.304688 -5.992188 6.578125 -5.453125 C 6.859375 -4.910156 7 -4.253906 7 -3.484375 C 7 -2.722656 6.859375 -2.066406 6.578125 -1.515625 C 6.304688 -0.960938 5.921875 -0.546875 5.421875 -0.265625 C 4.929688 0.015625 4.367188 0.15625 3.734375 0.15625 C 3.085938 0.15625 2.519531 0.0195312 2.03125 -0.25 C 1.539062 -0.53125 1.15625 -0.941406 0.875 -1.484375 C 0.601562 -2.035156 0.46875 -2.695312 0.46875 -3.46875 Z M 3.71875 -6.140625 C 3.320312 -6.140625 2.96875 -6.035156 2.65625 -5.828125 C 2.351562 -5.628906 2.113281 -5.328125 1.9375 -4.921875 C 1.757812 -4.523438 1.671875 -4.039062 1.671875 -3.46875 C 1.671875 -2.894531 1.757812 -2.410156 1.9375 -2.015625 C 2.113281 -1.617188 2.351562 -1.316406 2.65625 -1.109375 C 2.96875 -0.910156 3.328125 -0.8125 3.734375 -0.8125 C 4.148438 -0.8125 4.507812 -0.914062 4.8125 -1.125 C 5.125 -1.332031 5.363281 -1.632812 5.53125 -2.03125 C 5.695312 -2.4375 5.78125 -2.921875 5.78125 -3.484375 C 5.78125 -4.054688 5.691406 -4.539062 5.515625 -4.9375 C 5.347656 -5.332031 5.109375 -5.628906 4.796875 -5.828125 C 4.484375 -6.035156 4.125 -6.140625 3.71875 -6.140625 Z M 3.71875 -6.140625 "/></g></g><g transform="translate(101.616779, 170.570343)"><g><path d="M 3.640625 -5.90625 C 3.140625 -5.90625 2.753906 -5.710938 2.484375 -5.328125 C 2.222656 -4.941406 2.09375 -4.398438 2.09375 -3.703125 L 2.09375 0 L 0.90625 0 L 0.90625 -6.953125 L 2.015625 -6.953125 L 2.015625 -5.90625 C 2.273438 -6.34375 2.535156 -6.648438 2.796875 -6.828125 C 3.066406 -7.015625 3.390625 -7.109375 3.765625 -7.109375 C 3.972656 -7.109375 4.164062 -7.082031 4.34375 -7.03125 C 4.53125 -6.976562 4.71875 -6.898438 4.90625 -6.796875 L 4.5 -5.703125 C 4.238281 -5.835938 3.953125 -5.90625 3.640625 -5.90625 Z M 3.640625 -5.90625 "/></g></g><g transform="translate(106.460199, 170.570343)"><g><path d="M 3.796875 -0.8125 C 4.242188 -0.8125 4.628906 -0.941406 4.953125 -1.203125 C 5.285156 -1.460938 5.515625 -1.804688 5.640625 -2.234375 L 6.796875 -2.0625 C 6.597656 -1.363281 6.226562 -0.816406 5.6875 -0.421875 C 5.144531 -0.0351562 4.492188 0.15625 3.734375 0.15625 C 3.078125 0.15625 2.5 0.0078125 2 -0.28125 C 1.507812 -0.570312 1.128906 -0.984375 0.859375 -1.515625 C 0.597656 -2.054688 0.46875 -2.691406 0.46875 -3.421875 C 0.46875 -4.171875 0.597656 -4.820312 0.859375 -5.375 C 1.128906 -5.925781 1.507812 -6.351562 2 -6.65625 C 2.488281 -6.957031 3.066406 -7.109375 3.734375 -7.109375 C 4.367188 -7.109375 4.925781 -6.960938 5.40625 -6.671875 C 5.882812 -6.390625 6.25 -5.972656 6.5 -5.421875 C 6.757812 -4.867188 6.890625 -4.203125 6.890625 -3.421875 L 6.890625 -3.171875 L 1.6875 -3.171875 C 1.71875 -2.679688 1.820312 -2.253906 2 -1.890625 C 2.175781 -1.535156 2.414062 -1.265625 2.71875 -1.078125 C 3.03125 -0.898438 3.390625 -0.8125 3.796875 -0.8125 Z M 3.71875 -6.140625 C 3.363281 -6.140625 3.046875 -6.054688 2.765625 -5.890625 C 2.492188 -5.734375 2.265625 -5.503906 2.078125 -5.203125 C 1.898438 -4.898438 1.785156 -4.550781 1.734375 -4.15625 L 5.65625 -4.15625 C 5.582031 -4.789062 5.378906 -5.28125 5.046875 -5.625 C 4.710938 -5.96875 4.269531 -6.140625 3.71875 -6.140625 Z M 3.71875 -6.140625 "/></g></g><g transform="translate(113.813809, 170.570343)"><g><path d="M 2.765625 -5.375 C 2.972656 -5.050781 3.148438 -4.75 3.296875 -4.46875 C 3.453125 -4.75 3.628906 -5.03125 3.828125 -5.3125 L 4.921875 -6.953125 L 6.296875 -6.953125 L 3.984375 -3.625 L 6.484375 0 L 5.0625 0 L 3.90625 -1.71875 C 3.71875 -2.019531 3.515625 -2.363281 3.296875 -2.75 C 3.117188 -2.46875 2.960938 -2.21875 2.828125 -2 L 1.46875 0 L 0.09375 0 L 2.609375 -3.59375 L 0.296875 -6.953125 L 1.71875 -6.953125 Z M 2.765625 -5.375 "/></g></g><g transform="translate(120.394044, 170.570343)"><g><path d="M 2.09375 -8.265625 L 0.90625 -8.265625 L 0.90625 -9.609375 L 2.09375 -9.609375 Z M 2.09375 0 L 0.90625 0 L 0.90625 -6.953125 L 2.09375 -6.953125 Z M 2.09375 0 "/></g></g><g transform="translate(123.395785, 170.570343)"><g><path d="M 6.5 0 L 5.28125 0 C 5.207031 -0.144531 5.15625 -0.265625 5.125 -0.359375 C 5.101562 -0.453125 5.070312 -0.617188 5.03125 -0.859375 C 4.695312 -0.503906 4.34375 -0.242188 3.96875 -0.078125 C 3.59375 0.078125 3.160156 0.15625 2.671875 0.15625 C 2.234375 0.15625 1.847656 0.0703125 1.515625 -0.09375 C 1.179688 -0.257812 0.921875 -0.492188 0.734375 -0.796875 C 0.554688 -1.097656 0.46875 -1.445312 0.46875 -1.84375 C 0.46875 -2.4375 0.660156 -2.910156 1.046875 -3.265625 C 1.441406 -3.617188 2.082031 -3.863281 2.96875 -4 C 3.894531 -4.144531 4.554688 -4.28125 4.953125 -4.40625 L 4.953125 -4.59375 C 4.953125 -4.976562 4.898438 -5.28125 4.796875 -5.5 C 4.703125 -5.726562 4.539062 -5.890625 4.3125 -5.984375 C 4.09375 -6.085938 3.796875 -6.140625 3.421875 -6.140625 C 2.953125 -6.140625 2.582031 -6.03125 2.3125 -5.8125 C 2.039062 -5.601562 1.859375 -5.269531 1.765625 -4.8125 L 0.609375 -5 C 0.753906 -5.695312 1.066406 -6.222656 1.546875 -6.578125 C 2.035156 -6.929688 2.6875 -7.109375 3.5 -7.109375 C 4.113281 -7.109375 4.613281 -7.03125 5 -6.875 C 5.382812 -6.71875 5.671875 -6.460938 5.859375 -6.109375 C 6.046875 -5.765625 6.140625 -5.296875 6.140625 -4.703125 L 6.140625 -2.203125 C 6.140625 -1.765625 6.144531 -1.425781 6.15625 -1.1875 C 6.175781 -0.957031 6.210938 -0.753906 6.265625 -0.578125 C 6.316406 -0.410156 6.394531 -0.21875 6.5 0 Z M 3.03125 -3.015625 C 2.5625 -2.929688 2.21875 -2.789062 2 -2.59375 C 1.78125 -2.40625 1.671875 -2.15625 1.671875 -1.84375 C 1.671875 -1.507812 1.78125 -1.242188 2 -1.046875 C 2.21875 -0.859375 2.53125 -0.765625 2.9375 -0.765625 C 3.28125 -0.765625 3.632812 -0.875 4 -1.09375 C 4.257812 -1.25 4.457031 -1.414062 4.59375 -1.59375 C 4.726562 -1.769531 4.820312 -1.984375 4.875 -2.234375 C 4.925781 -2.484375 4.953125 -2.8125 4.953125 -3.21875 L 4.953125 -3.46875 C 4.847656 -3.425781 4.609375 -3.359375 4.234375 -3.265625 C 3.867188 -3.179688 3.46875 -3.097656 3.03125 -3.015625 Z M 3.03125 -3.015625 "/></g></g><g transform="translate(130.41514, 170.570343)"><g/></g><g transform="translate(134.105053, 170.570343)"><g><path d="M 5.40625 0 L 5.40625 -4.546875 C 5.40625 -5.054688 5.273438 -5.441406 5.015625 -5.703125 C 4.765625 -5.960938 4.40625 -6.09375 3.9375 -6.09375 C 3.351562 -6.09375 2.898438 -5.914062 2.578125 -5.5625 C 2.253906 -5.207031 2.09375 -4.644531 2.09375 -3.875 L 2.09375 0 L 0.90625 0 L 0.90625 -6.953125 L 2.015625 -6.953125 L 2.015625 -5.984375 C 2.242188 -6.328125 2.539062 -6.597656 2.90625 -6.796875 C 3.28125 -7.003906 3.691406 -7.109375 4.140625 -7.109375 C 4.941406 -7.109375 5.546875 -6.898438 5.953125 -6.484375 C 6.367188 -6.066406 6.578125 -5.472656 6.578125 -4.703125 L 6.578125 0 Z M 5.40625 0 "/></g></g><g transform="translate(141.570081, 170.570343)"><g><path d="M 3.796875 -0.8125 C 4.242188 -0.8125 4.628906 -0.941406 4.953125 -1.203125 C 5.285156 -1.460938 5.515625 -1.804688 5.640625 -2.234375 L 6.796875 -2.0625 C 6.597656 -1.363281 6.226562 -0.816406 5.6875 -0.421875 C 5.144531 -0.0351562 4.492188 0.15625 3.734375 0.15625 C 3.078125 0.15625 2.5 0.0078125 2 -0.28125 C 1.507812 -0.570312 1.128906 -0.984375 0.859375 -1.515625 C 0.597656 -2.054688 0.46875 -2.691406 0.46875 -3.421875 C 0.46875 -4.171875 0.597656 -4.820312 0.859375 -5.375 C 1.128906 -5.925781 1.507812 -6.351562 2 -6.65625 C 2.488281 -6.957031 3.066406 -7.109375 3.734375 -7.109375 C 4.367188 -7.109375 4.925781 -6.960938 5.40625 -6.671875 C 5.882812 -6.390625 6.25 -5.972656 6.5 -5.421875 C 6.757812 -4.867188 6.890625 -4.203125 6.890625 -3.421875 L 6.890625 -3.171875 L 1.6875 -3.171875 C 1.71875 -2.679688 1.820312 -2.253906 2 -1.890625 C 2.175781 -1.535156 2.414062 -1.265625 2.71875 -1.078125 C 3.03125 -0.898438 3.390625 -0.8125 3.796875 -0.8125 Z M 3.71875 -6.140625 C 3.363281 -6.140625 3.046875 -6.054688 2.765625 -5.890625 C 2.492188 -5.734375 2.265625 -5.503906 2.078125 -5.203125 C 1.898438 -4.898438 1.785156 -4.550781 1.734375 -4.15625 L 5.65625 -4.15625 C 5.582031 -4.789062 5.378906 -5.28125 5.046875 -5.625 C 4.710938 -5.96875 4.269531 -6.140625 3.71875 -6.140625 Z M 3.71875 -6.140625 "/></g></g><g transform="translate(148.92369, 170.570343)"><g><path d="M 3.640625 -5.90625 C 3.140625 -5.90625 2.753906 -5.710938 2.484375 -5.328125 C 2.222656 -4.941406 2.09375 -4.398438 2.09375 -3.703125 L 2.09375 0 L 0.90625 0 L 0.90625 -6.953125 L 2.015625 -6.953125 L 2.015625 -5.90625 C 2.273438 -6.34375 2.535156 -6.648438 2.796875 -6.828125 C 3.066406 -7.015625 3.390625 -7.109375 3.765625 -7.109375 C 3.972656 -7.109375 4.164062 -7.082031 4.34375 -7.03125 C 4.53125 -6.976562 4.71875 -6.898438 4.90625 -6.796875 L 4.5 -5.703125 C 4.238281 -5.835938 3.953125 -5.90625 3.640625 -5.90625 Z M 3.640625 -5.90625 "/></g></g><g transform="translate(153.767111, 170.570343)"><g><path d="M 2.78125 -2.953125 C 2.957031 -2.453125 3.125 -1.929688 3.28125 -1.390625 L 3.296875 -1.390625 C 3.378906 -1.722656 3.523438 -2.164062 3.734375 -2.71875 L 5.28125 -6.953125 L 6.484375 -6.953125 L 3.859375 0 L 2.75 0 L 0.109375 -6.953125 L 1.359375 -6.953125 Z M 2.78125 -2.953125 "/></g></g><g transform="translate(160.360454, 170.570343)"><g><path d="M 0.46875 -3.46875 C 0.46875 -4.226562 0.601562 -4.878906 0.875 -5.421875 C 1.144531 -5.972656 1.523438 -6.390625 2.015625 -6.671875 C 2.515625 -6.960938 3.085938 -7.109375 3.734375 -7.109375 C 4.378906 -7.109375 4.945312 -6.96875 5.4375 -6.6875 C 5.925781 -6.40625 6.304688 -5.992188 6.578125 -5.453125 C 6.859375 -4.910156 7 -4.253906 7 -3.484375 C 7 -2.722656 6.859375 -2.066406 6.578125 -1.515625 C 6.304688 -0.960938 5.921875 -0.546875 5.421875 -0.265625 C 4.929688 0.015625 4.367188 0.15625 3.734375 0.15625 C 3.085938 0.15625 2.519531 0.0195312 2.03125 -0.25 C 1.539062 -0.53125 1.15625 -0.941406 0.875 -1.484375 C 0.601562 -2.035156 0.46875 -2.695312 0.46875 -3.46875 Z M 3.71875 -6.140625 C 3.320312 -6.140625 2.96875 -6.035156 2.65625 -5.828125 C 2.351562 -5.628906 2.113281 -5.328125 1.9375 -4.921875 C 1.757812 -4.523438 1.671875 -4.039062 1.671875 -3.46875 C 1.671875 -2.894531 1.757812 -2.410156 1.9375 -2.015625 C 2.113281 -1.617188 2.351562 -1.316406 2.65625 -1.109375 C 2.96875 -0.910156 3.328125 -0.8125 3.734375 -0.8125 C 4.148438 -0.8125 4.507812 -0.914062 4.8125 -1.125 C 5.125 -1.332031 5.363281 -1.632812 5.53125 -2.03125 C 5.695312 -2.4375 5.78125 -2.921875 5.78125 -3.484375 C 5.78125 -4.054688 5.691406 -4.539062 5.515625 -4.9375 C 5.347656 -5.332031 5.109375 -5.628906 4.796875 -5.828125 C 4.484375 -6.035156 4.125 -6.140625 3.71875 -6.140625 Z M 3.71875 -6.140625 "/></g></g><g transform="translate(167.825482, 170.570343)"><g><path d="M 3.046875 -6.140625 C 2.640625 -6.140625 2.316406 -6.054688 2.078125 -5.890625 C 1.835938 -5.734375 1.71875 -5.519531 1.71875 -5.25 C 1.71875 -5.039062 1.765625 -4.867188 1.859375 -4.734375 C 1.960938 -4.609375 2.125 -4.503906 2.34375 -4.421875 C 2.570312 -4.335938 2.882812 -4.257812 3.28125 -4.1875 C 3.882812 -4.09375 4.375 -3.960938 4.75 -3.796875 C 5.132812 -3.628906 5.425781 -3.40625 5.625 -3.125 C 5.832031 -2.84375 5.9375 -2.484375 5.9375 -2.046875 C 5.9375 -1.628906 5.820312 -1.25 5.59375 -0.90625 C 5.375 -0.570312 5.0625 -0.3125 4.65625 -0.125 C 4.257812 0.0625 3.796875 0.15625 3.265625 0.15625 C 1.609375 0.15625 0.65625 -0.582031 0.40625 -2.0625 L 1.578125 -2.25 C 1.648438 -1.757812 1.820312 -1.394531 2.09375 -1.15625 C 2.375 -0.925781 2.757812 -0.8125 3.25 -0.8125 C 3.71875 -0.8125 4.078125 -0.910156 4.328125 -1.109375 C 4.585938 -1.304688 4.71875 -1.570312 4.71875 -1.90625 C 4.71875 -2.226562 4.570312 -2.472656 4.28125 -2.640625 C 4 -2.816406 3.597656 -2.945312 3.078125 -3.03125 C 2.253906 -3.15625 1.628906 -3.378906 1.203125 -3.703125 C 0.785156 -4.023438 0.578125 -4.492188 0.578125 -5.109375 C 0.578125 -5.492188 0.675781 -5.835938 0.875 -6.140625 C 1.082031 -6.441406 1.367188 -6.675781 1.734375 -6.84375 C 2.109375 -7.019531 2.546875 -7.109375 3.046875 -7.109375 C 3.804688 -7.109375 4.410156 -6.945312 4.859375 -6.625 C 5.304688 -6.300781 5.582031 -5.820312 5.6875 -5.1875 L 4.53125 -5 C 4.476562 -5.351562 4.320312 -5.628906 4.0625 -5.828125 C 3.800781 -6.035156 3.460938 -6.140625 3.046875 -6.140625 Z M 3.046875 -6.140625 "/></g></g><g transform="translate(174.215651, 170.570343)"><g><path d="M 6.5 0 L 5.28125 0 C 5.207031 -0.144531 5.15625 -0.265625 5.125 -0.359375 C 5.101562 -0.453125 5.070312 -0.617188 5.03125 -0.859375 C 4.695312 -0.503906 4.34375 -0.242188 3.96875 -0.078125 C 3.59375 0.078125 3.160156 0.15625 2.671875 0.15625 C 2.234375 0.15625 1.847656 0.0703125 1.515625 -0.09375 C 1.179688 -0.257812 0.921875 -0.492188 0.734375 -0.796875 C 0.554688 -1.097656 0.46875 -1.445312 0.46875 -1.84375 C 0.46875 -2.4375 0.660156 -2.910156 1.046875 -3.265625 C 1.441406 -3.617188 2.082031 -3.863281 2.96875 -4 C 3.894531 -4.144531 4.554688 -4.28125 4.953125 -4.40625 L 4.953125 -4.59375 C 4.953125 -4.976562 4.898438 -5.28125 4.796875 -5.5 C 4.703125 -5.726562 4.539062 -5.890625 4.3125 -5.984375 C 4.09375 -6.085938 3.796875 -6.140625 3.421875 -6.140625 C 2.953125 -6.140625 2.582031 -6.03125 2.3125 -5.8125 C 2.039062 -5.601562 1.859375 -5.269531 1.765625 -4.8125 L 0.609375 -5 C 0.753906 -5.695312 1.066406 -6.222656 1.546875 -6.578125 C 2.035156 -6.929688 2.6875 -7.109375 3.5 -7.109375 C 4.113281 -7.109375 4.613281 -7.03125 5 -6.875 C 5.382812 -6.71875 5.671875 -6.460938 5.859375 -6.109375 C 6.046875 -5.765625 6.140625 -5.296875 6.140625 -4.703125 L 6.140625 -2.203125 C 6.140625 -1.765625 6.144531 -1.425781 6.15625 -1.1875 C 6.175781 -0.957031 6.210938 -0.753906 6.265625 -0.578125 C 6.316406 -0.410156 6.394531 -0.21875 6.5 0 Z M 3.03125 -3.015625 C 2.5625 -2.929688 2.21875 -2.789062 2 -2.59375 C 1.78125 -2.40625 1.671875 -2.15625 1.671875 -1.84375 C 1.671875 -1.507812 1.78125 -1.242188 2 -1.046875 C 2.21875 -0.859375 2.53125 -0.765625 2.9375 -0.765625 C 3.28125 -0.765625 3.632812 -0.875 4 -1.09375 C 4.257812 -1.25 4.457031 -1.414062 4.59375 -1.59375 C 4.726562 -1.769531 4.820312 -1.984375 4.875 -2.234375 C 4.925781 -2.484375 4.953125 -2.8125 4.953125 -3.21875 L 4.953125 -3.46875 C 4.847656 -3.425781 4.609375 -3.359375 4.234375 -3.265625 C 3.867188 -3.179688 3.46875 -3.097656 3.03125 -3.015625 Z M 3.03125 -3.015625 "/></g></g></g></svg>