<svg xmlns="http://www.w3.org/2000/svg" xmlns:xlink="http://www.w3.org/1999/xlink" width="500" zoomAndPan="magnify" viewBox="0 0 375 374.999991" height="500" preserveAspectRatio="xMidYMid meet" version="1.0"><defs><g/><clipPath id="cc0e60cc7b"><path d="M 0 187.5 C 0 291.054688 83.945312 375 187.5 375 C 291.054688 375 375 291.054688 375 187.5 C 375 83.945312 291.054688 0 187.5 0 C 83.945312 0 0 83.945312 0 187.5 Z M 0 187.5 " clip-rule="nonzero"/></clipPath><clipPath id="9a2338874d"><path d="M 0 187.5 C 0 291.054688 83.945312 375 187.5 375 C 291.054688 375 375 291.054688 375 187.5 C 375 83.945312 291.054688 0 187.5 0 C 83.945312 0 0 83.945312 0 187.5 Z M 0 187.5 " clip-rule="nonzero"/></clipPath><radialGradient gradientTransform="matrix(0, -1, 1, 0, 0.0000045, 374.999993)" gradientUnits="userSpaceOnUse" r="265.165051" cx="187.499996" id="748e1bcc3a" cy="187.499996" fx="187.499996" fy="187.499996"><stop stop-opacity="1" stop-color="rgb(94.898987%, 73.197937%, 72.097778%)" offset="0"/><stop stop-opacity="1" stop-color="rgb(94.898987%, 72.998047%, 71.897888%)" offset="0.5"/><stop stop-opacity="1" stop-color="rgb(94.898987%, 72.898865%, 71.798706%)" offset="1"/></radialGradient></defs><g clip-path="url(#cc0e60cc7b)"><rect x="-37.5" width="450" fill="#d7e2f7" y="-37.499999" height="449.999989" fill-opacity="1"/></g><g fill="#2c3152" fill-opacity="1"><g transform="translate(67.702154, 175.409312)"><g><path d="M 33.921875 -36.328125 L 20.296875 -36.328125 L 20.296875 0 L 14.828125 0 L 14.828125 -36.328125 L 1.265625 -36.328125 L 1.265625 -41.15625 L 33.921875 -41.15625 Z M 33.921875 -36.328125 "/></g></g></g><g fill="#2c3152" fill-opacity="1"><g transform="translate(102.823319, 175.409312)"><g><path d="M 8.90625 -26.390625 C 10.0625 -27.722656 11.363281 -28.734375 12.8125 -29.421875 C 14.269531 -30.117188 15.957031 -30.46875 17.875 -30.46875 C 19.488281 -30.46875 20.945312 -30.21875 22.25 -29.71875 C 23.550781 -29.21875 24.640625 -28.546875 25.515625 -27.703125 C 26.441406 -26.828125 27.113281 -25.71875 27.53125 -24.375 C 27.957031 -23.03125 28.171875 -21.304688 28.171875 -19.203125 L 28.171875 0 L 23.109375 0 L 23.109375 -19.078125 C 23.109375 -21.335938 22.570312 -23.070312 21.5 -24.28125 C 20.425781 -25.488281 18.835938 -26.09375 16.734375 -26.09375 C 15.191406 -26.09375 13.734375 -25.660156 12.359375 -24.796875 C 10.984375 -23.941406 10.023438 -22.75 9.484375 -21.21875 C 9.097656 -20.0625 8.90625 -18.582031 8.90625 -16.78125 L 8.90625 0 L 3.84375 0 L 3.84375 -41.15625 L 8.90625 -41.15625 Z M 8.90625 -26.390625 "/></g></g></g><g fill="#2c3152" fill-opacity="1"><g transform="translate(134.783, 175.409312)"><g><path d="M 16.15625 -30.46875 C 19.03125 -30.46875 21.488281 -29.785156 23.53125 -28.421875 C 25.582031 -27.066406 27.125 -25.238281 28.15625 -22.9375 C 29.195312 -20.632812 29.71875 -18.066406 29.71875 -15.234375 L 29.71875 -13.625 L 7.46875 -13.625 C 7.625 -10.445312 8.523438 -7.960938 10.171875 -6.171875 C 11.816406 -4.390625 13.925781 -3.5 16.5 -3.5 C 18.457031 -3.5 20.078125 -4.015625 21.359375 -5.046875 C 22.640625 -6.085938 23.625 -7.601562 24.3125 -9.59375 L 29.546875 -8.96875 C 28.742188 -5.976562 27.21875 -3.628906 24.96875 -1.921875 C 22.726562 -0.222656 19.984375 0.625 16.734375 0.625 C 12.171875 0.625 8.613281 -0.710938 6.0625 -3.390625 C 3.507812 -6.078125 2.234375 -9.832031 2.234375 -14.65625 C 2.234375 -17.875 2.804688 -20.671875 3.953125 -23.046875 C 5.109375 -25.421875 6.726562 -27.25 8.8125 -28.53125 C 10.90625 -29.820312 13.351562 -30.46875 16.15625 -30.46875 Z M 7.765625 -17.8125 L 24.375 -17.8125 C 24.257812 -20.65625 23.382812 -22.785156 21.75 -24.203125 C 20.125 -25.617188 18.257812 -26.328125 16.15625 -26.328125 C 13.78125 -26.328125 11.832031 -25.519531 10.3125 -23.90625 C 8.800781 -22.300781 7.953125 -20.269531 7.765625 -17.8125 Z M 7.765625 -17.8125 "/></g></g></g><g fill="#2c3152" fill-opacity="1"><g transform="translate(166.74268, 175.409312)"><g><path d="M 14.78125 -30.46875 C 16.5 -30.46875 18.203125 -29.929688 19.890625 -28.859375 L 18.171875 -24.203125 C 16.941406 -24.929688 15.65625 -25.296875 14.3125 -25.296875 C 12.394531 -25.296875 10.984375 -24.421875 10.078125 -22.671875 C 9.179688 -20.929688 8.734375 -18.679688 8.734375 -15.921875 L 8.734375 0 L 3.671875 0 L 3.671875 -29.78125 L 8.21875 -29.78125 L 8.21875 -25.296875 C 9.175781 -27.015625 10.125 -28.304688 11.0625 -29.171875 C 12 -30.035156 13.238281 -30.46875 14.78125 -30.46875 Z M 14.78125 -30.46875 "/></g></g></g><g fill="#2c3152" fill-opacity="1"><g transform="translate(185.884005, 175.409312)"><g><path d="M 16.328125 -30.46875 C 18.773438 -30.46875 20.753906 -30.226562 22.265625 -29.75 C 23.785156 -29.269531 24.988281 -28.570312 25.875 -27.65625 C 26.707031 -26.769531 27.273438 -25.789062 27.578125 -24.71875 C 27.890625 -23.644531 28.046875 -22.226562 28.046875 -20.46875 L 28.046875 -8.453125 C 28.046875 -4.578125 28.582031 -1.757812 29.65625 0 L 24.375 0 C 23.875 -1.03125 23.53125 -2.253906 23.34375 -3.671875 C 21.5 -2.140625 19.703125 -1.03125 17.953125 -0.34375 C 16.210938 0.34375 14.40625 0.6875 12.53125 0.6875 C 9.3125 0.6875 6.78125 -0.0976562 4.9375 -1.671875 C 3.101562 -3.242188 2.1875 -5.3125 2.1875 -7.875 C 2.1875 -9.21875 2.492188 -10.507812 3.109375 -11.75 C 3.722656 -13 4.566406 -13.96875 5.640625 -14.65625 C 6.785156 -15.425781 7.953125 -15.984375 9.140625 -16.328125 C 10.328125 -16.671875 11.785156 -16.9375 13.515625 -17.125 C 15.347656 -17.320312 17.175781 -17.582031 19 -17.90625 C 20.820312 -18.226562 22.15625 -18.5625 23 -18.90625 L 23 -20.171875 C 23 -22.203125 22.453125 -23.734375 21.359375 -24.765625 C 20.265625 -25.804688 18.394531 -26.328125 15.75 -26.328125 C 13.257812 -26.328125 11.46875 -25.882812 10.375 -25 C 9.28125 -24.125 8.484375 -22.671875 7.984375 -20.640625 L 3.046875 -21.265625 C 3.734375 -24.484375 5.175781 -26.820312 7.375 -28.28125 C 9.582031 -29.738281 12.566406 -30.46875 16.328125 -30.46875 Z M 15.75 -13.21875 C 13.789062 -12.914062 12.285156 -12.617188 11.234375 -12.328125 C 10.179688 -12.046875 9.3125 -11.566406 8.625 -10.890625 C 7.9375 -10.222656 7.59375 -9.253906 7.59375 -7.984375 C 7.59375 -6.492188 8.132812 -5.335938 9.21875 -4.515625 C 10.3125 -3.691406 11.859375 -3.28125 13.859375 -3.28125 C 15.003906 -3.28125 16.25 -3.519531 17.59375 -4 C 18.9375 -4.476562 20.101562 -5.3125 21.09375 -6.5 C 21.75 -7.257812 22.226562 -8.117188 22.53125 -9.078125 C 22.84375 -10.035156 23 -11.265625 23 -12.765625 L 23 -14.953125 C 21.457031 -14.335938 19.039062 -13.757812 15.75 -13.21875 Z M 15.75 -13.21875 "/></g></g></g><g fill="#2c3152" fill-opacity="1"><g transform="translate(217.843686, 175.409312)"><g><path d="M 17.078125 -30.46875 C 19.597656 -30.46875 21.816406 -29.832031 23.734375 -28.5625 C 25.648438 -27.300781 27.132812 -25.53125 28.1875 -23.25 C 29.25 -20.96875 29.78125 -18.332031 29.78125 -15.34375 C 29.78125 -12.09375 29.203125 -9.257812 28.046875 -6.84375 C 26.898438 -4.425781 25.335938 -2.578125 23.359375 -1.296875 C 21.390625 -0.015625 19.195312 0.625 16.78125 0.625 C 15.207031 0.625 13.75 0.289062 12.40625 -0.375 C 11.070312 -1.039062 9.925781 -1.953125 8.96875 -3.109375 L 8.96875 11.4375 L 3.90625 11.4375 L 3.90625 -29.78125 L 8.5 -29.78125 L 8.5 -25.921875 C 9.613281 -27.453125 10.832031 -28.59375 12.15625 -29.34375 C 13.476562 -30.09375 15.117188 -30.46875 17.078125 -30.46875 Z M 8.453125 -14.71875 C 8.453125 -11.113281 9.175781 -8.34375 10.625 -6.40625 C 12.082031 -4.46875 14.019531 -3.5 16.4375 -3.5 C 18.8125 -3.5 20.765625 -4.492188 22.296875 -6.484375 C 23.835938 -8.484375 24.609375 -11.363281 24.609375 -15.125 C 24.609375 -18.644531 23.878906 -21.421875 22.421875 -23.453125 C 20.960938 -25.484375 19.023438 -26.5 16.609375 -26.5 C 15.035156 -26.5 13.632812 -26.007812 12.40625 -25.03125 C 11.1875 -24.050781 10.222656 -22.660156 9.515625 -20.859375 C 8.804688 -19.066406 8.453125 -17.019531 8.453125 -14.71875 Z M 8.453125 -14.71875 "/></g></g></g><g fill="#2c3152" fill-opacity="1"><g transform="translate(249.803366, 175.409312)"><g><path d="M 8.90625 -35.40625 L 3.84375 -35.40625 L 3.84375 -41.15625 L 8.90625 -41.15625 Z M 8.90625 0 L 3.84375 0 L 3.84375 -29.78125 L 8.90625 -29.78125 Z M 8.90625 0 "/></g></g></g><g fill="#2c3152" fill-opacity="1"><g transform="translate(262.564255, 175.409312)"><g><path d="M 13.6875 -30.46875 C 17.050781 -30.46875 19.769531 -29.765625 21.84375 -28.359375 C 23.914062 -26.960938 25.101562 -24.882812 25.40625 -22.125 L 20.46875 -21.4375 C 20.238281 -22.9375 19.601562 -24.125 18.5625 -25 C 17.53125 -25.882812 16 -26.328125 13.96875 -26.328125 C 11.9375 -26.328125 10.351562 -25.984375 9.21875 -25.296875 C 8.09375 -24.609375 7.53125 -23.648438 7.53125 -22.421875 C 7.53125 -21.578125 7.863281 -20.875 8.53125 -20.3125 C 9.207031 -19.757812 10.003906 -19.335938 10.921875 -19.046875 C 11.835938 -18.765625 13.238281 -18.394531 15.125 -17.9375 C 17.53125 -17.363281 19.488281 -16.785156 21 -16.203125 C 22.519531 -15.628906 23.828125 -14.75 24.921875 -13.5625 C 26.015625 -12.375 26.5625 -10.785156 26.5625 -8.796875 C 26.5625 -7.066406 26.082031 -5.484375 25.125 -4.046875 C 24.164062 -2.609375 22.796875 -1.46875 21.015625 -0.625 C 19.234375 0.207031 17.191406 0.625 14.890625 0.625 C 10.898438 0.625 7.851562 -0.15625 5.75 -1.71875 C 3.644531 -3.289062 2.320312 -5.6875 1.78125 -8.90625 L 6.78125 -9.65625 C 7.050781 -7.625 7.863281 -6.085938 9.21875 -5.046875 C 10.582031 -4.015625 12.335938 -3.5 14.484375 -3.5 C 16.671875 -3.5 18.367188 -3.945312 19.578125 -4.84375 C 20.785156 -5.75 21.390625 -6.875 21.390625 -8.21875 C 21.390625 -9.488281 20.785156 -10.425781 19.578125 -11.03125 C 18.367188 -11.644531 16.519531 -12.238281 14.03125 -12.8125 C 11.570312 -13.394531 9.601562 -13.960938 8.125 -14.515625 C 6.65625 -15.066406 5.375 -15.9375 4.28125 -17.125 C 3.1875 -18.3125 2.640625 -19.90625 2.640625 -21.90625 C 2.640625 -23.507812 3.070312 -24.960938 3.9375 -26.265625 C 4.800781 -27.566406 6.066406 -28.59375 7.734375 -29.34375 C 9.398438 -30.09375 11.382812 -30.46875 13.6875 -30.46875 Z M 13.6875 -30.46875 "/></g></g></g><g fill="#2c3152" fill-opacity="1"><g transform="translate(291.304984, 175.409312)"><g><path d="M 9.71875 -29.78125 L 14.78125 -29.78125 L 14.78125 -25.984375 L 9.71875 -25.984375 L 9.71875 -7.53125 C 9.71875 -6.226562 9.898438 -5.304688 10.265625 -4.765625 C 10.628906 -4.234375 11.382812 -3.96875 12.53125 -3.96875 C 12.800781 -3.96875 13.550781 -4.0625 14.78125 -4.25 L 15.515625 0.234375 C 13.984375 0.535156 12.738281 0.6875 11.78125 0.6875 C 9.832031 0.6875 8.335938 0.375 7.296875 -0.25 C 6.265625 -0.882812 5.566406 -1.765625 5.203125 -2.890625 C 4.835938 -4.023438 4.65625 -5.492188 4.65625 -7.296875 L 4.65625 -25.984375 L 0.984375 -25.984375 L 0.984375 -29.78125 L 4.65625 -29.78125 L 4.65625 -37.1875 L 9.71875 -40.234375 Z M 9.71875 -29.78125 "/></g></g></g><g fill="#2c3152" fill-opacity="1"><g transform="translate(86.900197, 231.148248)"><g><path d="M 12.90625 -16.71875 C 14.101562 -16.03125 15.007812 -15.007812 15.625 -13.65625 C 16.238281 -12.3125 16.546875 -10.738281 16.546875 -8.9375 C 16.546875 -7.445312 16.320312 -6.050781 15.875 -4.75 C 15.4375 -3.457031 14.765625 -2.429688 13.859375 -1.671875 C 13.191406 -1.117188 12.445312 -0.703125 11.625 -0.421875 C 10.800781 -0.140625 9.773438 0 8.546875 0 L 1.96875 0 L 1.96875 -17.625 L 8.375 -17.625 C 9.40625 -17.625 10.257812 -17.5625 10.9375 -17.4375 C 11.625 -17.320312 12.28125 -17.082031 12.90625 -16.71875 Z M 14.140625 -8.96875 C 14.140625 -10.75 13.859375 -12.128906 13.296875 -13.109375 C 12.734375 -14.085938 12.066406 -14.738281 11.296875 -15.0625 C 10.523438 -15.394531 9.554688 -15.5625 8.390625 -15.5625 L 4.3125 -15.5625 L 4.3125 -2.0625 L 8.171875 -2.0625 C 9.328125 -2.0625 10.289062 -2.195312 11.0625 -2.46875 C 11.84375 -2.738281 12.550781 -3.382812 13.1875 -4.40625 C 13.820312 -5.425781 14.140625 -6.945312 14.140625 -8.96875 Z M 14.140625 -8.96875 "/></g></g></g><g fill="#2c3152" fill-opacity="1"><g transform="translate(104.682933, 231.148248)"><g><path d="M 6.921875 -13.046875 C 8.148438 -13.046875 9.203125 -12.753906 10.078125 -12.171875 C 10.960938 -11.585938 11.625 -10.800781 12.0625 -9.8125 C 12.507812 -8.832031 12.734375 -7.738281 12.734375 -6.53125 L 12.734375 -5.84375 L 3.203125 -5.84375 C 3.265625 -4.476562 3.648438 -3.410156 4.359375 -2.640625 C 5.066406 -1.878906 5.96875 -1.5 7.0625 -1.5 C 7.90625 -1.5 8.597656 -1.71875 9.140625 -2.15625 C 9.691406 -2.601562 10.117188 -3.253906 10.421875 -4.109375 L 12.65625 -3.84375 C 12.3125 -2.5625 11.660156 -1.554688 10.703125 -0.828125 C 9.742188 -0.0976562 8.566406 0.265625 7.171875 0.265625 C 5.210938 0.265625 3.6875 -0.304688 2.59375 -1.453125 C 1.5 -2.597656 0.953125 -4.207031 0.953125 -6.28125 C 0.953125 -7.65625 1.195312 -8.851562 1.6875 -9.875 C 2.1875 -10.894531 2.882812 -11.675781 3.78125 -12.21875 C 4.675781 -12.769531 5.722656 -13.046875 6.921875 -13.046875 Z M 3.328125 -7.640625 L 10.4375 -7.640625 C 10.382812 -8.847656 10.007812 -9.753906 9.3125 -10.359375 C 8.625 -10.972656 7.828125 -11.28125 6.921875 -11.28125 C 5.898438 -11.28125 5.066406 -10.929688 4.421875 -10.234375 C 3.773438 -9.546875 3.410156 -8.679688 3.328125 -7.640625 Z M 3.328125 -7.640625 "/></g></g></g><g fill="#2c3152" fill-opacity="1"><g transform="translate(118.377117, 231.148248)"><g><path d="M 3.8125 0 L 1.65625 0 L 1.65625 -17.625 L 3.8125 -17.625 Z M 3.8125 0 "/></g></g></g><g fill="#2c3152" fill-opacity="1"><g transform="translate(123.844937, 231.148248)"><g><path d="M 3.8125 -15.171875 L 1.65625 -15.171875 L 1.65625 -17.625 L 3.8125 -17.625 Z M 3.8125 0 L 1.65625 0 L 1.65625 -12.75 L 3.8125 -12.75 Z M 3.8125 0 "/></g></g></g><g fill="#2c3152" fill-opacity="1"><g transform="translate(129.312757, 231.148248)"><g><path d="M 5.21875 -5.46875 C 5.363281 -5.070312 5.578125 -4.414062 5.859375 -3.5 L 6.1875 -2.53125 C 6.539062 -3.75 6.800781 -4.554688 6.96875 -4.953125 L 9.796875 -12.75 L 12.046875 -12.75 L 7.21875 0 L 5.171875 0 L 0.3125 -12.75 L 2.609375 -12.75 Z M 5.21875 -5.46875 "/></g></g></g><g fill="#2c3152" fill-opacity="1"><g transform="translate(141.627673, 231.148248)"><g><path d="M 6.921875 -13.046875 C 8.148438 -13.046875 9.203125 -12.753906 10.078125 -12.171875 C 10.960938 -11.585938 11.625 -10.800781 12.0625 -9.8125 C 12.507812 -8.832031 12.734375 -7.738281 12.734375 -6.53125 L 12.734375 -5.84375 L 3.203125 -5.84375 C 3.265625 -4.476562 3.648438 -3.410156 4.359375 -2.640625 C 5.066406 -1.878906 5.96875 -1.5 7.0625 -1.5 C 7.90625 -1.5 8.597656 -1.71875 9.140625 -2.15625 C 9.691406 -2.601562 10.117188 -3.253906 10.421875 -4.109375 L 12.65625 -3.84375 C 12.3125 -2.5625 11.660156 -1.554688 10.703125 -0.828125 C 9.742188 -0.0976562 8.566406 0.265625 7.171875 0.265625 C 5.210938 0.265625 3.6875 -0.304688 2.59375 -1.453125 C 1.5 -2.597656 0.953125 -4.207031 0.953125 -6.28125 C 0.953125 -7.65625 1.195312 -8.851562 1.6875 -9.875 C 2.1875 -10.894531 2.882812 -11.675781 3.78125 -12.21875 C 4.675781 -12.769531 5.722656 -13.046875 6.921875 -13.046875 Z M 3.328125 -7.640625 L 10.4375 -7.640625 C 10.382812 -8.847656 10.007812 -9.753906 9.3125 -10.359375 C 8.625 -10.972656 7.828125 -11.28125 6.921875 -11.28125 C 5.898438 -11.28125 5.066406 -10.929688 4.421875 -10.234375 C 3.773438 -9.546875 3.410156 -8.679688 3.328125 -7.640625 Z M 3.328125 -7.640625 "/></g></g></g><g fill="#2c3152" fill-opacity="1"><g transform="translate(155.321857, 231.148248)"><g><path d="M 6.328125 -13.046875 C 7.066406 -13.046875 7.796875 -12.816406 8.515625 -12.359375 L 7.78125 -10.359375 C 7.257812 -10.671875 6.707031 -10.828125 6.125 -10.828125 C 5.3125 -10.828125 4.710938 -10.453125 4.328125 -9.703125 C 3.941406 -8.960938 3.75 -8.003906 3.75 -6.828125 L 3.75 0 L 1.578125 0 L 1.578125 -12.75 L 3.515625 -12.75 L 3.515625 -10.828125 C 3.929688 -11.566406 4.335938 -12.117188 4.734375 -12.484375 C 5.140625 -12.859375 5.671875 -13.046875 6.328125 -13.046875 Z M 6.328125 -13.046875 "/></g></g></g><g fill="#2c3152" fill-opacity="1"><g transform="translate(163.523595, 231.148248)"><g><path d="M 5.859375 -13.046875 C 7.304688 -13.046875 8.472656 -12.742188 9.359375 -12.140625 C 10.242188 -11.546875 10.753906 -10.660156 10.890625 -9.484375 L 8.765625 -9.1875 C 8.671875 -9.820312 8.398438 -10.328125 7.953125 -10.703125 C 7.503906 -11.085938 6.847656 -11.28125 5.984375 -11.28125 C 5.109375 -11.28125 4.425781 -11.128906 3.9375 -10.828125 C 3.457031 -10.535156 3.21875 -10.128906 3.21875 -9.609375 C 3.21875 -9.242188 3.363281 -8.941406 3.65625 -8.703125 C 3.945312 -8.460938 4.285156 -8.28125 4.671875 -8.15625 C 5.066406 -8.039062 5.664062 -7.882812 6.46875 -7.6875 C 7.507812 -7.4375 8.351562 -7.1875 9 -6.9375 C 9.644531 -6.695312 10.203125 -6.320312 10.671875 -5.8125 C 11.140625 -5.300781 11.375 -4.617188 11.375 -3.765625 C 11.375 -3.023438 11.164062 -2.347656 10.75 -1.734375 C 10.34375 -1.117188 9.757812 -0.628906 9 -0.265625 C 8.238281 0.0859375 7.363281 0.265625 6.375 0.265625 C 4.664062 0.265625 3.359375 -0.0664062 2.453125 -0.734375 C 1.554688 -1.410156 0.992188 -2.4375 0.765625 -3.8125 L 2.90625 -4.140625 C 3.019531 -3.265625 3.367188 -2.601562 3.953125 -2.15625 C 4.535156 -1.71875 5.285156 -1.5 6.203125 -1.5 C 7.140625 -1.5 7.863281 -1.691406 8.375 -2.078125 C 8.894531 -2.460938 9.15625 -2.941406 9.15625 -3.515625 C 9.15625 -4.054688 8.894531 -4.457031 8.375 -4.71875 C 7.863281 -4.988281 7.078125 -5.242188 6.015625 -5.484375 C 4.960938 -5.734375 4.117188 -5.976562 3.484375 -6.21875 C 2.847656 -6.457031 2.296875 -6.832031 1.828125 -7.34375 C 1.359375 -7.851562 1.125 -8.53125 1.125 -9.375 C 1.125 -10.070312 1.304688 -10.695312 1.671875 -11.25 C 2.046875 -11.8125 2.59375 -12.25 3.3125 -12.5625 C 4.03125 -12.882812 4.878906 -13.046875 5.859375 -13.046875 Z M 5.859375 -13.046875 "/></g></g></g><g fill="#2c3152" fill-opacity="1"><g transform="translate(175.838511, 231.148248)"><g/></g></g><g fill="#2c3152" fill-opacity="1"><g transform="translate(182.685607, 231.148248)"><g><path d="M 9.703125 -4.703125 C 9.816406 -4.367188 10.046875 -3.644531 10.390625 -2.53125 C 10.566406 -3.101562 10.863281 -4 11.28125 -5.21875 L 15.5625 -17.625 L 18.6875 -17.625 L 18.6875 0 L 16.453125 0 L 16.453125 -14.75 L 11.328125 0 L 9.203125 0 L 4.109375 -15 L 4.109375 0 L 1.875 0 L 1.875 -17.625 L 5.390625 -17.625 Z M 9.703125 -4.703125 "/></g></g></g><g fill="#2c3152" fill-opacity="1"><g transform="translate(203.202263, 231.148248)"><g><path d="M 7 -13.046875 C 8.039062 -13.046875 8.882812 -12.941406 9.53125 -12.734375 C 10.1875 -12.535156 10.703125 -12.238281 11.078125 -11.84375 C 11.441406 -11.46875 11.6875 -11.050781 11.8125 -10.59375 C 11.945312 -10.132812 12.015625 -9.523438 12.015625 -8.765625 L 12.015625 -3.625 C 12.015625 -1.957031 12.242188 -0.75 12.703125 0 L 10.4375 0 C 10.226562 -0.445312 10.082031 -0.972656 10 -1.578125 C 9.207031 -0.921875 8.4375 -0.441406 7.6875 -0.140625 C 6.945312 0.148438 6.175781 0.296875 5.375 0.296875 C 3.988281 0.296875 2.898438 -0.0351562 2.109375 -0.703125 C 1.328125 -1.378906 0.9375 -2.269531 0.9375 -3.375 C 0.9375 -3.945312 1.066406 -4.5 1.328125 -5.03125 C 1.585938 -5.570312 1.945312 -5.988281 2.40625 -6.28125 C 2.90625 -6.601562 3.40625 -6.835938 3.90625 -6.984375 C 4.414062 -7.140625 5.039062 -7.257812 5.78125 -7.34375 C 6.570312 -7.425781 7.359375 -7.535156 8.140625 -7.671875 C 8.921875 -7.804688 9.488281 -7.953125 9.84375 -8.109375 L 9.84375 -8.640625 C 9.84375 -9.515625 9.609375 -10.171875 9.140625 -10.609375 C 8.679688 -11.054688 7.882812 -11.28125 6.75 -11.28125 C 5.675781 -11.28125 4.90625 -11.085938 4.4375 -10.703125 C 3.976562 -10.328125 3.640625 -9.707031 3.421875 -8.84375 L 1.3125 -9.109375 C 1.601562 -10.492188 2.21875 -11.492188 3.15625 -12.109375 C 4.101562 -12.734375 5.382812 -13.046875 7 -13.046875 Z M 6.75 -5.65625 C 5.90625 -5.53125 5.257812 -5.40625 4.8125 -5.28125 C 4.363281 -5.15625 3.988281 -4.945312 3.6875 -4.65625 C 3.394531 -4.375 3.25 -3.960938 3.25 -3.421875 C 3.25 -2.785156 3.484375 -2.289062 3.953125 -1.9375 C 4.421875 -1.582031 5.082031 -1.40625 5.9375 -1.40625 C 6.425781 -1.40625 6.957031 -1.503906 7.53125 -1.703125 C 8.101562 -1.910156 8.601562 -2.269531 9.03125 -2.78125 C 9.3125 -3.113281 9.515625 -3.484375 9.640625 -3.890625 C 9.773438 -4.296875 9.84375 -4.820312 9.84375 -5.46875 L 9.84375 -6.40625 C 9.1875 -6.144531 8.15625 -5.894531 6.75 -5.65625 Z M 6.75 -5.65625 "/></g></g></g><g fill="#2c3152" fill-opacity="1"><g transform="translate(216.896446, 231.148248)"><g><path d="M 3.796875 -4.578125 C 3.796875 -3.597656 4.03125 -2.851562 4.5 -2.34375 C 4.96875 -1.832031 5.648438 -1.578125 6.546875 -1.578125 C 7.160156 -1.578125 7.75 -1.753906 8.3125 -2.109375 C 8.875 -2.460938 9.28125 -2.957031 9.53125 -3.59375 C 9.726562 -4.070312 9.828125 -4.796875 9.828125 -5.765625 L 9.828125 -12.75 L 12 -12.75 L 12 0 L 10.046875 0 L 10.046875 -1.875 C 9.023438 -0.425781 7.671875 0.296875 5.984375 0.296875 C 5.296875 0.296875 4.597656 0.15625 3.890625 -0.125 C 3.179688 -0.414062 2.628906 -0.882812 2.234375 -1.53125 C 2.003906 -1.90625 1.84375 -2.320312 1.75 -2.78125 C 1.664062 -3.238281 1.625 -3.796875 1.625 -4.453125 L 1.625 -12.75 L 3.796875 -12.75 Z M 3.796875 -4.578125 "/></g></g></g><g fill="#2c3152" fill-opacity="1"><g transform="translate(230.590621, 231.148248)"><g><path d="M 11.96875 -17.625 L 11.96875 0 L 9.953125 0 L 9.953125 -1.625 C 9.703125 -1.195312 9.285156 -0.773438 8.703125 -0.359375 C 8.117188 0.0546875 7.351562 0.265625 6.40625 0.265625 C 5.363281 0.265625 4.425781 -0.00390625 3.59375 -0.546875 C 2.757812 -1.097656 2.097656 -1.882812 1.609375 -2.90625 C 1.128906 -3.925781 0.890625 -5.109375 0.890625 -6.453125 C 0.890625 -7.796875 1.113281 -8.960938 1.5625 -9.953125 C 2.007812 -10.953125 2.648438 -11.71875 3.484375 -12.25 C 4.316406 -12.78125 5.28125 -13.046875 6.375 -13.046875 C 7.175781 -13.046875 7.875 -12.859375 8.46875 -12.484375 C 9.070312 -12.109375 9.515625 -11.710938 9.796875 -11.296875 L 9.796875 -17.625 Z M 3.109375 -6.375 C 3.109375 -5.320312 3.257812 -4.429688 3.5625 -3.703125 C 3.875 -2.972656 4.296875 -2.421875 4.828125 -2.046875 C 5.367188 -1.679688 5.957031 -1.5 6.59375 -1.5 C 7.601562 -1.5 8.421875 -1.898438 9.046875 -2.703125 C 9.679688 -3.515625 10 -4.675781 10 -6.1875 C 10 -7.726562 9.691406 -8.960938 9.078125 -9.890625 C 8.472656 -10.816406 7.613281 -11.28125 6.5 -11.28125 C 5.4375 -11.28125 4.601562 -10.84375 4 -9.96875 C 3.40625 -9.101562 3.109375 -7.90625 3.109375 -6.375 Z M 3.109375 -6.375 "/></g></g></g><g fill="#2c3152" fill-opacity="1"><g transform="translate(244.284796, 231.148248)"><g><path d="M 5.859375 -13.046875 C 7.304688 -13.046875 8.472656 -12.742188 9.359375 -12.140625 C 10.242188 -11.546875 10.753906 -10.660156 10.890625 -9.484375 L 8.765625 -9.1875 C 8.671875 -9.820312 8.398438 -10.328125 7.953125 -10.703125 C 7.503906 -11.085938 6.847656 -11.28125 5.984375 -11.28125 C 5.109375 -11.28125 4.425781 -11.128906 3.9375 -10.828125 C 3.457031 -10.535156 3.21875 -10.128906 3.21875 -9.609375 C 3.21875 -9.242188 3.363281 -8.941406 3.65625 -8.703125 C 3.945312 -8.460938 4.285156 -8.28125 4.671875 -8.15625 C 5.066406 -8.039062 5.664062 -7.882812 6.46875 -7.6875 C 7.507812 -7.4375 8.351562 -7.1875 9 -6.9375 C 9.644531 -6.695312 10.203125 -6.320312 10.671875 -5.8125 C 11.140625 -5.300781 11.375 -4.617188 11.375 -3.765625 C 11.375 -3.023438 11.164062 -2.347656 10.75 -1.734375 C 10.34375 -1.117188 9.757812 -0.628906 9 -0.265625 C 8.238281 0.0859375 7.363281 0.265625 6.375 0.265625 C 4.664062 0.265625 3.359375 -0.0664062 2.453125 -0.734375 C 1.554688 -1.410156 0.992188 -2.4375 0.765625 -3.8125 L 2.90625 -4.140625 C 3.019531 -3.265625 3.367188 -2.601562 3.953125 -2.15625 C 4.535156 -1.71875 5.285156 -1.5 6.203125 -1.5 C 7.140625 -1.5 7.863281 -1.691406 8.375 -2.078125 C 8.894531 -2.460938 9.15625 -2.941406 9.15625 -3.515625 C 9.15625 -4.054688 8.894531 -4.457031 8.375 -4.71875 C 7.863281 -4.988281 7.078125 -5.242188 6.015625 -5.484375 C 4.960938 -5.734375 4.117188 -5.976562 3.484375 -6.21875 C 2.847656 -6.457031 2.296875 -6.832031 1.828125 -7.34375 C 1.359375 -7.851562 1.125 -8.53125 1.125 -9.375 C 1.125 -10.070312 1.304688 -10.695312 1.671875 -11.25 C 2.046875 -11.8125 2.59375 -12.25 3.3125 -12.5625 C 4.03125 -12.882812 4.878906 -13.046875 5.859375 -13.046875 Z M 5.859375 -13.046875 "/></g></g></g><g fill="#2c3152" fill-opacity="1"><g transform="translate(256.599704, 231.148248)"><g><path d="M 3.8125 0 L 1.65625 0 L 1.65625 -17.625 L 3.8125 -17.625 Z M 3.8125 0 "/></g></g></g><g fill="#2c3152" fill-opacity="1"><g transform="translate(262.067524, 231.148248)"><g><path d="M 6.921875 -13.046875 C 8.148438 -13.046875 9.203125 -12.753906 10.078125 -12.171875 C 10.960938 -11.585938 11.625 -10.800781 12.0625 -9.8125 C 12.507812 -8.832031 12.734375 -7.738281 12.734375 -6.53125 L 12.734375 -5.84375 L 3.203125 -5.84375 C 3.265625 -4.476562 3.648438 -3.410156 4.359375 -2.640625 C 5.066406 -1.878906 5.96875 -1.5 7.0625 -1.5 C 7.90625 -1.5 8.597656 -1.71875 9.140625 -2.15625 C 9.691406 -2.601562 10.117188 -3.253906 10.421875 -4.109375 L 12.65625 -3.84375 C 12.3125 -2.5625 11.660156 -1.554688 10.703125 -0.828125 C 9.742188 -0.0976562 8.566406 0.265625 7.171875 0.265625 C 5.210938 0.265625 3.6875 -0.304688 2.59375 -1.453125 C 1.5 -2.597656 0.953125 -4.207031 0.953125 -6.28125 C 0.953125 -7.65625 1.195312 -8.851562 1.6875 -9.875 C 2.1875 -10.894531 2.882812 -11.675781 3.78125 -12.21875 C 4.675781 -12.769531 5.722656 -13.046875 6.921875 -13.046875 Z M 3.328125 -7.640625 L 10.4375 -7.640625 C 10.382812 -8.847656 10.007812 -9.753906 9.3125 -10.359375 C 8.625 -10.972656 7.828125 -11.28125 6.921875 -11.28125 C 5.898438 -11.28125 5.066406 -10.929688 4.421875 -10.234375 C 3.773438 -9.546875 3.410156 -8.679688 3.328125 -7.640625 Z M 3.328125 -7.640625 "/></g></g></g><g fill="#2c3152" fill-opacity="1"><g transform="translate(275.761716, 231.148248)"><g><path d="M 5.421875 -5.296875 C 5.773438 -4.242188 6.066406 -3.28125 6.296875 -2.40625 C 6.546875 -3.375 6.828125 -4.285156 7.140625 -5.140625 L 9.921875 -12.75 L 12.09375 -12.75 L 7.234375 0.21875 C 6.773438 1.445312 6.378906 2.382812 6.046875 3.03125 C 5.722656 3.6875 5.316406 4.207031 4.828125 4.59375 C 4.335938 4.976562 3.707031 5.171875 2.9375 5.171875 C 2.425781 5.171875 1.957031 5.085938 1.53125 4.921875 L 1.28125 2.875 C 1.800781 3.007812 2.226562 3.078125 2.5625 3.078125 C 3.070312 3.078125 3.472656 2.984375 3.765625 2.796875 C 4.054688 2.617188 4.273438 2.382812 4.421875 2.09375 C 4.578125 1.800781 4.769531 1.332031 5 0.6875 L 5.25 0.03125 L 0.390625 -12.75 L 2.734375 -12.75 Z M 5.421875 -5.296875 "/></g></g></g><g fill="#2c3152" fill-opacity="1"><g transform="translate(112.903267, 260.256292)"><g><path d="M 13.859375 -15.5625 L 4.3125 -15.5625 L 4.3125 -10.09375 L 12.578125 -10.09375 L 12.578125 -8.03125 L 4.3125 -8.03125 L 4.3125 0 L 1.96875 0 L 1.96875 -17.625 L 13.859375 -17.625 Z M 13.859375 -15.5625 "/></g></g></g><g fill="#2c3152" fill-opacity="1"><g transform="translate(127.952093, 260.256292)"><g><path d="M 7 -13.046875 C 8.039062 -13.046875 8.882812 -12.941406 9.53125 -12.734375 C 10.1875 -12.535156 10.703125 -12.238281 11.078125 -11.84375 C 11.441406 -11.46875 11.6875 -11.050781 11.8125 -10.59375 C 11.945312 -10.132812 12.015625 -9.523438 12.015625 -8.765625 L 12.015625 -3.625 C 12.015625 -1.957031 12.242188 -0.75 12.703125 0 L 10.4375 0 C 10.226562 -0.445312 10.082031 -0.972656 10 -1.578125 C 9.207031 -0.921875 8.4375 -0.441406 7.6875 -0.140625 C 6.945312 0.148438 6.175781 0.296875 5.375 0.296875 C 3.988281 0.296875 2.898438 -0.0351562 2.109375 -0.703125 C 1.328125 -1.378906 0.9375 -2.269531 0.9375 -3.375 C 0.9375 -3.945312 1.066406 -4.5 1.328125 -5.03125 C 1.585938 -5.570312 1.945312 -5.988281 2.40625 -6.28125 C 2.90625 -6.601562 3.40625 -6.835938 3.90625 -6.984375 C 4.414062 -7.140625 5.039062 -7.257812 5.78125 -7.34375 C 6.570312 -7.425781 7.359375 -7.535156 8.140625 -7.671875 C 8.921875 -7.804688 9.488281 -7.953125 9.84375 -8.109375 L 9.84375 -8.640625 C 9.84375 -9.515625 9.609375 -10.171875 9.140625 -10.609375 C 8.679688 -11.054688 7.882812 -11.28125 6.75 -11.28125 C 5.675781 -11.28125 4.90625 -11.085938 4.4375 -10.703125 C 3.976562 -10.328125 3.640625 -9.707031 3.421875 -8.84375 L 1.3125 -9.109375 C 1.601562 -10.492188 2.21875 -11.492188 3.15625 -12.109375 C 4.101562 -12.734375 5.382812 -13.046875 7 -13.046875 Z M 6.75 -5.65625 C 5.90625 -5.53125 5.257812 -5.40625 4.8125 -5.28125 C 4.363281 -5.15625 3.988281 -4.945312 3.6875 -4.65625 C 3.394531 -4.375 3.25 -3.960938 3.25 -3.421875 C 3.25 -2.785156 3.484375 -2.289062 3.953125 -1.9375 C 4.421875 -1.582031 5.082031 -1.40625 5.9375 -1.40625 C 6.425781 -1.40625 6.957031 -1.503906 7.53125 -1.703125 C 8.101562 -1.910156 8.601562 -2.269531 9.03125 -2.78125 C 9.3125 -3.113281 9.515625 -3.484375 9.640625 -3.890625 C 9.773438 -4.296875 9.84375 -4.820312 9.84375 -5.46875 L 9.84375 -6.40625 C 9.1875 -6.144531 8.15625 -5.894531 6.75 -5.65625 Z M 6.75 -5.65625 "/></g></g></g><g fill="#2c3152" fill-opacity="1"><g transform="translate(141.646277, 260.256292)"><g><path d="M 7.4375 -13.046875 C 8.351562 -13.046875 9.109375 -12.851562 9.703125 -12.46875 C 10.304688 -12.082031 10.738281 -11.53125 11 -10.8125 C 11.507812 -11.53125 12.070312 -12.082031 12.6875 -12.46875 C 13.3125 -12.851562 14.066406 -13.046875 14.953125 -13.046875 C 16.234375 -13.046875 17.21875 -12.679688 17.90625 -11.953125 C 18.59375 -11.222656 18.9375 -10.1875 18.9375 -8.84375 L 18.9375 0 L 16.765625 0 L 16.765625 -8.203125 C 16.765625 -9.234375 16.582031 -9.988281 16.21875 -10.46875 C 15.863281 -10.945312 15.273438 -11.1875 14.453125 -11.1875 C 13.421875 -11.1875 12.644531 -10.835938 12.125 -10.140625 C 11.613281 -9.441406 11.359375 -8.566406 11.359375 -7.515625 L 11.359375 0 L 9.1875 0 L 9.1875 -8.390625 C 9.1875 -9.328125 9 -10.023438 8.625 -10.484375 C 8.257812 -10.953125 7.691406 -11.1875 6.921875 -11.1875 C 6.296875 -11.1875 5.707031 -11.007812 5.15625 -10.65625 C 4.601562 -10.300781 4.222656 -9.78125 4.015625 -9.09375 C 3.847656 -8.59375 3.765625 -7.84375 3.765625 -6.84375 L 3.765625 0 L 1.59375 0 L 1.59375 -12.75 L 3.546875 -12.75 L 3.546875 -10.984375 C 4.003906 -11.691406 4.566406 -12.210938 5.234375 -12.546875 C 5.910156 -12.878906 6.644531 -13.046875 7.4375 -13.046875 Z M 7.4375 -13.046875 "/></g></g></g><g fill="#2c3152" fill-opacity="1"><g transform="translate(162.162932, 260.256292)"><g><path d="M 3.8125 -15.171875 L 1.65625 -15.171875 L 1.65625 -17.625 L 3.8125 -17.625 Z M 3.8125 0 L 1.65625 0 L 1.65625 -12.75 L 3.8125 -12.75 Z M 3.8125 0 "/></g></g></g><g fill="#2c3152" fill-opacity="1"><g transform="translate(167.630752, 260.256292)"><g><path d="M 3.8125 0 L 1.65625 0 L 1.65625 -17.625 L 3.8125 -17.625 Z M 3.8125 0 "/></g></g></g><g fill="#2c3152" fill-opacity="1"><g transform="translate(173.098572, 260.256292)"><g><path d="M 5.421875 -5.296875 C 5.773438 -4.242188 6.066406 -3.28125 6.296875 -2.40625 C 6.546875 -3.375 6.828125 -4.285156 7.140625 -5.140625 L 9.921875 -12.75 L 12.09375 -12.75 L 7.234375 0.21875 C 6.773438 1.445312 6.378906 2.382812 6.046875 3.03125 C 5.722656 3.6875 5.316406 4.207031 4.828125 4.59375 C 4.335938 4.976562 3.707031 5.171875 2.9375 5.171875 C 2.425781 5.171875 1.957031 5.085938 1.53125 4.921875 L 1.28125 2.875 C 1.800781 3.007812 2.226562 3.078125 2.5625 3.078125 C 3.070312 3.078125 3.472656 2.984375 3.765625 2.796875 C 4.054688 2.617188 4.273438 2.382812 4.421875 2.09375 C 4.578125 1.800781 4.769531 1.332031 5 0.6875 L 5.25 0.03125 L 0.390625 -12.75 L 2.734375 -12.75 Z M 5.421875 -5.296875 "/></g></g></g><g fill="#2c3152" fill-opacity="1"><g transform="translate(185.413488, 260.256292)"><g/></g></g><g fill="#2c3152" fill-opacity="1"><g transform="translate(192.260584, 260.256292)"><g><path d="M 12.5625 -16.578125 C 13.21875 -16.078125 13.671875 -15.519531 13.921875 -14.90625 C 14.179688 -14.289062 14.3125 -13.742188 14.3125 -13.265625 C 14.3125 -11.492188 13.476562 -10.195312 11.8125 -9.375 C 12.945312 -9.03125 13.78125 -8.476562 14.3125 -7.71875 C 14.851562 -6.96875 15.125 -6.070312 15.125 -5.03125 C 15.125 -4.21875 14.914062 -3.394531 14.5 -2.5625 C 14.09375 -1.738281 13.378906 -1.085938 12.359375 -0.609375 C 11.492188 -0.203125 10.285156 0 8.734375 0 L 1.828125 0 L 1.828125 -17.625 L 8.59375 -17.625 C 9.582031 -17.625 10.367188 -17.535156 10.953125 -17.359375 C 11.546875 -17.191406 12.082031 -16.929688 12.5625 -16.578125 Z M 12 -12.859375 C 12 -13.921875 11.65625 -14.632812 10.96875 -15 C 10.289062 -15.375 9.269531 -15.5625 7.90625 -15.5625 L 4.15625 -15.5625 L 4.15625 -10.21875 L 8.125 -10.21875 C 9.457031 -10.21875 10.4375 -10.425781 11.0625 -10.84375 C 11.6875 -11.257812 12 -11.929688 12 -12.859375 Z M 11.15625 -2.484375 C 11.71875 -2.765625 12.113281 -3.140625 12.34375 -3.609375 C 12.582031 -4.085938 12.703125 -4.582031 12.703125 -5.09375 C 12.703125 -5.78125 12.53125 -6.363281 12.1875 -6.84375 C 11.84375 -7.320312 11.351562 -7.664062 10.71875 -7.875 C 10.1875 -8.0625 9.421875 -8.15625 8.421875 -8.15625 L 4.15625 -8.15625 L 4.15625 -2.0625 L 8.859375 -2.0625 C 9.398438 -2.0625 9.84375 -2.09375 10.1875 -2.15625 C 10.539062 -2.226562 10.863281 -2.335938 11.15625 -2.484375 Z M 11.15625 -2.484375 "/></g></g></g><g fill="#2c3152" fill-opacity="1"><g transform="translate(208.688686, 260.256292)"><g><path d="M 7 -13.046875 C 8.039062 -13.046875 8.882812 -12.941406 9.53125 -12.734375 C 10.1875 -12.535156 10.703125 -12.238281 11.078125 -11.84375 C 11.441406 -11.46875 11.6875 -11.050781 11.8125 -10.59375 C 11.945312 -10.132812 12.015625 -9.523438 12.015625 -8.765625 L 12.015625 -3.625 C 12.015625 -1.957031 12.242188 -0.75 12.703125 0 L 10.4375 0 C 10.226562 -0.445312 10.082031 -0.972656 10 -1.578125 C 9.207031 -0.921875 8.4375 -0.441406 7.6875 -0.140625 C 6.945312 0.148438 6.175781 0.296875 5.375 0.296875 C 3.988281 0.296875 2.898438 -0.0351562 2.109375 -0.703125 C 1.328125 -1.378906 0.9375 -2.269531 0.9375 -3.375 C 0.9375 -3.945312 1.066406 -4.5 1.328125 -5.03125 C 1.585938 -5.570312 1.945312 -5.988281 2.40625 -6.28125 C 2.90625 -6.601562 3.40625 -6.835938 3.90625 -6.984375 C 4.414062 -7.140625 5.039062 -7.257812 5.78125 -7.34375 C 6.570312 -7.425781 7.359375 -7.535156 8.140625 -7.671875 C 8.921875 -7.804688 9.488281 -7.953125 9.84375 -8.109375 L 9.84375 -8.640625 C 9.84375 -9.515625 9.609375 -10.171875 9.140625 -10.609375 C 8.679688 -11.054688 7.882812 -11.28125 6.75 -11.28125 C 5.675781 -11.28125 4.90625 -11.085938 4.4375 -10.703125 C 3.976562 -10.328125 3.640625 -9.707031 3.421875 -8.84375 L 1.3125 -9.109375 C 1.601562 -10.492188 2.21875 -11.492188 3.15625 -12.109375 C 4.101562 -12.734375 5.382812 -13.046875 7 -13.046875 Z M 6.75 -5.65625 C 5.90625 -5.53125 5.257812 -5.40625 4.8125 -5.28125 C 4.363281 -5.15625 3.988281 -4.945312 3.6875 -4.65625 C 3.394531 -4.375 3.25 -3.960938 3.25 -3.421875 C 3.25 -2.785156 3.484375 -2.289062 3.953125 -1.9375 C 4.421875 -1.582031 5.082031 -1.40625 5.9375 -1.40625 C 6.425781 -1.40625 6.957031 -1.503906 7.53125 -1.703125 C 8.101562 -1.910156 8.601562 -2.269531 9.03125 -2.78125 C 9.3125 -3.113281 9.515625 -3.484375 9.640625 -3.890625 C 9.773438 -4.296875 9.84375 -4.820312 9.84375 -5.46875 L 9.84375 -6.40625 C 9.1875 -6.144531 8.15625 -5.894531 6.75 -5.65625 Z M 6.75 -5.65625 "/></g></g></g><g fill="#2c3152" fill-opacity="1"><g transform="translate(222.38287, 260.256292)"><g><path d="M 5.859375 -13.046875 C 7.304688 -13.046875 8.472656 -12.742188 9.359375 -12.140625 C 10.242188 -11.546875 10.753906 -10.660156 10.890625 -9.484375 L 8.765625 -9.1875 C 8.671875 -9.820312 8.398438 -10.328125 7.953125 -10.703125 C 7.503906 -11.085938 6.847656 -11.28125 5.984375 -11.28125 C 5.109375 -11.28125 4.425781 -11.128906 3.9375 -10.828125 C 3.457031 -10.535156 3.21875 -10.128906 3.21875 -9.609375 C 3.21875 -9.242188 3.363281 -8.941406 3.65625 -8.703125 C 3.945312 -8.460938 4.285156 -8.28125 4.671875 -8.15625 C 5.066406 -8.039062 5.664062 -7.882812 6.46875 -7.6875 C 7.507812 -7.4375 8.351562 -7.1875 9 -6.9375 C 9.644531 -6.695312 10.203125 -6.320312 10.671875 -5.8125 C 11.140625 -5.300781 11.375 -4.617188 11.375 -3.765625 C 11.375 -3.023438 11.164062 -2.347656 10.75 -1.734375 C 10.34375 -1.117188 9.757812 -0.628906 9 -0.265625 C 8.238281 0.0859375 7.363281 0.265625 6.375 0.265625 C 4.664062 0.265625 3.359375 -0.0664062 2.453125 -0.734375 C 1.554688 -1.410156 0.992188 -2.4375 0.765625 -3.8125 L 2.90625 -4.140625 C 3.019531 -3.265625 3.367188 -2.601562 3.953125 -2.15625 C 4.535156 -1.71875 5.285156 -1.5 6.203125 -1.5 C 7.140625 -1.5 7.863281 -1.691406 8.375 -2.078125 C 8.894531 -2.460938 9.15625 -2.941406 9.15625 -3.515625 C 9.15625 -4.054688 8.894531 -4.457031 8.375 -4.71875 C 7.863281 -4.988281 7.078125 -5.242188 6.015625 -5.484375 C 4.960938 -5.734375 4.117188 -5.976562 3.484375 -6.21875 C 2.847656 -6.457031 2.296875 -6.832031 1.828125 -7.34375 C 1.359375 -7.851562 1.125 -8.53125 1.125 -9.375 C 1.125 -10.070312 1.304688 -10.695312 1.671875 -11.25 C 2.046875 -11.8125 2.59375 -12.25 3.3125 -12.5625 C 4.03125 -12.882812 4.878906 -13.046875 5.859375 -13.046875 Z M 5.859375 -13.046875 "/></g></g></g><g fill="#2c3152" fill-opacity="1"><g transform="translate(234.697786, 260.256292)"><g><path d="M 6.921875 -13.046875 C 8.148438 -13.046875 9.203125 -12.753906 10.078125 -12.171875 C 10.960938 -11.585938 11.625 -10.800781 12.0625 -9.8125 C 12.507812 -8.832031 12.734375 -7.738281 12.734375 -6.53125 L 12.734375 -5.84375 L 3.203125 -5.84375 C 3.265625 -4.476562 3.648438 -3.410156 4.359375 -2.640625 C 5.066406 -1.878906 5.96875 -1.5 7.0625 -1.5 C 7.90625 -1.5 8.597656 -1.71875 9.140625 -2.15625 C 9.691406 -2.601562 10.117188 -3.253906 10.421875 -4.109375 L 12.65625 -3.84375 C 12.3125 -2.5625 11.660156 -1.554688 10.703125 -0.828125 C 9.742188 -0.0976562 8.566406 0.265625 7.171875 0.265625 C 5.210938 0.265625 3.6875 -0.304688 2.59375 -1.453125 C 1.5 -2.597656 0.953125 -4.207031 0.953125 -6.28125 C 0.953125 -7.65625 1.195312 -8.851562 1.6875 -9.875 C 2.1875 -10.894531 2.882812 -11.675781 3.78125 -12.21875 C 4.675781 -12.769531 5.722656 -13.046875 6.921875 -13.046875 Z M 3.328125 -7.640625 L 10.4375 -7.640625 C 10.382812 -8.847656 10.007812 -9.753906 9.3125 -10.359375 C 8.625 -10.972656 7.828125 -11.28125 6.921875 -11.28125 C 5.898438 -11.28125 5.066406 -10.929688 4.421875 -10.234375 C 3.773438 -9.546875 3.410156 -8.679688 3.328125 -7.640625 Z M 3.328125 -7.640625 "/></g></g></g><g fill="#2c3152" fill-opacity="1"><g transform="translate(248.391969, 260.256292)"><g><path d="M 11.96875 -17.625 L 11.96875 0 L 9.953125 0 L 9.953125 -1.625 C 9.703125 -1.195312 9.285156 -0.773438 8.703125 -0.359375 C 8.117188 0.0546875 7.351562 0.265625 6.40625 0.265625 C 5.363281 0.265625 4.425781 -0.00390625 3.59375 -0.546875 C 2.757812 -1.097656 2.097656 -1.882812 1.609375 -2.90625 C 1.128906 -3.925781 0.890625 -5.109375 0.890625 -6.453125 C 0.890625 -7.796875 1.113281 -8.960938 1.5625 -9.953125 C 2.007812 -10.953125 2.648438 -11.71875 3.484375 -12.25 C 4.316406 -12.78125 5.28125 -13.046875 6.375 -13.046875 C 7.175781 -13.046875 7.875 -12.859375 8.46875 -12.484375 C 9.070312 -12.109375 9.515625 -11.710938 9.796875 -11.296875 L 9.796875 -17.625 Z M 3.109375 -6.375 C 3.109375 -5.320312 3.257812 -4.429688 3.5625 -3.703125 C 3.875 -2.972656 4.296875 -2.421875 4.828125 -2.046875 C 5.367188 -1.679688 5.957031 -1.5 6.59375 -1.5 C 7.601562 -1.5 8.421875 -1.898438 9.046875 -2.703125 C 9.679688 -3.515625 10 -4.675781 10 -6.1875 C 10 -7.726562 9.691406 -8.960938 9.078125 -9.890625 C 8.472656 -10.816406 7.613281 -11.28125 6.5 -11.28125 C 5.4375 -11.28125 4.601562 -10.84375 4 -9.96875 C 3.40625 -9.101562 3.109375 -7.90625 3.109375 -6.375 Z M 3.109375 -6.375 "/></g></g></g><g fill="#2c3152" fill-opacity="1"><g transform="translate(127.947088, 289.364336)"><g><path d="M 14.53125 -15.5625 L 8.6875 -15.5625 L 8.6875 0 L 6.359375 0 L 6.359375 -15.5625 L 0.546875 -15.5625 L 0.546875 -17.625 L 14.53125 -17.625 Z M 14.53125 -15.5625 "/></g></g></g><g fill="#2c3152" fill-opacity="1"><g transform="translate(142.995914, 289.364336)"><g><path d="M 6.328125 -13.046875 C 7.066406 -13.046875 7.796875 -12.816406 8.515625 -12.359375 L 7.78125 -10.359375 C 7.257812 -10.671875 6.707031 -10.828125 6.125 -10.828125 C 5.3125 -10.828125 4.710938 -10.453125 4.328125 -9.703125 C 3.941406 -8.960938 3.75 -8.003906 3.75 -6.828125 L 3.75 0 L 1.578125 0 L 1.578125 -12.75 L 3.515625 -12.75 L 3.515625 -10.828125 C 3.929688 -11.566406 4.335938 -12.117188 4.734375 -12.484375 C 5.140625 -12.859375 5.671875 -13.046875 6.328125 -13.046875 Z M 6.328125 -13.046875 "/></g></g></g><g fill="#2c3152" fill-opacity="1"><g transform="translate(151.197653, 289.364336)"><g><path d="M 6.921875 -13.046875 C 8.148438 -13.046875 9.203125 -12.753906 10.078125 -12.171875 C 10.960938 -11.585938 11.625 -10.800781 12.0625 -9.8125 C 12.507812 -8.832031 12.734375 -7.738281 12.734375 -6.53125 L 12.734375 -5.84375 L 3.203125 -5.84375 C 3.265625 -4.476562 3.648438 -3.410156 4.359375 -2.640625 C 5.066406 -1.878906 5.96875 -1.5 7.0625 -1.5 C 7.90625 -1.5 8.597656 -1.71875 9.140625 -2.15625 C 9.691406 -2.601562 10.117188 -3.253906 10.421875 -4.109375 L 12.65625 -3.84375 C 12.3125 -2.5625 11.660156 -1.554688 10.703125 -0.828125 C 9.742188 -0.0976562 8.566406 0.265625 7.171875 0.265625 C 5.210938 0.265625 3.6875 -0.304688 2.59375 -1.453125 C 1.5 -2.597656 0.953125 -4.207031 0.953125 -6.28125 C 0.953125 -7.65625 1.195312 -8.851562 1.6875 -9.875 C 2.1875 -10.894531 2.882812 -11.675781 3.78125 -12.21875 C 4.675781 -12.769531 5.722656 -13.046875 6.921875 -13.046875 Z M 3.328125 -7.640625 L 10.4375 -7.640625 C 10.382812 -8.847656 10.007812 -9.753906 9.3125 -10.359375 C 8.625 -10.972656 7.828125 -11.28125 6.921875 -11.28125 C 5.898438 -11.28125 5.066406 -10.929688 4.421875 -10.234375 C 3.773438 -9.546875 3.410156 -8.679688 3.328125 -7.640625 Z M 3.328125 -7.640625 "/></g></g></g><g fill="#2c3152" fill-opacity="1"><g transform="translate(164.891836, 289.364336)"><g><path d="M 7 -13.046875 C 8.039062 -13.046875 8.882812 -12.941406 9.53125 -12.734375 C 10.1875 -12.535156 10.703125 -12.238281 11.078125 -11.84375 C 11.441406 -11.46875 11.6875 -11.050781 11.8125 -10.59375 C 11.945312 -10.132812 12.015625 -9.523438 12.015625 -8.765625 L 12.015625 -3.625 C 12.015625 -1.957031 12.242188 -0.75 12.703125 0 L 10.4375 0 C 10.226562 -0.445312 10.082031 -0.972656 10 -1.578125 C 9.207031 -0.921875 8.4375 -0.441406 7.6875 -0.140625 C 6.945312 0.148438 6.175781 0.296875 5.375 0.296875 C 3.988281 0.296875 2.898438 -0.0351562 2.109375 -0.703125 C 1.328125 -1.378906 0.9375 -2.269531 0.9375 -3.375 C 0.9375 -3.945312 1.066406 -4.5 1.328125 -5.03125 C 1.585938 -5.570312 1.945312 -5.988281 2.40625 -6.28125 C 2.90625 -6.601562 3.40625 -6.835938 3.90625 -6.984375 C 4.414062 -7.140625 5.039062 -7.257812 5.78125 -7.34375 C 6.570312 -7.425781 7.359375 -7.535156 8.140625 -7.671875 C 8.921875 -7.804688 9.488281 -7.953125 9.84375 -8.109375 L 9.84375 -8.640625 C 9.84375 -9.515625 9.609375 -10.171875 9.140625 -10.609375 C 8.679688 -11.054688 7.882812 -11.28125 6.75 -11.28125 C 5.675781 -11.28125 4.90625 -11.085938 4.4375 -10.703125 C 3.976562 -10.328125 3.640625 -9.707031 3.421875 -8.84375 L 1.3125 -9.109375 C 1.601562 -10.492188 2.21875 -11.492188 3.15625 -12.109375 C 4.101562 -12.734375 5.382812 -13.046875 7 -13.046875 Z M 6.75 -5.65625 C 5.90625 -5.53125 5.257812 -5.40625 4.8125 -5.28125 C 4.363281 -5.15625 3.988281 -4.945312 3.6875 -4.65625 C 3.394531 -4.375 3.25 -3.960938 3.25 -3.421875 C 3.25 -2.785156 3.484375 -2.289062 3.953125 -1.9375 C 4.421875 -1.582031 5.082031 -1.40625 5.9375 -1.40625 C 6.425781 -1.40625 6.957031 -1.503906 7.53125 -1.703125 C 8.101562 -1.910156 8.601562 -2.269531 9.03125 -2.78125 C 9.3125 -3.113281 9.515625 -3.484375 9.640625 -3.890625 C 9.773438 -4.296875 9.84375 -4.820312 9.84375 -5.46875 L 9.84375 -6.40625 C 9.1875 -6.144531 8.15625 -5.894531 6.75 -5.65625 Z M 6.75 -5.65625 "/></g></g></g><g fill="#2c3152" fill-opacity="1"><g transform="translate(178.58602, 289.364336)"><g><path d="M 4.15625 -12.75 L 6.328125 -12.75 L 6.328125 -11.125 L 4.15625 -11.125 L 4.15625 -3.21875 C 4.15625 -2.664062 4.234375 -2.273438 4.390625 -2.046875 C 4.546875 -1.816406 4.875 -1.703125 5.375 -1.703125 C 5.488281 -1.703125 5.804688 -1.742188 6.328125 -1.828125 L 6.65625 0.09375 C 5.988281 0.226562 5.453125 0.296875 5.046875 0.296875 C 4.210938 0.296875 3.570312 0.160156 3.125 -0.109375 C 2.6875 -0.378906 2.390625 -0.753906 2.234375 -1.234375 C 2.078125 -1.722656 2 -2.351562 2 -3.125 L 2 -11.125 L 0.421875 -11.125 L 0.421875 -12.75 L 2 -12.75 L 2 -15.9375 L 4.15625 -17.234375 Z M 4.15625 -12.75 "/></g></g></g><g fill="#2c3152" fill-opacity="1"><g transform="translate(185.433116, 289.364336)"><g><path d="M 7.4375 -13.046875 C 8.351562 -13.046875 9.109375 -12.851562 9.703125 -12.46875 C 10.304688 -12.082031 10.738281 -11.53125 11 -10.8125 C 11.507812 -11.53125 12.070312 -12.082031 12.6875 -12.46875 C 13.3125 -12.851562 14.066406 -13.046875 14.953125 -13.046875 C 16.234375 -13.046875 17.21875 -12.679688 17.90625 -11.953125 C 18.59375 -11.222656 18.9375 -10.1875 18.9375 -8.84375 L 18.9375 0 L 16.765625 0 L 16.765625 -8.203125 C 16.765625 -9.234375 16.582031 -9.988281 16.21875 -10.46875 C 15.863281 -10.945312 15.273438 -11.1875 14.453125 -11.1875 C 13.421875 -11.1875 12.644531 -10.835938 12.125 -10.140625 C 11.613281 -9.441406 11.359375 -8.566406 11.359375 -7.515625 L 11.359375 0 L 9.1875 0 L 9.1875 -8.390625 C 9.1875 -9.328125 9 -10.023438 8.625 -10.484375 C 8.257812 -10.953125 7.691406 -11.1875 6.921875 -11.1875 C 6.296875 -11.1875 5.707031 -11.007812 5.15625 -10.65625 C 4.601562 -10.300781 4.222656 -9.78125 4.015625 -9.09375 C 3.847656 -8.59375 3.765625 -7.84375 3.765625 -6.84375 L 3.765625 0 L 1.59375 0 L 1.59375 -12.75 L 3.546875 -12.75 L 3.546875 -10.984375 C 4.003906 -11.691406 4.566406 -12.210938 5.234375 -12.546875 C 5.910156 -12.878906 6.644531 -13.046875 7.4375 -13.046875 Z M 7.4375 -13.046875 "/></g></g></g><g fill="#2c3152" fill-opacity="1"><g transform="translate(205.949771, 289.364336)"><g><path d="M 6.921875 -13.046875 C 8.148438 -13.046875 9.203125 -12.753906 10.078125 -12.171875 C 10.960938 -11.585938 11.625 -10.800781 12.0625 -9.8125 C 12.507812 -8.832031 12.734375 -7.738281 12.734375 -6.53125 L 12.734375 -5.84375 L 3.203125 -5.84375 C 3.265625 -4.476562 3.648438 -3.410156 4.359375 -2.640625 C 5.066406 -1.878906 5.96875 -1.5 7.0625 -1.5 C 7.90625 -1.5 8.597656 -1.71875 9.140625 -2.15625 C 9.691406 -2.601562 10.117188 -3.253906 10.421875 -4.109375 L 12.65625 -3.84375 C 12.3125 -2.5625 11.660156 -1.554688 10.703125 -0.828125 C 9.742188 -0.0976562 8.566406 0.265625 7.171875 0.265625 C 5.210938 0.265625 3.6875 -0.304688 2.59375 -1.453125 C 1.5 -2.597656 0.953125 -4.207031 0.953125 -6.28125 C 0.953125 -7.65625 1.195312 -8.851562 1.6875 -9.875 C 2.1875 -10.894531 2.882812 -11.675781 3.78125 -12.21875 C 4.675781 -12.769531 5.722656 -13.046875 6.921875 -13.046875 Z M 3.328125 -7.640625 L 10.4375 -7.640625 C 10.382812 -8.847656 10.007812 -9.753906 9.3125 -10.359375 C 8.625 -10.972656 7.828125 -11.28125 6.921875 -11.28125 C 5.898438 -11.28125 5.066406 -10.929688 4.421875 -10.234375 C 3.773438 -9.546875 3.410156 -8.679688 3.328125 -7.640625 Z M 3.328125 -7.640625 "/></g></g></g><g fill="#2c3152" fill-opacity="1"><g transform="translate(219.643954, 289.364336)"><g><path d="M 7.6875 -13.046875 C 8.601562 -13.046875 9.394531 -12.863281 10.0625 -12.5 C 10.726562 -12.144531 11.21875 -11.6875 11.53125 -11.125 C 11.71875 -10.75 11.851562 -10.34375 11.9375 -9.90625 C 12.019531 -9.476562 12.0625 -8.9375 12.0625 -8.28125 L 12.0625 0 L 9.90625 0 L 9.90625 -7.875 C 9.90625 -10.082031 9.007812 -11.1875 7.21875 -11.1875 C 6.539062 -11.1875 5.914062 -11.019531 5.34375 -10.6875 C 4.78125 -10.351562 4.378906 -9.878906 4.140625 -9.265625 C 3.941406 -8.734375 3.84375 -8.023438 3.84375 -7.140625 L 3.84375 0 L 1.671875 0 L 1.671875 -12.75 L 3.625 -12.75 L 3.625 -10.953125 C 4.59375 -12.347656 5.945312 -13.046875 7.6875 -13.046875 Z M 7.6875 -13.046875 "/></g></g></g><g fill="#2c3152" fill-opacity="1"><g transform="translate(233.338138, 289.364336)"><g><path d="M 4.15625 -12.75 L 6.328125 -12.75 L 6.328125 -11.125 L 4.15625 -11.125 L 4.15625 -3.21875 C 4.15625 -2.664062 4.234375 -2.273438 4.390625 -2.046875 C 4.546875 -1.816406 4.875 -1.703125 5.375 -1.703125 C 5.488281 -1.703125 5.804688 -1.742188 6.328125 -1.828125 L 6.65625 0.09375 C 5.988281 0.226562 5.453125 0.296875 5.046875 0.296875 C 4.210938 0.296875 3.570312 0.160156 3.125 -0.109375 C 2.6875 -0.378906 2.390625 -0.753906 2.234375 -1.234375 C 2.078125 -1.722656 2 -2.351562 2 -3.125 L 2 -11.125 L 0.421875 -11.125 L 0.421875 -12.75 L 2 -12.75 L 2 -15.9375 L 4.15625 -17.234375 Z M 4.15625 -12.75 "/></g></g></g><g fill="#2c3152" fill-opacity="1"><g transform="translate(240.189736, 289.364336)"><g/></g></g><g clip-path="url(#9a2338874d)"><rect x="-37.5" fill="url(#748e1bcc3a)" width="450" y="-37.499999" height="449.999989"/></g><g fill="#2c3152" fill-opacity="1"><g transform="translate(96.176254, 180.747175)"><g><path d="M 34.15625 -41.484375 C 35.644531 -40.285156 36.757812 -38.828125 37.5 -37.109375 C 38.25 -35.390625 38.625 -33.644531 38.625 -31.875 C 38.625 -26.945312 36.867188 -23.222656 33.359375 -20.703125 C 31.003906 -18.972656 27.382812 -18.109375 22.5 -18.109375 L 10.65625 -18.109375 L 10.65625 0 L 4.78125 0 L 4.78125 -44.390625 L 22.4375 -44.390625 C 25.289062 -44.390625 27.601562 -44.179688 29.375 -43.765625 C 31.15625 -43.359375 32.75 -42.597656 34.15625 -41.484375 Z M 32.546875 -31.75 C 32.546875 -32.65625 32.328125 -33.632812 31.890625 -34.6875 C 31.460938 -35.738281 30.875 -36.597656 30.125 -37.265625 C 29.300781 -38.003906 28.351562 -38.507812 27.28125 -38.78125 C 26.207031 -39.050781 24.78125 -39.1875 23 -39.1875 L 10.65625 -39.1875 L 10.65625 -23.3125 L 22.4375 -23.3125 C 25.875 -23.3125 28.414062 -23.992188 30.0625 -25.359375 C 31.71875 -26.722656 32.546875 -28.851562 32.546875 -31.75 Z M 32.546875 -31.75 "/></g></g></g><g fill="#2c3152" fill-opacity="1"><g transform="translate(137.524991, 180.747175)"><g><path d="M 17.609375 -32.859375 C 20.253906 -32.859375 22.390625 -32.597656 24.015625 -32.078125 C 25.648438 -31.566406 26.945312 -30.816406 27.90625 -29.828125 C 28.8125 -28.867188 29.425781 -27.8125 29.75 -26.65625 C 30.082031 -25.5 30.25 -23.972656 30.25 -22.078125 L 30.25 -9.109375 C 30.25 -4.941406 30.828125 -1.90625 31.984375 0 L 26.28125 0 C 25.75 -1.113281 25.378906 -2.4375 25.171875 -3.96875 C 23.191406 -2.3125 21.257812 -1.109375 19.375 -0.359375 C 17.488281 0.378906 15.535156 0.75 13.515625 0.75 C 10.046875 0.75 7.316406 -0.0976562 5.328125 -1.796875 C 3.347656 -3.492188 2.359375 -5.726562 2.359375 -8.5 C 2.359375 -9.9375 2.6875 -11.328125 3.34375 -12.671875 C 4.007812 -14.015625 4.921875 -15.0625 6.078125 -15.8125 C 7.316406 -16.632812 8.578125 -17.234375 9.859375 -17.609375 C 11.140625 -17.984375 12.707031 -18.269531 14.5625 -18.46875 C 16.550781 -18.675781 18.523438 -18.957031 20.484375 -19.3125 C 22.453125 -19.664062 23.890625 -20.023438 24.796875 -20.390625 L 24.796875 -21.765625 C 24.796875 -23.953125 24.207031 -25.601562 23.03125 -26.71875 C 21.851562 -27.832031 19.835938 -28.390625 16.984375 -28.390625 C 14.296875 -28.390625 12.363281 -27.914062 11.1875 -26.96875 C 10.007812 -26.019531 9.15625 -24.453125 8.625 -22.265625 L 3.28125 -22.9375 C 4.03125 -26.40625 5.59375 -28.925781 7.96875 -30.5 C 10.34375 -32.070312 13.554688 -32.859375 17.609375 -32.859375 Z M 16.984375 -14.265625 C 14.878906 -13.929688 13.257812 -13.609375 12.125 -13.296875 C 10.988281 -12.984375 10.046875 -12.460938 9.296875 -11.734375 C 8.554688 -11.015625 8.1875 -9.976562 8.1875 -8.625 C 8.1875 -7.007812 8.773438 -5.753906 9.953125 -4.859375 C 11.128906 -3.972656 12.789062 -3.53125 14.9375 -3.53125 C 16.175781 -3.53125 17.519531 -3.785156 18.96875 -4.296875 C 20.414062 -4.816406 21.675781 -5.71875 22.75 -7 C 23.457031 -7.832031 23.972656 -8.765625 24.296875 -9.796875 C 24.628906 -10.828125 24.796875 -12.148438 24.796875 -13.765625 L 24.796875 -16.125 C 23.140625 -15.457031 20.535156 -14.835938 16.984375 -14.265625 Z M 16.984375 -14.265625 "/></g></g></g><g fill="#2c3152" fill-opacity="1"><g transform="translate(171.992602, 180.747175)"><g><path d="M 15.9375 -32.859375 C 17.789062 -32.859375 19.628906 -32.28125 21.453125 -31.125 L 19.59375 -26.109375 C 18.269531 -26.890625 16.882812 -27.28125 15.4375 -27.28125 C 13.375 -27.28125 11.851562 -26.335938 10.875 -24.453125 C 9.90625 -22.578125 9.421875 -20.148438 9.421875 -17.171875 L 9.421875 0 L 3.96875 0 L 3.96875 -32.109375 L 8.859375 -32.109375 L 8.859375 -27.28125 C 9.898438 -29.132812 10.925781 -30.523438 11.9375 -31.453125 C 12.945312 -32.390625 14.28125 -32.859375 15.9375 -32.859375 Z M 15.9375 -32.859375 "/></g></g></g><g fill="#2c3152" fill-opacity="1"><g transform="translate(192.635968, 180.747175)"><g><path d="M 17.421875 -32.859375 C 20.523438 -32.859375 23.179688 -32.125 25.390625 -30.65625 C 27.597656 -29.1875 29.257812 -27.210938 30.375 -24.734375 C 31.488281 -22.253906 32.046875 -19.488281 32.046875 -16.4375 L 32.046875 -14.6875 L 8.0625 -14.6875 C 8.226562 -11.257812 9.195312 -8.582031 10.96875 -6.65625 C 12.75 -4.738281 15.023438 -3.78125 17.796875 -3.78125 C 19.898438 -3.78125 21.644531 -4.335938 23.03125 -5.453125 C 24.414062 -6.566406 25.476562 -8.203125 26.21875 -10.359375 L 31.875 -9.671875 C 31 -6.453125 29.351562 -3.921875 26.9375 -2.078125 C 24.519531 -0.234375 21.554688 0.6875 18.046875 0.6875 C 13.117188 0.6875 9.28125 -0.757812 6.53125 -3.65625 C 3.789062 -6.550781 2.421875 -10.601562 2.421875 -15.8125 C 2.421875 -19.28125 3.039062 -22.296875 4.28125 -24.859375 C 5.519531 -27.421875 7.265625 -29.394531 9.515625 -30.78125 C 11.765625 -32.164062 14.398438 -32.859375 17.421875 -32.859375 Z M 8.375 -19.21875 L 26.28125 -19.21875 C 26.164062 -22.28125 25.226562 -24.570312 23.46875 -26.09375 C 21.707031 -27.625 19.691406 -28.390625 17.421875 -28.390625 C 14.859375 -28.390625 12.757812 -27.519531 11.125 -25.78125 C 9.5 -24.050781 8.582031 -21.863281 8.375 -19.21875 Z M 8.375 -19.21875 "/></g></g></g><g fill="#2c3152" fill-opacity="1"><g transform="translate(227.103579, 180.747175)"><g><path d="M 19.34375 -32.859375 C 21.65625 -32.859375 23.648438 -32.398438 25.328125 -31.484375 C 27.003906 -30.578125 28.234375 -29.425781 29.015625 -28.03125 C 29.515625 -27.070312 29.863281 -26.046875 30.0625 -24.953125 C 30.269531 -23.859375 30.375 -22.484375 30.375 -20.828125 L 30.375 0 L 24.921875 0 L 24.921875 -19.84375 C 24.921875 -25.375 22.671875 -28.140625 18.171875 -28.140625 C 16.472656 -28.140625 14.910156 -27.726562 13.484375 -26.90625 C 12.054688 -26.082031 11.035156 -24.882812 10.421875 -23.3125 C 9.921875 -21.988281 9.671875 -20.210938 9.671875 -17.984375 L 9.671875 0 L 4.21875 0 L 4.21875 -32.109375 L 9.109375 -32.109375 L 9.109375 -27.59375 C 11.546875 -31.101562 14.957031 -32.859375 19.34375 -32.859375 Z M 19.34375 -32.859375 "/></g></g></g><g fill="#2c3152" fill-opacity="1"><g transform="translate(261.571191, 180.747175)"><g><path d="M 10.484375 -32.109375 L 15.9375 -32.109375 L 15.9375 -28.03125 L 10.484375 -28.03125 L 10.484375 -8.125 C 10.484375 -6.71875 10.675781 -5.722656 11.0625 -5.140625 C 11.457031 -4.566406 12.273438 -4.28125 13.515625 -4.28125 C 13.804688 -4.28125 14.613281 -4.382812 15.9375 -4.59375 L 16.734375 0.25 C 15.085938 0.582031 13.742188 0.75 12.703125 0.75 C 10.597656 0.75 8.988281 0.410156 7.875 -0.265625 C 6.757812 -0.953125 6.003906 -1.90625 5.609375 -3.125 C 5.210938 -4.34375 5.015625 -5.925781 5.015625 -7.875 L 5.015625 -28.03125 L 1.046875 -28.03125 L 1.046875 -32.109375 L 5.015625 -32.109375 L 5.015625 -40.109375 L 10.484375 -43.40625 Z M 10.484375 -32.109375 "/></g></g></g><g fill="#2c3152" fill-opacity="1"><g transform="translate(93.948638, 240.634436)"><g><path d="M 8.296875 -16.015625 C 9.859375 -16.015625 11.226562 -15.675781 12.40625 -15 C 13.59375 -14.320312 14.503906 -13.367188 15.140625 -12.140625 C 15.785156 -10.910156 16.109375 -9.484375 16.109375 -7.859375 C 16.109375 -6.242188 15.78125 -4.816406 15.125 -3.578125 C 14.46875 -2.347656 13.578125 -1.398438 12.453125 -0.734375 C 11.328125 -0.0664062 10.066406 0.265625 8.671875 0.265625 C 7.140625 0.265625 5.796875 -0.0820312 4.640625 -0.78125 C 3.492188 -1.488281 2.601562 -2.445312 1.96875 -3.65625 C 1.34375 -4.875 1.03125 -6.210938 1.03125 -7.671875 C 1.03125 -9.347656 1.34375 -10.816406 1.96875 -12.078125 C 2.601562 -13.335938 3.46875 -14.304688 4.5625 -14.984375 C 5.664062 -15.671875 6.910156 -16.015625 8.296875 -16.015625 Z M 3.1875 -7.640625 C 3.1875 -6.421875 3.410156 -5.347656 3.859375 -4.421875 C 4.316406 -3.492188 4.953125 -2.773438 5.765625 -2.265625 C 6.585938 -1.765625 7.519531 -1.515625 8.5625 -1.515625 C 9.625 -1.515625 10.5625 -1.765625 11.375 -2.265625 C 12.195312 -2.773438 12.832031 -3.503906 13.28125 -4.453125 C 13.726562 -5.410156 13.953125 -6.546875 13.953125 -7.859375 C 13.953125 -9.148438 13.726562 -10.273438 13.28125 -11.234375 C 12.832031 -12.203125 12.203125 -12.941406 11.390625 -13.453125 C 10.585938 -13.972656 9.671875 -14.234375 8.640625 -14.234375 C 6.910156 -14.234375 5.566406 -13.65625 4.609375 -12.5 C 3.660156 -11.34375 3.1875 -9.722656 3.1875 -7.640625 Z M 3.1875 -7.640625 "/></g></g></g><g fill="#2c3152" fill-opacity="1"><g transform="translate(111.061583, 240.634436)"><g><path d="M 5.078125 -16.015625 C 5.578125 -16.015625 6.164062 -15.945312 6.84375 -15.8125 L 6.5625 -14.125 C 6.164062 -14.195312 5.78125 -14.234375 5.40625 -14.234375 C 4.832031 -14.234375 4.425781 -14.109375 4.1875 -13.859375 C 3.945312 -13.609375 3.828125 -13.175781 3.828125 -12.5625 L 3.828125 -11.390625 L 6.03125 -11.390625 L 6.03125 -9.9375 L 3.828125 -9.9375 L 3.828125 0 L 1.890625 0 L 1.890625 -9.9375 L 0.171875 -9.9375 L 0.171875 -11.390625 L 1.890625 -11.390625 L 1.890625 -12.734375 C 1.890625 -13.910156 2.148438 -14.75 2.671875 -15.25 C 3.203125 -15.757812 4.003906 -16.015625 5.078125 -16.015625 Z M 5.078125 -16.015625 "/></g></g></g><g fill="#2c3152" fill-opacity="1"><g transform="translate(117.176493, 240.634436)"><g/></g></g><g fill="#2c3152" fill-opacity="1"><g transform="translate(123.291402, 240.634436)"><g><path d="M 6.25 -11.65625 C 7.1875 -11.65625 7.941406 -11.5625 8.515625 -11.375 C 9.097656 -11.195312 9.5625 -10.929688 9.90625 -10.578125 C 10.226562 -10.242188 10.445312 -9.867188 10.5625 -9.453125 C 10.675781 -9.046875 10.734375 -8.503906 10.734375 -7.828125 L 10.734375 -3.234375 C 10.734375 -1.753906 10.941406 -0.675781 11.359375 0 L 9.328125 0 C 9.140625 -0.394531 9.007812 -0.863281 8.9375 -1.40625 C 8.226562 -0.820312 7.539062 -0.394531 6.875 -0.125 C 6.207031 0.132812 5.515625 0.265625 4.796875 0.265625 C 3.566406 0.265625 2.597656 -0.0351562 1.890625 -0.640625 C 1.191406 -1.242188 0.84375 -2.035156 0.84375 -3.015625 C 0.84375 -3.523438 0.957031 -4.019531 1.1875 -4.5 C 1.425781 -4.976562 1.75 -5.347656 2.15625 -5.609375 C 2.59375 -5.898438 3.039062 -6.113281 3.5 -6.25 C 3.957031 -6.382812 4.515625 -6.488281 5.171875 -6.5625 C 5.867188 -6.632812 6.566406 -6.734375 7.265625 -6.859375 C 7.960938 -6.984375 8.472656 -7.109375 8.796875 -7.234375 L 8.796875 -7.71875 C 8.796875 -8.5 8.585938 -9.085938 8.171875 -9.484375 C 7.753906 -9.878906 7.039062 -10.078125 6.03125 -10.078125 C 5.070312 -10.078125 4.382812 -9.90625 3.96875 -9.5625 C 3.550781 -9.226562 3.25 -8.671875 3.0625 -7.890625 L 1.171875 -8.140625 C 1.429688 -9.367188 1.984375 -10.257812 2.828125 -10.8125 C 3.671875 -11.375 4.8125 -11.65625 6.25 -11.65625 Z M 6.03125 -5.0625 C 5.28125 -4.945312 4.703125 -4.832031 4.296875 -4.71875 C 3.898438 -4.601562 3.566406 -4.414062 3.296875 -4.15625 C 3.035156 -3.90625 2.90625 -3.539062 2.90625 -3.0625 C 2.90625 -2.488281 3.113281 -2.039062 3.53125 -1.71875 C 3.945312 -1.40625 4.535156 -1.25 5.296875 -1.25 C 5.742188 -1.25 6.222656 -1.335938 6.734375 -1.515625 C 7.242188 -1.703125 7.691406 -2.023438 8.078125 -2.484375 C 8.328125 -2.773438 8.507812 -3.101562 8.625 -3.46875 C 8.738281 -3.84375 8.796875 -4.316406 8.796875 -4.890625 L 8.796875 -5.71875 C 8.210938 -5.488281 7.289062 -5.269531 6.03125 -5.0625 Z M 6.03125 -5.0625 "/></g></g></g><g fill="#2c3152" fill-opacity="1"><g transform="translate(135.521222, 240.634436)"><g/></g></g><g fill="#2c3152" fill-opacity="1"><g transform="translate(141.636132, 240.634436)"><g><path d="M 4.84375 -4.734375 C 5.164062 -3.796875 5.425781 -2.9375 5.625 -2.15625 C 5.851562 -3.019531 6.101562 -3.832031 6.375 -4.59375 L 8.859375 -11.390625 L 10.796875 -11.390625 L 6.46875 0.203125 C 6.0625 1.296875 5.707031 2.132812 5.40625 2.71875 C 5.113281 3.300781 4.75 3.765625 4.3125 4.109375 C 3.875 4.453125 3.3125 4.625 2.625 4.625 C 2.164062 4.625 1.742188 4.550781 1.359375 4.40625 L 1.140625 2.578125 C 1.609375 2.691406 1.988281 2.75 2.28125 2.75 C 2.738281 2.75 3.097656 2.664062 3.359375 2.5 C 3.628906 2.34375 3.828125 2.128906 3.953125 1.859375 C 4.085938 1.597656 4.257812 1.179688 4.46875 0.609375 L 4.6875 0.015625 L 0.359375 -11.390625 L 2.4375 -11.390625 Z M 4.84375 -4.734375 "/></g></g></g><g fill="#2c3152" fill-opacity="1"><g transform="translate(152.634166, 240.634436)"><g><path d="M 6.109375 -11.65625 C 6.972656 -11.65625 7.8125 -11.460938 8.625 -11.078125 C 9.445312 -10.703125 10.125 -10.070312 10.65625 -9.1875 C 11.195312 -8.300781 11.46875 -7.140625 11.46875 -5.703125 C 11.46875 -4.421875 11.238281 -3.335938 10.78125 -2.453125 C 10.320312 -1.566406 9.6875 -0.894531 8.875 -0.4375 C 8.070312 0.0078125 7.148438 0.234375 6.109375 0.234375 C 4.585938 0.234375 3.34375 -0.238281 2.375 -1.1875 C 1.300781 -2.226562 0.765625 -3.734375 0.765625 -5.703125 C 0.765625 -6.972656 0.992188 -8.054688 1.453125 -8.953125 C 1.910156 -9.847656 2.539062 -10.519531 3.34375 -10.96875 C 4.144531 -11.425781 5.066406 -11.65625 6.109375 -11.65625 Z M 2.75 -5.703125 C 2.75 -4.316406 3.050781 -3.242188 3.65625 -2.484375 C 4.269531 -1.722656 5.085938 -1.34375 6.109375 -1.34375 C 7.128906 -1.34375 7.945312 -1.71875 8.5625 -2.46875 C 9.175781 -3.226562 9.484375 -4.304688 9.484375 -5.703125 C 9.484375 -7.046875 9.179688 -8.109375 8.578125 -8.890625 C 7.972656 -9.679688 7.144531 -10.078125 6.09375 -10.078125 C 5.09375 -10.078125 4.285156 -9.691406 3.671875 -8.921875 C 3.054688 -8.148438 2.75 -7.078125 2.75 -5.703125 Z M 2.75 -5.703125 "/></g></g></g><g fill="#2c3152" fill-opacity="1"><g transform="translate(164.863986, 240.634436)"><g><path d="M 3.390625 -4.09375 C 3.390625 -3.207031 3.597656 -2.535156 4.015625 -2.078125 C 4.429688 -1.628906 5.046875 -1.40625 5.859375 -1.40625 C 6.398438 -1.40625 6.921875 -1.5625 7.421875 -1.875 C 7.929688 -2.195312 8.296875 -2.644531 8.515625 -3.21875 C 8.691406 -3.632812 8.78125 -4.273438 8.78125 -5.140625 L 8.78125 -11.390625 L 10.71875 -11.390625 L 10.71875 0 L 8.96875 0 L 8.96875 -1.671875 C 8.0625 -0.378906 6.851562 0.265625 5.34375 0.265625 C 4.726562 0.265625 4.101562 0.140625 3.46875 -0.109375 C 2.84375 -0.367188 2.351562 -0.785156 2 -1.359375 C 1.789062 -1.703125 1.644531 -2.078125 1.5625 -2.484375 C 1.488281 -2.898438 1.453125 -3.398438 1.453125 -3.984375 L 1.453125 -11.390625 L 3.390625 -11.390625 Z M 3.390625 -4.09375 "/></g></g></g><g fill="#2c3152" fill-opacity="1"><g transform="translate(177.093805, 240.634436)"><g><path d="M 6.859375 -11.65625 C 7.679688 -11.65625 8.390625 -11.492188 8.984375 -11.171875 C 9.578125 -10.847656 10.015625 -10.4375 10.296875 -9.9375 C 10.472656 -9.601562 10.597656 -9.238281 10.671875 -8.84375 C 10.742188 -8.457031 10.78125 -7.972656 10.78125 -7.390625 L 10.78125 0 L 8.84375 0 L 8.84375 -7.046875 C 8.84375 -9.003906 8.046875 -9.984375 6.453125 -9.984375 C 5.847656 -9.984375 5.289062 -9.835938 4.78125 -9.546875 C 4.28125 -9.253906 3.921875 -8.828125 3.703125 -8.265625 C 3.523438 -7.796875 3.4375 -7.164062 3.4375 -6.375 L 3.4375 0 L 1.5 0 L 1.5 -11.390625 L 3.234375 -11.390625 L 3.234375 -9.796875 C 4.097656 -11.035156 5.304688 -11.65625 6.859375 -11.65625 Z M 6.859375 -11.65625 "/></g></g></g><g fill="#2c3152" fill-opacity="1"><g transform="translate(189.323625, 240.634436)"><g><path d="M 5.71875 -11.65625 C 7.039062 -11.65625 8.140625 -11.113281 9.015625 -10.03125 L 9.015625 -11.390625 L 10.796875 -11.390625 L 10.796875 -1.359375 C 10.796875 0.304688 10.582031 1.546875 10.15625 2.359375 C 9.789062 3.046875 9.238281 3.59375 8.5 4 C 7.757812 4.414062 6.8125 4.625 5.65625 4.625 C 4.6875 4.625 3.859375 4.46875 3.171875 4.15625 C 2.492188 3.851562 1.984375 3.445312 1.640625 2.9375 C 1.296875 2.425781 1.125 1.875 1.125 1.28125 L 1.140625 0.953125 L 3.015625 1.234375 L 3.015625 1.28125 C 3.117188 1.875 3.382812 2.3125 3.8125 2.59375 C 4.25 2.882812 4.890625 3.03125 5.734375 3.03125 C 6.304688 3.03125 6.804688 2.9375 7.234375 2.75 C 7.671875 2.5625 8.015625 2.296875 8.265625 1.953125 C 8.492188 1.648438 8.644531 1.285156 8.71875 0.859375 C 8.800781 0.441406 8.84375 -0.0625 8.84375 -0.65625 L 8.84375 -1.5 C 7.976562 -0.5 6.9375 0 5.71875 0 C 4.738281 0 3.875 -0.242188 3.125 -0.734375 C 2.375 -1.222656 1.789062 -1.90625 1.375 -2.78125 C 0.957031 -3.664062 0.75 -4.664062 0.75 -5.78125 C 0.75 -6.957031 0.953125 -7.988281 1.359375 -8.875 C 1.773438 -9.757812 2.359375 -10.441406 3.109375 -10.921875 C 3.867188 -11.410156 4.738281 -11.65625 5.71875 -11.65625 Z M 2.734375 -5.921875 C 2.734375 -4.515625 3.015625 -3.4375 3.578125 -2.6875 C 4.148438 -1.945312 4.929688 -1.578125 5.921875 -1.578125 C 6.328125 -1.578125 6.796875 -1.710938 7.328125 -1.984375 C 7.867188 -2.253906 8.300781 -2.757812 8.625 -3.5 C 8.875 -4.082031 9 -4.84375 9 -5.78125 C 9 -7.144531 8.703125 -8.203125 8.109375 -8.953125 C 7.523438 -9.703125 6.757812 -10.078125 5.8125 -10.078125 C 4.914062 -10.078125 4.175781 -9.707031 3.59375 -8.96875 C 3.019531 -8.226562 2.734375 -7.210938 2.734375 -5.921875 Z M 2.734375 -5.921875 "/></g></g></g><g fill="#2c3152" fill-opacity="1"><g transform="translate(201.553444, 240.634436)"><g/></g></g><g fill="#2c3152" fill-opacity="1"><g transform="translate(207.668354, 240.634436)"><g><path d="M 6.53125 -11.65625 C 7.5 -11.65625 8.347656 -11.410156 9.078125 -10.921875 C 9.816406 -10.441406 10.382812 -9.765625 10.78125 -8.890625 C 11.1875 -8.023438 11.390625 -7.019531 11.390625 -5.875 C 11.390625 -4.625 11.171875 -3.535156 10.734375 -2.609375 C 10.296875 -1.691406 9.695312 -0.988281 8.9375 -0.5 C 8.1875 -0.0078125 7.347656 0.234375 6.421875 0.234375 C 5.816406 0.234375 5.257812 0.109375 4.75 -0.140625 C 4.238281 -0.398438 3.800781 -0.75 3.4375 -1.1875 L 3.4375 4.375 L 1.5 4.375 L 1.5 -11.390625 L 3.25 -11.390625 L 3.25 -9.921875 C 3.675781 -10.503906 4.140625 -10.9375 4.640625 -11.21875 C 5.148438 -11.507812 5.78125 -11.65625 6.53125 -11.65625 Z M 3.234375 -5.625 C 3.234375 -4.25 3.507812 -3.191406 4.0625 -2.453125 C 4.625 -1.710938 5.367188 -1.34375 6.296875 -1.34375 C 7.203125 -1.34375 7.945312 -1.722656 8.53125 -2.484375 C 9.125 -3.242188 9.421875 -4.34375 9.421875 -5.78125 C 9.421875 -7.132812 9.140625 -8.195312 8.578125 -8.96875 C 8.023438 -9.75 7.285156 -10.140625 6.359375 -10.140625 C 5.753906 -10.140625 5.21875 -9.953125 4.75 -9.578125 C 4.28125 -9.203125 3.910156 -8.671875 3.640625 -7.984375 C 3.367188 -7.296875 3.234375 -6.507812 3.234375 -5.625 Z M 3.234375 -5.625 "/></g></g></g><g fill="#2c3152" fill-opacity="1"><g transform="translate(219.898173, 240.634436)"><g><path d="M 6.1875 -11.65625 C 7.28125 -11.65625 8.21875 -11.394531 9 -10.875 C 9.789062 -10.351562 10.382812 -9.648438 10.78125 -8.765625 C 11.175781 -7.890625 11.375 -6.910156 11.375 -5.828125 L 11.375 -5.21875 L 2.859375 -5.21875 C 2.921875 -4 3.265625 -3.046875 3.890625 -2.359375 C 4.523438 -1.679688 5.332031 -1.34375 6.3125 -1.34375 C 7.0625 -1.34375 7.679688 -1.539062 8.171875 -1.9375 C 8.660156 -2.332031 9.039062 -2.910156 9.3125 -3.671875 L 11.3125 -3.4375 C 11 -2.289062 10.410156 -1.390625 9.546875 -0.734375 C 8.691406 -0.0859375 7.644531 0.234375 6.40625 0.234375 C 4.65625 0.234375 3.289062 -0.273438 2.3125 -1.296875 C 1.34375 -2.328125 0.859375 -3.765625 0.859375 -5.609375 C 0.859375 -6.835938 1.078125 -7.90625 1.515625 -8.8125 C 1.953125 -9.726562 2.570312 -10.429688 3.375 -10.921875 C 4.175781 -11.410156 5.113281 -11.65625 6.1875 -11.65625 Z M 2.96875 -6.8125 L 9.328125 -6.8125 C 9.285156 -7.90625 8.953125 -8.722656 8.328125 -9.265625 C 7.703125 -9.804688 6.988281 -10.078125 6.1875 -10.078125 C 5.269531 -10.078125 4.519531 -9.769531 3.9375 -9.15625 C 3.363281 -8.539062 3.039062 -7.757812 2.96875 -6.8125 Z M 2.96875 -6.8125 "/></g></g></g><g fill="#2c3152" fill-opacity="1"><g transform="translate(232.127993, 240.634436)"><g><path d="M 5.65625 -11.65625 C 6.3125 -11.65625 6.960938 -11.453125 7.609375 -11.046875 L 6.953125 -9.265625 C 6.484375 -9.546875 5.992188 -9.6875 5.484375 -9.6875 C 4.742188 -9.6875 4.203125 -9.347656 3.859375 -8.671875 C 3.515625 -8.003906 3.34375 -7.144531 3.34375 -6.09375 L 3.34375 0 L 1.40625 0 L 1.40625 -11.390625 L 3.140625 -11.390625 L 3.140625 -9.6875 C 3.515625 -10.34375 3.878906 -10.832031 4.234375 -11.15625 C 4.597656 -11.488281 5.070312 -11.65625 5.65625 -11.65625 Z M 5.65625 -11.65625 "/></g></g></g><g fill="#2c3152" fill-opacity="1"><g transform="translate(239.452692, 240.634436)"><g><path d="M 5.234375 -11.65625 C 6.523438 -11.65625 7.566406 -11.382812 8.359375 -10.84375 C 9.148438 -10.3125 9.601562 -9.519531 9.71875 -8.46875 L 7.828125 -8.203125 C 7.742188 -8.773438 7.503906 -9.226562 7.109375 -9.5625 C 6.710938 -9.90625 6.125 -10.078125 5.34375 -10.078125 C 4.570312 -10.078125 3.96875 -9.941406 3.53125 -9.671875 C 3.09375 -9.410156 2.875 -9.046875 2.875 -8.578125 C 2.875 -8.253906 3.003906 -7.984375 3.265625 -7.765625 C 3.523438 -7.554688 3.828125 -7.394531 4.171875 -7.28125 C 4.523438 -7.175781 5.0625 -7.035156 5.78125 -6.859375 C 6.707031 -6.640625 7.457031 -6.421875 8.03125 -6.203125 C 8.613281 -5.984375 9.113281 -5.644531 9.53125 -5.1875 C 9.945312 -4.738281 10.15625 -4.128906 10.15625 -3.359375 C 10.15625 -2.703125 9.972656 -2.097656 9.609375 -1.546875 C 9.242188 -0.992188 8.71875 -0.554688 8.03125 -0.234375 C 7.351562 0.078125 6.578125 0.234375 5.703125 0.234375 C 4.171875 0.234375 3 -0.0625 2.1875 -0.65625 C 1.382812 -1.257812 0.882812 -2.175781 0.6875 -3.40625 L 2.59375 -3.703125 C 2.695312 -2.921875 3.007812 -2.332031 3.53125 -1.9375 C 4.050781 -1.539062 4.722656 -1.34375 5.546875 -1.34375 C 6.378906 -1.34375 7.023438 -1.515625 7.484375 -1.859375 C 7.953125 -2.203125 8.1875 -2.628906 8.1875 -3.140625 C 8.1875 -3.628906 7.953125 -3.988281 7.484375 -4.21875 C 7.023438 -4.457031 6.320312 -4.6875 5.375 -4.90625 C 4.425781 -5.125 3.671875 -5.335938 3.109375 -5.546875 C 2.546875 -5.765625 2.054688 -6.097656 1.640625 -6.546875 C 1.222656 -7.003906 1.015625 -7.613281 1.015625 -8.375 C 1.015625 -9 1.175781 -9.554688 1.5 -10.046875 C 1.832031 -10.546875 2.316406 -10.9375 2.953125 -11.21875 C 3.597656 -11.507812 4.359375 -11.65625 5.234375 -11.65625 Z M 5.234375 -11.65625 "/></g></g></g><g fill="#2c3152" fill-opacity="1"><g transform="translate(250.450726, 240.634436)"><g><path d="M 6.109375 -11.65625 C 6.972656 -11.65625 7.8125 -11.460938 8.625 -11.078125 C 9.445312 -10.703125 10.125 -10.070312 10.65625 -9.1875 C 11.195312 -8.300781 11.46875 -7.140625 11.46875 -5.703125 C 11.46875 -4.421875 11.238281 -3.335938 10.78125 -2.453125 C 10.320312 -1.566406 9.6875 -0.894531 8.875 -0.4375 C 8.070312 0.0078125 7.148438 0.234375 6.109375 0.234375 C 4.585938 0.234375 3.34375 -0.238281 2.375 -1.1875 C 1.300781 -2.226562 0.765625 -3.734375 0.765625 -5.703125 C 0.765625 -6.972656 0.992188 -8.054688 1.453125 -8.953125 C 1.910156 -9.847656 2.539062 -10.519531 3.34375 -10.96875 C 4.144531 -11.425781 5.066406 -11.65625 6.109375 -11.65625 Z M 2.75 -5.703125 C 2.75 -4.316406 3.050781 -3.242188 3.65625 -2.484375 C 4.269531 -1.722656 5.085938 -1.34375 6.109375 -1.34375 C 7.128906 -1.34375 7.945312 -1.71875 8.5625 -2.46875 C 9.175781 -3.226562 9.484375 -4.304688 9.484375 -5.703125 C 9.484375 -7.046875 9.179688 -8.109375 8.578125 -8.890625 C 7.972656 -9.679688 7.144531 -10.078125 6.09375 -10.078125 C 5.09375 -10.078125 4.285156 -9.691406 3.671875 -8.921875 C 3.054688 -8.148438 2.75 -7.078125 2.75 -5.703125 Z M 2.75 -5.703125 "/></g></g></g><g fill="#2c3152" fill-opacity="1"><g transform="translate(262.680546, 240.634436)"><g><path d="M 6.859375 -11.65625 C 7.679688 -11.65625 8.390625 -11.492188 8.984375 -11.171875 C 9.578125 -10.847656 10.015625 -10.4375 10.296875 -9.9375 C 10.472656 -9.601562 10.597656 -9.238281 10.671875 -8.84375 C 10.742188 -8.457031 10.78125 -7.972656 10.78125 -7.390625 L 10.78125 0 L 8.84375 0 L 8.84375 -7.046875 C 8.84375 -9.003906 8.046875 -9.984375 6.453125 -9.984375 C 5.847656 -9.984375 5.289062 -9.835938 4.78125 -9.546875 C 4.28125 -9.253906 3.921875 -8.828125 3.703125 -8.265625 C 3.523438 -7.796875 3.4375 -7.164062 3.4375 -6.375 L 3.4375 0 L 1.5 0 L 1.5 -11.390625 L 3.234375 -11.390625 L 3.234375 -9.796875 C 4.097656 -11.035156 5.304688 -11.65625 6.859375 -11.65625 Z M 6.859375 -11.65625 "/></g></g></g><g fill="#2c3152" fill-opacity="1"><g transform="translate(274.921283, 240.634436)"><g/></g></g><g fill="#2c3152" fill-opacity="1"><g transform="translate(80.530671, 266.884434)"><g><path d="M 2.109375 -11.390625 L 4.15625 -3.9375 L 4.59375 -2.375 C 4.65625 -2.632812 4.707031 -2.828125 4.75 -2.953125 C 4.925781 -3.691406 5.109375 -4.421875 5.296875 -5.140625 L 7 -11.390625 L 9 -11.390625 L 10.640625 -4.96875 L 11.265625 -2.625 L 11.796875 -4.40625 L 13.875 -11.390625 L 15.78125 -11.390625 L 12.1875 0 L 10.1875 0 L 8.34375 -6.90625 C 8.25 -7.238281 8.109375 -7.863281 7.921875 -8.78125 L 5.625 0 L 3.609375 0 L 0.109375 -11.390625 Z M 2.109375 -11.390625 "/></g></g></g><g fill="#2c3152" fill-opacity="1"><g transform="translate(96.411841, 266.884434)"><g><path d="M 3.40625 -13.546875 L 1.46875 -13.546875 L 1.46875 -15.75 L 3.40625 -15.75 Z M 3.40625 0 L 1.46875 0 L 1.46875 -11.390625 L 3.40625 -11.390625 Z M 3.40625 0 "/></g></g></g><g fill="#2c3152" fill-opacity="1"><g transform="translate(101.294966, 266.884434)"><g><path d="M 3.71875 -11.390625 L 5.65625 -11.390625 L 5.65625 -9.9375 L 3.71875 -9.9375 L 3.71875 -2.875 C 3.71875 -2.382812 3.785156 -2.035156 3.921875 -1.828125 C 4.066406 -1.617188 4.359375 -1.515625 4.796875 -1.515625 C 4.898438 -1.515625 5.1875 -1.550781 5.65625 -1.625 L 5.9375 0.09375 C 5.351562 0.207031 4.878906 0.265625 4.515625 0.265625 C 3.765625 0.265625 3.191406 0.144531 2.796875 -0.09375 C 2.398438 -0.34375 2.128906 -0.679688 1.984375 -1.109375 C 1.847656 -1.546875 1.78125 -2.109375 1.78125 -2.796875 L 1.78125 -9.9375 L 0.375 -9.9375 L 0.375 -11.390625 L 1.78125 -11.390625 L 1.78125 -14.234375 L 3.71875 -15.40625 Z M 3.71875 -11.390625 "/></g></g></g><g fill="#2c3152" fill-opacity="1"><g transform="translate(107.409876, 266.884434)"><g><path d="M 3.40625 -10.09375 C 3.84375 -10.613281 4.335938 -11.003906 4.890625 -11.265625 C 5.453125 -11.523438 6.101562 -11.65625 6.84375 -11.65625 C 7.457031 -11.65625 8.015625 -11.5625 8.515625 -11.375 C 9.015625 -11.1875 9.429688 -10.929688 9.765625 -10.609375 C 10.117188 -10.265625 10.375 -9.835938 10.53125 -9.328125 C 10.695312 -8.816406 10.78125 -8.15625 10.78125 -7.34375 L 10.78125 0 L 8.84375 0 L 8.84375 -7.296875 C 8.84375 -8.171875 8.632812 -8.835938 8.21875 -9.296875 C 7.8125 -9.753906 7.207031 -9.984375 6.40625 -9.984375 C 5.8125 -9.984375 5.25 -9.816406 4.71875 -9.484375 C 4.195312 -9.160156 3.832031 -8.707031 3.625 -8.125 C 3.476562 -7.675781 3.40625 -7.109375 3.40625 -6.421875 L 3.40625 0 L 1.46875 0 L 1.46875 -15.75 L 3.40625 -15.75 Z M 3.40625 -10.09375 "/></g></g></g><g fill="#2c3152" fill-opacity="1"><g transform="translate(119.639696, 266.884434)"><g/></g></g><g fill="#2c3152" fill-opacity="1"><g transform="translate(125.754605, 266.884434)"><g><path d="M 6.25 -11.65625 C 7.1875 -11.65625 7.941406 -11.5625 8.515625 -11.375 C 9.097656 -11.195312 9.5625 -10.929688 9.90625 -10.578125 C 10.226562 -10.242188 10.445312 -9.867188 10.5625 -9.453125 C 10.675781 -9.046875 10.734375 -8.503906 10.734375 -7.828125 L 10.734375 -3.234375 C 10.734375 -1.753906 10.941406 -0.675781 11.359375 0 L 9.328125 0 C 9.140625 -0.394531 9.007812 -0.863281 8.9375 -1.40625 C 8.226562 -0.820312 7.539062 -0.394531 6.875 -0.125 C 6.207031 0.132812 5.515625 0.265625 4.796875 0.265625 C 3.566406 0.265625 2.597656 -0.0351562 1.890625 -0.640625 C 1.191406 -1.242188 0.84375 -2.035156 0.84375 -3.015625 C 0.84375 -3.523438 0.957031 -4.019531 1.1875 -4.5 C 1.425781 -4.976562 1.75 -5.347656 2.15625 -5.609375 C 2.59375 -5.898438 3.039062 -6.113281 3.5 -6.25 C 3.957031 -6.382812 4.515625 -6.488281 5.171875 -6.5625 C 5.867188 -6.632812 6.566406 -6.734375 7.265625 -6.859375 C 7.960938 -6.984375 8.472656 -7.109375 8.796875 -7.234375 L 8.796875 -7.71875 C 8.796875 -8.5 8.585938 -9.085938 8.171875 -9.484375 C 7.753906 -9.878906 7.039062 -10.078125 6.03125 -10.078125 C 5.070312 -10.078125 4.382812 -9.90625 3.96875 -9.5625 C 3.550781 -9.226562 3.25 -8.671875 3.0625 -7.890625 L 1.171875 -8.140625 C 1.429688 -9.367188 1.984375 -10.257812 2.828125 -10.8125 C 3.671875 -11.375 4.8125 -11.65625 6.25 -11.65625 Z M 6.03125 -5.0625 C 5.28125 -4.945312 4.703125 -4.832031 4.296875 -4.71875 C 3.898438 -4.601562 3.566406 -4.414062 3.296875 -4.15625 C 3.035156 -3.90625 2.90625 -3.539062 2.90625 -3.0625 C 2.90625 -2.488281 3.113281 -2.039062 3.53125 -1.71875 C 3.945312 -1.40625 4.535156 -1.25 5.296875 -1.25 C 5.742188 -1.25 6.222656 -1.335938 6.734375 -1.515625 C 7.242188 -1.703125 7.691406 -2.023438 8.078125 -2.484375 C 8.328125 -2.773438 8.507812 -3.101562 8.625 -3.46875 C 8.738281 -3.84375 8.796875 -4.316406 8.796875 -4.890625 L 8.796875 -5.71875 C 8.210938 -5.488281 7.289062 -5.269531 6.03125 -5.0625 Z M 6.03125 -5.0625 "/></g></g></g><g fill="#2c3152" fill-opacity="1"><g transform="translate(137.984425, 266.884434)"><g><path d="M 6.859375 -11.65625 C 7.679688 -11.65625 8.390625 -11.492188 8.984375 -11.171875 C 9.578125 -10.847656 10.015625 -10.4375 10.296875 -9.9375 C 10.472656 -9.601562 10.597656 -9.238281 10.671875 -8.84375 C 10.742188 -8.457031 10.78125 -7.972656 10.78125 -7.390625 L 10.78125 0 L 8.84375 0 L 8.84375 -7.046875 C 8.84375 -9.003906 8.046875 -9.984375 6.453125 -9.984375 C 5.847656 -9.984375 5.289062 -9.835938 4.78125 -9.546875 C 4.28125 -9.253906 3.921875 -8.828125 3.703125 -8.265625 C 3.523438 -7.796875 3.4375 -7.164062 3.4375 -6.375 L 3.4375 0 L 1.5 0 L 1.5 -11.390625 L 3.234375 -11.390625 L 3.234375 -9.796875 C 4.097656 -11.035156 5.304688 -11.65625 6.859375 -11.65625 Z M 6.859375 -11.65625 "/></g></g></g><g fill="#2c3152" fill-opacity="1"><g transform="translate(150.214244, 266.884434)"><g><path d="M 6.109375 -11.65625 C 6.972656 -11.65625 7.8125 -11.460938 8.625 -11.078125 C 9.445312 -10.703125 10.125 -10.070312 10.65625 -9.1875 C 11.195312 -8.300781 11.46875 -7.140625 11.46875 -5.703125 C 11.46875 -4.421875 11.238281 -3.335938 10.78125 -2.453125 C 10.320312 -1.566406 9.6875 -0.894531 8.875 -0.4375 C 8.070312 0.0078125 7.148438 0.234375 6.109375 0.234375 C 4.585938 0.234375 3.34375 -0.238281 2.375 -1.1875 C 1.300781 -2.226562 0.765625 -3.734375 0.765625 -5.703125 C 0.765625 -6.972656 0.992188 -8.054688 1.453125 -8.953125 C 1.910156 -9.847656 2.539062 -10.519531 3.34375 -10.96875 C 4.144531 -11.425781 5.066406 -11.65625 6.109375 -11.65625 Z M 2.75 -5.703125 C 2.75 -4.316406 3.050781 -3.242188 3.65625 -2.484375 C 4.269531 -1.722656 5.085938 -1.34375 6.109375 -1.34375 C 7.128906 -1.34375 7.945312 -1.71875 8.5625 -2.46875 C 9.175781 -3.226562 9.484375 -4.304688 9.484375 -5.703125 C 9.484375 -7.046875 9.179688 -8.109375 8.578125 -8.890625 C 7.972656 -9.679688 7.144531 -10.078125 6.09375 -10.078125 C 5.09375 -10.078125 4.285156 -9.691406 3.671875 -8.921875 C 3.054688 -8.148438 2.75 -7.078125 2.75 -5.703125 Z M 2.75 -5.703125 "/></g></g></g><g fill="#2c3152" fill-opacity="1"><g transform="translate(162.444064, 266.884434)"><g><path d="M 5.65625 -11.65625 C 6.3125 -11.65625 6.960938 -11.453125 7.609375 -11.046875 L 6.953125 -9.265625 C 6.484375 -9.546875 5.992188 -9.6875 5.484375 -9.6875 C 4.742188 -9.6875 4.203125 -9.347656 3.859375 -8.671875 C 3.515625 -8.003906 3.34375 -7.144531 3.34375 -6.09375 L 3.34375 0 L 1.40625 0 L 1.40625 -11.390625 L 3.140625 -11.390625 L 3.140625 -9.6875 C 3.515625 -10.34375 3.878906 -10.832031 4.234375 -11.15625 C 4.597656 -11.488281 5.070312 -11.65625 5.65625 -11.65625 Z M 5.65625 -11.65625 "/></g></g></g><g fill="#2c3152" fill-opacity="1"><g transform="translate(169.768763, 266.884434)"><g><path d="M 6.1875 -11.65625 C 7.28125 -11.65625 8.21875 -11.394531 9 -10.875 C 9.789062 -10.351562 10.382812 -9.648438 10.78125 -8.765625 C 11.175781 -7.890625 11.375 -6.910156 11.375 -5.828125 L 11.375 -5.21875 L 2.859375 -5.21875 C 2.921875 -4 3.265625 -3.046875 3.890625 -2.359375 C 4.523438 -1.679688 5.332031 -1.34375 6.3125 -1.34375 C 7.0625 -1.34375 7.679688 -1.539062 8.171875 -1.9375 C 8.660156 -2.332031 9.039062 -2.910156 9.3125 -3.671875 L 11.3125 -3.4375 C 11 -2.289062 10.410156 -1.390625 9.546875 -0.734375 C 8.691406 -0.0859375 7.644531 0.234375 6.40625 0.234375 C 4.65625 0.234375 3.289062 -0.273438 2.3125 -1.296875 C 1.34375 -2.328125 0.859375 -3.765625 0.859375 -5.609375 C 0.859375 -6.835938 1.078125 -7.90625 1.515625 -8.8125 C 1.953125 -9.726562 2.570312 -10.429688 3.375 -10.921875 C 4.175781 -11.410156 5.113281 -11.65625 6.1875 -11.65625 Z M 2.96875 -6.8125 L 9.328125 -6.8125 C 9.285156 -7.90625 8.953125 -8.722656 8.328125 -9.265625 C 7.703125 -9.804688 6.988281 -10.078125 6.1875 -10.078125 C 5.269531 -10.078125 4.519531 -9.769531 3.9375 -9.15625 C 3.363281 -8.539062 3.039062 -7.757812 2.96875 -6.8125 Z M 2.96875 -6.8125 "/></g></g></g><g fill="#2c3152" fill-opacity="1"><g transform="translate(181.998582, 266.884434)"><g><path d="M 2.875 -11.390625 L 4.578125 -8.828125 L 5.4375 -7.453125 C 5.613281 -7.734375 5.875 -8.125 6.21875 -8.625 L 8.234375 -11.390625 L 10.53125 -11.390625 L 6.59375 -6.046875 L 10.84375 0 L 8.46875 0 L 6.265625 -3.296875 C 5.910156 -3.828125 5.65625 -4.234375 5.5 -4.515625 L 2.484375 0 L 0.15625 0 L 4.3125 -5.9375 L 0.46875 -11.390625 Z M 2.875 -11.390625 "/></g></g></g><g fill="#2c3152" fill-opacity="1"><g transform="translate(192.996617, 266.884434)"><g><path d="M 3.40625 -13.546875 L 1.46875 -13.546875 L 1.46875 -15.75 L 3.40625 -15.75 Z M 3.40625 0 L 1.46875 0 L 1.46875 -11.390625 L 3.40625 -11.390625 Z M 3.40625 0 "/></g></g></g><g fill="#2c3152" fill-opacity="1"><g transform="translate(197.879742, 266.884434)"><g><path d="M 6.25 -11.65625 C 7.1875 -11.65625 7.941406 -11.5625 8.515625 -11.375 C 9.097656 -11.195312 9.5625 -10.929688 9.90625 -10.578125 C 10.226562 -10.242188 10.445312 -9.867188 10.5625 -9.453125 C 10.675781 -9.046875 10.734375 -8.503906 10.734375 -7.828125 L 10.734375 -3.234375 C 10.734375 -1.753906 10.941406 -0.675781 11.359375 0 L 9.328125 0 C 9.140625 -0.394531 9.007812 -0.863281 8.9375 -1.40625 C 8.226562 -0.820312 7.539062 -0.394531 6.875 -0.125 C 6.207031 0.132812 5.515625 0.265625 4.796875 0.265625 C 3.566406 0.265625 2.597656 -0.0351562 1.890625 -0.640625 C 1.191406 -1.242188 0.84375 -2.035156 0.84375 -3.015625 C 0.84375 -3.523438 0.957031 -4.019531 1.1875 -4.5 C 1.425781 -4.976562 1.75 -5.347656 2.15625 -5.609375 C 2.59375 -5.898438 3.039062 -6.113281 3.5 -6.25 C 3.957031 -6.382812 4.515625 -6.488281 5.171875 -6.5625 C 5.867188 -6.632812 6.566406 -6.734375 7.265625 -6.859375 C 7.960938 -6.984375 8.472656 -7.109375 8.796875 -7.234375 L 8.796875 -7.71875 C 8.796875 -8.5 8.585938 -9.085938 8.171875 -9.484375 C 7.753906 -9.878906 7.039062 -10.078125 6.03125 -10.078125 C 5.070312 -10.078125 4.382812 -9.90625 3.96875 -9.5625 C 3.550781 -9.226562 3.25 -8.671875 3.0625 -7.890625 L 1.171875 -8.140625 C 1.429688 -9.367188 1.984375 -10.257812 2.828125 -10.8125 C 3.671875 -11.375 4.8125 -11.65625 6.25 -11.65625 Z M 6.03125 -5.0625 C 5.28125 -4.945312 4.703125 -4.832031 4.296875 -4.71875 C 3.898438 -4.601562 3.566406 -4.414062 3.296875 -4.15625 C 3.035156 -3.90625 2.90625 -3.539062 2.90625 -3.0625 C 2.90625 -2.488281 3.113281 -2.039062 3.53125 -1.71875 C 3.945312 -1.40625 4.535156 -1.25 5.296875 -1.25 C 5.742188 -1.25 6.222656 -1.335938 6.734375 -1.515625 C 7.242188 -1.703125 7.691406 -2.023438 8.078125 -2.484375 C 8.328125 -2.773438 8.507812 -3.101562 8.625 -3.46875 C 8.738281 -3.84375 8.796875 -4.316406 8.796875 -4.890625 L 8.796875 -5.71875 C 8.210938 -5.488281 7.289062 -5.269531 6.03125 -5.0625 Z M 6.03125 -5.0625 "/></g></g></g><g fill="#2c3152" fill-opacity="1"><g transform="translate(210.109561, 266.884434)"><g/></g></g><g fill="#2c3152" fill-opacity="1"><g transform="translate(216.224471, 266.884434)"><g><path d="M 6.859375 -11.65625 C 7.679688 -11.65625 8.390625 -11.492188 8.984375 -11.171875 C 9.578125 -10.847656 10.015625 -10.4375 10.296875 -9.9375 C 10.472656 -9.601562 10.597656 -9.238281 10.671875 -8.84375 C 10.742188 -8.457031 10.78125 -7.972656 10.78125 -7.390625 L 10.78125 0 L 8.84375 0 L 8.84375 -7.046875 C 8.84375 -9.003906 8.046875 -9.984375 6.453125 -9.984375 C 5.847656 -9.984375 5.289062 -9.835938 4.78125 -9.546875 C 4.28125 -9.253906 3.921875 -8.828125 3.703125 -8.265625 C 3.523438 -7.796875 3.4375 -7.164062 3.4375 -6.375 L 3.4375 0 L 1.5 0 L 1.5 -11.390625 L 3.234375 -11.390625 L 3.234375 -9.796875 C 4.097656 -11.035156 5.304688 -11.65625 6.859375 -11.65625 Z M 6.859375 -11.65625 "/></g></g></g><g fill="#2c3152" fill-opacity="1"><g transform="translate(228.45429, 266.884434)"><g><path d="M 6.1875 -11.65625 C 7.28125 -11.65625 8.21875 -11.394531 9 -10.875 C 9.789062 -10.351562 10.382812 -9.648438 10.78125 -8.765625 C 11.175781 -7.890625 11.375 -6.910156 11.375 -5.828125 L 11.375 -5.21875 L 2.859375 -5.21875 C 2.921875 -4 3.265625 -3.046875 3.890625 -2.359375 C 4.523438 -1.679688 5.332031 -1.34375 6.3125 -1.34375 C 7.0625 -1.34375 7.679688 -1.539062 8.171875 -1.9375 C 8.660156 -2.332031 9.039062 -2.910156 9.3125 -3.671875 L 11.3125 -3.4375 C 11 -2.289062 10.410156 -1.390625 9.546875 -0.734375 C 8.691406 -0.0859375 7.644531 0.234375 6.40625 0.234375 C 4.65625 0.234375 3.289062 -0.273438 2.3125 -1.296875 C 1.34375 -2.328125 0.859375 -3.765625 0.859375 -5.609375 C 0.859375 -6.835938 1.078125 -7.90625 1.515625 -8.8125 C 1.953125 -9.726562 2.570312 -10.429688 3.375 -10.921875 C 4.175781 -11.410156 5.113281 -11.65625 6.1875 -11.65625 Z M 2.96875 -6.8125 L 9.328125 -6.8125 C 9.285156 -7.90625 8.953125 -8.722656 8.328125 -9.265625 C 7.703125 -9.804688 6.988281 -10.078125 6.1875 -10.078125 C 5.269531 -10.078125 4.519531 -9.769531 3.9375 -9.15625 C 3.363281 -8.539062 3.039062 -7.757812 2.96875 -6.8125 Z M 2.96875 -6.8125 "/></g></g></g><g fill="#2c3152" fill-opacity="1"><g transform="translate(240.68411, 266.884434)"><g><path d="M 5.65625 -11.65625 C 6.3125 -11.65625 6.960938 -11.453125 7.609375 -11.046875 L 6.953125 -9.265625 C 6.484375 -9.546875 5.992188 -9.6875 5.484375 -9.6875 C 4.742188 -9.6875 4.203125 -9.347656 3.859375 -8.671875 C 3.515625 -8.003906 3.34375 -7.144531 3.34375 -6.09375 L 3.34375 0 L 1.40625 0 L 1.40625 -11.390625 L 3.140625 -11.390625 L 3.140625 -9.6875 C 3.515625 -10.34375 3.878906 -10.832031 4.234375 -11.15625 C 4.597656 -11.488281 5.070312 -11.65625 5.65625 -11.65625 Z M 5.65625 -11.65625 "/></g></g></g><g fill="#2c3152" fill-opacity="1"><g transform="translate(248.008809, 266.884434)"><g><path d="M 4.65625 -4.890625 C 4.789062 -4.535156 4.984375 -3.945312 5.234375 -3.125 L 5.515625 -2.265625 C 5.835938 -3.347656 6.070312 -4.066406 6.21875 -4.421875 L 8.75 -11.390625 L 10.765625 -11.390625 L 6.453125 0 L 4.625 0 L 0.28125 -11.390625 L 2.328125 -11.390625 Z M 4.65625 -4.890625 "/></g></g></g><g fill="#2c3152" fill-opacity="1"><g transform="translate(259.006843, 266.884434)"><g><path d="M 6.109375 -11.65625 C 6.972656 -11.65625 7.8125 -11.460938 8.625 -11.078125 C 9.445312 -10.703125 10.125 -10.070312 10.65625 -9.1875 C 11.195312 -8.300781 11.46875 -7.140625 11.46875 -5.703125 C 11.46875 -4.421875 11.238281 -3.335938 10.78125 -2.453125 C 10.320312 -1.566406 9.6875 -0.894531 8.875 -0.4375 C 8.070312 0.0078125 7.148438 0.234375 6.109375 0.234375 C 4.585938 0.234375 3.34375 -0.238281 2.375 -1.1875 C 1.300781 -2.226562 0.765625 -3.734375 0.765625 -5.703125 C 0.765625 -6.972656 0.992188 -8.054688 1.453125 -8.953125 C 1.910156 -9.847656 2.539062 -10.519531 3.34375 -10.96875 C 4.144531 -11.425781 5.066406 -11.65625 6.109375 -11.65625 Z M 2.75 -5.703125 C 2.75 -4.316406 3.050781 -3.242188 3.65625 -2.484375 C 4.269531 -1.722656 5.085938 -1.34375 6.109375 -1.34375 C 7.128906 -1.34375 7.945312 -1.71875 8.5625 -2.46875 C 9.175781 -3.226562 9.484375 -4.304688 9.484375 -5.703125 C 9.484375 -7.046875 9.179688 -8.109375 8.578125 -8.890625 C 7.972656 -9.679688 7.144531 -10.078125 6.09375 -10.078125 C 5.09375 -10.078125 4.285156 -9.691406 3.671875 -8.921875 C 3.054688 -8.148438 2.75 -7.078125 2.75 -5.703125 Z M 2.75 -5.703125 "/></g></g></g><g fill="#2c3152" fill-opacity="1"><g transform="translate(271.236663, 266.884434)"><g><path d="M 5.234375 -11.65625 C 6.523438 -11.65625 7.566406 -11.382812 8.359375 -10.84375 C 9.148438 -10.3125 9.601562 -9.519531 9.71875 -8.46875 L 7.828125 -8.203125 C 7.742188 -8.773438 7.503906 -9.226562 7.109375 -9.5625 C 6.710938 -9.90625 6.125 -10.078125 5.34375 -10.078125 C 4.570312 -10.078125 3.96875 -9.941406 3.53125 -9.671875 C 3.09375 -9.410156 2.875 -9.046875 2.875 -8.578125 C 2.875 -8.253906 3.003906 -7.984375 3.265625 -7.765625 C 3.523438 -7.554688 3.828125 -7.394531 4.171875 -7.28125 C 4.523438 -7.175781 5.0625 -7.035156 5.78125 -6.859375 C 6.707031 -6.640625 7.457031 -6.421875 8.03125 -6.203125 C 8.613281 -5.984375 9.113281 -5.644531 9.53125 -5.1875 C 9.945312 -4.738281 10.15625 -4.128906 10.15625 -3.359375 C 10.15625 -2.703125 9.972656 -2.097656 9.609375 -1.546875 C 9.242188 -0.992188 8.71875 -0.554688 8.03125 -0.234375 C 7.351562 0.078125 6.578125 0.234375 5.703125 0.234375 C 4.171875 0.234375 3 -0.0625 2.1875 -0.65625 C 1.382812 -1.257812 0.882812 -2.175781 0.6875 -3.40625 L 2.59375 -3.703125 C 2.695312 -2.921875 3.007812 -2.332031 3.53125 -1.9375 C 4.050781 -1.539062 4.722656 -1.34375 5.546875 -1.34375 C 6.378906 -1.34375 7.023438 -1.515625 7.484375 -1.859375 C 7.953125 -2.203125 8.1875 -2.628906 8.1875 -3.140625 C 8.1875 -3.628906 7.953125 -3.988281 7.484375 -4.21875 C 7.023438 -4.457031 6.320312 -4.6875 5.375 -4.90625 C 4.425781 -5.125 3.671875 -5.335938 3.109375 -5.546875 C 2.546875 -5.765625 2.054688 -6.097656 1.640625 -6.546875 C 1.222656 -7.003906 1.015625 -7.613281 1.015625 -8.375 C 1.015625 -9 1.175781 -9.554688 1.5 -10.046875 C 1.832031 -10.546875 2.316406 -10.9375 2.953125 -11.21875 C 3.597656 -11.507812 4.359375 -11.65625 5.234375 -11.65625 Z M 5.234375 -11.65625 "/></g></g></g><g fill="#2c3152" fill-opacity="1"><g transform="translate(282.234697, 266.884434)"><g><path d="M 6.25 -11.65625 C 7.1875 -11.65625 7.941406 -11.5625 8.515625 -11.375 C 9.097656 -11.195312 9.5625 -10.929688 9.90625 -10.578125 C 10.226562 -10.242188 10.445312 -9.867188 10.5625 -9.453125 C 10.675781 -9.046875 10.734375 -8.503906 10.734375 -7.828125 L 10.734375 -3.234375 C 10.734375 -1.753906 10.941406 -0.675781 11.359375 0 L 9.328125 0 C 9.140625 -0.394531 9.007812 -0.863281 8.9375 -1.40625 C 8.226562 -0.820312 7.539062 -0.394531 6.875 -0.125 C 6.207031 0.132812 5.515625 0.265625 4.796875 0.265625 C 3.566406 0.265625 2.597656 -0.0351562 1.890625 -0.640625 C 1.191406 -1.242188 0.84375 -2.035156 0.84375 -3.015625 C 0.84375 -3.523438 0.957031 -4.019531 1.1875 -4.5 C 1.425781 -4.976562 1.75 -5.347656 2.15625 -5.609375 C 2.59375 -5.898438 3.039062 -6.113281 3.5 -6.25 C 3.957031 -6.382812 4.515625 -6.488281 5.171875 -6.5625 C 5.867188 -6.632812 6.566406 -6.734375 7.265625 -6.859375 C 7.960938 -6.984375 8.472656 -7.109375 8.796875 -7.234375 L 8.796875 -7.71875 C 8.796875 -8.5 8.585938 -9.085938 8.171875 -9.484375 C 7.753906 -9.878906 7.039062 -10.078125 6.03125 -10.078125 C 5.070312 -10.078125 4.382812 -9.90625 3.96875 -9.5625 C 3.550781 -9.226562 3.25 -8.671875 3.0625 -7.890625 L 1.171875 -8.140625 C 1.429688 -9.367188 1.984375 -10.257812 2.828125 -10.8125 C 3.671875 -11.375 4.8125 -11.65625 6.25 -11.65625 Z M 6.03125 -5.0625 C 5.28125 -4.945312 4.703125 -4.832031 4.296875 -4.71875 C 3.898438 -4.601562 3.566406 -4.414062 3.296875 -4.15625 C 3.035156 -3.90625 2.90625 -3.539062 2.90625 -3.0625 C 2.90625 -2.488281 3.113281 -2.039062 3.53125 -1.71875 C 3.945312 -1.40625 4.535156 -1.25 5.296875 -1.25 C 5.742188 -1.25 6.222656 -1.335938 6.734375 -1.515625 C 7.242188 -1.703125 7.691406 -2.023438 8.078125 -2.484375 C 8.328125 -2.773438 8.507812 -3.101562 8.625 -3.46875 C 8.738281 -3.84375 8.796875 -4.316406 8.796875 -4.890625 L 8.796875 -5.71875 C 8.210938 -5.488281 7.289062 -5.269531 6.03125 -5.0625 Z M 6.03125 -5.0625 "/></g></g></g></svg>