<svg xmlns="http://www.w3.org/2000/svg" xmlns:xlink="http://www.w3.org/1999/xlink" width="500" zoomAndPan="magnify" viewBox="0 0 375 374.999991" height="500" preserveAspectRatio="xMidYMid meet" version="1.0"><defs><g/><clipPath id="ab0f3cf584"><path d="M 5.273438 106.511719 L 369.726562 106.511719 L 369.726562 268.488281 L 5.273438 268.488281 Z M 5.273438 106.511719 " clip-rule="nonzero"/></clipPath><clipPath id="32d54def9d"><path d="M 22.523438 106.511719 L 352.476562 106.511719 C 357.050781 106.511719 361.4375 108.328125 364.675781 111.5625 C 367.910156 114.800781 369.726562 119.1875 369.726562 123.761719 L 369.726562 251.238281 C 369.726562 255.8125 367.910156 260.199219 364.675781 263.4375 C 361.4375 266.671875 357.050781 268.488281 352.476562 268.488281 L 22.523438 268.488281 C 17.949219 268.488281 13.5625 266.671875 10.324219 263.4375 C 7.089844 260.199219 5.273438 255.8125 5.273438 251.238281 L 5.273438 123.761719 C 5.273438 119.1875 7.089844 114.800781 10.324219 111.5625 C 13.5625 108.328125 17.949219 106.511719 22.523438 106.511719 Z M 22.523438 106.511719 " clip-rule="nonzero"/></clipPath></defs><g clip-path="url(#ab0f3cf584)"><g clip-path="url(#32d54def9d)"><path fill="#f2bab7" d="M 5.273438 106.511719 L 369.726562 106.511719 L 369.726562 268.488281 L 5.273438 268.488281 Z M 5.273438 106.511719 " fill-opacity="1" fill-rule="nonzero"/></g></g><g fill="#2c3152" fill-opacity="1"><g transform="translate(122.145002, 206.557604)"><g><path d="M 8.015625 -17.375 L 16.703125 -17.375 C 18.878906 -17.375 20.515625 -17.851562 21.609375 -18.8125 C 22.710938 -19.78125 23.265625 -21.238281 23.265625 -23.1875 C 23.265625 -24.925781 22.738281 -26.253906 21.6875 -27.171875 C 20.632812 -28.097656 19.03125 -28.5625 16.875 -28.5625 L 8.015625 -28.5625 Z M 8.015625 0 L 3.640625 0 L 3.640625 -32.296875 L 18.171875 -32.296875 C 21.054688 -32.296875 23.378906 -31.457031 25.140625 -29.78125 C 26.898438 -28.101562 27.78125 -25.914062 27.78125 -23.21875 C 27.78125 -20.425781 26.925781 -18.128906 25.21875 -16.328125 C 23.519531 -14.535156 21.171875 -13.640625 18.171875 -13.640625 L 8.015625 -13.640625 Z M 8.015625 0 "/></g></g><g transform="translate(151.236797, 206.557604)"><g><path d="M 17.265625 -12.015625 C 16.972656 -11.710938 16.398438 -11.460938 15.546875 -11.265625 C 14.691406 -11.078125 13.09375 -10.832031 10.75 -10.53125 C 9.019531 -10.320312 7.75 -9.894531 6.9375 -9.25 C 6.125 -8.601562 5.71875 -7.753906 5.71875 -6.703125 C 5.71875 -5.410156 6.0625 -4.40625 6.75 -3.6875 C 7.4375 -2.96875 8.535156 -2.609375 10.046875 -2.609375 C 11.929688 -2.609375 13.601562 -3.144531 15.0625 -4.21875 C 16.53125 -5.300781 17.265625 -6.613281 17.265625 -8.15625 Z M 2.796875 -16.375 C 2.878906 -19.019531 3.738281 -20.988281 5.375 -22.28125 C 7.007812 -23.570312 9.382812 -24.21875 12.5 -24.21875 C 14.988281 -24.21875 17.078125 -23.648438 18.765625 -22.515625 C 20.453125 -21.390625 21.296875 -19.765625 21.296875 -17.640625 L 21.296875 -4.09375 C 21.296875 -3.164062 21.710938 -2.703125 22.546875 -2.703125 C 22.878906 -2.703125 23.3125 -2.757812 23.84375 -2.875 L 23.84375 0 C 23.125 0.289062 22.375 0.4375 21.59375 0.4375 C 20.25 0.4375 19.242188 0.148438 18.578125 -0.421875 C 17.921875 -1.003906 17.582031 -1.910156 17.5625 -3.140625 C 15.300781 -0.585938 12.460938 0.6875 9.046875 0.6875 C 6.828125 0.6875 5.039062 0.0546875 3.6875 -1.203125 C 2.34375 -2.460938 1.671875 -4.101562 1.671875 -6.125 C 1.671875 -8.195312 2.253906 -9.867188 3.421875 -11.140625 C 4.597656 -12.410156 6.304688 -13.179688 8.546875 -13.453125 L 15.53125 -14.296875 C 16.789062 -14.492188 17.421875 -15.425781 17.421875 -17.09375 C 17.421875 -18.320312 16.960938 -19.265625 16.046875 -19.921875 C 15.128906 -20.585938 13.742188 -20.921875 11.890625 -20.921875 C 10.234375 -20.921875 8.960938 -20.550781 8.078125 -19.8125 C 7.191406 -19.082031 6.660156 -17.9375 6.484375 -16.375 Z M 2.796875 -16.375 "/></g></g><g transform="translate(175.956034, 206.557604)"><g><path d="M 6.921875 0 L 2.96875 0 L 2.96875 -23.53125 L 6.703125 -23.53125 L 6.703125 -19.625 L 6.796875 -19.625 C 8.503906 -22.6875 10.707031 -24.21875 13.40625 -24.21875 C 13.832031 -24.21875 14.175781 -24.171875 14.4375 -24.078125 L 14.4375 -19.96875 L 12.96875 -19.96875 C 11.195312 -19.96875 9.742188 -19.367188 8.609375 -18.171875 C 7.484375 -16.972656 6.921875 -15.476562 6.921875 -13.6875 Z M 6.921875 0 "/></g></g><g transform="translate(190.611795, 206.557604)"><g><path d="M 19.109375 -13.640625 C 18.910156 -16.191406 18.238281 -18 17.09375 -19.0625 C 15.945312 -20.125 14.429688 -20.65625 12.546875 -20.65625 C 10.628906 -20.65625 9.078125 -19.976562 7.890625 -18.625 C 6.710938 -17.28125 6.085938 -15.617188 6.015625 -13.640625 Z M 22.890625 -7.390625 C 22.453125 -4.953125 21.257812 -2.9375 19.3125 -1.34375 C 17.601562 0.0078125 15.347656 0.695312 12.546875 0.71875 C 9.253906 0.695312 6.640625 -0.378906 4.703125 -2.515625 C 2.765625 -4.648438 1.796875 -7.519531 1.796875 -11.125 C 1.796875 -15.25 2.789062 -18.460938 4.78125 -20.765625 C 6.78125 -23.066406 9.550781 -24.21875 13.09375 -24.21875 C 16.269531 -24.21875 18.75 -23.03125 20.53125 -20.65625 C 22.320312 -18.28125 23.21875 -14.890625 23.21875 -10.484375 L 6.015625 -10.484375 C 6.015625 -8.023438 6.585938 -6.117188 7.734375 -4.765625 C 8.878906 -3.421875 10.59375 -2.75 12.875 -2.75 C 14.488281 -2.75 15.875 -3.234375 17.03125 -4.203125 C 18.1875 -5.179688 18.820312 -6.242188 18.9375 -7.390625 Z M 22.890625 -7.390625 "/></g></g><g transform="translate(215.550758, 206.557604)"><g><path d="M 22.15625 0 L 18.171875 0 L 18.171875 -14.484375 C 18.171875 -16.703125 17.78125 -18.285156 17 -19.234375 C 16.226562 -20.179688 14.941406 -20.65625 13.140625 -20.65625 C 11.367188 -20.65625 9.890625 -19.976562 8.703125 -18.625 C 7.515625 -17.28125 6.921875 -15.347656 6.921875 -12.828125 L 6.921875 0 L 2.96875 0 L 2.96875 -23.53125 L 6.703125 -23.53125 L 6.703125 -20.21875 L 6.796875 -20.21875 C 8.648438 -22.882812 11.019531 -24.21875 13.90625 -24.21875 C 16.570312 -24.21875 18.613281 -23.507812 20.03125 -22.09375 C 21.445312 -20.675781 22.15625 -18.648438 22.15625 -16.015625 Z M 22.15625 0 "/></g></g><g transform="translate(240.379858, 206.557604)"><g><path d="M 7.734375 -20.265625 L 7.734375 -4.9375 C 7.734375 -4.34375 7.894531 -3.882812 8.21875 -3.5625 C 8.550781 -3.25 9.144531 -3.09375 10 -3.09375 L 11.515625 -3.09375 L 11.515625 0 C 10.078125 0.207031 9.085938 0.3125 8.546875 0.3125 C 6.890625 0.3125 5.679688 -0.0820312 4.921875 -0.875 C 4.160156 -1.664062 3.78125 -2.945312 3.78125 -4.71875 L 3.78125 -20.265625 L 0.59375 -20.265625 L 0.59375 -23.53125 L 3.78125 -23.53125 L 3.78125 -30.109375 L 7.734375 -30.109375 L 7.734375 -23.53125 L 11.515625 -23.53125 L 11.515625 -20.265625 Z M 7.734375 -20.265625 "/></g></g></g></svg>