<svg xmlns="http://www.w3.org/2000/svg" xmlns:xlink="http://www.w3.org/1999/xlink" width="367" zoomAndPan="magnify" viewBox="0 0 275.25 123.000003" height="164" preserveAspectRatio="xMidYMid meet" version="1.0"><defs><filter x="0%" y="0%" width="100%" height="100%" id="854b491655"><feColorMatrix values="0 0 0 0 1 0 0 0 0 1 0 0 0 0 1 0 0 0 1 0" color-interpolation-filters="sRGB"/></filter><g/><clipPath id="4e45bda55c"><path d="M 0.738281 0 L 273.769531 0 L 273.769531 122.007812 L 0.738281 122.007812 Z M 0.738281 0 " clip-rule="nonzero"/></clipPath><clipPath id="435861c1d2"><path d="M 0.738281 0 L 273.769531 0 L 273.769531 122 L 0.738281 122 Z M 0.738281 0 " clip-rule="nonzero"/></clipPath><mask id="4e07e6bf3d"><g filter="url(#854b491655)"><rect x="-27.525" width="330.3" fill="#000000" y="-12.3" height="147.600004" fill-opacity="0.89"/></g></mask><clipPath id="71d08b4f69"><path d="M 0.820312 0 L 273 0 L 273 121.625 L 0.820312 121.625 Z M 0.820312 0 " clip-rule="nonzero"/></clipPath><clipPath id="61ea4dcafa"><path d="M 14.210938 0 L 259.558594 0 C 263.113281 0 266.519531 1.410156 269.027344 3.921875 C 271.539062 6.433594 272.953125 9.839844 272.953125 13.390625 L 272.953125 108.234375 C 272.953125 111.785156 271.539062 115.191406 269.027344 117.703125 C 266.519531 120.214844 263.113281 121.625 259.558594 121.625 L 14.210938 121.625 C 10.660156 121.625 7.253906 120.214844 4.742188 117.703125 C 2.230469 115.191406 0.820312 111.785156 0.820312 108.234375 L 0.820312 13.390625 C 0.820312 5.996094 6.816406 0 14.210938 0 Z M 14.210938 0 " clip-rule="nonzero"/></clipPath><clipPath id="7bdc77573e"><rect x="0" width="274" y="0" height="122"/></clipPath></defs><g clip-path="url(#4e45bda55c)"><path fill="#ffffff" d="M 0.738281 0 L 273.769531 0 L 273.769531 122.007812 L 0.738281 122.007812 Z M 0.738281 0 " fill-opacity="1" fill-rule="nonzero"/></g><g clip-path="url(#435861c1d2)"><g mask="url(#4e07e6bf3d)"><g transform="matrix(1, 0, 0, 1, 0, 0.000000000000032234)"><g clip-path="url(#7bdc77573e)"><g clip-path="url(#71d08b4f69)"><g clip-path="url(#61ea4dcafa)"><path fill="#fbb88b" d="M 0.820312 0 L 273.054688 0 L 273.054688 121.625 L 0.820312 121.625 Z M 0.820312 0 " fill-opacity="1" fill-rule="nonzero"/></g></g></g></g></g></g><g fill="#2c3152" fill-opacity="1"><g transform="translate(65.41068, 50.241085)"><g><path d="M 15.078125 -18.296875 C 15.734375 -17.773438 16.222656 -17.132812 16.546875 -16.375 C 16.878906 -15.613281 17.046875 -14.84375 17.046875 -14.0625 C 17.046875 -11.894531 16.269531 -10.253906 14.71875 -9.140625 C 13.675781 -8.367188 12.082031 -7.984375 9.9375 -7.984375 L 4.703125 -7.984375 L 4.703125 0 L 2.109375 0 L 2.109375 -19.59375 L 9.90625 -19.59375 C 11.164062 -19.59375 12.1875 -19.5 12.96875 -19.3125 C 13.75 -19.132812 14.453125 -18.796875 15.078125 -18.296875 Z M 14.359375 -14.015625 C 14.359375 -14.410156 14.265625 -14.835938 14.078125 -15.296875 C 13.890625 -15.765625 13.628906 -16.144531 13.296875 -16.4375 C 12.929688 -16.769531 12.507812 -16.992188 12.03125 -17.109375 C 11.5625 -17.234375 10.9375 -17.296875 10.15625 -17.296875 L 4.703125 -17.296875 L 4.703125 -10.28125 L 9.90625 -10.28125 C 11.414062 -10.28125 12.535156 -10.582031 13.265625 -11.1875 C 13.992188 -11.789062 14.359375 -12.734375 14.359375 -14.015625 Z M 14.359375 -14.015625 "/></g></g></g><g fill="#2c3152" fill-opacity="1"><g transform="translate(83.661773, 50.241085)"><g><path d="M 7.6875 -14.5 C 9.050781 -14.5 10.222656 -14.175781 11.203125 -13.53125 C 12.179688 -12.882812 12.914062 -12.015625 13.40625 -10.921875 C 13.894531 -9.828125 14.140625 -8.601562 14.140625 -7.25 L 14.140625 -6.484375 L 3.5625 -6.484375 C 3.632812 -4.972656 4.0625 -3.789062 4.84375 -2.9375 C 5.625 -2.09375 6.628906 -1.671875 7.859375 -1.671875 C 8.785156 -1.671875 9.550781 -1.914062 10.15625 -2.40625 C 10.769531 -2.894531 11.242188 -3.613281 11.578125 -4.5625 L 14.0625 -4.265625 C 13.675781 -2.847656 12.945312 -1.734375 11.875 -0.921875 C 10.8125 -0.109375 9.507812 0.296875 7.96875 0.296875 C 5.789062 0.296875 4.09375 -0.335938 2.875 -1.609375 C 1.664062 -2.890625 1.0625 -4.679688 1.0625 -6.984375 C 1.0625 -8.515625 1.332031 -9.84375 1.875 -10.96875 C 2.425781 -12.101562 3.195312 -12.972656 4.1875 -13.578125 C 5.1875 -14.191406 6.351562 -14.5 7.6875 -14.5 Z M 3.6875 -8.484375 L 11.59375 -8.484375 C 11.539062 -9.828125 11.125 -10.835938 10.34375 -11.515625 C 9.570312 -12.191406 8.6875 -12.53125 7.6875 -12.53125 C 6.550781 -12.53125 5.625 -12.144531 4.90625 -11.375 C 4.1875 -10.613281 3.78125 -9.648438 3.6875 -8.484375 Z M 3.6875 -8.484375 "/></g></g></g><g fill="#2c3152" fill-opacity="1"><g transform="translate(98.87557, 50.241085)"><g><path d="M 7.03125 -14.5 C 7.851562 -14.5 8.664062 -14.242188 9.46875 -13.734375 L 8.640625 -11.515625 C 8.054688 -11.859375 7.445312 -12.03125 6.8125 -12.03125 C 5.894531 -12.03125 5.222656 -11.613281 4.796875 -10.78125 C 4.367188 -9.957031 4.15625 -8.890625 4.15625 -7.578125 L 4.15625 0 L 1.75 0 L 1.75 -14.171875 L 3.90625 -14.171875 L 3.90625 -12.03125 C 4.363281 -12.851562 4.816406 -13.46875 5.265625 -13.875 C 5.710938 -14.289062 6.300781 -14.5 7.03125 -14.5 Z M 7.03125 -14.5 "/></g></g></g><g fill="#2c3152" fill-opacity="1"><g transform="translate(107.987438, 50.241085)"><g><path d="M 6.515625 -14.5 C 8.117188 -14.5 9.410156 -14.164062 10.390625 -13.5 C 11.378906 -12.832031 11.945312 -11.84375 12.09375 -10.53125 L 9.734375 -10.203125 C 9.628906 -10.910156 9.328125 -11.472656 8.828125 -11.890625 C 8.335938 -12.316406 7.609375 -12.53125 6.640625 -12.53125 C 5.679688 -12.53125 4.929688 -12.363281 4.390625 -12.03125 C 3.847656 -11.707031 3.578125 -11.253906 3.578125 -10.671875 C 3.578125 -10.265625 3.738281 -9.929688 4.0625 -9.671875 C 4.382812 -9.410156 4.765625 -9.207031 5.203125 -9.0625 C 5.640625 -8.925781 6.304688 -8.75 7.203125 -8.53125 C 8.347656 -8.257812 9.28125 -7.988281 10 -7.71875 C 10.71875 -7.445312 11.335938 -7.023438 11.859375 -6.453125 C 12.378906 -5.890625 12.640625 -5.132812 12.640625 -4.1875 C 12.640625 -3.363281 12.410156 -2.609375 11.953125 -1.921875 C 11.492188 -1.242188 10.84375 -0.703125 10 -0.296875 C 9.15625 0.0976562 8.1875 0.296875 7.09375 0.296875 C 5.1875 0.296875 3.734375 -0.0703125 2.734375 -0.8125 C 1.734375 -1.5625 1.101562 -2.703125 0.84375 -4.234375 L 3.234375 -4.59375 C 3.359375 -3.625 3.742188 -2.894531 4.390625 -2.40625 C 5.035156 -1.914062 5.867188 -1.671875 6.890625 -1.671875 C 7.929688 -1.671875 8.738281 -1.882812 9.3125 -2.3125 C 9.882812 -2.738281 10.171875 -3.269531 10.171875 -3.90625 C 10.171875 -4.507812 9.882812 -4.957031 9.3125 -5.25 C 8.738281 -5.539062 7.859375 -5.820312 6.671875 -6.09375 C 5.503906 -6.375 4.566406 -6.644531 3.859375 -6.90625 C 3.160156 -7.175781 2.550781 -7.59375 2.03125 -8.15625 C 1.519531 -8.71875 1.265625 -9.472656 1.265625 -10.421875 C 1.265625 -11.191406 1.46875 -11.882812 1.875 -12.5 C 2.28125 -13.125 2.878906 -13.613281 3.671875 -13.96875 C 4.472656 -14.320312 5.421875 -14.5 6.515625 -14.5 Z M 6.515625 -14.5 "/></g></g></g><g fill="#2c3152" fill-opacity="1"><g transform="translate(121.668913, 50.241085)"><g><path d="M 7.609375 -14.5 C 8.679688 -14.5 9.722656 -14.257812 10.734375 -13.78125 C 11.742188 -13.3125 12.582031 -12.523438 13.25 -11.421875 C 13.914062 -10.316406 14.25 -8.875 14.25 -7.09375 C 14.25 -5.5 13.96875 -4.148438 13.40625 -3.046875 C 12.84375 -1.941406 12.054688 -1.109375 11.046875 -0.546875 C 10.046875 0.015625 8.898438 0.296875 7.609375 0.296875 C 5.710938 0.296875 4.160156 -0.296875 2.953125 -1.484375 C 1.617188 -2.773438 0.953125 -4.644531 0.953125 -7.09375 C 0.953125 -8.675781 1.234375 -10.019531 1.796875 -11.125 C 2.367188 -12.238281 3.15625 -13.078125 4.15625 -13.640625 C 5.15625 -14.210938 6.304688 -14.5 7.609375 -14.5 Z M 3.421875 -7.09375 C 3.421875 -5.375 3.796875 -4.039062 4.546875 -3.09375 C 5.304688 -2.144531 6.328125 -1.671875 7.609375 -1.671875 C 8.867188 -1.671875 9.878906 -2.140625 10.640625 -3.078125 C 11.410156 -4.015625 11.796875 -5.351562 11.796875 -7.09375 C 11.796875 -8.769531 11.421875 -10.09375 10.671875 -11.0625 C 9.921875 -12.039062 8.890625 -12.53125 7.578125 -12.53125 C 6.335938 -12.53125 5.332031 -12.050781 4.5625 -11.09375 C 3.800781 -10.132812 3.421875 -8.800781 3.421875 -7.09375 Z M 3.421875 -7.09375 "/></g></g></g><g fill="#2c3152" fill-opacity="1"><g transform="translate(136.88271, 50.241085)"><g><path d="M 8.53125 -14.5 C 9.550781 -14.5 10.429688 -14.296875 11.171875 -13.890625 C 11.910156 -13.492188 12.453125 -12.984375 12.796875 -12.359375 C 13.015625 -11.941406 13.171875 -11.488281 13.265625 -11 C 13.359375 -10.519531 13.40625 -9.914062 13.40625 -9.1875 L 13.40625 0 L 11 0 L 11 -8.75 C 11 -11.195312 10.003906 -12.421875 8.015625 -12.421875 C 7.265625 -12.421875 6.570312 -12.238281 5.9375 -11.875 C 5.3125 -11.507812 4.863281 -10.976562 4.59375 -10.28125 C 4.375 -9.695312 4.265625 -8.914062 4.265625 -7.9375 L 4.265625 0 L 1.859375 0 L 1.859375 -14.171875 L 4.015625 -14.171875 L 4.015625 -12.171875 C 5.097656 -13.722656 6.601562 -14.5 8.53125 -14.5 Z M 8.53125 -14.5 "/></g></g></g><g fill="#2c3152" fill-opacity="1"><g transform="translate(152.096507, 50.241085)"><g/></g></g><g fill="#2c3152" fill-opacity="1"><g transform="translate(159.703411, 50.241085)"><g><path d="M 2.625 -14.171875 L 5.171875 -4.890625 L 5.71875 -2.953125 C 5.789062 -3.285156 5.851562 -3.523438 5.90625 -3.671875 C 6.125 -4.597656 6.351562 -5.507812 6.59375 -6.40625 L 8.703125 -14.171875 L 11.1875 -14.171875 L 13.234375 -6.1875 L 14.015625 -3.25 L 14.671875 -5.46875 L 17.265625 -14.171875 L 19.609375 -14.171875 L 15.15625 0 L 12.671875 0 L 10.375 -8.59375 C 10.257812 -9.007812 10.082031 -9.785156 9.84375 -10.921875 L 7 0 L 4.484375 0 L 0.140625 -14.171875 Z M 2.625 -14.171875 "/></g></g></g><g fill="#2c3152" fill-opacity="1"><g transform="translate(179.459458, 50.241085)"><g><path d="M 4.234375 -16.859375 L 1.828125 -16.859375 L 1.828125 -19.59375 L 4.234375 -19.59375 Z M 4.234375 0 L 1.828125 0 L 1.828125 -14.171875 L 4.234375 -14.171875 Z M 4.234375 0 "/></g></g></g><g fill="#2c3152" fill-opacity="1"><g transform="translate(185.53403, 50.241085)"><g><path d="M 4.625 -14.171875 L 7.03125 -14.171875 L 7.03125 -12.359375 L 4.625 -12.359375 L 4.625 -3.578125 C 4.625 -2.960938 4.707031 -2.523438 4.875 -2.265625 C 5.050781 -2.015625 5.414062 -1.890625 5.96875 -1.890625 C 6.09375 -1.890625 6.445312 -1.9375 7.03125 -2.03125 L 7.390625 0.109375 C 6.660156 0.253906 6.066406 0.328125 5.609375 0.328125 C 4.679688 0.328125 3.96875 0.175781 3.46875 -0.125 C 2.976562 -0.425781 2.644531 -0.84375 2.46875 -1.375 C 2.300781 -1.914062 2.21875 -2.613281 2.21875 -3.46875 L 2.21875 -12.359375 L 0.46875 -12.359375 L 0.46875 -14.171875 L 2.21875 -14.171875 L 2.21875 -17.703125 L 4.625 -19.15625 Z M 4.625 -14.171875 "/></g></g></g><g fill="#2c3152" fill-opacity="1"><g transform="translate(193.140934, 50.241085)"><g><path d="M 4.234375 -12.5625 C 4.785156 -13.195312 5.40625 -13.675781 6.09375 -14 C 6.789062 -14.332031 7.597656 -14.5 8.515625 -14.5 C 9.273438 -14.5 9.960938 -14.378906 10.578125 -14.140625 C 11.203125 -13.910156 11.722656 -13.59375 12.140625 -13.1875 C 12.578125 -12.769531 12.894531 -12.238281 13.09375 -11.59375 C 13.300781 -10.957031 13.40625 -10.140625 13.40625 -9.140625 L 13.40625 0 L 11 0 L 11 -9.078125 C 11 -10.160156 10.742188 -10.988281 10.234375 -11.5625 C 9.722656 -12.132812 8.96875 -12.421875 7.96875 -12.421875 C 7.238281 -12.421875 6.539062 -12.210938 5.875 -11.796875 C 5.21875 -11.390625 4.765625 -10.820312 4.515625 -10.09375 C 4.328125 -9.550781 4.234375 -8.847656 4.234375 -7.984375 L 4.234375 0 L 1.828125 0 L 1.828125 -19.59375 L 4.234375 -19.59375 Z M 4.234375 -12.5625 "/></g></g></g><g fill="#2c3152" fill-opacity="1"><g transform="translate(28.15579, 82.579185)"><g><path d="M 18.296875 0 L 15.34375 0 L 13.046875 -5.96875 L 4.875 -5.96875 L 2.734375 0 L -0.03125 0 L 7.5 -19.59375 L 10.28125 -19.59375 Z M 7.765625 -13.796875 L 5.640625 -8.046875 L 12.25 -8.046875 L 9.84375 -14.5 C 9.550781 -15.269531 9.21875 -16.28125 8.84375 -17.53125 C 8.84375 -17.445312 8.734375 -16.988281 8.515625 -16.15625 C 8.296875 -15.320312 8.046875 -14.535156 7.765625 -13.796875 Z M 7.765625 -13.796875 "/></g></g></g><g fill="#2c3152" fill-opacity="1"><g transform="translate(46.406882, 82.579185)"><g><path d="M 8.53125 -14.5 C 9.550781 -14.5 10.429688 -14.296875 11.171875 -13.890625 C 11.910156 -13.492188 12.453125 -12.984375 12.796875 -12.359375 C 13.015625 -11.941406 13.171875 -11.488281 13.265625 -11 C 13.359375 -10.519531 13.40625 -9.914062 13.40625 -9.1875 L 13.40625 0 L 11 0 L 11 -8.75 C 11 -11.195312 10.003906 -12.421875 8.015625 -12.421875 C 7.265625 -12.421875 6.570312 -12.238281 5.9375 -11.875 C 5.3125 -11.507812 4.863281 -10.976562 4.59375 -10.28125 C 4.375 -9.695312 4.265625 -8.914062 4.265625 -7.9375 L 4.265625 0 L 1.859375 0 L 1.859375 -14.171875 L 4.015625 -14.171875 L 4.015625 -12.171875 C 5.097656 -13.722656 6.601562 -14.5 8.53125 -14.5 Z M 8.53125 -14.5 "/></g></g></g><g fill="#2c3152" fill-opacity="1"><g transform="translate(61.620679, 82.579185)"><g><path d="M 7.609375 -14.5 C 8.679688 -14.5 9.722656 -14.257812 10.734375 -13.78125 C 11.742188 -13.3125 12.582031 -12.523438 13.25 -11.421875 C 13.914062 -10.316406 14.25 -8.875 14.25 -7.09375 C 14.25 -5.5 13.96875 -4.148438 13.40625 -3.046875 C 12.84375 -1.941406 12.054688 -1.109375 11.046875 -0.546875 C 10.046875 0.015625 8.898438 0.296875 7.609375 0.296875 C 5.710938 0.296875 4.160156 -0.296875 2.953125 -1.484375 C 1.617188 -2.773438 0.953125 -4.644531 0.953125 -7.09375 C 0.953125 -8.675781 1.234375 -10.019531 1.796875 -11.125 C 2.367188 -12.238281 3.15625 -13.078125 4.15625 -13.640625 C 5.15625 -14.210938 6.304688 -14.5 7.609375 -14.5 Z M 3.421875 -7.09375 C 3.421875 -5.375 3.796875 -4.039062 4.546875 -3.09375 C 5.304688 -2.144531 6.328125 -1.671875 7.609375 -1.671875 C 8.867188 -1.671875 9.878906 -2.140625 10.640625 -3.078125 C 11.410156 -4.015625 11.796875 -5.351562 11.796875 -7.09375 C 11.796875 -8.769531 11.421875 -10.09375 10.671875 -11.0625 C 9.921875 -12.039062 8.890625 -12.53125 7.578125 -12.53125 C 6.335938 -12.53125 5.332031 -12.050781 4.5625 -11.09375 C 3.800781 -10.132812 3.421875 -8.800781 3.421875 -7.09375 Z M 3.421875 -7.09375 "/></g></g></g><g fill="#2c3152" fill-opacity="1"><g transform="translate(76.834476, 82.579185)"><g><path d="M 7.03125 -14.5 C 7.851562 -14.5 8.664062 -14.242188 9.46875 -13.734375 L 8.640625 -11.515625 C 8.054688 -11.859375 7.445312 -12.03125 6.8125 -12.03125 C 5.894531 -12.03125 5.222656 -11.613281 4.796875 -10.78125 C 4.367188 -9.957031 4.15625 -8.890625 4.15625 -7.578125 L 4.15625 0 L 1.75 0 L 1.75 -14.171875 L 3.90625 -14.171875 L 3.90625 -12.03125 C 4.363281 -12.851562 4.816406 -13.46875 5.265625 -13.875 C 5.710938 -14.289062 6.300781 -14.5 7.03125 -14.5 Z M 7.03125 -14.5 "/></g></g></g><g fill="#2c3152" fill-opacity="1"><g transform="translate(85.946344, 82.579185)"><g><path d="M 7.6875 -14.5 C 9.050781 -14.5 10.222656 -14.175781 11.203125 -13.53125 C 12.179688 -12.882812 12.914062 -12.015625 13.40625 -10.921875 C 13.894531 -9.828125 14.140625 -8.601562 14.140625 -7.25 L 14.140625 -6.484375 L 3.5625 -6.484375 C 3.632812 -4.972656 4.0625 -3.789062 4.84375 -2.9375 C 5.625 -2.09375 6.628906 -1.671875 7.859375 -1.671875 C 8.785156 -1.671875 9.550781 -1.914062 10.15625 -2.40625 C 10.769531 -2.894531 11.242188 -3.613281 11.578125 -4.5625 L 14.0625 -4.265625 C 13.675781 -2.847656 12.945312 -1.734375 11.875 -0.921875 C 10.8125 -0.109375 9.507812 0.296875 7.96875 0.296875 C 5.789062 0.296875 4.09375 -0.335938 2.875 -1.609375 C 1.664062 -2.890625 1.0625 -4.679688 1.0625 -6.984375 C 1.0625 -8.515625 1.332031 -9.84375 1.875 -10.96875 C 2.425781 -12.101562 3.195312 -12.972656 4.1875 -13.578125 C 5.1875 -14.191406 6.351562 -14.5 7.6875 -14.5 Z M 3.6875 -8.484375 L 11.59375 -8.484375 C 11.539062 -9.828125 11.125 -10.835938 10.34375 -11.515625 C 9.570312 -12.191406 8.6875 -12.53125 7.6875 -12.53125 C 6.550781 -12.53125 5.625 -12.144531 4.90625 -11.375 C 4.1875 -10.613281 3.78125 -9.648438 3.6875 -8.484375 Z M 3.6875 -8.484375 "/></g></g></g><g fill="#2c3152" fill-opacity="1"><g transform="translate(101.160141, 82.579185)"><g><path d="M 3.578125 -14.171875 L 5.6875 -10.96875 L 6.75 -9.28125 C 6.976562 -9.625 7.3125 -10.101562 7.75 -10.71875 L 10.234375 -14.171875 L 13.109375 -14.171875 L 8.203125 -7.53125 L 13.484375 0 L 10.53125 0 L 7.796875 -4.109375 C 7.359375 -4.765625 7.039062 -5.265625 6.84375 -5.609375 L 3.09375 0 L 0.1875 0 L 5.359375 -7.390625 L 0.578125 -14.171875 Z M 3.578125 -14.171875 "/></g></g></g><g fill="#2c3152" fill-opacity="1"><g transform="translate(114.841616, 82.579185)"><g><path d="M 4.234375 -16.859375 L 1.828125 -16.859375 L 1.828125 -19.59375 L 4.234375 -19.59375 Z M 4.234375 0 L 1.828125 0 L 1.828125 -14.171875 L 4.234375 -14.171875 Z M 4.234375 0 "/></g></g></g><g fill="#2c3152" fill-opacity="1"><g transform="translate(120.916189, 82.579185)"><g><path d="M 7.765625 -14.5 C 8.929688 -14.5 9.875 -14.382812 10.59375 -14.15625 C 11.320312 -13.925781 11.894531 -13.59375 12.3125 -13.15625 C 12.707031 -12.738281 12.976562 -12.273438 13.125 -11.765625 C 13.269531 -11.253906 13.34375 -10.578125 13.34375 -9.734375 L 13.34375 -4.015625 C 13.34375 -2.179688 13.601562 -0.84375 14.125 0 L 11.59375 0 C 11.363281 -0.488281 11.203125 -1.070312 11.109375 -1.75 C 10.234375 -1.019531 9.378906 -0.488281 8.546875 -0.15625 C 7.722656 0.164062 6.863281 0.328125 5.96875 0.328125 C 4.4375 0.328125 3.234375 -0.046875 2.359375 -0.796875 C 1.484375 -1.546875 1.046875 -2.53125 1.046875 -3.75 C 1.046875 -4.382812 1.191406 -5 1.484375 -5.59375 C 1.773438 -6.1875 2.175781 -6.648438 2.6875 -6.984375 C 3.226562 -7.347656 3.78125 -7.609375 4.34375 -7.765625 C 4.914062 -7.929688 5.609375 -8.0625 6.421875 -8.15625 C 7.304688 -8.25 8.179688 -8.367188 9.046875 -8.515625 C 9.910156 -8.671875 10.539062 -8.832031 10.9375 -9 L 10.9375 -9.609375 C 10.9375 -10.566406 10.675781 -11.289062 10.15625 -11.78125 C 9.644531 -12.28125 8.757812 -12.53125 7.5 -12.53125 C 6.3125 -12.53125 5.457031 -12.316406 4.9375 -11.890625 C 4.414062 -11.472656 4.035156 -10.785156 3.796875 -9.828125 L 1.453125 -10.125 C 1.773438 -11.65625 2.460938 -12.765625 3.515625 -13.453125 C 4.566406 -14.148438 5.984375 -14.5 7.765625 -14.5 Z M 7.5 -6.296875 C 6.5625 -6.148438 5.84375 -6.003906 5.34375 -5.859375 C 4.84375 -5.722656 4.425781 -5.492188 4.09375 -5.171875 C 3.769531 -4.859375 3.609375 -4.398438 3.609375 -3.796875 C 3.609375 -3.085938 3.867188 -2.535156 4.390625 -2.140625 C 4.910156 -1.753906 5.644531 -1.5625 6.59375 -1.5625 C 7.144531 -1.5625 7.738281 -1.675781 8.375 -1.90625 C 9.007812 -2.132812 9.566406 -2.53125 10.046875 -3.09375 C 10.347656 -3.457031 10.570312 -3.863281 10.71875 -4.3125 C 10.863281 -4.769531 10.9375 -5.359375 10.9375 -6.078125 L 10.9375 -7.109375 C 10.207031 -6.816406 9.0625 -6.546875 7.5 -6.296875 Z M 7.5 -6.296875 "/></g></g></g><g fill="#2c3152" fill-opacity="1"><g transform="translate(136.129986, 82.579185)"><g/></g></g><g fill="#2c3152" fill-opacity="1"><g transform="translate(143.736889, 82.579185)"><g><path d="M 15.109375 -4.21875 L 15.109375 -19.59375 L 17.59375 -19.59375 L 17.59375 0 L 14.9375 0 L 4.65625 -15.375 L 4.65625 0 L 2.15625 0 L 2.15625 -19.59375 L 4.8125 -19.59375 Z M 15.109375 -4.21875 "/></g></g></g><g fill="#2c3152" fill-opacity="1"><g transform="translate(163.492937, 82.579185)"><g><path d="M 7.6875 -14.5 C 9.050781 -14.5 10.222656 -14.175781 11.203125 -13.53125 C 12.179688 -12.882812 12.914062 -12.015625 13.40625 -10.921875 C 13.894531 -9.828125 14.140625 -8.601562 14.140625 -7.25 L 14.140625 -6.484375 L 3.5625 -6.484375 C 3.632812 -4.972656 4.0625 -3.789062 4.84375 -2.9375 C 5.625 -2.09375 6.628906 -1.671875 7.859375 -1.671875 C 8.785156 -1.671875 9.550781 -1.914062 10.15625 -2.40625 C 10.769531 -2.894531 11.242188 -3.613281 11.578125 -4.5625 L 14.0625 -4.265625 C 13.675781 -2.847656 12.945312 -1.734375 11.875 -0.921875 C 10.8125 -0.109375 9.507812 0.296875 7.96875 0.296875 C 5.789062 0.296875 4.09375 -0.335938 2.875 -1.609375 C 1.664062 -2.890625 1.0625 -4.679688 1.0625 -6.984375 C 1.0625 -8.515625 1.332031 -9.84375 1.875 -10.96875 C 2.425781 -12.101562 3.195312 -12.972656 4.1875 -13.578125 C 5.1875 -14.191406 6.351562 -14.5 7.6875 -14.5 Z M 3.6875 -8.484375 L 11.59375 -8.484375 C 11.539062 -9.828125 11.125 -10.835938 10.34375 -11.515625 C 9.570312 -12.191406 8.6875 -12.53125 7.6875 -12.53125 C 6.550781 -12.53125 5.625 -12.144531 4.90625 -11.375 C 4.1875 -10.613281 3.78125 -9.648438 3.6875 -8.484375 Z M 3.6875 -8.484375 "/></g></g></g><g fill="#2c3152" fill-opacity="1"><g transform="translate(178.706734, 82.579185)"><g><path d="M 7.03125 -14.5 C 7.851562 -14.5 8.664062 -14.242188 9.46875 -13.734375 L 8.640625 -11.515625 C 8.054688 -11.859375 7.445312 -12.03125 6.8125 -12.03125 C 5.894531 -12.03125 5.222656 -11.613281 4.796875 -10.78125 C 4.367188 -9.957031 4.15625 -8.890625 4.15625 -7.578125 L 4.15625 0 L 1.75 0 L 1.75 -14.171875 L 3.90625 -14.171875 L 3.90625 -12.03125 C 4.363281 -12.851562 4.816406 -13.46875 5.265625 -13.875 C 5.710938 -14.289062 6.300781 -14.5 7.03125 -14.5 Z M 7.03125 -14.5 "/></g></g></g><g fill="#2c3152" fill-opacity="1"><g transform="translate(187.818592, 82.579185)"><g><path d="M 5.796875 -6.078125 C 5.960938 -5.640625 6.203125 -4.910156 6.515625 -3.890625 L 6.875 -2.8125 C 7.269531 -4.164062 7.5625 -5.0625 7.75 -5.5 L 10.890625 -14.171875 L 13.375 -14.171875 L 8.015625 0 L 5.75 0 L 0.359375 -14.171875 L 2.90625 -14.171875 Z M 5.796875 -6.078125 "/></g></g></g><g fill="#2c3152" fill-opacity="1"><g transform="translate(201.500058, 82.579185)"><g><path d="M 7.609375 -14.5 C 8.679688 -14.5 9.722656 -14.257812 10.734375 -13.78125 C 11.742188 -13.3125 12.582031 -12.523438 13.25 -11.421875 C 13.914062 -10.316406 14.25 -8.875 14.25 -7.09375 C 14.25 -5.5 13.96875 -4.148438 13.40625 -3.046875 C 12.84375 -1.941406 12.054688 -1.109375 11.046875 -0.546875 C 10.046875 0.015625 8.898438 0.296875 7.609375 0.296875 C 5.710938 0.296875 4.160156 -0.296875 2.953125 -1.484375 C 1.617188 -2.773438 0.953125 -4.644531 0.953125 -7.09375 C 0.953125 -8.675781 1.234375 -10.019531 1.796875 -11.125 C 2.367188 -12.238281 3.15625 -13.078125 4.15625 -13.640625 C 5.15625 -14.210938 6.304688 -14.5 7.609375 -14.5 Z M 3.421875 -7.09375 C 3.421875 -5.375 3.796875 -4.039062 4.546875 -3.09375 C 5.304688 -2.144531 6.328125 -1.671875 7.609375 -1.671875 C 8.867188 -1.671875 9.878906 -2.140625 10.640625 -3.078125 C 11.410156 -4.015625 11.796875 -5.351562 11.796875 -7.09375 C 11.796875 -8.769531 11.421875 -10.09375 10.671875 -11.0625 C 9.921875 -12.039062 8.890625 -12.53125 7.578125 -12.53125 C 6.335938 -12.53125 5.332031 -12.050781 4.5625 -11.09375 C 3.800781 -10.132812 3.421875 -8.800781 3.421875 -7.09375 Z M 3.421875 -7.09375 "/></g></g></g><g fill="#2c3152" fill-opacity="1"><g transform="translate(216.713845, 82.579185)"><g><path d="M 6.515625 -14.5 C 8.117188 -14.5 9.410156 -14.164062 10.390625 -13.5 C 11.378906 -12.832031 11.945312 -11.84375 12.09375 -10.53125 L 9.734375 -10.203125 C 9.628906 -10.910156 9.328125 -11.472656 8.828125 -11.890625 C 8.335938 -12.316406 7.609375 -12.53125 6.640625 -12.53125 C 5.679688 -12.53125 4.929688 -12.363281 4.390625 -12.03125 C 3.847656 -11.707031 3.578125 -11.253906 3.578125 -10.671875 C 3.578125 -10.265625 3.738281 -9.929688 4.0625 -9.671875 C 4.382812 -9.410156 4.765625 -9.207031 5.203125 -9.0625 C 5.640625 -8.925781 6.304688 -8.75 7.203125 -8.53125 C 8.347656 -8.257812 9.28125 -7.988281 10 -7.71875 C 10.71875 -7.445312 11.335938 -7.023438 11.859375 -6.453125 C 12.378906 -5.890625 12.640625 -5.132812 12.640625 -4.1875 C 12.640625 -3.363281 12.410156 -2.609375 11.953125 -1.921875 C 11.492188 -1.242188 10.84375 -0.703125 10 -0.296875 C 9.15625 0.0976562 8.1875 0.296875 7.09375 0.296875 C 5.1875 0.296875 3.734375 -0.0703125 2.734375 -0.8125 C 1.734375 -1.5625 1.101562 -2.703125 0.84375 -4.234375 L 3.234375 -4.59375 C 3.359375 -3.625 3.742188 -2.894531 4.390625 -2.40625 C 5.035156 -1.914062 5.867188 -1.671875 6.890625 -1.671875 C 7.929688 -1.671875 8.738281 -1.882812 9.3125 -2.3125 C 9.882812 -2.738281 10.171875 -3.269531 10.171875 -3.90625 C 10.171875 -4.507812 9.882812 -4.957031 9.3125 -5.25 C 8.738281 -5.539062 7.859375 -5.820312 6.671875 -6.09375 C 5.503906 -6.375 4.566406 -6.644531 3.859375 -6.90625 C 3.160156 -7.175781 2.550781 -7.59375 2.03125 -8.15625 C 1.519531 -8.71875 1.265625 -9.472656 1.265625 -10.421875 C 1.265625 -11.191406 1.46875 -11.882812 1.875 -12.5 C 2.28125 -13.125 2.878906 -13.613281 3.671875 -13.96875 C 4.472656 -14.320312 5.421875 -14.5 6.515625 -14.5 Z M 6.515625 -14.5 "/></g></g></g><g fill="#2c3152" fill-opacity="1"><g transform="translate(230.395311, 82.579185)"><g><path d="M 7.765625 -14.5 C 8.929688 -14.5 9.875 -14.382812 10.59375 -14.15625 C 11.320312 -13.925781 11.894531 -13.59375 12.3125 -13.15625 C 12.707031 -12.738281 12.976562 -12.273438 13.125 -11.765625 C 13.269531 -11.253906 13.34375 -10.578125 13.34375 -9.734375 L 13.34375 -4.015625 C 13.34375 -2.179688 13.601562 -0.84375 14.125 0 L 11.59375 0 C 11.363281 -0.488281 11.203125 -1.070312 11.109375 -1.75 C 10.234375 -1.019531 9.378906 -0.488281 8.546875 -0.15625 C 7.722656 0.164062 6.863281 0.328125 5.96875 0.328125 C 4.4375 0.328125 3.234375 -0.046875 2.359375 -0.796875 C 1.484375 -1.546875 1.046875 -2.53125 1.046875 -3.75 C 1.046875 -4.382812 1.191406 -5 1.484375 -5.59375 C 1.773438 -6.1875 2.175781 -6.648438 2.6875 -6.984375 C 3.226562 -7.347656 3.78125 -7.609375 4.34375 -7.765625 C 4.914062 -7.929688 5.609375 -8.0625 6.421875 -8.15625 C 7.304688 -8.25 8.179688 -8.367188 9.046875 -8.515625 C 9.910156 -8.671875 10.539062 -8.832031 10.9375 -9 L 10.9375 -9.609375 C 10.9375 -10.566406 10.675781 -11.289062 10.15625 -11.78125 C 9.644531 -12.28125 8.757812 -12.53125 7.5 -12.53125 C 6.3125 -12.53125 5.457031 -12.316406 4.9375 -11.890625 C 4.414062 -11.472656 4.035156 -10.785156 3.796875 -9.828125 L 1.453125 -10.125 C 1.773438 -11.65625 2.460938 -12.765625 3.515625 -13.453125 C 4.566406 -14.148438 5.984375 -14.5 7.765625 -14.5 Z M 7.5 -6.296875 C 6.5625 -6.148438 5.84375 -6.003906 5.34375 -5.859375 C 4.84375 -5.722656 4.425781 -5.492188 4.09375 -5.171875 C 3.769531 -4.859375 3.609375 -4.398438 3.609375 -3.796875 C 3.609375 -3.085938 3.867188 -2.535156 4.390625 -2.140625 C 4.910156 -1.753906 5.644531 -1.5625 6.59375 -1.5625 C 7.144531 -1.5625 7.738281 -1.675781 8.375 -1.90625 C 9.007812 -2.132812 9.566406 -2.53125 10.046875 -3.09375 C 10.347656 -3.457031 10.570312 -3.863281 10.71875 -4.3125 C 10.863281 -4.769531 10.9375 -5.359375 10.9375 -6.078125 L 10.9375 -7.109375 C 10.207031 -6.816406 9.0625 -6.546875 7.5 -6.296875 Z M 7.5 -6.296875 "/></g></g></g></svg>