<svg xmlns="http://www.w3.org/2000/svg" xmlns:xlink="http://www.w3.org/1999/xlink" width="500" zoomAndPan="magnify" viewBox="0 0 375 374.999991" height="500" preserveAspectRatio="xMidYMid meet" version="1.0"><defs><g/><clipPath id="5d1a825c20"><path d="M 5.273438 106.511719 L 369.726562 106.511719 L 369.726562 268.488281 L 5.273438 268.488281 Z M 5.273438 106.511719 " clip-rule="nonzero"/></clipPath><clipPath id="d597209fc3"><path d="M 22.523438 106.511719 L 352.476562 106.511719 C 357.050781 106.511719 361.4375 108.328125 364.675781 111.5625 C 367.910156 114.800781 369.726562 119.1875 369.726562 123.761719 L 369.726562 251.238281 C 369.726562 255.8125 367.910156 260.199219 364.675781 263.4375 C 361.4375 266.671875 357.050781 268.488281 352.476562 268.488281 L 22.523438 268.488281 C 17.949219 268.488281 13.5625 266.671875 10.324219 263.4375 C 7.089844 260.199219 5.273438 255.8125 5.273438 251.238281 L 5.273438 123.761719 C 5.273438 119.1875 7.089844 114.800781 10.324219 111.5625 C 13.5625 108.328125 17.949219 106.511719 22.523438 106.511719 Z M 22.523438 106.511719 " clip-rule="nonzero"/></clipPath></defs><g clip-path="url(#5d1a825c20)"><g clip-path="url(#d597209fc3)"><path fill="#ccecea" d="M 5.273438 106.511719 L 5.273438 268.488281 L 369.726562 268.488281 L 369.726562 106.511719 Z M 5.273438 106.511719 " fill-opacity="1" fill-rule="nonzero"/></g></g><g fill="#2c3152" fill-opacity="1"><g transform="translate(117.691877, 202.499987)"><g><path d="M 22.671875 -22.859375 C 22.585938 -24.898438 21.820312 -26.503906 20.375 -27.671875 C 18.9375 -28.835938 17.035156 -29.421875 14.671875 -29.421875 C 12.304688 -29.421875 10.484375 -28.929688 9.203125 -27.953125 C 7.929688 -26.984375 7.296875 -25.582031 7.296875 -23.75 C 7.296875 -22.769531 7.570312 -21.925781 8.125 -21.21875 C 8.6875 -20.519531 9.6875 -20.003906 11.125 -19.671875 L 20.34375 -17.5625 C 22.832031 -17.019531 24.675781 -15.988281 25.875 -14.46875 C 27.082031 -12.945312 27.6875 -11.097656 27.6875 -8.921875 C 27.6875 -5.722656 26.515625 -3.289062 24.171875 -1.625 C 21.828125 0.03125 18.78125 0.859375 15.03125 0.859375 C 12.175781 0.859375 9.921875 0.492188 8.265625 -0.234375 C 6.617188 -0.972656 5.160156 -2.140625 3.890625 -3.734375 C 2.617188 -5.328125 1.984375 -7.5625 1.984375 -10.4375 L 6.0625 -10.4375 C 6.0625 -8.03125 6.859375 -6.164062 8.453125 -4.84375 C 10.054688 -3.53125 12.234375 -2.875 14.984375 -2.875 C 17.648438 -2.875 19.722656 -3.347656 21.203125 -4.296875 C 22.691406 -5.242188 23.4375 -6.585938 23.4375 -8.328125 C 23.4375 -9.910156 22.992188 -11.09375 22.109375 -11.875 C 21.222656 -12.65625 19.492188 -13.347656 16.921875 -13.953125 L 9.953125 -15.578125 C 7.640625 -16.109375 5.910156 -17.023438 4.765625 -18.328125 C 3.617188 -19.640625 3.046875 -21.257812 3.046875 -23.1875 C 3.046875 -26.082031 4.023438 -28.46875 5.984375 -30.34375 C 7.941406 -32.21875 10.671875 -33.15625 14.171875 -33.15625 C 18.128906 -33.15625 21.179688 -32.332031 23.328125 -30.6875 C 25.472656 -29.039062 26.625 -26.429688 26.78125 -22.859375 Z M 22.671875 -22.859375 "/></g></g><g transform="translate(147.486797, 202.499987)"><g><path d="M 2.75 -23.53125 L 6.703125 -23.53125 L 6.703125 -7.90625 C 6.703125 -6.175781 7.09375 -4.882812 7.875 -4.03125 C 8.65625 -3.175781 9.78125 -2.75 11.25 -2.75 C 13.28125 -2.75 14.867188 -3.46875 16.015625 -4.90625 C 17.160156 -6.351562 17.734375 -8.238281 17.734375 -10.5625 L 17.734375 -23.53125 L 21.6875 -23.53125 L 21.6875 0 L 17.953125 0 L 17.953125 -3.421875 L 17.859375 -3.515625 C 16.367188 -0.710938 13.878906 0.6875 10.390625 0.6875 C 8.140625 0.6875 6.300781 0.0703125 4.875 -1.15625 C 3.457031 -2.394531 2.75 -4.210938 2.75 -6.609375 Z M 2.75 -23.53125 "/></g></g><g transform="translate(172.140116, 202.499987)"><g><path d="M 19.53125 -11.84375 C 19.53125 -14.988281 18.972656 -17.242188 17.859375 -18.609375 C 16.742188 -19.972656 15.15625 -20.65625 13.09375 -20.65625 C 11 -20.625 9.414062 -19.804688 8.34375 -18.203125 C 7.28125 -16.597656 6.75 -14.28125 6.75 -11.25 C 6.75 -8.15625 7.390625 -5.960938 8.671875 -4.671875 C 9.960938 -3.390625 11.46875 -2.75 13.1875 -2.75 C 15.132812 -2.75 16.675781 -3.550781 17.8125 -5.15625 C 18.957031 -6.757812 19.53125 -8.988281 19.53125 -11.84375 Z M 2.96875 0 L 2.96875 -32.296875 L 6.921875 -32.296875 L 6.921875 -20.5625 L 7.015625 -20.5625 C 8.691406 -23 10.960938 -24.21875 13.828125 -24.21875 C 16.753906 -24.21875 19.117188 -23.128906 20.921875 -20.953125 C 22.722656 -18.773438 23.625 -15.941406 23.625 -12.453125 C 23.625 -8.523438 22.710938 -5.351562 20.890625 -2.9375 C 19.078125 -0.519531 16.535156 0.6875 13.265625 0.6875 C 10.398438 0.6875 8.242188 -0.515625 6.796875 -2.921875 L 6.703125 -2.921875 L 6.703125 0 Z M 2.96875 0 "/></g></g><g transform="translate(197.562478, 202.499987)"><g><path d="M 2.96875 -23.53125 L 6.703125 -23.53125 L 6.703125 -20.21875 L 6.796875 -20.21875 C 8.566406 -22.882812 10.9375 -24.21875 13.90625 -24.21875 C 16.851562 -24.21875 18.941406 -22.941406 20.171875 -20.390625 C 21.296875 -21.765625 22.382812 -22.742188 23.4375 -23.328125 C 24.5 -23.921875 25.804688 -24.21875 27.359375 -24.21875 C 29.390625 -24.21875 31.113281 -23.550781 32.53125 -22.21875 C 33.945312 -20.882812 34.65625 -18.90625 34.65625 -16.28125 L 34.65625 0 L 30.703125 0 L 30.703125 -15.203125 C 30.703125 -17.035156 30.351562 -18.398438 29.65625 -19.296875 C 28.96875 -20.203125 27.859375 -20.65625 26.328125 -20.65625 C 24.773438 -20.65625 23.460938 -20.023438 22.390625 -18.765625 C 21.316406 -17.503906 20.78125 -16.03125 20.78125 -14.34375 L 20.78125 0 L 16.828125 0 L 16.828125 -16.28125 C 16.828125 -17.644531 16.507812 -18.710938 15.875 -19.484375 C 15.25 -20.265625 14.335938 -20.65625 13.140625 -20.65625 C 11.253906 -20.65625 9.742188 -19.953125 8.609375 -18.546875 C 7.484375 -17.140625 6.921875 -15.234375 6.921875 -12.828125 L 6.921875 0 L 2.96875 0 Z M 2.96875 -23.53125 "/></g></g><g transform="translate(234.915991, 202.499987)"><g><path d="M 2.96875 -27.8125 L 2.96875 -32.296875 L 6.921875 -32.296875 L 6.921875 -27.8125 Z M 6.921875 0 L 2.96875 0 L 2.96875 -23.53125 L 6.921875 -23.53125 Z M 6.921875 0 "/></g></g><g transform="translate(244.825658, 202.499987)"><g><path d="M 7.734375 -20.265625 L 7.734375 -4.9375 C 7.734375 -4.34375 7.894531 -3.882812 8.21875 -3.5625 C 8.550781 -3.25 9.144531 -3.09375 10 -3.09375 L 11.515625 -3.09375 L 11.515625 0 C 10.078125 0.207031 9.085938 0.3125 8.546875 0.3125 C 6.890625 0.3125 5.679688 -0.0820312 4.921875 -0.875 C 4.160156 -1.664062 3.78125 -2.945312 3.78125 -4.71875 L 3.78125 -20.265625 L 0.59375 -20.265625 L 0.59375 -23.53125 L 3.78125 -23.53125 L 3.78125 -30.109375 L 7.734375 -30.109375 L 7.734375 -23.53125 L 11.515625 -23.53125 L 11.515625 -20.265625 Z M 7.734375 -20.265625 "/></g></g></g></svg>