<svg xmlns="http://www.w3.org/2000/svg" xmlns:xlink="http://www.w3.org/1999/xlink" width="308" zoomAndPan="magnify" viewBox="0 0 230.87999 231" height="308" preserveAspectRatio="xMidYMid meet" version="1.0"><defs><g/><clipPath id="14603782b1"><path d="M 0.207031 0.0585938 L 230.488281 0.0585938 L 230.488281 230.332031 L 0.207031 230.332031 Z M 0.207031 0.0585938 " clip-rule="nonzero"/></clipPath><clipPath id="d90b377ad4"><path d="M 0.207031 115.191406 C 0.207031 178.78125 51.757812 230.332031 115.347656 230.332031 C 178.9375 230.332031 230.488281 178.78125 230.488281 115.191406 C 230.488281 51.601562 178.9375 0.0507812 115.347656 0.0507812 C 51.757812 0.0507812 0.207031 51.601562 0.207031 115.191406 Z M 0.207031 115.191406 " clip-rule="nonzero"/></clipPath></defs><g clip-path="url(#14603782b1)"><g clip-path="url(#d90b377ad4)"><path fill="#d7e2f7" d="M 0.207031 230.332031 L 230.488281 230.332031 L 230.488281 0.0585938 L 0.207031 0.0585938 Z M 0.207031 230.332031 " fill-opacity="1" fill-rule="nonzero"/></g></g><g fill="#2c3152" fill-opacity="1"><g transform="translate(40.413765, 109.585402)"><g><path d="M 21.21875 -22.71875 L 12.6875 -22.71875 L 12.6875 0 L 9.28125 0 L 9.28125 -22.71875 L 0.796875 -22.71875 L 0.796875 -25.75 L 21.21875 -25.75 Z M 21.21875 -22.71875 "/></g></g></g><g fill="#2c3152" fill-opacity="1"><g transform="translate(62.382503, 109.585402)"><g><path d="M 5.578125 -16.5 C 6.296875 -17.34375 7.109375 -17.976562 8.015625 -18.40625 C 8.929688 -18.84375 9.988281 -19.0625 11.1875 -19.0625 C 12.1875 -19.0625 13.09375 -18.90625 13.90625 -18.59375 C 14.726562 -18.28125 15.414062 -17.859375 15.96875 -17.328125 C 16.539062 -16.773438 16.957031 -16.078125 17.21875 -15.234375 C 17.476562 -14.398438 17.609375 -13.328125 17.609375 -12.015625 L 17.609375 0 L 14.453125 0 L 14.453125 -11.9375 C 14.453125 -13.351562 14.113281 -14.4375 13.4375 -15.1875 C 12.769531 -15.945312 11.78125 -16.328125 10.46875 -16.328125 C 9.507812 -16.328125 8.597656 -16.054688 7.734375 -15.515625 C 6.867188 -14.972656 6.269531 -14.222656 5.9375 -13.265625 C 5.695312 -12.546875 5.578125 -11.625 5.578125 -10.5 L 5.578125 0 L 2.40625 0 L 2.40625 -25.75 L 5.578125 -25.75 Z M 5.578125 -16.5 "/></g></g></g><g fill="#2c3152" fill-opacity="1"><g transform="translate(82.373692, 109.585402)"><g><path d="M 10.109375 -19.0625 C 11.898438 -19.0625 13.4375 -18.632812 14.71875 -17.78125 C 16 -16.925781 16.960938 -15.78125 17.609375 -14.34375 C 18.265625 -12.90625 18.59375 -11.300781 18.59375 -9.53125 L 18.59375 -8.515625 L 4.671875 -8.515625 C 4.765625 -6.523438 5.328125 -4.972656 6.359375 -3.859375 C 7.390625 -2.742188 8.707031 -2.1875 10.3125 -2.1875 C 11.539062 -2.1875 12.554688 -2.507812 13.359375 -3.15625 C 14.160156 -3.8125 14.773438 -4.757812 15.203125 -6 L 18.484375 -5.609375 C 17.972656 -3.734375 17.015625 -2.265625 15.609375 -1.203125 C 14.210938 -0.140625 12.5 0.390625 10.46875 0.390625 C 7.613281 0.390625 5.390625 -0.445312 3.796875 -2.125 C 2.203125 -3.800781 1.40625 -6.148438 1.40625 -9.171875 C 1.40625 -11.179688 1.765625 -12.925781 2.484375 -14.40625 C 3.203125 -15.894531 4.210938 -17.039062 5.515625 -17.84375 C 6.828125 -18.65625 8.359375 -19.0625 10.109375 -19.0625 Z M 4.859375 -11.140625 L 15.25 -11.140625 C 15.175781 -12.921875 14.628906 -14.253906 13.609375 -15.140625 C 12.585938 -16.023438 11.421875 -16.46875 10.109375 -16.46875 C 8.617188 -16.46875 7.398438 -15.960938 6.453125 -14.953125 C 5.503906 -13.953125 4.972656 -12.679688 4.859375 -11.140625 Z M 4.859375 -11.140625 "/></g></g></g><g fill="#2c3152" fill-opacity="1"><g transform="translate(102.364881, 109.585402)"><g><path d="M 9.234375 -19.0625 C 10.316406 -19.0625 11.382812 -18.722656 12.4375 -18.046875 L 11.359375 -15.140625 C 10.585938 -15.585938 9.785156 -15.8125 8.953125 -15.8125 C 7.753906 -15.8125 6.875 -15.265625 6.3125 -14.171875 C 5.75 -13.085938 5.46875 -11.679688 5.46875 -9.953125 L 5.46875 0 L 2.296875 0 L 2.296875 -18.625 L 5.140625 -18.625 L 5.140625 -15.8125 C 5.742188 -16.894531 6.335938 -17.707031 6.921875 -18.25 C 7.503906 -18.789062 8.273438 -19.0625 9.234375 -19.0625 Z M 9.234375 -19.0625 "/></g></g></g><g fill="#2c3152" fill-opacity="1"><g transform="translate(114.338025, 109.585402)"><g><path d="M 10.203125 -19.0625 C 11.742188 -19.0625 12.988281 -18.910156 13.9375 -18.609375 C 14.882812 -18.304688 15.628906 -17.867188 16.171875 -17.296875 C 16.703125 -16.742188 17.0625 -16.128906 17.25 -15.453125 C 17.445312 -14.785156 17.546875 -13.898438 17.546875 -12.796875 L 17.546875 -5.28125 C 17.546875 -2.863281 17.878906 -1.101562 18.546875 0 L 15.25 0 C 14.9375 -0.644531 14.71875 -1.410156 14.59375 -2.296875 C 13.445312 -1.335938 12.328125 -0.640625 11.234375 -0.203125 C 10.140625 0.222656 9.007812 0.4375 7.84375 0.4375 C 5.820312 0.4375 4.234375 -0.0507812 3.078125 -1.03125 C 1.929688 -2.019531 1.359375 -3.316406 1.359375 -4.921875 C 1.359375 -5.765625 1.550781 -6.570312 1.9375 -7.34375 C 2.320312 -8.125 2.847656 -8.734375 3.515625 -9.171875 C 4.242188 -9.648438 4.976562 -9.992188 5.71875 -10.203125 C 6.457031 -10.421875 7.367188 -10.59375 8.453125 -10.71875 C 9.597656 -10.832031 10.738281 -10.988281 11.875 -11.1875 C 13.019531 -11.394531 13.851562 -11.609375 14.375 -11.828125 L 14.375 -12.625 C 14.375 -13.894531 14.03125 -14.851562 13.34375 -15.5 C 12.664062 -16.144531 11.5 -16.46875 9.84375 -16.46875 C 8.289062 -16.46875 7.171875 -16.191406 6.484375 -15.640625 C 5.804688 -15.085938 5.3125 -14.175781 5 -12.90625 L 1.90625 -13.296875 C 2.332031 -15.316406 3.234375 -16.78125 4.609375 -17.6875 C 5.992188 -18.601562 7.859375 -19.0625 10.203125 -19.0625 Z M 9.84375 -8.265625 C 8.625 -8.078125 7.6875 -7.890625 7.03125 -7.703125 C 6.375 -7.523438 5.828125 -7.226562 5.390625 -6.8125 C 4.960938 -6.394531 4.75 -5.789062 4.75 -5 C 4.75 -4.0625 5.085938 -3.332031 5.765625 -2.8125 C 6.453125 -2.300781 7.421875 -2.046875 8.671875 -2.046875 C 9.390625 -2.046875 10.164062 -2.195312 11 -2.5 C 11.84375 -2.800781 12.570312 -3.320312 13.1875 -4.0625 C 13.601562 -4.539062 13.90625 -5.078125 14.09375 -5.671875 C 14.28125 -6.273438 14.375 -7.046875 14.375 -7.984375 L 14.375 -9.34375 C 13.414062 -8.957031 11.90625 -8.597656 9.84375 -8.265625 Z M 9.84375 -8.265625 "/></g></g></g><g fill="#2c3152" fill-opacity="1"><g transform="translate(134.329214, 109.585402)"><g><path d="M 10.671875 -19.0625 C 12.253906 -19.0625 13.644531 -18.664062 14.84375 -17.875 C 16.039062 -17.082031 16.96875 -15.972656 17.625 -14.546875 C 18.289062 -13.117188 18.625 -11.46875 18.625 -9.59375 C 18.625 -7.5625 18.265625 -5.789062 17.546875 -4.28125 C 16.828125 -2.769531 15.847656 -1.613281 14.609375 -0.8125 C 13.378906 -0.0078125 12.007812 0.390625 10.5 0.390625 C 9.519531 0.390625 8.609375 0.179688 7.765625 -0.234375 C 6.921875 -0.648438 6.203125 -1.21875 5.609375 -1.9375 L 5.609375 7.15625 L 2.4375 7.15625 L 2.4375 -18.625 L 5.328125 -18.625 L 5.328125 -16.21875 C 6.015625 -17.175781 6.769531 -17.890625 7.59375 -18.359375 C 8.425781 -18.828125 9.453125 -19.0625 10.671875 -19.0625 Z M 5.28125 -9.203125 C 5.28125 -6.953125 5.734375 -5.21875 6.640625 -4 C 7.554688 -2.789062 8.769531 -2.1875 10.28125 -2.1875 C 11.769531 -2.1875 12.992188 -2.8125 13.953125 -4.0625 C 14.910156 -5.3125 15.390625 -7.109375 15.390625 -9.453125 C 15.390625 -11.660156 14.929688 -13.398438 14.015625 -14.671875 C 13.109375 -15.941406 11.898438 -16.578125 10.390625 -16.578125 C 9.410156 -16.578125 8.535156 -16.269531 7.765625 -15.65625 C 6.992188 -15.039062 6.382812 -14.171875 5.9375 -13.046875 C 5.5 -11.921875 5.28125 -10.640625 5.28125 -9.203125 Z M 5.28125 -9.203125 "/></g></g></g><g fill="#2c3152" fill-opacity="1"><g transform="translate(154.320403, 109.585402)"><g><path d="M 5.578125 -22.140625 L 2.40625 -22.140625 L 2.40625 -25.75 L 5.578125 -25.75 Z M 5.578125 0 L 2.40625 0 L 2.40625 -18.625 L 5.578125 -18.625 Z M 5.578125 0 "/></g></g></g><g fill="#2c3152" fill-opacity="1"><g transform="translate(162.302502, 109.585402)"><g><path d="M 8.5625 -19.0625 C 10.664062 -19.0625 12.363281 -18.625 13.65625 -17.75 C 14.957031 -16.875 15.703125 -15.570312 15.890625 -13.84375 L 12.796875 -13.40625 C 12.648438 -14.34375 12.253906 -15.085938 11.609375 -15.640625 C 10.960938 -16.191406 10.003906 -16.46875 8.734375 -16.46875 C 7.460938 -16.46875 6.472656 -16.25 5.765625 -15.8125 C 5.054688 -15.382812 4.703125 -14.785156 4.703125 -14.015625 C 4.703125 -13.492188 4.910156 -13.054688 5.328125 -12.703125 C 5.753906 -12.359375 6.253906 -12.097656 6.828125 -11.921875 C 7.398438 -11.742188 8.273438 -11.507812 9.453125 -11.21875 C 10.960938 -10.851562 12.191406 -10.488281 13.140625 -10.125 C 14.085938 -9.769531 14.898438 -9.222656 15.578125 -8.484375 C 16.265625 -7.742188 16.609375 -6.75 16.609375 -5.5 C 16.609375 -4.425781 16.304688 -3.4375 15.703125 -2.53125 C 15.109375 -1.632812 14.253906 -0.921875 13.140625 -0.390625 C 12.023438 0.128906 10.75 0.390625 9.3125 0.390625 C 6.820312 0.390625 4.914062 -0.0976562 3.59375 -1.078125 C 2.28125 -2.054688 1.453125 -3.554688 1.109375 -5.578125 L 4.25 -6.046875 C 4.414062 -4.773438 4.921875 -3.8125 5.765625 -3.15625 C 6.617188 -2.507812 7.71875 -2.1875 9.0625 -2.1875 C 10.425781 -2.1875 11.484375 -2.46875 12.234375 -3.03125 C 12.992188 -3.601562 13.375 -4.304688 13.375 -5.140625 C 13.375 -5.929688 12.992188 -6.519531 12.234375 -6.90625 C 11.484375 -7.289062 10.328125 -7.660156 8.765625 -8.015625 C 7.234375 -8.378906 6.003906 -8.734375 5.078125 -9.078125 C 4.160156 -9.421875 3.359375 -9.960938 2.671875 -10.703125 C 1.992188 -11.453125 1.65625 -12.453125 1.65625 -13.703125 C 1.65625 -14.703125 1.921875 -15.609375 2.453125 -16.421875 C 2.992188 -17.242188 3.785156 -17.890625 4.828125 -18.359375 C 5.878906 -18.828125 7.125 -19.0625 8.5625 -19.0625 Z M 8.5625 -19.0625 "/></g></g></g><g fill="#2c3152" fill-opacity="1"><g transform="translate(180.280196, 109.585402)"><g><path d="M 6.078125 -18.625 L 9.234375 -18.625 L 9.234375 -16.25 L 6.078125 -16.25 L 6.078125 -4.703125 C 6.078125 -3.890625 6.191406 -3.316406 6.421875 -2.984375 C 6.648438 -2.648438 7.125 -2.484375 7.84375 -2.484375 C 8.007812 -2.484375 8.472656 -2.539062 9.234375 -2.65625 L 9.703125 0.140625 C 8.742188 0.335938 7.96875 0.4375 7.375 0.4375 C 6.144531 0.4375 5.207031 0.238281 4.5625 -0.15625 C 3.914062 -0.550781 3.476562 -1.101562 3.25 -1.8125 C 3.019531 -2.519531 2.90625 -3.4375 2.90625 -4.5625 L 2.90625 -16.25 L 0.609375 -16.25 L 0.609375 -18.625 L 2.90625 -18.625 L 2.90625 -23.265625 L 6.078125 -25.171875 Z M 6.078125 -18.625 "/></g></g></g><g fill="#2c3152" fill-opacity="1"><g transform="translate(47.694247, 140.864377)"><g><path d="M 9 -9.640625 L 5.390625 -9.640625 L 5.390625 0 L 3.9375 0 L 3.9375 -9.640625 L 0.328125 -9.640625 L 0.328125 -10.9375 L 9 -10.9375 Z M 9 -9.640625 "/></g></g></g><g fill="#2c3152" fill-opacity="1"><g transform="translate(57.021183, 140.864377)"><g><path d="M 3.921875 -8.09375 C 4.378906 -8.09375 4.832031 -7.945312 5.28125 -7.65625 L 4.828125 -6.421875 C 4.492188 -6.617188 4.148438 -6.71875 3.796875 -6.71875 C 3.285156 -6.71875 2.910156 -6.484375 2.671875 -6.015625 C 2.441406 -5.554688 2.328125 -4.960938 2.328125 -4.234375 L 2.328125 0 L 0.984375 0 L 0.984375 -7.90625 L 2.1875 -7.90625 L 2.1875 -6.71875 C 2.4375 -7.175781 2.6875 -7.519531 2.9375 -7.75 C 3.1875 -7.976562 3.515625 -8.09375 3.921875 -8.09375 Z M 3.921875 -8.09375 "/></g></g></g><g fill="#2c3152" fill-opacity="1"><g transform="translate(62.104442, 140.864377)"><g><path d="M 4.296875 -8.09375 C 5.054688 -8.09375 5.707031 -7.910156 6.25 -7.546875 C 6.789062 -7.179688 7.195312 -6.691406 7.46875 -6.078125 C 7.75 -5.472656 7.890625 -4.796875 7.890625 -4.046875 L 7.890625 -3.625 L 1.984375 -3.625 C 2.023438 -2.769531 2.265625 -2.109375 2.703125 -1.640625 C 3.140625 -1.171875 3.695312 -0.9375 4.375 -0.9375 C 4.894531 -0.9375 5.328125 -1.070312 5.671875 -1.34375 C 6.015625 -1.613281 6.273438 -2.015625 6.453125 -2.546875 L 7.84375 -2.375 C 7.632812 -1.582031 7.226562 -0.957031 6.625 -0.5 C 6.03125 -0.0507812 5.300781 0.171875 4.4375 0.171875 C 3.226562 0.171875 2.285156 -0.179688 1.609375 -0.890625 C 0.929688 -1.609375 0.59375 -2.609375 0.59375 -3.890625 C 0.59375 -4.742188 0.742188 -5.484375 1.046875 -6.109375 C 1.359375 -6.742188 1.789062 -7.234375 2.34375 -7.578125 C 2.894531 -7.921875 3.546875 -8.09375 4.296875 -8.09375 Z M 2.0625 -4.734375 L 6.46875 -4.734375 C 6.4375 -5.484375 6.203125 -6.046875 5.765625 -6.421875 C 5.335938 -6.796875 4.847656 -6.984375 4.296875 -6.984375 C 3.660156 -6.984375 3.140625 -6.769531 2.734375 -6.34375 C 2.335938 -5.914062 2.113281 -5.378906 2.0625 -4.734375 Z M 2.0625 -4.734375 "/></g></g></g><g fill="#2c3152" fill-opacity="1"><g transform="translate(70.591799, 140.864377)"><g><path d="M 4.328125 -8.09375 C 4.984375 -8.09375 5.507812 -8.023438 5.90625 -7.890625 C 6.3125 -7.765625 6.632812 -7.582031 6.875 -7.34375 C 7.09375 -7.101562 7.242188 -6.84375 7.328125 -6.5625 C 7.410156 -6.28125 7.453125 -5.90625 7.453125 -5.4375 L 7.453125 -2.25 C 7.453125 -1.21875 7.59375 -0.46875 7.875 0 L 6.46875 0 C 6.34375 -0.269531 6.253906 -0.597656 6.203125 -0.984375 C 5.710938 -0.566406 5.234375 -0.265625 4.765625 -0.078125 C 4.304688 0.0976562 3.828125 0.1875 3.328125 0.1875 C 2.472656 0.1875 1.800781 -0.0195312 1.3125 -0.4375 C 0.820312 -0.851562 0.578125 -1.40625 0.578125 -2.09375 C 0.578125 -2.445312 0.65625 -2.789062 0.8125 -3.125 C 0.976562 -3.457031 1.207031 -3.710938 1.5 -3.890625 C 1.800781 -4.097656 2.109375 -4.242188 2.421875 -4.328125 C 2.742188 -4.421875 3.132812 -4.492188 3.59375 -4.546875 C 4.070312 -4.597656 4.550781 -4.664062 5.03125 -4.75 C 5.519531 -4.84375 5.878906 -4.929688 6.109375 -5.015625 L 6.109375 -5.359375 C 6.109375 -5.898438 5.960938 -6.304688 5.671875 -6.578125 C 5.378906 -6.847656 4.882812 -6.984375 4.1875 -6.984375 C 3.519531 -6.984375 3.039062 -6.867188 2.75 -6.640625 C 2.46875 -6.410156 2.257812 -6.023438 2.125 -5.484375 L 0.8125 -5.640625 C 0.988281 -6.503906 1.367188 -7.128906 1.953125 -7.515625 C 2.546875 -7.898438 3.335938 -8.09375 4.328125 -8.09375 Z M 4.1875 -3.515625 C 3.664062 -3.429688 3.265625 -3.347656 2.984375 -3.265625 C 2.703125 -3.191406 2.46875 -3.066406 2.28125 -2.890625 C 2.101562 -2.710938 2.015625 -2.457031 2.015625 -2.125 C 2.015625 -1.726562 2.160156 -1.421875 2.453125 -1.203125 C 2.742188 -0.984375 3.148438 -0.875 3.671875 -0.875 C 3.984375 -0.875 4.316406 -0.9375 4.671875 -1.0625 C 5.023438 -1.1875 5.335938 -1.40625 5.609375 -1.71875 C 5.773438 -1.925781 5.898438 -2.15625 5.984375 -2.40625 C 6.066406 -2.664062 6.109375 -2.992188 6.109375 -3.390625 L 6.109375 -3.96875 C 5.703125 -3.800781 5.0625 -3.648438 4.1875 -3.515625 Z M 4.1875 -3.515625 "/></g></g></g><g fill="#2c3152" fill-opacity="1"><g transform="translate(79.079156, 140.864377)"><g><path d="M 2.578125 -7.90625 L 3.921875 -7.90625 L 3.921875 -6.90625 L 2.578125 -6.90625 L 2.578125 -2 C 2.578125 -1.65625 2.625 -1.410156 2.71875 -1.265625 C 2.820312 -1.117188 3.023438 -1.046875 3.328125 -1.046875 C 3.398438 -1.046875 3.597656 -1.070312 3.921875 -1.125 L 4.125 0.0625 C 3.71875 0.144531 3.382812 0.1875 3.125 0.1875 C 2.601562 0.1875 2.207031 0.101562 1.9375 -0.0625 C 1.664062 -0.238281 1.476562 -0.472656 1.375 -0.765625 C 1.28125 -1.066406 1.234375 -1.457031 1.234375 -1.9375 L 1.234375 -6.90625 L 0.265625 -6.90625 L 0.265625 -7.90625 L 1.234375 -7.90625 L 1.234375 -9.875 L 2.578125 -10.6875 Z M 2.578125 -7.90625 "/></g></g></g><g fill="#2c3152" fill-opacity="1"><g transform="translate(83.322837, 140.864377)"><g><path d="M 3.640625 -8.09375 C 4.535156 -8.09375 5.253906 -7.90625 5.796875 -7.53125 C 6.347656 -7.15625 6.664062 -6.601562 6.75 -5.875 L 5.4375 -5.6875 C 5.375 -6.09375 5.203125 -6.410156 4.921875 -6.640625 C 4.648438 -6.867188 4.242188 -6.984375 3.703125 -6.984375 C 3.171875 -6.984375 2.753906 -6.890625 2.453125 -6.703125 C 2.148438 -6.523438 2 -6.273438 2 -5.953125 C 2 -5.734375 2.085938 -5.546875 2.265625 -5.390625 C 2.441406 -5.242188 2.648438 -5.132812 2.890625 -5.0625 C 3.140625 -4.988281 3.515625 -4.890625 4.015625 -4.765625 C 4.660156 -4.609375 5.179688 -4.453125 5.578125 -4.296875 C 5.984375 -4.148438 6.328125 -3.914062 6.609375 -3.59375 C 6.898438 -3.28125 7.046875 -2.859375 7.046875 -2.328125 C 7.046875 -1.878906 6.921875 -1.460938 6.671875 -1.078125 C 6.421875 -0.691406 6.054688 -0.382812 5.578125 -0.15625 C 5.109375 0.0625 4.566406 0.171875 3.953125 0.171875 C 2.890625 0.171875 2.078125 -0.0351562 1.515625 -0.453125 C 0.960938 -0.867188 0.613281 -1.503906 0.46875 -2.359375 L 1.796875 -2.5625 C 1.867188 -2.019531 2.082031 -1.613281 2.4375 -1.34375 C 2.800781 -1.070312 3.269531 -0.9375 3.84375 -0.9375 C 4.425781 -0.9375 4.875 -1.054688 5.1875 -1.296875 C 5.507812 -1.535156 5.671875 -1.832031 5.671875 -2.1875 C 5.671875 -2.519531 5.507812 -2.765625 5.1875 -2.921875 C 4.875 -3.085938 4.382812 -3.25 3.71875 -3.40625 C 3.070312 -3.5625 2.550781 -3.710938 2.15625 -3.859375 C 1.769531 -4.003906 1.429688 -4.234375 1.140625 -4.546875 C 0.847656 -4.859375 0.703125 -5.28125 0.703125 -5.8125 C 0.703125 -6.238281 0.816406 -6.625 1.046875 -6.96875 C 1.273438 -7.320312 1.609375 -7.597656 2.046875 -7.796875 C 2.492188 -7.992188 3.023438 -8.09375 3.640625 -8.09375 Z M 3.640625 -8.09375 "/></g></g></g><g fill="#2c3152" fill-opacity="1"><g transform="translate(90.955354, 140.864377)"><g/></g></g><g fill="#2c3152" fill-opacity="1"><g transform="translate(95.199035, 140.864377)"><g><path d="M 4.328125 -8.09375 C 4.984375 -8.09375 5.507812 -8.023438 5.90625 -7.890625 C 6.3125 -7.765625 6.632812 -7.582031 6.875 -7.34375 C 7.09375 -7.101562 7.242188 -6.84375 7.328125 -6.5625 C 7.410156 -6.28125 7.453125 -5.90625 7.453125 -5.4375 L 7.453125 -2.25 C 7.453125 -1.21875 7.59375 -0.46875 7.875 0 L 6.46875 0 C 6.34375 -0.269531 6.253906 -0.597656 6.203125 -0.984375 C 5.710938 -0.566406 5.234375 -0.265625 4.765625 -0.078125 C 4.304688 0.0976562 3.828125 0.1875 3.328125 0.1875 C 2.472656 0.1875 1.800781 -0.0195312 1.3125 -0.4375 C 0.820312 -0.851562 0.578125 -1.40625 0.578125 -2.09375 C 0.578125 -2.445312 0.65625 -2.789062 0.8125 -3.125 C 0.976562 -3.457031 1.207031 -3.710938 1.5 -3.890625 C 1.800781 -4.097656 2.109375 -4.242188 2.421875 -4.328125 C 2.742188 -4.421875 3.132812 -4.492188 3.59375 -4.546875 C 4.070312 -4.597656 4.550781 -4.664062 5.03125 -4.75 C 5.519531 -4.84375 5.878906 -4.929688 6.109375 -5.015625 L 6.109375 -5.359375 C 6.109375 -5.898438 5.960938 -6.304688 5.671875 -6.578125 C 5.378906 -6.847656 4.882812 -6.984375 4.1875 -6.984375 C 3.519531 -6.984375 3.039062 -6.867188 2.75 -6.640625 C 2.46875 -6.410156 2.257812 -6.023438 2.125 -5.484375 L 0.8125 -5.640625 C 0.988281 -6.503906 1.367188 -7.128906 1.953125 -7.515625 C 2.546875 -7.898438 3.335938 -8.09375 4.328125 -8.09375 Z M 4.1875 -3.515625 C 3.664062 -3.429688 3.265625 -3.347656 2.984375 -3.265625 C 2.703125 -3.191406 2.46875 -3.066406 2.28125 -2.890625 C 2.101562 -2.710938 2.015625 -2.457031 2.015625 -2.125 C 2.015625 -1.726562 2.160156 -1.421875 2.453125 -1.203125 C 2.742188 -0.984375 3.148438 -0.875 3.671875 -0.875 C 3.984375 -0.875 4.316406 -0.9375 4.671875 -1.0625 C 5.023438 -1.1875 5.335938 -1.40625 5.609375 -1.71875 C 5.773438 -1.925781 5.898438 -2.15625 5.984375 -2.40625 C 6.066406 -2.664062 6.109375 -2.992188 6.109375 -3.390625 L 6.109375 -3.96875 C 5.703125 -3.800781 5.0625 -3.648438 4.1875 -3.515625 Z M 4.1875 -3.515625 "/></g></g></g><g fill="#2c3152" fill-opacity="1"><g transform="translate(103.686392, 140.864377)"><g/></g></g><g fill="#2c3152" fill-opacity="1"><g transform="translate(107.930073, 140.864377)"><g><path d="M 4.53125 -8.09375 C 5.207031 -8.09375 5.796875 -7.921875 6.296875 -7.578125 C 6.804688 -7.242188 7.203125 -6.773438 7.484375 -6.171875 C 7.765625 -5.566406 7.90625 -4.867188 7.90625 -4.078125 C 7.90625 -3.210938 7.75 -2.457031 7.4375 -1.8125 C 7.132812 -1.175781 6.722656 -0.6875 6.203125 -0.34375 C 5.679688 0 5.097656 0.171875 4.453125 0.171875 C 4.035156 0.171875 3.648438 0.0820312 3.296875 -0.09375 C 2.941406 -0.269531 2.632812 -0.515625 2.375 -0.828125 L 2.375 3.03125 L 1.03125 3.03125 L 1.03125 -7.90625 L 2.265625 -7.90625 L 2.265625 -6.890625 C 2.554688 -7.296875 2.875 -7.597656 3.21875 -7.796875 C 3.570312 -7.992188 4.007812 -8.09375 4.53125 -8.09375 Z M 2.25 -3.90625 C 2.25 -2.945312 2.441406 -2.210938 2.828125 -1.703125 C 3.210938 -1.191406 3.722656 -0.9375 4.359375 -0.9375 C 4.992188 -0.9375 5.515625 -1.195312 5.921875 -1.71875 C 6.328125 -2.25 6.53125 -3.015625 6.53125 -4.015625 C 6.53125 -4.953125 6.335938 -5.6875 5.953125 -6.21875 C 5.566406 -6.757812 5.050781 -7.03125 4.40625 -7.03125 C 3.988281 -7.03125 3.617188 -6.898438 3.296875 -6.640625 C 2.972656 -6.390625 2.71875 -6.023438 2.53125 -5.546875 C 2.34375 -5.066406 2.25 -4.519531 2.25 -3.90625 Z M 2.25 -3.90625 "/></g></g></g><g fill="#2c3152" fill-opacity="1"><g transform="translate(116.41743, 140.864377)"><g><path d="M 4.296875 -8.09375 C 5.054688 -8.09375 5.707031 -7.910156 6.25 -7.546875 C 6.789062 -7.179688 7.195312 -6.691406 7.46875 -6.078125 C 7.75 -5.472656 7.890625 -4.796875 7.890625 -4.046875 L 7.890625 -3.625 L 1.984375 -3.625 C 2.023438 -2.769531 2.265625 -2.109375 2.703125 -1.640625 C 3.140625 -1.171875 3.695312 -0.9375 4.375 -0.9375 C 4.894531 -0.9375 5.328125 -1.070312 5.671875 -1.34375 C 6.015625 -1.613281 6.273438 -2.015625 6.453125 -2.546875 L 7.84375 -2.375 C 7.632812 -1.582031 7.226562 -0.957031 6.625 -0.5 C 6.03125 -0.0507812 5.300781 0.171875 4.4375 0.171875 C 3.226562 0.171875 2.285156 -0.179688 1.609375 -0.890625 C 0.929688 -1.609375 0.59375 -2.609375 0.59375 -3.890625 C 0.59375 -4.742188 0.742188 -5.484375 1.046875 -6.109375 C 1.359375 -6.742188 1.789062 -7.234375 2.34375 -7.578125 C 2.894531 -7.921875 3.546875 -8.09375 4.296875 -8.09375 Z M 2.0625 -4.734375 L 6.46875 -4.734375 C 6.4375 -5.484375 6.203125 -6.046875 5.765625 -6.421875 C 5.335938 -6.796875 4.847656 -6.984375 4.296875 -6.984375 C 3.660156 -6.984375 3.140625 -6.769531 2.734375 -6.34375 C 2.335938 -5.914062 2.113281 -5.378906 2.0625 -4.734375 Z M 2.0625 -4.734375 "/></g></g></g><g fill="#2c3152" fill-opacity="1"><g transform="translate(124.904787, 140.864377)"><g><path d="M 3.921875 -8.09375 C 4.378906 -8.09375 4.832031 -7.945312 5.28125 -7.65625 L 4.828125 -6.421875 C 4.492188 -6.617188 4.148438 -6.71875 3.796875 -6.71875 C 3.285156 -6.71875 2.910156 -6.484375 2.671875 -6.015625 C 2.441406 -5.554688 2.328125 -4.960938 2.328125 -4.234375 L 2.328125 0 L 0.984375 0 L 0.984375 -7.90625 L 2.1875 -7.90625 L 2.1875 -6.71875 C 2.4375 -7.175781 2.6875 -7.519531 2.9375 -7.75 C 3.1875 -7.976562 3.515625 -8.09375 3.921875 -8.09375 Z M 3.921875 -8.09375 "/></g></g></g><g fill="#2c3152" fill-opacity="1"><g transform="translate(129.988046, 140.864377)"><g><path d="M 3.640625 -8.09375 C 4.535156 -8.09375 5.253906 -7.90625 5.796875 -7.53125 C 6.347656 -7.15625 6.664062 -6.601562 6.75 -5.875 L 5.4375 -5.6875 C 5.375 -6.09375 5.203125 -6.410156 4.921875 -6.640625 C 4.648438 -6.867188 4.242188 -6.984375 3.703125 -6.984375 C 3.171875 -6.984375 2.753906 -6.890625 2.453125 -6.703125 C 2.148438 -6.523438 2 -6.273438 2 -5.953125 C 2 -5.734375 2.085938 -5.546875 2.265625 -5.390625 C 2.441406 -5.242188 2.648438 -5.132812 2.890625 -5.0625 C 3.140625 -4.988281 3.515625 -4.890625 4.015625 -4.765625 C 4.660156 -4.609375 5.179688 -4.453125 5.578125 -4.296875 C 5.984375 -4.148438 6.328125 -3.914062 6.609375 -3.59375 C 6.898438 -3.28125 7.046875 -2.859375 7.046875 -2.328125 C 7.046875 -1.878906 6.921875 -1.460938 6.671875 -1.078125 C 6.421875 -0.691406 6.054688 -0.382812 5.578125 -0.15625 C 5.109375 0.0625 4.566406 0.171875 3.953125 0.171875 C 2.890625 0.171875 2.078125 -0.0351562 1.515625 -0.453125 C 0.960938 -0.867188 0.613281 -1.503906 0.46875 -2.359375 L 1.796875 -2.5625 C 1.867188 -2.019531 2.082031 -1.613281 2.4375 -1.34375 C 2.800781 -1.070312 3.269531 -0.9375 3.84375 -0.9375 C 4.425781 -0.9375 4.875 -1.054688 5.1875 -1.296875 C 5.507812 -1.535156 5.671875 -1.832031 5.671875 -2.1875 C 5.671875 -2.519531 5.507812 -2.765625 5.1875 -2.921875 C 4.875 -3.085938 4.382812 -3.25 3.71875 -3.40625 C 3.070312 -3.5625 2.550781 -3.710938 2.15625 -3.859375 C 1.769531 -4.003906 1.429688 -4.234375 1.140625 -4.546875 C 0.847656 -4.859375 0.703125 -5.28125 0.703125 -5.8125 C 0.703125 -6.238281 0.816406 -6.625 1.046875 -6.96875 C 1.273438 -7.320312 1.609375 -7.597656 2.046875 -7.796875 C 2.492188 -7.992188 3.023438 -8.09375 3.640625 -8.09375 Z M 3.640625 -8.09375 "/></g></g></g><g fill="#2c3152" fill-opacity="1"><g transform="translate(137.620563, 140.864377)"><g><path d="M 4.25 -8.09375 C 4.84375 -8.09375 5.421875 -7.957031 5.984375 -7.6875 C 6.554688 -7.425781 7.023438 -6.988281 7.390625 -6.375 C 7.765625 -5.757812 7.953125 -4.953125 7.953125 -3.953125 C 7.953125 -3.066406 7.789062 -2.316406 7.46875 -1.703125 C 7.15625 -1.085938 6.71875 -0.617188 6.15625 -0.296875 C 5.601562 0.015625 4.96875 0.171875 4.25 0.171875 C 3.1875 0.171875 2.320312 -0.160156 1.65625 -0.828125 C 0.90625 -1.546875 0.53125 -2.585938 0.53125 -3.953125 C 0.53125 -4.835938 0.6875 -5.585938 1 -6.203125 C 1.320312 -6.828125 1.757812 -7.296875 2.3125 -7.609375 C 2.875 -7.929688 3.519531 -8.09375 4.25 -8.09375 Z M 1.90625 -3.953125 C 1.90625 -2.992188 2.113281 -2.25 2.53125 -1.71875 C 2.957031 -1.195312 3.53125 -0.9375 4.25 -0.9375 C 4.945312 -0.9375 5.507812 -1.195312 5.9375 -1.71875 C 6.363281 -2.238281 6.578125 -2.984375 6.578125 -3.953125 C 6.578125 -4.890625 6.367188 -5.628906 5.953125 -6.171875 C 5.535156 -6.710938 4.960938 -6.984375 4.234375 -6.984375 C 3.535156 -6.984375 2.972656 -6.71875 2.546875 -6.1875 C 2.117188 -5.65625 1.90625 -4.910156 1.90625 -3.953125 Z M 1.90625 -3.953125 "/></g></g></g><g fill="#2c3152" fill-opacity="1"><g transform="translate(146.107926, 140.864377)"><g><path d="M 4.765625 -8.09375 C 5.335938 -8.09375 5.828125 -7.976562 6.234375 -7.75 C 6.648438 -7.53125 6.953125 -7.25 7.140625 -6.90625 C 7.265625 -6.664062 7.351562 -6.410156 7.40625 -6.140625 C 7.457031 -5.867188 7.484375 -5.53125 7.484375 -5.125 L 7.484375 0 L 6.140625 0 L 6.140625 -4.890625 C 6.140625 -6.253906 5.582031 -6.9375 4.46875 -6.9375 C 4.050781 -6.9375 3.664062 -6.832031 3.3125 -6.625 C 2.96875 -6.414062 2.71875 -6.117188 2.5625 -5.734375 C 2.4375 -5.410156 2.375 -4.972656 2.375 -4.421875 L 2.375 0 L 1.03125 0 L 1.03125 -7.90625 L 2.25 -7.90625 L 2.25 -6.796875 C 2.84375 -7.660156 3.679688 -8.09375 4.765625 -8.09375 Z M 4.765625 -8.09375 "/></g></g></g><g fill="#2c3152" fill-opacity="1"><g transform="translate(154.595277, 140.864377)"><g/></g></g><g fill="#2c3152" fill-opacity="1"><g transform="translate(158.838964, 140.864377)"><g><path d="M 1.46875 -7.90625 L 2.890625 -2.734375 L 3.1875 -1.65625 C 3.226562 -1.832031 3.265625 -1.960938 3.296875 -2.046875 C 3.421875 -2.566406 3.546875 -3.078125 3.671875 -3.578125 L 4.859375 -7.90625 L 6.25 -7.90625 L 7.390625 -3.453125 L 7.8125 -1.8125 L 8.1875 -3.046875 L 9.625 -7.90625 L 10.953125 -7.90625 L 8.453125 0 L 7.0625 0 L 5.78125 -4.796875 C 5.71875 -5.023438 5.625 -5.457031 5.5 -6.09375 L 3.90625 0 L 2.5 0 L 0.078125 -7.90625 Z M 1.46875 -7.90625 "/></g></g></g><g fill="#2c3152" fill-opacity="1"><g transform="translate(169.860322, 140.864377)"><g><path d="M 2.359375 -9.40625 L 1.015625 -9.40625 L 1.015625 -10.9375 L 2.359375 -10.9375 Z M 2.359375 0 L 1.015625 0 L 1.015625 -7.90625 L 2.359375 -7.90625 Z M 2.359375 0 "/></g></g></g><g fill="#2c3152" fill-opacity="1"><g transform="translate(173.249158, 140.864377)"><g><path d="M 2.578125 -7.90625 L 3.921875 -7.90625 L 3.921875 -6.90625 L 2.578125 -6.90625 L 2.578125 -2 C 2.578125 -1.65625 2.625 -1.410156 2.71875 -1.265625 C 2.820312 -1.117188 3.023438 -1.046875 3.328125 -1.046875 C 3.398438 -1.046875 3.597656 -1.070312 3.921875 -1.125 L 4.125 0.0625 C 3.71875 0.144531 3.382812 0.1875 3.125 0.1875 C 2.601562 0.1875 2.207031 0.101562 1.9375 -0.0625 C 1.664062 -0.238281 1.476562 -0.472656 1.375 -0.765625 C 1.28125 -1.066406 1.234375 -1.457031 1.234375 -1.9375 L 1.234375 -6.90625 L 0.265625 -6.90625 L 0.265625 -7.90625 L 1.234375 -7.90625 L 1.234375 -9.875 L 2.578125 -10.6875 Z M 2.578125 -7.90625 "/></g></g></g><g fill="#2c3152" fill-opacity="1"><g transform="translate(177.492834, 140.864377)"><g><path d="M 2.359375 -7 C 2.671875 -7.363281 3.019531 -7.632812 3.40625 -7.8125 C 3.789062 -8 4.238281 -8.09375 4.75 -8.09375 C 5.175781 -8.09375 5.5625 -8.023438 5.90625 -7.890625 C 6.25 -7.753906 6.539062 -7.578125 6.78125 -7.359375 C 7.019531 -7.117188 7.195312 -6.820312 7.3125 -6.46875 C 7.425781 -6.113281 7.484375 -5.65625 7.484375 -5.09375 L 7.484375 0 L 6.140625 0 L 6.140625 -5.0625 C 6.140625 -5.664062 5.992188 -6.128906 5.703125 -6.453125 C 5.421875 -6.773438 5 -6.9375 4.4375 -6.9375 C 4.03125 -6.9375 3.644531 -6.820312 3.28125 -6.59375 C 2.914062 -6.363281 2.660156 -6.046875 2.515625 -5.640625 C 2.410156 -5.328125 2.359375 -4.929688 2.359375 -4.453125 L 2.359375 0 L 1.015625 0 L 1.015625 -10.9375 L 2.359375 -10.9375 Z M 2.359375 -7 "/></g></g></g><g fill="#2c3152" fill-opacity="1"><g transform="translate(58.297397, 158.90491)"><g><path d="M 4.328125 -8.09375 C 4.984375 -8.09375 5.507812 -8.023438 5.90625 -7.890625 C 6.3125 -7.765625 6.632812 -7.582031 6.875 -7.34375 C 7.09375 -7.101562 7.242188 -6.84375 7.328125 -6.5625 C 7.410156 -6.28125 7.453125 -5.90625 7.453125 -5.4375 L 7.453125 -2.25 C 7.453125 -1.21875 7.59375 -0.46875 7.875 0 L 6.46875 0 C 6.34375 -0.269531 6.253906 -0.597656 6.203125 -0.984375 C 5.710938 -0.566406 5.234375 -0.265625 4.765625 -0.078125 C 4.304688 0.0976562 3.828125 0.1875 3.328125 0.1875 C 2.472656 0.1875 1.800781 -0.0195312 1.3125 -0.4375 C 0.820312 -0.851562 0.578125 -1.40625 0.578125 -2.09375 C 0.578125 -2.445312 0.65625 -2.789062 0.8125 -3.125 C 0.976562 -3.457031 1.207031 -3.710938 1.5 -3.890625 C 1.800781 -4.097656 2.109375 -4.242188 2.421875 -4.328125 C 2.742188 -4.421875 3.132812 -4.492188 3.59375 -4.546875 C 4.070312 -4.597656 4.550781 -4.664062 5.03125 -4.75 C 5.519531 -4.84375 5.878906 -4.929688 6.109375 -5.015625 L 6.109375 -5.359375 C 6.109375 -5.898438 5.960938 -6.304688 5.671875 -6.578125 C 5.378906 -6.847656 4.882812 -6.984375 4.1875 -6.984375 C 3.519531 -6.984375 3.039062 -6.867188 2.75 -6.640625 C 2.46875 -6.410156 2.257812 -6.023438 2.125 -5.484375 L 0.8125 -5.640625 C 0.988281 -6.503906 1.367188 -7.128906 1.953125 -7.515625 C 2.546875 -7.898438 3.335938 -8.09375 4.328125 -8.09375 Z M 4.1875 -3.515625 C 3.664062 -3.429688 3.265625 -3.347656 2.984375 -3.265625 C 2.703125 -3.191406 2.46875 -3.066406 2.28125 -2.890625 C 2.101562 -2.710938 2.015625 -2.457031 2.015625 -2.125 C 2.015625 -1.726562 2.160156 -1.421875 2.453125 -1.203125 C 2.742188 -0.984375 3.148438 -0.875 3.671875 -0.875 C 3.984375 -0.875 4.316406 -0.9375 4.671875 -1.0625 C 5.023438 -1.1875 5.335938 -1.40625 5.609375 -1.71875 C 5.773438 -1.925781 5.898438 -2.15625 5.984375 -2.40625 C 6.066406 -2.664062 6.109375 -2.992188 6.109375 -3.390625 L 6.109375 -3.96875 C 5.703125 -3.800781 5.0625 -3.648438 4.1875 -3.515625 Z M 4.1875 -3.515625 "/></g></g></g><g fill="#2c3152" fill-opacity="1"><g transform="translate(66.784754, 158.90491)"><g><path d="M 4.765625 -8.09375 C 5.335938 -8.09375 5.828125 -7.976562 6.234375 -7.75 C 6.648438 -7.53125 6.953125 -7.25 7.140625 -6.90625 C 7.265625 -6.664062 7.351562 -6.410156 7.40625 -6.140625 C 7.457031 -5.867188 7.484375 -5.53125 7.484375 -5.125 L 7.484375 0 L 6.140625 0 L 6.140625 -4.890625 C 6.140625 -6.253906 5.582031 -6.9375 4.46875 -6.9375 C 4.050781 -6.9375 3.664062 -6.832031 3.3125 -6.625 C 2.96875 -6.414062 2.71875 -6.117188 2.5625 -5.734375 C 2.4375 -5.410156 2.375 -4.972656 2.375 -4.421875 L 2.375 0 L 1.03125 0 L 1.03125 -7.90625 L 2.25 -7.90625 L 2.25 -6.796875 C 2.84375 -7.660156 3.679688 -8.09375 4.765625 -8.09375 Z M 4.765625 -8.09375 "/></g></g></g><g fill="#2c3152" fill-opacity="1"><g transform="translate(75.272111, 158.90491)"><g><path d="M 4.25 -8.09375 C 4.84375 -8.09375 5.421875 -7.957031 5.984375 -7.6875 C 6.554688 -7.425781 7.023438 -6.988281 7.390625 -6.375 C 7.765625 -5.757812 7.953125 -4.953125 7.953125 -3.953125 C 7.953125 -3.066406 7.789062 -2.316406 7.46875 -1.703125 C 7.15625 -1.085938 6.71875 -0.617188 6.15625 -0.296875 C 5.601562 0.015625 4.96875 0.171875 4.25 0.171875 C 3.1875 0.171875 2.320312 -0.160156 1.65625 -0.828125 C 0.90625 -1.546875 0.53125 -2.585938 0.53125 -3.953125 C 0.53125 -4.835938 0.6875 -5.585938 1 -6.203125 C 1.320312 -6.828125 1.757812 -7.296875 2.3125 -7.609375 C 2.875 -7.929688 3.519531 -8.09375 4.25 -8.09375 Z M 1.90625 -3.953125 C 1.90625 -2.992188 2.113281 -2.25 2.53125 -1.71875 C 2.957031 -1.195312 3.53125 -0.9375 4.25 -0.9375 C 4.945312 -0.9375 5.507812 -1.195312 5.9375 -1.71875 C 6.363281 -2.238281 6.578125 -2.984375 6.578125 -3.953125 C 6.578125 -4.890625 6.367188 -5.628906 5.953125 -6.171875 C 5.535156 -6.710938 4.960938 -6.984375 4.234375 -6.984375 C 3.535156 -6.984375 2.972656 -6.71875 2.546875 -6.1875 C 2.117188 -5.65625 1.90625 -4.910156 1.90625 -3.953125 Z M 1.90625 -3.953125 "/></g></g></g><g fill="#2c3152" fill-opacity="1"><g transform="translate(83.759468, 158.90491)"><g><path d="M 3.921875 -8.09375 C 4.378906 -8.09375 4.832031 -7.945312 5.28125 -7.65625 L 4.828125 -6.421875 C 4.492188 -6.617188 4.148438 -6.71875 3.796875 -6.71875 C 3.285156 -6.71875 2.910156 -6.484375 2.671875 -6.015625 C 2.441406 -5.554688 2.328125 -4.960938 2.328125 -4.234375 L 2.328125 0 L 0.984375 0 L 0.984375 -7.90625 L 2.1875 -7.90625 L 2.1875 -6.71875 C 2.4375 -7.175781 2.6875 -7.519531 2.9375 -7.75 C 3.1875 -7.976562 3.515625 -8.09375 3.921875 -8.09375 Z M 3.921875 -8.09375 "/></g></g></g><g fill="#2c3152" fill-opacity="1"><g transform="translate(88.842727, 158.90491)"><g><path d="M 4.296875 -8.09375 C 5.054688 -8.09375 5.707031 -7.910156 6.25 -7.546875 C 6.789062 -7.179688 7.195312 -6.691406 7.46875 -6.078125 C 7.75 -5.472656 7.890625 -4.796875 7.890625 -4.046875 L 7.890625 -3.625 L 1.984375 -3.625 C 2.023438 -2.769531 2.265625 -2.109375 2.703125 -1.640625 C 3.140625 -1.171875 3.695312 -0.9375 4.375 -0.9375 C 4.894531 -0.9375 5.328125 -1.070312 5.671875 -1.34375 C 6.015625 -1.613281 6.273438 -2.015625 6.453125 -2.546875 L 7.84375 -2.375 C 7.632812 -1.582031 7.226562 -0.957031 6.625 -0.5 C 6.03125 -0.0507812 5.300781 0.171875 4.4375 0.171875 C 3.226562 0.171875 2.285156 -0.179688 1.609375 -0.890625 C 0.929688 -1.609375 0.59375 -2.609375 0.59375 -3.890625 C 0.59375 -4.742188 0.742188 -5.484375 1.046875 -6.109375 C 1.359375 -6.742188 1.789062 -7.234375 2.34375 -7.578125 C 2.894531 -7.921875 3.546875 -8.09375 4.296875 -8.09375 Z M 2.0625 -4.734375 L 6.46875 -4.734375 C 6.4375 -5.484375 6.203125 -6.046875 5.765625 -6.421875 C 5.335938 -6.796875 4.847656 -6.984375 4.296875 -6.984375 C 3.660156 -6.984375 3.140625 -6.769531 2.734375 -6.34375 C 2.335938 -5.914062 2.113281 -5.378906 2.0625 -4.734375 Z M 2.0625 -4.734375 "/></g></g></g><g fill="#2c3152" fill-opacity="1"><g transform="translate(97.330084, 158.90491)"><g><path d="M 2 -7.90625 L 3.171875 -6.125 L 3.765625 -5.171875 C 3.890625 -5.367188 4.070312 -5.640625 4.3125 -5.984375 L 5.703125 -7.90625 L 7.3125 -7.90625 L 4.578125 -4.203125 L 7.53125 0 L 5.875 0 L 4.34375 -2.296875 C 4.101562 -2.660156 3.925781 -2.9375 3.8125 -3.125 L 1.71875 0 L 0.109375 0 L 2.984375 -4.125 L 0.328125 -7.90625 Z M 2 -7.90625 "/></g></g></g><g fill="#2c3152" fill-opacity="1"><g transform="translate(104.962601, 158.90491)"><g><path d="M 2.359375 -9.40625 L 1.015625 -9.40625 L 1.015625 -10.9375 L 2.359375 -10.9375 Z M 2.359375 0 L 1.015625 0 L 1.015625 -7.90625 L 2.359375 -7.90625 Z M 2.359375 0 "/></g></g></g><g fill="#2c3152" fill-opacity="1"><g transform="translate(108.351437, 158.90491)"><g><path d="M 4.328125 -8.09375 C 4.984375 -8.09375 5.507812 -8.023438 5.90625 -7.890625 C 6.3125 -7.765625 6.632812 -7.582031 6.875 -7.34375 C 7.09375 -7.101562 7.242188 -6.84375 7.328125 -6.5625 C 7.410156 -6.28125 7.453125 -5.90625 7.453125 -5.4375 L 7.453125 -2.25 C 7.453125 -1.21875 7.59375 -0.46875 7.875 0 L 6.46875 0 C 6.34375 -0.269531 6.253906 -0.597656 6.203125 -0.984375 C 5.710938 -0.566406 5.234375 -0.265625 4.765625 -0.078125 C 4.304688 0.0976562 3.828125 0.1875 3.328125 0.1875 C 2.472656 0.1875 1.800781 -0.0195312 1.3125 -0.4375 C 0.820312 -0.851562 0.578125 -1.40625 0.578125 -2.09375 C 0.578125 -2.445312 0.65625 -2.789062 0.8125 -3.125 C 0.976562 -3.457031 1.207031 -3.710938 1.5 -3.890625 C 1.800781 -4.097656 2.109375 -4.242188 2.421875 -4.328125 C 2.742188 -4.421875 3.132812 -4.492188 3.59375 -4.546875 C 4.070312 -4.597656 4.550781 -4.664062 5.03125 -4.75 C 5.519531 -4.84375 5.878906 -4.929688 6.109375 -5.015625 L 6.109375 -5.359375 C 6.109375 -5.898438 5.960938 -6.304688 5.671875 -6.578125 C 5.378906 -6.847656 4.882812 -6.984375 4.1875 -6.984375 C 3.519531 -6.984375 3.039062 -6.867188 2.75 -6.640625 C 2.46875 -6.410156 2.257812 -6.023438 2.125 -5.484375 L 0.8125 -5.640625 C 0.988281 -6.503906 1.367188 -7.128906 1.953125 -7.515625 C 2.546875 -7.898438 3.335938 -8.09375 4.328125 -8.09375 Z M 4.1875 -3.515625 C 3.664062 -3.429688 3.265625 -3.347656 2.984375 -3.265625 C 2.703125 -3.191406 2.46875 -3.066406 2.28125 -2.890625 C 2.101562 -2.710938 2.015625 -2.457031 2.015625 -2.125 C 2.015625 -1.726562 2.160156 -1.421875 2.453125 -1.203125 C 2.742188 -0.984375 3.148438 -0.875 3.671875 -0.875 C 3.984375 -0.875 4.316406 -0.9375 4.671875 -1.0625 C 5.023438 -1.1875 5.335938 -1.40625 5.609375 -1.71875 C 5.773438 -1.925781 5.898438 -2.15625 5.984375 -2.40625 C 6.066406 -2.664062 6.109375 -2.992188 6.109375 -3.390625 L 6.109375 -3.96875 C 5.703125 -3.800781 5.0625 -3.648438 4.1875 -3.515625 Z M 4.1875 -3.515625 "/></g></g></g><g fill="#2c3152" fill-opacity="1"><g transform="translate(116.838794, 158.90491)"><g/></g></g><g fill="#2c3152" fill-opacity="1"><g transform="translate(121.082475, 158.90491)"><g><path d="M 4.765625 -8.09375 C 5.335938 -8.09375 5.828125 -7.976562 6.234375 -7.75 C 6.648438 -7.53125 6.953125 -7.25 7.140625 -6.90625 C 7.265625 -6.664062 7.351562 -6.410156 7.40625 -6.140625 C 7.457031 -5.867188 7.484375 -5.53125 7.484375 -5.125 L 7.484375 0 L 6.140625 0 L 6.140625 -4.890625 C 6.140625 -6.253906 5.582031 -6.9375 4.46875 -6.9375 C 4.050781 -6.9375 3.664062 -6.832031 3.3125 -6.625 C 2.96875 -6.414062 2.71875 -6.117188 2.5625 -5.734375 C 2.4375 -5.410156 2.375 -4.972656 2.375 -4.421875 L 2.375 0 L 1.03125 0 L 1.03125 -7.90625 L 2.25 -7.90625 L 2.25 -6.796875 C 2.84375 -7.660156 3.679688 -8.09375 4.765625 -8.09375 Z M 4.765625 -8.09375 "/></g></g></g><g fill="#2c3152" fill-opacity="1"><g transform="translate(129.569832, 158.90491)"><g><path d="M 4.296875 -8.09375 C 5.054688 -8.09375 5.707031 -7.910156 6.25 -7.546875 C 6.789062 -7.179688 7.195312 -6.691406 7.46875 -6.078125 C 7.75 -5.472656 7.890625 -4.796875 7.890625 -4.046875 L 7.890625 -3.625 L 1.984375 -3.625 C 2.023438 -2.769531 2.265625 -2.109375 2.703125 -1.640625 C 3.140625 -1.171875 3.695312 -0.9375 4.375 -0.9375 C 4.894531 -0.9375 5.328125 -1.070312 5.671875 -1.34375 C 6.015625 -1.613281 6.273438 -2.015625 6.453125 -2.546875 L 7.84375 -2.375 C 7.632812 -1.582031 7.226562 -0.957031 6.625 -0.5 C 6.03125 -0.0507812 5.300781 0.171875 4.4375 0.171875 C 3.226562 0.171875 2.285156 -0.179688 1.609375 -0.890625 C 0.929688 -1.609375 0.59375 -2.609375 0.59375 -3.890625 C 0.59375 -4.742188 0.742188 -5.484375 1.046875 -6.109375 C 1.359375 -6.742188 1.789062 -7.234375 2.34375 -7.578125 C 2.894531 -7.921875 3.546875 -8.09375 4.296875 -8.09375 Z M 2.0625 -4.734375 L 6.46875 -4.734375 C 6.4375 -5.484375 6.203125 -6.046875 5.765625 -6.421875 C 5.335938 -6.796875 4.847656 -6.984375 4.296875 -6.984375 C 3.660156 -6.984375 3.140625 -6.769531 2.734375 -6.34375 C 2.335938 -5.914062 2.113281 -5.378906 2.0625 -4.734375 Z M 2.0625 -4.734375 "/></g></g></g><g fill="#2c3152" fill-opacity="1"><g transform="translate(138.057189, 158.90491)"><g><path d="M 3.921875 -8.09375 C 4.378906 -8.09375 4.832031 -7.945312 5.28125 -7.65625 L 4.828125 -6.421875 C 4.492188 -6.617188 4.148438 -6.71875 3.796875 -6.71875 C 3.285156 -6.71875 2.910156 -6.484375 2.671875 -6.015625 C 2.441406 -5.554688 2.328125 -4.960938 2.328125 -4.234375 L 2.328125 0 L 0.984375 0 L 0.984375 -7.90625 L 2.1875 -7.90625 L 2.1875 -6.71875 C 2.4375 -7.175781 2.6875 -7.519531 2.9375 -7.75 C 3.1875 -7.976562 3.515625 -8.09375 3.921875 -8.09375 Z M 3.921875 -8.09375 "/></g></g></g><g fill="#2c3152" fill-opacity="1"><g transform="translate(143.140448, 158.90491)"><g><path d="M 3.234375 -3.390625 C 3.328125 -3.140625 3.460938 -2.734375 3.640625 -2.171875 L 3.828125 -1.578125 C 4.054688 -2.328125 4.21875 -2.820312 4.3125 -3.0625 L 6.078125 -7.90625 L 7.46875 -7.90625 L 4.46875 0 L 3.203125 0 L 0.203125 -7.90625 L 1.625 -7.90625 Z M 3.234375 -3.390625 "/></g></g></g><g fill="#2c3152" fill-opacity="1"><g transform="translate(150.772965, 158.90491)"><g><path d="M 4.25 -8.09375 C 4.84375 -8.09375 5.421875 -7.957031 5.984375 -7.6875 C 6.554688 -7.425781 7.023438 -6.988281 7.390625 -6.375 C 7.765625 -5.757812 7.953125 -4.953125 7.953125 -3.953125 C 7.953125 -3.066406 7.789062 -2.316406 7.46875 -1.703125 C 7.15625 -1.085938 6.71875 -0.617188 6.15625 -0.296875 C 5.601562 0.015625 4.96875 0.171875 4.25 0.171875 C 3.1875 0.171875 2.320312 -0.160156 1.65625 -0.828125 C 0.90625 -1.546875 0.53125 -2.585938 0.53125 -3.953125 C 0.53125 -4.835938 0.6875 -5.585938 1 -6.203125 C 1.320312 -6.828125 1.757812 -7.296875 2.3125 -7.609375 C 2.875 -7.929688 3.519531 -8.09375 4.25 -8.09375 Z M 1.90625 -3.953125 C 1.90625 -2.992188 2.113281 -2.25 2.53125 -1.71875 C 2.957031 -1.195312 3.53125 -0.9375 4.25 -0.9375 C 4.945312 -0.9375 5.507812 -1.195312 5.9375 -1.71875 C 6.363281 -2.238281 6.578125 -2.984375 6.578125 -3.953125 C 6.578125 -4.890625 6.367188 -5.628906 5.953125 -6.171875 C 5.535156 -6.710938 4.960938 -6.984375 4.234375 -6.984375 C 3.535156 -6.984375 2.972656 -6.71875 2.546875 -6.1875 C 2.117188 -5.65625 1.90625 -4.910156 1.90625 -3.953125 Z M 1.90625 -3.953125 "/></g></g></g><g fill="#2c3152" fill-opacity="1"><g transform="translate(159.260327, 158.90491)"><g><path d="M 3.640625 -8.09375 C 4.535156 -8.09375 5.253906 -7.90625 5.796875 -7.53125 C 6.347656 -7.15625 6.664062 -6.601562 6.75 -5.875 L 5.4375 -5.6875 C 5.375 -6.09375 5.203125 -6.410156 4.921875 -6.640625 C 4.648438 -6.867188 4.242188 -6.984375 3.703125 -6.984375 C 3.171875 -6.984375 2.753906 -6.890625 2.453125 -6.703125 C 2.148438 -6.523438 2 -6.273438 2 -5.953125 C 2 -5.734375 2.085938 -5.546875 2.265625 -5.390625 C 2.441406 -5.242188 2.648438 -5.132812 2.890625 -5.0625 C 3.140625 -4.988281 3.515625 -4.890625 4.015625 -4.765625 C 4.660156 -4.609375 5.179688 -4.453125 5.578125 -4.296875 C 5.984375 -4.148438 6.328125 -3.914062 6.609375 -3.59375 C 6.898438 -3.28125 7.046875 -2.859375 7.046875 -2.328125 C 7.046875 -1.878906 6.921875 -1.460938 6.671875 -1.078125 C 6.421875 -0.691406 6.054688 -0.382812 5.578125 -0.15625 C 5.109375 0.0625 4.566406 0.171875 3.953125 0.171875 C 2.890625 0.171875 2.078125 -0.0351562 1.515625 -0.453125 C 0.960938 -0.867188 0.613281 -1.503906 0.46875 -2.359375 L 1.796875 -2.5625 C 1.867188 -2.019531 2.082031 -1.613281 2.4375 -1.34375 C 2.800781 -1.070312 3.269531 -0.9375 3.84375 -0.9375 C 4.425781 -0.9375 4.875 -1.054688 5.1875 -1.296875 C 5.507812 -1.535156 5.671875 -1.832031 5.671875 -2.1875 C 5.671875 -2.519531 5.507812 -2.765625 5.1875 -2.921875 C 4.875 -3.085938 4.382812 -3.25 3.71875 -3.40625 C 3.070312 -3.5625 2.550781 -3.710938 2.15625 -3.859375 C 1.769531 -4.003906 1.429688 -4.234375 1.140625 -4.546875 C 0.847656 -4.859375 0.703125 -5.28125 0.703125 -5.8125 C 0.703125 -6.238281 0.816406 -6.625 1.046875 -6.96875 C 1.273438 -7.320312 1.609375 -7.597656 2.046875 -7.796875 C 2.492188 -7.992188 3.023438 -8.09375 3.640625 -8.09375 Z M 3.640625 -8.09375 "/></g></g></g><g fill="#2c3152" fill-opacity="1"><g transform="translate(166.892839, 158.90491)"><g><path d="M 4.328125 -8.09375 C 4.984375 -8.09375 5.507812 -8.023438 5.90625 -7.890625 C 6.3125 -7.765625 6.632812 -7.582031 6.875 -7.34375 C 7.09375 -7.101562 7.242188 -6.84375 7.328125 -6.5625 C 7.410156 -6.28125 7.453125 -5.90625 7.453125 -5.4375 L 7.453125 -2.25 C 7.453125 -1.21875 7.59375 -0.46875 7.875 0 L 6.46875 0 C 6.34375 -0.269531 6.253906 -0.597656 6.203125 -0.984375 C 5.710938 -0.566406 5.234375 -0.265625 4.765625 -0.078125 C 4.304688 0.0976562 3.828125 0.1875 3.328125 0.1875 C 2.472656 0.1875 1.800781 -0.0195312 1.3125 -0.4375 C 0.820312 -0.851562 0.578125 -1.40625 0.578125 -2.09375 C 0.578125 -2.445312 0.65625 -2.789062 0.8125 -3.125 C 0.976562 -3.457031 1.207031 -3.710938 1.5 -3.890625 C 1.800781 -4.097656 2.109375 -4.242188 2.421875 -4.328125 C 2.742188 -4.421875 3.132812 -4.492188 3.59375 -4.546875 C 4.070312 -4.597656 4.550781 -4.664062 5.03125 -4.75 C 5.519531 -4.84375 5.878906 -4.929688 6.109375 -5.015625 L 6.109375 -5.359375 C 6.109375 -5.898438 5.960938 -6.304688 5.671875 -6.578125 C 5.378906 -6.847656 4.882812 -6.984375 4.1875 -6.984375 C 3.519531 -6.984375 3.039062 -6.867188 2.75 -6.640625 C 2.46875 -6.410156 2.257812 -6.023438 2.125 -5.484375 L 0.8125 -5.640625 C 0.988281 -6.503906 1.367188 -7.128906 1.953125 -7.515625 C 2.546875 -7.898438 3.335938 -8.09375 4.328125 -8.09375 Z M 4.1875 -3.515625 C 3.664062 -3.429688 3.265625 -3.347656 2.984375 -3.265625 C 2.703125 -3.191406 2.46875 -3.066406 2.28125 -2.890625 C 2.101562 -2.710938 2.015625 -2.457031 2.015625 -2.125 C 2.015625 -1.726562 2.160156 -1.421875 2.453125 -1.203125 C 2.742188 -0.984375 3.148438 -0.875 3.671875 -0.875 C 3.984375 -0.875 4.316406 -0.9375 4.671875 -1.0625 C 5.023438 -1.1875 5.335938 -1.40625 5.609375 -1.71875 C 5.773438 -1.925781 5.898438 -2.15625 5.984375 -2.40625 C 6.066406 -2.664062 6.109375 -2.992188 6.109375 -3.390625 L 6.109375 -3.96875 C 5.703125 -3.800781 5.0625 -3.648438 4.1875 -3.515625 Z M 4.1875 -3.515625 "/></g></g></g></svg>