<svg xmlns="http://www.w3.org/2000/svg" xmlns:xlink="http://www.w3.org/1999/xlink" width="500" zoomAndPan="magnify" viewBox="0 0 375 374.999991" height="500" preserveAspectRatio="xMidYMid meet" version="1.0"><defs><g/><clipPath id="8ae5f157ca"><path d="M 0 187.5 C 0 291.054688 83.945312 375 187.5 375 C 291.054688 375 375 291.054688 375 187.5 C 375 83.945312 291.054688 0 187.5 0 C 83.945312 0 0 83.945312 0 187.5 Z M 0 187.5 " clip-rule="nonzero"/></clipPath></defs><g clip-path="url(#8ae5f157ca)"><rect x="-37.5" width="450" fill="#d7e2f7" y="-37.499999" height="449.999989" fill-opacity="1"/></g><g fill="#2c3152" fill-opacity="1"><g transform="translate(62.449693, 187.667023)"><g><path d="M 35.40625 -37.921875 L 21.1875 -37.921875 L 21.1875 0 L 15.484375 0 L 15.484375 -37.921875 L 1.3125 -37.921875 L 1.3125 -42.953125 L 35.40625 -42.953125 Z M 35.40625 -37.921875 "/></g></g></g><g fill="#2c3152" fill-opacity="1"><g transform="translate(99.10966, 187.667023)"><g><path d="M 9.296875 -27.546875 C 10.492188 -28.941406 11.851562 -30 13.375 -30.71875 C 14.894531 -31.4375 16.65625 -31.796875 18.65625 -31.796875 C 20.34375 -31.796875 21.863281 -31.535156 23.21875 -31.015625 C 24.582031 -30.492188 25.722656 -29.796875 26.640625 -28.921875 C 27.597656 -28.003906 28.296875 -26.84375 28.734375 -25.4375 C 29.179688 -24.039062 29.40625 -22.242188 29.40625 -20.046875 L 29.40625 0 L 24.125 0 L 24.125 -19.921875 C 24.125 -22.273438 23.5625 -24.082031 22.4375 -25.34375 C 21.320312 -26.601562 19.660156 -27.234375 17.453125 -27.234375 C 15.859375 -27.234375 14.335938 -26.785156 12.890625 -25.890625 C 11.453125 -24.992188 10.457031 -23.742188 9.90625 -22.140625 C 9.5 -20.941406 9.296875 -19.398438 9.296875 -17.515625 L 9.296875 0 L 4.015625 0 L 4.015625 -42.953125 L 9.296875 -42.953125 Z M 9.296875 -27.546875 "/></g></g></g><g fill="#2c3152" fill-opacity="1"><g transform="translate(132.469632, 187.667023)"><g><path d="M 16.859375 -31.796875 C 19.859375 -31.796875 22.425781 -31.085938 24.5625 -29.671875 C 26.707031 -28.253906 28.316406 -26.34375 29.390625 -23.9375 C 30.472656 -21.539062 31.015625 -18.863281 31.015625 -15.90625 L 31.015625 -14.21875 L 7.796875 -14.21875 C 7.960938 -10.894531 8.90625 -8.300781 10.625 -6.4375 C 12.34375 -4.582031 14.539062 -3.65625 17.21875 -3.65625 C 19.257812 -3.65625 20.945312 -4.195312 22.28125 -5.28125 C 23.625 -6.363281 24.65625 -7.941406 25.375 -10.015625 L 30.84375 -9.359375 C 30 -6.242188 28.40625 -3.796875 26.0625 -2.015625 C 23.726562 -0.234375 20.859375 0.65625 17.453125 0.65625 C 12.691406 0.65625 8.984375 -0.738281 6.328125 -3.53125 C 3.671875 -6.332031 2.34375 -10.253906 2.34375 -15.296875 C 2.34375 -18.660156 2.941406 -21.582031 4.140625 -24.0625 C 5.335938 -26.539062 7.023438 -28.445312 9.203125 -29.78125 C 11.390625 -31.125 13.941406 -31.796875 16.859375 -31.796875 Z M 8.09375 -18.59375 L 25.4375 -18.59375 C 25.320312 -21.5625 24.410156 -23.785156 22.703125 -25.265625 C 21.003906 -26.742188 19.054688 -27.484375 16.859375 -27.484375 C 14.378906 -27.484375 12.347656 -26.640625 10.765625 -24.953125 C 9.191406 -23.273438 8.300781 -21.15625 8.09375 -18.59375 Z M 8.09375 -18.59375 "/></g></g></g><g fill="#2c3152" fill-opacity="1"><g transform="translate(165.829603, 187.667023)"><g><path d="M 15.421875 -31.796875 C 17.222656 -31.796875 19.003906 -31.238281 20.765625 -30.125 L 18.953125 -25.265625 C 17.679688 -26.023438 16.34375 -26.40625 14.9375 -26.40625 C 12.9375 -26.40625 11.46875 -25.492188 10.53125 -23.671875 C 9.59375 -21.847656 9.125 -19.5 9.125 -16.625 L 9.125 0 L 3.84375 0 L 3.84375 -31.078125 L 8.578125 -31.078125 L 8.578125 -26.40625 C 9.578125 -28.195312 10.566406 -29.539062 11.546875 -30.4375 C 12.523438 -31.34375 13.816406 -31.796875 15.421875 -31.796875 Z M 15.421875 -31.796875 "/></g></g></g><g fill="#2c3152" fill-opacity="1"><g transform="translate(185.809579, 187.667023)"><g><path d="M 17.046875 -31.796875 C 19.597656 -31.796875 21.664062 -31.546875 23.25 -31.046875 C 24.832031 -30.546875 26.082031 -29.816406 27 -28.859375 C 27.875 -27.941406 28.472656 -26.921875 28.796875 -25.796875 C 29.117188 -24.679688 29.28125 -23.203125 29.28125 -21.359375 L 29.28125 -8.8125 C 29.28125 -4.78125 29.835938 -1.84375 30.953125 0 L 25.4375 0 C 24.914062 -1.082031 24.554688 -2.363281 24.359375 -3.84375 C 22.441406 -2.238281 20.570312 -1.078125 18.75 -0.359375 C 16.925781 0.359375 15.035156 0.71875 13.078125 0.71875 C 9.722656 0.71875 7.082031 -0.0976562 5.15625 -1.734375 C 3.238281 -3.378906 2.28125 -5.539062 2.28125 -8.21875 C 2.28125 -9.613281 2.597656 -10.960938 3.234375 -12.265625 C 3.878906 -13.566406 4.757812 -14.578125 5.875 -15.296875 C 7.082031 -16.097656 8.304688 -16.675781 9.546875 -17.03125 C 10.785156 -17.394531 12.300781 -17.675781 14.09375 -17.875 C 16.019531 -18.082031 17.929688 -18.351562 19.828125 -18.6875 C 21.734375 -19.03125 23.125 -19.378906 24 -19.734375 L 24 -21.0625 C 24 -23.175781 23.425781 -24.773438 22.28125 -25.859375 C 21.144531 -26.941406 19.195312 -27.484375 16.4375 -27.484375 C 13.84375 -27.484375 11.972656 -27.019531 10.828125 -26.09375 C 9.691406 -25.175781 8.863281 -23.660156 8.34375 -21.546875 L 3.1875 -22.203125 C 3.90625 -25.554688 5.410156 -27.992188 7.703125 -29.515625 C 10.003906 -31.035156 13.117188 -31.796875 17.046875 -31.796875 Z M 16.4375 -13.796875 C 14.394531 -13.472656 12.820312 -13.160156 11.71875 -12.859375 C 10.625 -12.566406 9.71875 -12.066406 9 -11.359375 C 8.28125 -10.660156 7.921875 -9.65625 7.921875 -8.34375 C 7.921875 -6.78125 8.488281 -5.566406 9.625 -4.703125 C 10.769531 -3.847656 12.378906 -3.421875 14.453125 -3.421875 C 15.660156 -3.421875 16.960938 -3.671875 18.359375 -4.171875 C 19.753906 -4.671875 20.972656 -5.539062 22.015625 -6.78125 C 22.703125 -7.582031 23.203125 -8.484375 23.515625 -9.484375 C 23.835938 -10.484375 24 -11.757812 24 -13.3125 L 24 -15.59375 C 22.394531 -14.957031 19.875 -14.359375 16.4375 -13.796875 Z M 16.4375 -13.796875 "/></g></g></g><g fill="#2c3152" fill-opacity="1"><g transform="translate(219.16955, 187.667023)"><g><path d="M 17.8125 -31.796875 C 20.457031 -31.796875 22.78125 -31.132812 24.78125 -29.8125 C 26.78125 -28.5 28.328125 -26.648438 29.421875 -24.265625 C 30.523438 -21.890625 31.078125 -19.140625 31.078125 -16.015625 C 31.078125 -12.617188 30.476562 -9.660156 29.28125 -7.140625 C 28.082031 -4.617188 26.453125 -2.6875 24.390625 -1.34375 C 22.328125 -0.0078125 20.035156 0.65625 17.515625 0.65625 C 15.878906 0.65625 14.359375 0.304688 12.953125 -0.390625 C 11.554688 -1.085938 10.359375 -2.035156 9.359375 -3.234375 L 9.359375 11.9375 L 4.078125 11.9375 L 4.078125 -31.078125 L 8.875 -31.078125 L 8.875 -27.0625 C 10.039062 -28.65625 11.3125 -29.84375 12.6875 -30.625 C 14.070312 -31.40625 15.78125 -31.796875 17.8125 -31.796875 Z M 8.8125 -15.359375 C 8.8125 -11.597656 9.570312 -8.707031 11.09375 -6.6875 C 12.613281 -4.664062 14.632812 -3.65625 17.15625 -3.65625 C 19.632812 -3.65625 21.675781 -4.695312 23.28125 -6.78125 C 24.882812 -8.863281 25.6875 -11.863281 25.6875 -15.78125 C 25.6875 -19.457031 24.925781 -22.351562 23.40625 -24.46875 C 21.882812 -26.59375 19.863281 -27.65625 17.34375 -27.65625 C 15.695312 -27.65625 14.234375 -27.144531 12.953125 -26.125 C 11.679688 -25.101562 10.671875 -23.648438 9.921875 -21.765625 C 9.179688 -19.890625 8.8125 -17.753906 8.8125 -15.359375 Z M 8.8125 -15.359375 "/></g></g></g><g fill="#2c3152" fill-opacity="1"><g transform="translate(252.529522, 187.667023)"><g><path d="M 9.296875 -36.953125 L 4.015625 -36.953125 L 4.015625 -42.953125 L 9.296875 -42.953125 Z M 9.296875 0 L 4.015625 0 L 4.015625 -31.078125 L 9.296875 -31.078125 Z M 9.296875 0 "/></g></g></g><g fill="#2c3152" fill-opacity="1"><g transform="translate(265.849505, 187.667023)"><g><path d="M 14.28125 -31.796875 C 17.800781 -31.796875 20.640625 -31.066406 22.796875 -29.609375 C 24.960938 -28.148438 26.203125 -25.976562 26.515625 -23.09375 L 21.359375 -22.375 C 21.117188 -23.9375 20.457031 -25.175781 19.375 -26.09375 C 18.300781 -27.019531 16.703125 -27.484375 14.578125 -27.484375 C 12.460938 -27.484375 10.8125 -27.117188 9.625 -26.390625 C 8.445312 -25.671875 7.859375 -24.675781 7.859375 -23.40625 C 7.859375 -22.519531 8.207031 -21.785156 8.90625 -21.203125 C 9.601562 -20.628906 10.429688 -20.191406 11.390625 -19.890625 C 12.359375 -19.585938 13.820312 -19.195312 15.78125 -18.71875 C 18.300781 -18.113281 20.347656 -17.507812 21.921875 -16.90625 C 23.503906 -16.3125 24.863281 -15.394531 26 -14.15625 C 27.144531 -12.914062 27.71875 -11.257812 27.71875 -9.1875 C 27.71875 -7.382812 27.21875 -5.734375 26.21875 -4.234375 C 25.21875 -2.734375 23.785156 -1.539062 21.921875 -0.65625 C 20.066406 0.21875 17.941406 0.65625 15.546875 0.65625 C 11.378906 0.65625 8.195312 -0.160156 6 -1.796875 C 3.800781 -3.441406 2.421875 -5.941406 1.859375 -9.296875 L 7.078125 -10.078125 C 7.359375 -7.960938 8.207031 -6.363281 9.625 -5.28125 C 11.050781 -4.195312 12.882812 -3.65625 15.125 -3.65625 C 17.40625 -3.65625 19.171875 -4.125 20.421875 -5.0625 C 21.679688 -6.007812 22.3125 -7.179688 22.3125 -8.578125 C 22.3125 -9.898438 21.679688 -10.878906 20.421875 -11.515625 C 19.171875 -12.160156 17.242188 -12.78125 14.640625 -13.375 C 12.078125 -13.976562 10.023438 -14.566406 8.484375 -15.140625 C 6.953125 -15.722656 5.613281 -16.632812 4.46875 -17.875 C 3.332031 -19.113281 2.765625 -20.773438 2.765625 -22.859375 C 2.765625 -24.535156 3.210938 -26.050781 4.109375 -27.40625 C 5.003906 -28.769531 6.320312 -29.84375 8.0625 -30.625 C 9.8125 -31.40625 11.882812 -31.796875 14.28125 -31.796875 Z M 14.28125 -31.796875 "/></g></g></g><g fill="#2c3152" fill-opacity="1"><g transform="translate(295.84948, 187.667023)"><g><path d="M 10.140625 -31.078125 L 15.421875 -31.078125 L 15.421875 -27.125 L 10.140625 -27.125 L 10.140625 -7.859375 C 10.140625 -6.492188 10.328125 -5.53125 10.703125 -4.96875 C 11.085938 -4.414062 11.878906 -4.140625 13.078125 -4.140625 C 13.359375 -4.140625 14.140625 -4.238281 15.421875 -4.4375 L 16.203125 0.234375 C 14.597656 0.554688 13.296875 0.71875 12.296875 0.71875 C 10.253906 0.71875 8.691406 0.390625 7.609375 -0.265625 C 6.535156 -0.929688 5.804688 -1.851562 5.421875 -3.03125 C 5.046875 -4.207031 4.859375 -5.738281 4.859375 -7.625 L 4.859375 -27.125 L 1.015625 -27.125 L 1.015625 -31.078125 L 4.859375 -31.078125 L 4.859375 -38.8125 L 10.140625 -42 Z M 10.140625 -31.078125 "/></g></g></g><g fill="#2c3152" fill-opacity="1"><g transform="translate(97.653375, 243.288675)"><g><path d="M 11.53125 -14.9375 C 12.601562 -14.320312 13.410156 -13.410156 13.953125 -12.203125 C 14.503906 -11.003906 14.78125 -9.597656 14.78125 -7.984375 C 14.78125 -6.648438 14.582031 -5.40625 14.1875 -4.25 C 13.789062 -3.09375 13.191406 -2.175781 12.390625 -1.5 C 11.785156 -1 11.113281 -0.625 10.375 -0.375 C 9.644531 -0.125 8.734375 0 7.640625 0 L 1.765625 0 L 1.765625 -15.75 L 7.484375 -15.75 C 8.398438 -15.75 9.160156 -15.691406 9.765625 -15.578125 C 10.378906 -15.472656 10.96875 -15.257812 11.53125 -14.9375 Z M 12.625 -8.015625 C 12.625 -9.609375 12.375 -10.84375 11.875 -11.71875 C 11.375 -12.59375 10.78125 -13.175781 10.09375 -13.46875 C 9.40625 -13.757812 8.539062 -13.90625 7.5 -13.90625 L 3.84375 -13.90625 L 3.84375 -1.84375 L 7.296875 -1.84375 C 8.328125 -1.84375 9.191406 -1.960938 9.890625 -2.203125 C 10.585938 -2.453125 11.21875 -3.03125 11.78125 -3.9375 C 12.34375 -4.84375 12.625 -6.203125 12.625 -8.015625 Z M 12.625 -8.015625 "/></g></g></g><g fill="#2c3152" fill-opacity="1"><g transform="translate(113.534546, 243.288675)"><g><path d="M 6.1875 -11.65625 C 7.28125 -11.65625 8.21875 -11.394531 9 -10.875 C 9.789062 -10.351562 10.382812 -9.648438 10.78125 -8.765625 C 11.175781 -7.890625 11.375 -6.910156 11.375 -5.828125 L 11.375 -5.21875 L 2.859375 -5.21875 C 2.921875 -4 3.265625 -3.046875 3.890625 -2.359375 C 4.523438 -1.679688 5.332031 -1.34375 6.3125 -1.34375 C 7.0625 -1.34375 7.679688 -1.539062 8.171875 -1.9375 C 8.660156 -2.332031 9.039062 -2.910156 9.3125 -3.671875 L 11.3125 -3.4375 C 11 -2.289062 10.410156 -1.390625 9.546875 -0.734375 C 8.691406 -0.0859375 7.644531 0.234375 6.40625 0.234375 C 4.65625 0.234375 3.289062 -0.273438 2.3125 -1.296875 C 1.34375 -2.328125 0.859375 -3.765625 0.859375 -5.609375 C 0.859375 -6.835938 1.078125 -7.90625 1.515625 -8.8125 C 1.953125 -9.726562 2.570312 -10.429688 3.375 -10.921875 C 4.175781 -11.410156 5.113281 -11.65625 6.1875 -11.65625 Z M 2.96875 -6.8125 L 9.328125 -6.8125 C 9.285156 -7.90625 8.953125 -8.722656 8.328125 -9.265625 C 7.703125 -9.804688 6.988281 -10.078125 6.1875 -10.078125 C 5.269531 -10.078125 4.519531 -9.769531 3.9375 -9.15625 C 3.363281 -8.539062 3.039062 -7.757812 2.96875 -6.8125 Z M 2.96875 -6.8125 "/></g></g></g><g fill="#2c3152" fill-opacity="1"><g transform="translate(125.764366, 243.288675)"><g><path d="M 3.40625 0 L 1.46875 0 L 1.46875 -15.75 L 3.40625 -15.75 Z M 3.40625 0 "/></g></g></g><g fill="#2c3152" fill-opacity="1"><g transform="translate(130.647491, 243.288675)"><g><path d="M 3.40625 -13.546875 L 1.46875 -13.546875 L 1.46875 -15.75 L 3.40625 -15.75 Z M 3.40625 0 L 1.46875 0 L 1.46875 -11.390625 L 3.40625 -11.390625 Z M 3.40625 0 "/></g></g></g><g fill="#2c3152" fill-opacity="1"><g transform="translate(135.530616, 243.288675)"><g><path d="M 4.65625 -4.890625 C 4.789062 -4.535156 4.984375 -3.945312 5.234375 -3.125 L 5.515625 -2.265625 C 5.835938 -3.347656 6.070312 -4.066406 6.21875 -4.421875 L 8.75 -11.390625 L 10.765625 -11.390625 L 6.453125 0 L 4.625 0 L 0.28125 -11.390625 L 2.328125 -11.390625 Z M 4.65625 -4.890625 "/></g></g></g><g fill="#2c3152" fill-opacity="1"><g transform="translate(146.52865, 243.288675)"><g><path d="M 6.1875 -11.65625 C 7.28125 -11.65625 8.21875 -11.394531 9 -10.875 C 9.789062 -10.351562 10.382812 -9.648438 10.78125 -8.765625 C 11.175781 -7.890625 11.375 -6.910156 11.375 -5.828125 L 11.375 -5.21875 L 2.859375 -5.21875 C 2.921875 -4 3.265625 -3.046875 3.890625 -2.359375 C 4.523438 -1.679688 5.332031 -1.34375 6.3125 -1.34375 C 7.0625 -1.34375 7.679688 -1.539062 8.171875 -1.9375 C 8.660156 -2.332031 9.039062 -2.910156 9.3125 -3.671875 L 11.3125 -3.4375 C 11 -2.289062 10.410156 -1.390625 9.546875 -0.734375 C 8.691406 -0.0859375 7.644531 0.234375 6.40625 0.234375 C 4.65625 0.234375 3.289062 -0.273438 2.3125 -1.296875 C 1.34375 -2.328125 0.859375 -3.765625 0.859375 -5.609375 C 0.859375 -6.835938 1.078125 -7.90625 1.515625 -8.8125 C 1.953125 -9.726562 2.570312 -10.429688 3.375 -10.921875 C 4.175781 -11.410156 5.113281 -11.65625 6.1875 -11.65625 Z M 2.96875 -6.8125 L 9.328125 -6.8125 C 9.285156 -7.90625 8.953125 -8.722656 8.328125 -9.265625 C 7.703125 -9.804688 6.988281 -10.078125 6.1875 -10.078125 C 5.269531 -10.078125 4.519531 -9.769531 3.9375 -9.15625 C 3.363281 -8.539062 3.039062 -7.757812 2.96875 -6.8125 Z M 2.96875 -6.8125 "/></g></g></g><g fill="#2c3152" fill-opacity="1"><g transform="translate(158.75847, 243.288675)"><g><path d="M 5.65625 -11.65625 C 6.3125 -11.65625 6.960938 -11.453125 7.609375 -11.046875 L 6.953125 -9.265625 C 6.484375 -9.546875 5.992188 -9.6875 5.484375 -9.6875 C 4.742188 -9.6875 4.203125 -9.347656 3.859375 -8.671875 C 3.515625 -8.003906 3.34375 -7.144531 3.34375 -6.09375 L 3.34375 0 L 1.40625 0 L 1.40625 -11.390625 L 3.140625 -11.390625 L 3.140625 -9.6875 C 3.515625 -10.34375 3.878906 -10.832031 4.234375 -11.15625 C 4.597656 -11.488281 5.070312 -11.65625 5.65625 -11.65625 Z M 5.65625 -11.65625 "/></g></g></g><g fill="#2c3152" fill-opacity="1"><g transform="translate(166.083169, 243.288675)"><g><path d="M 5.234375 -11.65625 C 6.523438 -11.65625 7.566406 -11.382812 8.359375 -10.84375 C 9.148438 -10.3125 9.601562 -9.519531 9.71875 -8.46875 L 7.828125 -8.203125 C 7.742188 -8.773438 7.503906 -9.226562 7.109375 -9.5625 C 6.710938 -9.90625 6.125 -10.078125 5.34375 -10.078125 C 4.570312 -10.078125 3.96875 -9.941406 3.53125 -9.671875 C 3.09375 -9.410156 2.875 -9.046875 2.875 -8.578125 C 2.875 -8.253906 3.003906 -7.984375 3.265625 -7.765625 C 3.523438 -7.554688 3.828125 -7.394531 4.171875 -7.28125 C 4.523438 -7.175781 5.0625 -7.035156 5.78125 -6.859375 C 6.707031 -6.640625 7.457031 -6.421875 8.03125 -6.203125 C 8.613281 -5.984375 9.113281 -5.644531 9.53125 -5.1875 C 9.945312 -4.738281 10.15625 -4.128906 10.15625 -3.359375 C 10.15625 -2.703125 9.972656 -2.097656 9.609375 -1.546875 C 9.242188 -0.992188 8.71875 -0.554688 8.03125 -0.234375 C 7.351562 0.078125 6.578125 0.234375 5.703125 0.234375 C 4.171875 0.234375 3 -0.0625 2.1875 -0.65625 C 1.382812 -1.257812 0.882812 -2.175781 0.6875 -3.40625 L 2.59375 -3.703125 C 2.695312 -2.921875 3.007812 -2.332031 3.53125 -1.9375 C 4.050781 -1.539062 4.722656 -1.34375 5.546875 -1.34375 C 6.378906 -1.34375 7.023438 -1.515625 7.484375 -1.859375 C 7.953125 -2.203125 8.1875 -2.628906 8.1875 -3.140625 C 8.1875 -3.628906 7.953125 -3.988281 7.484375 -4.21875 C 7.023438 -4.457031 6.320312 -4.6875 5.375 -4.90625 C 4.425781 -5.125 3.671875 -5.335938 3.109375 -5.546875 C 2.546875 -5.765625 2.054688 -6.097656 1.640625 -6.546875 C 1.222656 -7.003906 1.015625 -7.613281 1.015625 -8.375 C 1.015625 -9 1.175781 -9.554688 1.5 -10.046875 C 1.832031 -10.546875 2.316406 -10.9375 2.953125 -11.21875 C 3.597656 -11.507812 4.359375 -11.65625 5.234375 -11.65625 Z M 5.234375 -11.65625 "/></g></g></g><g fill="#2c3152" fill-opacity="1"><g transform="translate(177.081203, 243.288675)"><g/></g></g><g fill="#2c3152" fill-opacity="1"><g transform="translate(183.196113, 243.288675)"><g><path d="M 8.671875 -4.203125 C 8.773438 -3.910156 8.976562 -3.265625 9.28125 -2.265625 C 9.445312 -2.773438 9.710938 -3.570312 10.078125 -4.65625 L 13.90625 -15.75 L 16.703125 -15.75 L 16.703125 0 L 14.703125 0 L 14.703125 -13.171875 L 10.125 0 L 8.234375 0 L 3.671875 -13.390625 L 3.671875 0 L 1.671875 0 L 1.671875 -15.75 L 4.8125 -15.75 Z M 8.671875 -4.203125 "/></g></g></g><g fill="#2c3152" fill-opacity="1"><g transform="translate(201.518847, 243.288675)"><g><path d="M 6.25 -11.65625 C 7.1875 -11.65625 7.941406 -11.5625 8.515625 -11.375 C 9.097656 -11.195312 9.5625 -10.929688 9.90625 -10.578125 C 10.226562 -10.242188 10.445312 -9.867188 10.5625 -9.453125 C 10.675781 -9.046875 10.734375 -8.503906 10.734375 -7.828125 L 10.734375 -3.234375 C 10.734375 -1.753906 10.941406 -0.675781 11.359375 0 L 9.328125 0 C 9.140625 -0.394531 9.007812 -0.863281 8.9375 -1.40625 C 8.226562 -0.820312 7.539062 -0.394531 6.875 -0.125 C 6.207031 0.132812 5.515625 0.265625 4.796875 0.265625 C 3.566406 0.265625 2.597656 -0.0351562 1.890625 -0.640625 C 1.191406 -1.242188 0.84375 -2.035156 0.84375 -3.015625 C 0.84375 -3.523438 0.957031 -4.019531 1.1875 -4.5 C 1.425781 -4.976562 1.75 -5.347656 2.15625 -5.609375 C 2.59375 -5.898438 3.039062 -6.113281 3.5 -6.25 C 3.957031 -6.382812 4.515625 -6.488281 5.171875 -6.5625 C 5.867188 -6.632812 6.566406 -6.734375 7.265625 -6.859375 C 7.960938 -6.984375 8.472656 -7.109375 8.796875 -7.234375 L 8.796875 -7.71875 C 8.796875 -8.5 8.585938 -9.085938 8.171875 -9.484375 C 7.753906 -9.878906 7.039062 -10.078125 6.03125 -10.078125 C 5.070312 -10.078125 4.382812 -9.90625 3.96875 -9.5625 C 3.550781 -9.226562 3.25 -8.671875 3.0625 -7.890625 L 1.171875 -8.140625 C 1.429688 -9.367188 1.984375 -10.257812 2.828125 -10.8125 C 3.671875 -11.375 4.8125 -11.65625 6.25 -11.65625 Z M 6.03125 -5.0625 C 5.28125 -4.945312 4.703125 -4.832031 4.296875 -4.71875 C 3.898438 -4.601562 3.566406 -4.414062 3.296875 -4.15625 C 3.035156 -3.90625 2.90625 -3.539062 2.90625 -3.0625 C 2.90625 -2.488281 3.113281 -2.039062 3.53125 -1.71875 C 3.945312 -1.40625 4.535156 -1.25 5.296875 -1.25 C 5.742188 -1.25 6.222656 -1.335938 6.734375 -1.515625 C 7.242188 -1.703125 7.691406 -2.023438 8.078125 -2.484375 C 8.328125 -2.773438 8.507812 -3.101562 8.625 -3.46875 C 8.738281 -3.84375 8.796875 -4.316406 8.796875 -4.890625 L 8.796875 -5.71875 C 8.210938 -5.488281 7.289062 -5.269531 6.03125 -5.0625 Z M 6.03125 -5.0625 "/></g></g></g><g fill="#2c3152" fill-opacity="1"><g transform="translate(213.748666, 243.288675)"><g><path d="M 3.390625 -4.09375 C 3.390625 -3.207031 3.597656 -2.535156 4.015625 -2.078125 C 4.429688 -1.628906 5.046875 -1.40625 5.859375 -1.40625 C 6.398438 -1.40625 6.921875 -1.5625 7.421875 -1.875 C 7.929688 -2.195312 8.296875 -2.644531 8.515625 -3.21875 C 8.691406 -3.632812 8.78125 -4.273438 8.78125 -5.140625 L 8.78125 -11.390625 L 10.71875 -11.390625 L 10.71875 0 L 8.96875 0 L 8.96875 -1.671875 C 8.0625 -0.378906 6.851562 0.265625 5.34375 0.265625 C 4.726562 0.265625 4.101562 0.140625 3.46875 -0.109375 C 2.84375 -0.367188 2.351562 -0.785156 2 -1.359375 C 1.789062 -1.703125 1.644531 -2.078125 1.5625 -2.484375 C 1.488281 -2.898438 1.453125 -3.398438 1.453125 -3.984375 L 1.453125 -11.390625 L 3.390625 -11.390625 Z M 3.390625 -4.09375 "/></g></g></g><g fill="#2c3152" fill-opacity="1"><g transform="translate(225.978485, 243.288675)"><g><path d="M 10.6875 -15.75 L 10.6875 0 L 8.890625 0 L 8.890625 -1.453125 C 8.671875 -1.066406 8.300781 -0.6875 7.78125 -0.3125 C 7.257812 0.0507812 6.570312 0.234375 5.71875 0.234375 C 4.789062 0.234375 3.953125 -0.0078125 3.203125 -0.5 C 2.460938 -0.988281 1.875 -1.6875 1.4375 -2.59375 C 1.007812 -3.5 0.796875 -4.554688 0.796875 -5.765625 C 0.796875 -6.960938 0.992188 -8.003906 1.390625 -8.890625 C 1.796875 -9.785156 2.367188 -10.46875 3.109375 -10.9375 C 3.847656 -11.414062 4.710938 -11.65625 5.703125 -11.65625 C 6.421875 -11.65625 7.046875 -11.484375 7.578125 -11.140625 C 8.109375 -10.804688 8.5 -10.457031 8.75 -10.09375 L 8.75 -15.75 Z M 2.765625 -5.703125 C 2.765625 -4.765625 2.90625 -3.96875 3.1875 -3.3125 C 3.46875 -2.65625 3.84375 -2.160156 4.3125 -1.828125 C 4.789062 -1.503906 5.316406 -1.34375 5.890625 -1.34375 C 6.785156 -1.34375 7.515625 -1.703125 8.078125 -2.421875 C 8.648438 -3.140625 8.9375 -4.171875 8.9375 -5.515625 C 8.9375 -6.898438 8.660156 -8.003906 8.109375 -8.828125 C 7.566406 -9.660156 6.800781 -10.078125 5.8125 -10.078125 C 4.851562 -10.078125 4.101562 -9.6875 3.5625 -8.90625 C 3.03125 -8.132812 2.765625 -7.066406 2.765625 -5.703125 Z M 2.765625 -5.703125 "/></g></g></g><g fill="#2c3152" fill-opacity="1"><g transform="translate(238.208305, 243.288675)"><g><path d="M 5.234375 -11.65625 C 6.523438 -11.65625 7.566406 -11.382812 8.359375 -10.84375 C 9.148438 -10.3125 9.601562 -9.519531 9.71875 -8.46875 L 7.828125 -8.203125 C 7.742188 -8.773438 7.503906 -9.226562 7.109375 -9.5625 C 6.710938 -9.90625 6.125 -10.078125 5.34375 -10.078125 C 4.570312 -10.078125 3.96875 -9.941406 3.53125 -9.671875 C 3.09375 -9.410156 2.875 -9.046875 2.875 -8.578125 C 2.875 -8.253906 3.003906 -7.984375 3.265625 -7.765625 C 3.523438 -7.554688 3.828125 -7.394531 4.171875 -7.28125 C 4.523438 -7.175781 5.0625 -7.035156 5.78125 -6.859375 C 6.707031 -6.640625 7.457031 -6.421875 8.03125 -6.203125 C 8.613281 -5.984375 9.113281 -5.644531 9.53125 -5.1875 C 9.945312 -4.738281 10.15625 -4.128906 10.15625 -3.359375 C 10.15625 -2.703125 9.972656 -2.097656 9.609375 -1.546875 C 9.242188 -0.992188 8.71875 -0.554688 8.03125 -0.234375 C 7.351562 0.078125 6.578125 0.234375 5.703125 0.234375 C 4.171875 0.234375 3 -0.0625 2.1875 -0.65625 C 1.382812 -1.257812 0.882812 -2.175781 0.6875 -3.40625 L 2.59375 -3.703125 C 2.695312 -2.921875 3.007812 -2.332031 3.53125 -1.9375 C 4.050781 -1.539062 4.722656 -1.34375 5.546875 -1.34375 C 6.378906 -1.34375 7.023438 -1.515625 7.484375 -1.859375 C 7.953125 -2.203125 8.1875 -2.628906 8.1875 -3.140625 C 8.1875 -3.628906 7.953125 -3.988281 7.484375 -4.21875 C 7.023438 -4.457031 6.320312 -4.6875 5.375 -4.90625 C 4.425781 -5.125 3.671875 -5.335938 3.109375 -5.546875 C 2.546875 -5.765625 2.054688 -6.097656 1.640625 -6.546875 C 1.222656 -7.003906 1.015625 -7.613281 1.015625 -8.375 C 1.015625 -9 1.175781 -9.554688 1.5 -10.046875 C 1.832031 -10.546875 2.316406 -10.9375 2.953125 -11.21875 C 3.597656 -11.507812 4.359375 -11.65625 5.234375 -11.65625 Z M 5.234375 -11.65625 "/></g></g></g><g fill="#2c3152" fill-opacity="1"><g transform="translate(249.20634, 243.288675)"><g><path d="M 3.40625 0 L 1.46875 0 L 1.46875 -15.75 L 3.40625 -15.75 Z M 3.40625 0 "/></g></g></g><g fill="#2c3152" fill-opacity="1"><g transform="translate(254.089464, 243.288675)"><g><path d="M 6.1875 -11.65625 C 7.28125 -11.65625 8.21875 -11.394531 9 -10.875 C 9.789062 -10.351562 10.382812 -9.648438 10.78125 -8.765625 C 11.175781 -7.890625 11.375 -6.910156 11.375 -5.828125 L 11.375 -5.21875 L 2.859375 -5.21875 C 2.921875 -4 3.265625 -3.046875 3.890625 -2.359375 C 4.523438 -1.679688 5.332031 -1.34375 6.3125 -1.34375 C 7.0625 -1.34375 7.679688 -1.539062 8.171875 -1.9375 C 8.660156 -2.332031 9.039062 -2.910156 9.3125 -3.671875 L 11.3125 -3.4375 C 11 -2.289062 10.410156 -1.390625 9.546875 -0.734375 C 8.691406 -0.0859375 7.644531 0.234375 6.40625 0.234375 C 4.65625 0.234375 3.289062 -0.273438 2.3125 -1.296875 C 1.34375 -2.328125 0.859375 -3.765625 0.859375 -5.609375 C 0.859375 -6.835938 1.078125 -7.90625 1.515625 -8.8125 C 1.953125 -9.726562 2.570312 -10.429688 3.375 -10.921875 C 4.175781 -11.410156 5.113281 -11.65625 6.1875 -11.65625 Z M 2.96875 -6.8125 L 9.328125 -6.8125 C 9.285156 -7.90625 8.953125 -8.722656 8.328125 -9.265625 C 7.703125 -9.804688 6.988281 -10.078125 6.1875 -10.078125 C 5.269531 -10.078125 4.519531 -9.769531 3.9375 -9.15625 C 3.363281 -8.539062 3.039062 -7.757812 2.96875 -6.8125 Z M 2.96875 -6.8125 "/></g></g></g><g fill="#2c3152" fill-opacity="1"><g transform="translate(266.319284, 243.288675)"><g><path d="M 4.84375 -4.734375 C 5.164062 -3.796875 5.425781 -2.9375 5.625 -2.15625 C 5.851562 -3.019531 6.101562 -3.832031 6.375 -4.59375 L 8.859375 -11.390625 L 10.796875 -11.390625 L 6.46875 0.203125 C 6.0625 1.296875 5.707031 2.132812 5.40625 2.71875 C 5.113281 3.300781 4.75 3.765625 4.3125 4.109375 C 3.875 4.453125 3.3125 4.625 2.625 4.625 C 2.164062 4.625 1.742188 4.550781 1.359375 4.40625 L 1.140625 2.578125 C 1.609375 2.691406 1.988281 2.75 2.28125 2.75 C 2.738281 2.75 3.097656 2.664062 3.359375 2.5 C 3.628906 2.34375 3.828125 2.128906 3.953125 1.859375 C 4.085938 1.597656 4.257812 1.179688 4.46875 0.609375 L 4.6875 0.015625 L 0.359375 -11.390625 L 2.4375 -11.390625 Z M 4.84375 -4.734375 "/></g></g></g><g fill="#2c3152" fill-opacity="1"><g transform="translate(66.22369, 269.538674)"><g><path d="M 12.390625 -13.90625 L 3.84375 -13.90625 L 3.84375 -9.015625 L 11.234375 -9.015625 L 11.234375 -7.171875 L 3.84375 -7.171875 L 3.84375 0 L 1.765625 0 L 1.765625 -15.75 L 12.390625 -15.75 Z M 12.390625 -13.90625 "/></g></g></g><g fill="#2c3152" fill-opacity="1"><g transform="translate(79.663298, 269.538674)"><g><path d="M 6.25 -11.65625 C 7.1875 -11.65625 7.941406 -11.5625 8.515625 -11.375 C 9.097656 -11.195312 9.5625 -10.929688 9.90625 -10.578125 C 10.226562 -10.242188 10.445312 -9.867188 10.5625 -9.453125 C 10.675781 -9.046875 10.734375 -8.503906 10.734375 -7.828125 L 10.734375 -3.234375 C 10.734375 -1.753906 10.941406 -0.675781 11.359375 0 L 9.328125 0 C 9.140625 -0.394531 9.007812 -0.863281 8.9375 -1.40625 C 8.226562 -0.820312 7.539062 -0.394531 6.875 -0.125 C 6.207031 0.132812 5.515625 0.265625 4.796875 0.265625 C 3.566406 0.265625 2.597656 -0.0351562 1.890625 -0.640625 C 1.191406 -1.242188 0.84375 -2.035156 0.84375 -3.015625 C 0.84375 -3.523438 0.957031 -4.019531 1.1875 -4.5 C 1.425781 -4.976562 1.75 -5.347656 2.15625 -5.609375 C 2.59375 -5.898438 3.039062 -6.113281 3.5 -6.25 C 3.957031 -6.382812 4.515625 -6.488281 5.171875 -6.5625 C 5.867188 -6.632812 6.566406 -6.734375 7.265625 -6.859375 C 7.960938 -6.984375 8.472656 -7.109375 8.796875 -7.234375 L 8.796875 -7.71875 C 8.796875 -8.5 8.585938 -9.085938 8.171875 -9.484375 C 7.753906 -9.878906 7.039062 -10.078125 6.03125 -10.078125 C 5.070312 -10.078125 4.382812 -9.90625 3.96875 -9.5625 C 3.550781 -9.226562 3.25 -8.671875 3.0625 -7.890625 L 1.171875 -8.140625 C 1.429688 -9.367188 1.984375 -10.257812 2.828125 -10.8125 C 3.671875 -11.375 4.8125 -11.65625 6.25 -11.65625 Z M 6.03125 -5.0625 C 5.28125 -4.945312 4.703125 -4.832031 4.296875 -4.71875 C 3.898438 -4.601562 3.566406 -4.414062 3.296875 -4.15625 C 3.035156 -3.90625 2.90625 -3.539062 2.90625 -3.0625 C 2.90625 -2.488281 3.113281 -2.039062 3.53125 -1.71875 C 3.945312 -1.40625 4.535156 -1.25 5.296875 -1.25 C 5.742188 -1.25 6.222656 -1.335938 6.734375 -1.515625 C 7.242188 -1.703125 7.691406 -2.023438 8.078125 -2.484375 C 8.328125 -2.773438 8.507812 -3.101562 8.625 -3.46875 C 8.738281 -3.84375 8.796875 -4.316406 8.796875 -4.890625 L 8.796875 -5.71875 C 8.210938 -5.488281 7.289062 -5.269531 6.03125 -5.0625 Z M 6.03125 -5.0625 "/></g></g></g><g fill="#2c3152" fill-opacity="1"><g transform="translate(91.893118, 269.538674)"><g><path d="M 6.640625 -11.65625 C 7.460938 -11.65625 8.140625 -11.484375 8.671875 -11.140625 C 9.210938 -10.796875 9.597656 -10.300781 9.828125 -9.65625 C 10.285156 -10.300781 10.789062 -10.796875 11.34375 -11.140625 C 11.894531 -11.484375 12.566406 -11.65625 13.359375 -11.65625 C 14.492188 -11.65625 15.367188 -11.328125 15.984375 -10.671875 C 16.609375 -10.023438 16.921875 -9.097656 16.921875 -7.890625 L 16.921875 0 L 14.984375 0 L 14.984375 -7.328125 C 14.984375 -8.253906 14.820312 -8.925781 14.5 -9.34375 C 14.175781 -9.769531 13.644531 -9.984375 12.90625 -9.984375 C 11.988281 -9.984375 11.296875 -9.671875 10.828125 -9.046875 C 10.367188 -8.429688 10.140625 -7.648438 10.140625 -6.703125 L 10.140625 0 L 8.203125 0 L 8.203125 -7.5 C 8.203125 -8.332031 8.035156 -8.953125 7.703125 -9.359375 C 7.378906 -9.773438 6.875 -9.984375 6.1875 -9.984375 C 5.625 -9.984375 5.097656 -9.828125 4.609375 -9.515625 C 4.117188 -9.203125 3.78125 -8.738281 3.59375 -8.125 C 3.4375 -7.675781 3.359375 -7.003906 3.359375 -6.109375 L 3.359375 0 L 1.4375 0 L 1.4375 -11.390625 L 3.171875 -11.390625 L 3.171875 -9.8125 C 3.578125 -10.445312 4.082031 -10.910156 4.6875 -11.203125 C 5.289062 -11.503906 5.941406 -11.65625 6.640625 -11.65625 Z M 6.640625 -11.65625 "/></g></g></g><g fill="#2c3152" fill-opacity="1"><g transform="translate(110.215851, 269.538674)"><g><path d="M 3.40625 -13.546875 L 1.46875 -13.546875 L 1.46875 -15.75 L 3.40625 -15.75 Z M 3.40625 0 L 1.46875 0 L 1.46875 -11.390625 L 3.40625 -11.390625 Z M 3.40625 0 "/></g></g></g><g fill="#2c3152" fill-opacity="1"><g transform="translate(115.098976, 269.538674)"><g><path d="M 3.40625 0 L 1.46875 0 L 1.46875 -15.75 L 3.40625 -15.75 Z M 3.40625 0 "/></g></g></g><g fill="#2c3152" fill-opacity="1"><g transform="translate(119.982101, 269.538674)"><g><path d="M 4.84375 -4.734375 C 5.164062 -3.796875 5.425781 -2.9375 5.625 -2.15625 C 5.851562 -3.019531 6.101562 -3.832031 6.375 -4.59375 L 8.859375 -11.390625 L 10.796875 -11.390625 L 6.46875 0.203125 C 6.0625 1.296875 5.707031 2.132812 5.40625 2.71875 C 5.113281 3.300781 4.75 3.765625 4.3125 4.109375 C 3.875 4.453125 3.3125 4.625 2.625 4.625 C 2.164062 4.625 1.742188 4.550781 1.359375 4.40625 L 1.140625 2.578125 C 1.609375 2.691406 1.988281 2.75 2.28125 2.75 C 2.738281 2.75 3.097656 2.664062 3.359375 2.5 C 3.628906 2.34375 3.828125 2.128906 3.953125 1.859375 C 4.085938 1.597656 4.257812 1.179688 4.46875 0.609375 L 4.6875 0.015625 L 0.359375 -11.390625 L 2.4375 -11.390625 Z M 4.84375 -4.734375 "/></g></g></g><g fill="#2c3152" fill-opacity="1"><g transform="translate(130.980136, 269.538674)"><g/></g></g><g fill="#2c3152" fill-opacity="1"><g transform="translate(137.095045, 269.538674)"><g><path d="M 11.21875 -14.8125 C 11.800781 -14.363281 12.207031 -13.863281 12.4375 -13.3125 C 12.664062 -12.769531 12.78125 -12.285156 12.78125 -11.859375 C 12.78125 -10.273438 12.039062 -9.113281 10.5625 -8.375 C 11.570312 -8.070312 12.316406 -7.582031 12.796875 -6.90625 C 13.273438 -6.226562 13.515625 -5.421875 13.515625 -4.484375 C 13.515625 -3.765625 13.328125 -3.035156 12.953125 -2.296875 C 12.585938 -1.554688 11.953125 -0.972656 11.046875 -0.546875 C 10.265625 -0.179688 9.1875 0 7.8125 0 L 1.625 0 L 1.625 -15.75 L 7.671875 -15.75 C 8.554688 -15.75 9.257812 -15.671875 9.78125 -15.515625 C 10.3125 -15.367188 10.789062 -15.132812 11.21875 -14.8125 Z M 10.71875 -11.484375 C 10.71875 -12.429688 10.410156 -13.070312 9.796875 -13.40625 C 9.191406 -13.738281 8.28125 -13.90625 7.0625 -13.90625 L 3.71875 -13.90625 L 3.71875 -9.125 L 7.265625 -9.125 C 8.453125 -9.125 9.320312 -9.3125 9.875 -9.6875 C 10.4375 -10.0625 10.71875 -10.660156 10.71875 -11.484375 Z M 9.96875 -2.21875 C 10.46875 -2.46875 10.820312 -2.804688 11.03125 -3.234375 C 11.25 -3.660156 11.359375 -4.097656 11.359375 -4.546875 C 11.359375 -5.171875 11.203125 -5.691406 10.890625 -6.109375 C 10.578125 -6.535156 10.132812 -6.847656 9.5625 -7.046875 C 9.09375 -7.203125 8.414062 -7.28125 7.53125 -7.28125 L 3.71875 -7.28125 L 3.71875 -1.84375 L 7.921875 -1.84375 C 8.398438 -1.84375 8.789062 -1.875 9.09375 -1.9375 C 9.40625 -2 9.695312 -2.09375 9.96875 -2.21875 Z M 9.96875 -2.21875 "/></g></g></g><g fill="#2c3152" fill-opacity="1"><g transform="translate(151.766427, 269.538674)"><g><path d="M 6.25 -11.65625 C 7.1875 -11.65625 7.941406 -11.5625 8.515625 -11.375 C 9.097656 -11.195312 9.5625 -10.929688 9.90625 -10.578125 C 10.226562 -10.242188 10.445312 -9.867188 10.5625 -9.453125 C 10.675781 -9.046875 10.734375 -8.503906 10.734375 -7.828125 L 10.734375 -3.234375 C 10.734375 -1.753906 10.941406 -0.675781 11.359375 0 L 9.328125 0 C 9.140625 -0.394531 9.007812 -0.863281 8.9375 -1.40625 C 8.226562 -0.820312 7.539062 -0.394531 6.875 -0.125 C 6.207031 0.132812 5.515625 0.265625 4.796875 0.265625 C 3.566406 0.265625 2.597656 -0.0351562 1.890625 -0.640625 C 1.191406 -1.242188 0.84375 -2.035156 0.84375 -3.015625 C 0.84375 -3.523438 0.957031 -4.019531 1.1875 -4.5 C 1.425781 -4.976562 1.75 -5.347656 2.15625 -5.609375 C 2.59375 -5.898438 3.039062 -6.113281 3.5 -6.25 C 3.957031 -6.382812 4.515625 -6.488281 5.171875 -6.5625 C 5.867188 -6.632812 6.566406 -6.734375 7.265625 -6.859375 C 7.960938 -6.984375 8.472656 -7.109375 8.796875 -7.234375 L 8.796875 -7.71875 C 8.796875 -8.5 8.585938 -9.085938 8.171875 -9.484375 C 7.753906 -9.878906 7.039062 -10.078125 6.03125 -10.078125 C 5.070312 -10.078125 4.382812 -9.90625 3.96875 -9.5625 C 3.550781 -9.226562 3.25 -8.671875 3.0625 -7.890625 L 1.171875 -8.140625 C 1.429688 -9.367188 1.984375 -10.257812 2.828125 -10.8125 C 3.671875 -11.375 4.8125 -11.65625 6.25 -11.65625 Z M 6.03125 -5.0625 C 5.28125 -4.945312 4.703125 -4.832031 4.296875 -4.71875 C 3.898438 -4.601562 3.566406 -4.414062 3.296875 -4.15625 C 3.035156 -3.90625 2.90625 -3.539062 2.90625 -3.0625 C 2.90625 -2.488281 3.113281 -2.039062 3.53125 -1.71875 C 3.945312 -1.40625 4.535156 -1.25 5.296875 -1.25 C 5.742188 -1.25 6.222656 -1.335938 6.734375 -1.515625 C 7.242188 -1.703125 7.691406 -2.023438 8.078125 -2.484375 C 8.328125 -2.773438 8.507812 -3.101562 8.625 -3.46875 C 8.738281 -3.84375 8.796875 -4.316406 8.796875 -4.890625 L 8.796875 -5.71875 C 8.210938 -5.488281 7.289062 -5.269531 6.03125 -5.0625 Z M 6.03125 -5.0625 "/></g></g></g><g fill="#2c3152" fill-opacity="1"><g transform="translate(163.996247, 269.538674)"><g><path d="M 5.234375 -11.65625 C 6.523438 -11.65625 7.566406 -11.382812 8.359375 -10.84375 C 9.148438 -10.3125 9.601562 -9.519531 9.71875 -8.46875 L 7.828125 -8.203125 C 7.742188 -8.773438 7.503906 -9.226562 7.109375 -9.5625 C 6.710938 -9.90625 6.125 -10.078125 5.34375 -10.078125 C 4.570312 -10.078125 3.96875 -9.941406 3.53125 -9.671875 C 3.09375 -9.410156 2.875 -9.046875 2.875 -8.578125 C 2.875 -8.253906 3.003906 -7.984375 3.265625 -7.765625 C 3.523438 -7.554688 3.828125 -7.394531 4.171875 -7.28125 C 4.523438 -7.175781 5.0625 -7.035156 5.78125 -6.859375 C 6.707031 -6.640625 7.457031 -6.421875 8.03125 -6.203125 C 8.613281 -5.984375 9.113281 -5.644531 9.53125 -5.1875 C 9.945312 -4.738281 10.15625 -4.128906 10.15625 -3.359375 C 10.15625 -2.703125 9.972656 -2.097656 9.609375 -1.546875 C 9.242188 -0.992188 8.71875 -0.554688 8.03125 -0.234375 C 7.351562 0.078125 6.578125 0.234375 5.703125 0.234375 C 4.171875 0.234375 3 -0.0625 2.1875 -0.65625 C 1.382812 -1.257812 0.882812 -2.175781 0.6875 -3.40625 L 2.59375 -3.703125 C 2.695312 -2.921875 3.007812 -2.332031 3.53125 -1.9375 C 4.050781 -1.539062 4.722656 -1.34375 5.546875 -1.34375 C 6.378906 -1.34375 7.023438 -1.515625 7.484375 -1.859375 C 7.953125 -2.203125 8.1875 -2.628906 8.1875 -3.140625 C 8.1875 -3.628906 7.953125 -3.988281 7.484375 -4.21875 C 7.023438 -4.457031 6.320312 -4.6875 5.375 -4.90625 C 4.425781 -5.125 3.671875 -5.335938 3.109375 -5.546875 C 2.546875 -5.765625 2.054688 -6.097656 1.640625 -6.546875 C 1.222656 -7.003906 1.015625 -7.613281 1.015625 -8.375 C 1.015625 -9 1.175781 -9.554688 1.5 -10.046875 C 1.832031 -10.546875 2.316406 -10.9375 2.953125 -11.21875 C 3.597656 -11.507812 4.359375 -11.65625 5.234375 -11.65625 Z M 5.234375 -11.65625 "/></g></g></g><g fill="#2c3152" fill-opacity="1"><g transform="translate(174.994282, 269.538674)"><g><path d="M 6.1875 -11.65625 C 7.28125 -11.65625 8.21875 -11.394531 9 -10.875 C 9.789062 -10.351562 10.382812 -9.648438 10.78125 -8.765625 C 11.175781 -7.890625 11.375 -6.910156 11.375 -5.828125 L 11.375 -5.21875 L 2.859375 -5.21875 C 2.921875 -4 3.265625 -3.046875 3.890625 -2.359375 C 4.523438 -1.679688 5.332031 -1.34375 6.3125 -1.34375 C 7.0625 -1.34375 7.679688 -1.539062 8.171875 -1.9375 C 8.660156 -2.332031 9.039062 -2.910156 9.3125 -3.671875 L 11.3125 -3.4375 C 11 -2.289062 10.410156 -1.390625 9.546875 -0.734375 C 8.691406 -0.0859375 7.644531 0.234375 6.40625 0.234375 C 4.65625 0.234375 3.289062 -0.273438 2.3125 -1.296875 C 1.34375 -2.328125 0.859375 -3.765625 0.859375 -5.609375 C 0.859375 -6.835938 1.078125 -7.90625 1.515625 -8.8125 C 1.953125 -9.726562 2.570312 -10.429688 3.375 -10.921875 C 4.175781 -11.410156 5.113281 -11.65625 6.1875 -11.65625 Z M 2.96875 -6.8125 L 9.328125 -6.8125 C 9.285156 -7.90625 8.953125 -8.722656 8.328125 -9.265625 C 7.703125 -9.804688 6.988281 -10.078125 6.1875 -10.078125 C 5.269531 -10.078125 4.519531 -9.769531 3.9375 -9.15625 C 3.363281 -8.539062 3.039062 -7.757812 2.96875 -6.8125 Z M 2.96875 -6.8125 "/></g></g></g><g fill="#2c3152" fill-opacity="1"><g transform="translate(187.224101, 269.538674)"><g><path d="M 10.6875 -15.75 L 10.6875 0 L 8.890625 0 L 8.890625 -1.453125 C 8.671875 -1.066406 8.300781 -0.6875 7.78125 -0.3125 C 7.257812 0.0507812 6.570312 0.234375 5.71875 0.234375 C 4.789062 0.234375 3.953125 -0.0078125 3.203125 -0.5 C 2.460938 -0.988281 1.875 -1.6875 1.4375 -2.59375 C 1.007812 -3.5 0.796875 -4.554688 0.796875 -5.765625 C 0.796875 -6.960938 0.992188 -8.003906 1.390625 -8.890625 C 1.796875 -9.785156 2.367188 -10.46875 3.109375 -10.9375 C 3.847656 -11.414062 4.710938 -11.65625 5.703125 -11.65625 C 6.421875 -11.65625 7.046875 -11.484375 7.578125 -11.140625 C 8.109375 -10.804688 8.5 -10.457031 8.75 -10.09375 L 8.75 -15.75 Z M 2.765625 -5.703125 C 2.765625 -4.765625 2.90625 -3.96875 3.1875 -3.3125 C 3.46875 -2.65625 3.84375 -2.160156 4.3125 -1.828125 C 4.789062 -1.503906 5.316406 -1.34375 5.890625 -1.34375 C 6.785156 -1.34375 7.515625 -1.703125 8.078125 -2.421875 C 8.648438 -3.140625 8.9375 -4.171875 8.9375 -5.515625 C 8.9375 -6.898438 8.660156 -8.003906 8.109375 -8.828125 C 7.566406 -9.660156 6.800781 -10.078125 5.8125 -10.078125 C 4.851562 -10.078125 4.101562 -9.6875 3.5625 -8.90625 C 3.03125 -8.132812 2.765625 -7.066406 2.765625 -5.703125 Z M 2.765625 -5.703125 "/></g></g></g><g fill="#2c3152" fill-opacity="1"><g transform="translate(199.45392, 269.538674)"><g/></g></g><g fill="#2c3152" fill-opacity="1"><g transform="translate(205.56883, 269.538674)"><g><path d="M 12.984375 -13.90625 L 7.765625 -13.90625 L 7.765625 0 L 5.671875 0 L 5.671875 -13.90625 L 0.484375 -13.90625 L 0.484375 -15.75 L 12.984375 -15.75 Z M 12.984375 -13.90625 "/></g></g></g><g fill="#2c3152" fill-opacity="1"><g transform="translate(219.008439, 269.538674)"><g><path d="M 5.65625 -11.65625 C 6.3125 -11.65625 6.960938 -11.453125 7.609375 -11.046875 L 6.953125 -9.265625 C 6.484375 -9.546875 5.992188 -9.6875 5.484375 -9.6875 C 4.742188 -9.6875 4.203125 -9.347656 3.859375 -8.671875 C 3.515625 -8.003906 3.34375 -7.144531 3.34375 -6.09375 L 3.34375 0 L 1.40625 0 L 1.40625 -11.390625 L 3.140625 -11.390625 L 3.140625 -9.6875 C 3.515625 -10.34375 3.878906 -10.832031 4.234375 -11.15625 C 4.597656 -11.488281 5.070312 -11.65625 5.65625 -11.65625 Z M 5.65625 -11.65625 "/></g></g></g><g fill="#2c3152" fill-opacity="1"><g transform="translate(226.333138, 269.538674)"><g><path d="M 6.1875 -11.65625 C 7.28125 -11.65625 8.21875 -11.394531 9 -10.875 C 9.789062 -10.351562 10.382812 -9.648438 10.78125 -8.765625 C 11.175781 -7.890625 11.375 -6.910156 11.375 -5.828125 L 11.375 -5.21875 L 2.859375 -5.21875 C 2.921875 -4 3.265625 -3.046875 3.890625 -2.359375 C 4.523438 -1.679688 5.332031 -1.34375 6.3125 -1.34375 C 7.0625 -1.34375 7.679688 -1.539062 8.171875 -1.9375 C 8.660156 -2.332031 9.039062 -2.910156 9.3125 -3.671875 L 11.3125 -3.4375 C 11 -2.289062 10.410156 -1.390625 9.546875 -0.734375 C 8.691406 -0.0859375 7.644531 0.234375 6.40625 0.234375 C 4.65625 0.234375 3.289062 -0.273438 2.3125 -1.296875 C 1.34375 -2.328125 0.859375 -3.765625 0.859375 -5.609375 C 0.859375 -6.835938 1.078125 -7.90625 1.515625 -8.8125 C 1.953125 -9.726562 2.570312 -10.429688 3.375 -10.921875 C 4.175781 -11.410156 5.113281 -11.65625 6.1875 -11.65625 Z M 2.96875 -6.8125 L 9.328125 -6.8125 C 9.285156 -7.90625 8.953125 -8.722656 8.328125 -9.265625 C 7.703125 -9.804688 6.988281 -10.078125 6.1875 -10.078125 C 5.269531 -10.078125 4.519531 -9.769531 3.9375 -9.15625 C 3.363281 -8.539062 3.039062 -7.757812 2.96875 -6.8125 Z M 2.96875 -6.8125 "/></g></g></g><g fill="#2c3152" fill-opacity="1"><g transform="translate(238.562957, 269.538674)"><g><path d="M 6.25 -11.65625 C 7.1875 -11.65625 7.941406 -11.5625 8.515625 -11.375 C 9.097656 -11.195312 9.5625 -10.929688 9.90625 -10.578125 C 10.226562 -10.242188 10.445312 -9.867188 10.5625 -9.453125 C 10.675781 -9.046875 10.734375 -8.503906 10.734375 -7.828125 L 10.734375 -3.234375 C 10.734375 -1.753906 10.941406 -0.675781 11.359375 0 L 9.328125 0 C 9.140625 -0.394531 9.007812 -0.863281 8.9375 -1.40625 C 8.226562 -0.820312 7.539062 -0.394531 6.875 -0.125 C 6.207031 0.132812 5.515625 0.265625 4.796875 0.265625 C 3.566406 0.265625 2.597656 -0.0351562 1.890625 -0.640625 C 1.191406 -1.242188 0.84375 -2.035156 0.84375 -3.015625 C 0.84375 -3.523438 0.957031 -4.019531 1.1875 -4.5 C 1.425781 -4.976562 1.75 -5.347656 2.15625 -5.609375 C 2.59375 -5.898438 3.039062 -6.113281 3.5 -6.25 C 3.957031 -6.382812 4.515625 -6.488281 5.171875 -6.5625 C 5.867188 -6.632812 6.566406 -6.734375 7.265625 -6.859375 C 7.960938 -6.984375 8.472656 -7.109375 8.796875 -7.234375 L 8.796875 -7.71875 C 8.796875 -8.5 8.585938 -9.085938 8.171875 -9.484375 C 7.753906 -9.878906 7.039062 -10.078125 6.03125 -10.078125 C 5.070312 -10.078125 4.382812 -9.90625 3.96875 -9.5625 C 3.550781 -9.226562 3.25 -8.671875 3.0625 -7.890625 L 1.171875 -8.140625 C 1.429688 -9.367188 1.984375 -10.257812 2.828125 -10.8125 C 3.671875 -11.375 4.8125 -11.65625 6.25 -11.65625 Z M 6.03125 -5.0625 C 5.28125 -4.945312 4.703125 -4.832031 4.296875 -4.71875 C 3.898438 -4.601562 3.566406 -4.414062 3.296875 -4.15625 C 3.035156 -3.90625 2.90625 -3.539062 2.90625 -3.0625 C 2.90625 -2.488281 3.113281 -2.039062 3.53125 -1.71875 C 3.945312 -1.40625 4.535156 -1.25 5.296875 -1.25 C 5.742188 -1.25 6.222656 -1.335938 6.734375 -1.515625 C 7.242188 -1.703125 7.691406 -2.023438 8.078125 -2.484375 C 8.328125 -2.773438 8.507812 -3.101562 8.625 -3.46875 C 8.738281 -3.84375 8.796875 -4.316406 8.796875 -4.890625 L 8.796875 -5.71875 C 8.210938 -5.488281 7.289062 -5.269531 6.03125 -5.0625 Z M 6.03125 -5.0625 "/></g></g></g><g fill="#2c3152" fill-opacity="1"><g transform="translate(250.792776, 269.538674)"><g><path d="M 3.71875 -11.390625 L 5.65625 -11.390625 L 5.65625 -9.9375 L 3.71875 -9.9375 L 3.71875 -2.875 C 3.71875 -2.382812 3.785156 -2.035156 3.921875 -1.828125 C 4.066406 -1.617188 4.359375 -1.515625 4.796875 -1.515625 C 4.898438 -1.515625 5.1875 -1.550781 5.65625 -1.625 L 5.9375 0.09375 C 5.351562 0.207031 4.878906 0.265625 4.515625 0.265625 C 3.765625 0.265625 3.191406 0.144531 2.796875 -0.09375 C 2.398438 -0.34375 2.128906 -0.679688 1.984375 -1.109375 C 1.847656 -1.546875 1.78125 -2.109375 1.78125 -2.796875 L 1.78125 -9.9375 L 0.375 -9.9375 L 0.375 -11.390625 L 1.78125 -11.390625 L 1.78125 -14.234375 L 3.71875 -15.40625 Z M 3.71875 -11.390625 "/></g></g></g><g fill="#2c3152" fill-opacity="1"><g transform="translate(256.907686, 269.538674)"><g><path d="M 6.640625 -11.65625 C 7.460938 -11.65625 8.140625 -11.484375 8.671875 -11.140625 C 9.210938 -10.796875 9.597656 -10.300781 9.828125 -9.65625 C 10.285156 -10.300781 10.789062 -10.796875 11.34375 -11.140625 C 11.894531 -11.484375 12.566406 -11.65625 13.359375 -11.65625 C 14.492188 -11.65625 15.367188 -11.328125 15.984375 -10.671875 C 16.609375 -10.023438 16.921875 -9.097656 16.921875 -7.890625 L 16.921875 0 L 14.984375 0 L 14.984375 -7.328125 C 14.984375 -8.253906 14.820312 -8.925781 14.5 -9.34375 C 14.175781 -9.769531 13.644531 -9.984375 12.90625 -9.984375 C 11.988281 -9.984375 11.296875 -9.671875 10.828125 -9.046875 C 10.367188 -8.429688 10.140625 -7.648438 10.140625 -6.703125 L 10.140625 0 L 8.203125 0 L 8.203125 -7.5 C 8.203125 -8.332031 8.035156 -8.953125 7.703125 -9.359375 C 7.378906 -9.773438 6.875 -9.984375 6.1875 -9.984375 C 5.625 -9.984375 5.097656 -9.828125 4.609375 -9.515625 C 4.117188 -9.203125 3.78125 -8.738281 3.59375 -8.125 C 3.4375 -7.675781 3.359375 -7.003906 3.359375 -6.109375 L 3.359375 0 L 1.4375 0 L 1.4375 -11.390625 L 3.171875 -11.390625 L 3.171875 -9.8125 C 3.578125 -10.445312 4.082031 -10.910156 4.6875 -11.203125 C 5.289062 -11.503906 5.941406 -11.65625 6.640625 -11.65625 Z M 6.640625 -11.65625 "/></g></g></g><g fill="#2c3152" fill-opacity="1"><g transform="translate(275.23042, 269.538674)"><g><path d="M 6.1875 -11.65625 C 7.28125 -11.65625 8.21875 -11.394531 9 -10.875 C 9.789062 -10.351562 10.382812 -9.648438 10.78125 -8.765625 C 11.175781 -7.890625 11.375 -6.910156 11.375 -5.828125 L 11.375 -5.21875 L 2.859375 -5.21875 C 2.921875 -4 3.265625 -3.046875 3.890625 -2.359375 C 4.523438 -1.679688 5.332031 -1.34375 6.3125 -1.34375 C 7.0625 -1.34375 7.679688 -1.539062 8.171875 -1.9375 C 8.660156 -2.332031 9.039062 -2.910156 9.3125 -3.671875 L 11.3125 -3.4375 C 11 -2.289062 10.410156 -1.390625 9.546875 -0.734375 C 8.691406 -0.0859375 7.644531 0.234375 6.40625 0.234375 C 4.65625 0.234375 3.289062 -0.273438 2.3125 -1.296875 C 1.34375 -2.328125 0.859375 -3.765625 0.859375 -5.609375 C 0.859375 -6.835938 1.078125 -7.90625 1.515625 -8.8125 C 1.953125 -9.726562 2.570312 -10.429688 3.375 -10.921875 C 4.175781 -11.410156 5.113281 -11.65625 6.1875 -11.65625 Z M 2.96875 -6.8125 L 9.328125 -6.8125 C 9.285156 -7.90625 8.953125 -8.722656 8.328125 -9.265625 C 7.703125 -9.804688 6.988281 -10.078125 6.1875 -10.078125 C 5.269531 -10.078125 4.519531 -9.769531 3.9375 -9.15625 C 3.363281 -8.539062 3.039062 -7.757812 2.96875 -6.8125 Z M 2.96875 -6.8125 "/></g></g></g><g fill="#2c3152" fill-opacity="1"><g transform="translate(287.460239, 269.538674)"><g><path d="M 6.859375 -11.65625 C 7.679688 -11.65625 8.390625 -11.492188 8.984375 -11.171875 C 9.578125 -10.847656 10.015625 -10.4375 10.296875 -9.9375 C 10.472656 -9.601562 10.597656 -9.238281 10.671875 -8.84375 C 10.742188 -8.457031 10.78125 -7.972656 10.78125 -7.390625 L 10.78125 0 L 8.84375 0 L 8.84375 -7.046875 C 8.84375 -9.003906 8.046875 -9.984375 6.453125 -9.984375 C 5.847656 -9.984375 5.289062 -9.835938 4.78125 -9.546875 C 4.28125 -9.253906 3.921875 -8.828125 3.703125 -8.265625 C 3.523438 -7.796875 3.4375 -7.164062 3.4375 -6.375 L 3.4375 0 L 1.5 0 L 1.5 -11.390625 L 3.234375 -11.390625 L 3.234375 -9.796875 C 4.097656 -11.035156 5.304688 -11.65625 6.859375 -11.65625 Z M 6.859375 -11.65625 "/></g></g></g><g fill="#2c3152" fill-opacity="1"><g transform="translate(299.690059, 269.538674)"><g><path d="M 3.71875 -11.390625 L 5.65625 -11.390625 L 5.65625 -9.9375 L 3.71875 -9.9375 L 3.71875 -2.875 C 3.71875 -2.382812 3.785156 -2.035156 3.921875 -1.828125 C 4.066406 -1.617188 4.359375 -1.515625 4.796875 -1.515625 C 4.898438 -1.515625 5.1875 -1.550781 5.65625 -1.625 L 5.9375 0.09375 C 5.351562 0.207031 4.878906 0.265625 4.515625 0.265625 C 3.765625 0.265625 3.191406 0.144531 2.796875 -0.09375 C 2.398438 -0.34375 2.128906 -0.679688 1.984375 -1.109375 C 1.847656 -1.546875 1.78125 -2.109375 1.78125 -2.796875 L 1.78125 -9.9375 L 0.375 -9.9375 L 0.375 -11.390625 L 1.78125 -11.390625 L 1.78125 -14.234375 L 3.71875 -15.40625 Z M 3.71875 -11.390625 "/></g></g></g><g fill="#2c3152" fill-opacity="1"><g transform="translate(305.813522, 269.538674)"><g/></g></g></svg>