<svg xmlns="http://www.w3.org/2000/svg" xmlns:xlink="http://www.w3.org/1999/xlink" width="500" zoomAndPan="magnify" viewBox="0 0 375 374.999991" height="500" preserveAspectRatio="xMidYMid meet" version="1.0"><defs><g/><clipPath id="924ecd8c01"><path d="M 5.273438 106.511719 L 369.726562 106.511719 L 369.726562 268.488281 L 5.273438 268.488281 Z M 5.273438 106.511719 " clip-rule="nonzero"/></clipPath><clipPath id="7b21e98dd5"><path d="M 22.523438 106.511719 L 352.476562 106.511719 C 357.050781 106.511719 361.4375 108.328125 364.675781 111.5625 C 367.910156 114.800781 369.726562 119.1875 369.726562 123.761719 L 369.726562 251.238281 C 369.726562 255.8125 367.910156 260.199219 364.675781 263.4375 C 361.4375 266.671875 357.050781 268.488281 352.476562 268.488281 L 22.523438 268.488281 C 17.949219 268.488281 13.5625 266.671875 10.324219 263.4375 C 7.089844 260.199219 5.273438 255.8125 5.273438 251.238281 L 5.273438 123.761719 C 5.273438 119.1875 7.089844 114.800781 10.324219 111.5625 C 13.5625 108.328125 17.949219 106.511719 22.523438 106.511719 Z M 22.523438 106.511719 " clip-rule="nonzero"/></clipPath></defs><g clip-path="url(#924ecd8c01)"><g clip-path="url(#7b21e98dd5)"><path fill="#d7e2f7" d="M 5.273438 106.511719 L 5.273438 268.488281 L 369.726562 268.488281 L 369.726562 106.511719 Z M 5.273438 106.511719 " fill-opacity="1" fill-rule="nonzero"/></g></g><g fill="#2c3152" fill-opacity="1"><g transform="translate(93.703598, 197.249987)"><g><path d="M 26.546875 -28.4375 L 15.890625 -28.4375 L 15.890625 0 L 11.609375 0 L 11.609375 -28.4375 L 0.984375 -28.4375 L 0.984375 -32.21875 L 26.546875 -32.21875 Z M 26.546875 -28.4375 "/></g></g></g><g fill="#2c3152" fill-opacity="1"><g transform="translate(121.198564, 197.249987)"><g><path d="M 6.96875 -20.65625 C 7.875 -21.707031 8.894531 -22.5 10.03125 -23.03125 C 11.175781 -23.570312 12.5 -23.84375 14 -23.84375 C 15.257812 -23.84375 16.394531 -23.648438 17.40625 -23.265625 C 18.425781 -22.878906 19.285156 -22.351562 19.984375 -21.6875 C 20.703125 -21 21.222656 -20.128906 21.546875 -19.078125 C 21.878906 -18.023438 22.046875 -16.675781 22.046875 -15.03125 L 22.046875 0 L 18.09375 0 L 18.09375 -14.9375 C 18.09375 -16.707031 17.671875 -18.066406 16.828125 -19.015625 C 15.984375 -19.960938 14.738281 -20.4375 13.09375 -20.4375 C 11.894531 -20.4375 10.753906 -20.097656 9.671875 -19.421875 C 8.597656 -18.742188 7.847656 -17.804688 7.421875 -16.609375 C 7.117188 -15.703125 6.96875 -14.546875 6.96875 -13.140625 L 6.96875 0 L 3.015625 0 L 3.015625 -32.21875 L 6.96875 -32.21875 Z M 6.96875 -20.65625 "/></g></g></g><g fill="#2c3152" fill-opacity="1"><g transform="translate(146.21854, 197.249987)"><g><path d="M 12.640625 -23.84375 C 14.890625 -23.84375 16.816406 -23.3125 18.421875 -22.25 C 20.023438 -21.1875 21.234375 -19.753906 22.046875 -17.953125 C 22.859375 -16.148438 23.265625 -14.140625 23.265625 -11.921875 L 23.265625 -10.671875 L 5.84375 -10.671875 C 5.96875 -8.179688 6.675781 -6.238281 7.96875 -4.84375 C 9.257812 -3.445312 10.910156 -2.75 12.921875 -2.75 C 14.441406 -2.75 15.703125 -3.148438 16.703125 -3.953125 C 17.710938 -4.765625 18.488281 -5.953125 19.03125 -7.515625 L 23.125 -7.015625 C 22.5 -4.679688 21.304688 -2.84375 19.546875 -1.5 C 17.796875 -0.164062 15.644531 0.5 13.09375 0.5 C 9.519531 0.5 6.734375 -0.550781 4.734375 -2.65625 C 2.742188 -4.757812 1.75 -7.695312 1.75 -11.46875 C 1.75 -13.988281 2.195312 -16.175781 3.09375 -18.03125 C 4 -19.894531 5.269531 -21.328125 6.90625 -22.328125 C 8.539062 -23.335938 10.453125 -23.84375 12.640625 -23.84375 Z M 6.078125 -13.953125 L 19.078125 -13.953125 C 18.984375 -16.171875 18.300781 -17.832031 17.03125 -18.9375 C 15.757812 -20.050781 14.296875 -20.609375 12.640625 -20.609375 C 10.785156 -20.609375 9.265625 -19.976562 8.078125 -18.71875 C 6.890625 -17.457031 6.222656 -15.867188 6.078125 -13.953125 Z M 6.078125 -13.953125 "/></g></g></g><g fill="#2c3152" fill-opacity="1"><g transform="translate(171.238516, 197.249987)"><g><path d="M 11.5625 -23.84375 C 12.914062 -23.84375 14.25 -23.425781 15.5625 -22.59375 L 14.21875 -18.9375 C 13.257812 -19.507812 12.253906 -19.796875 11.203125 -19.796875 C 9.703125 -19.796875 8.597656 -19.113281 7.890625 -17.75 C 7.191406 -16.382812 6.84375 -14.625 6.84375 -12.46875 L 6.84375 0 L 2.875 0 L 2.875 -23.3125 L 6.4375 -23.3125 L 6.4375 -19.796875 C 7.1875 -21.148438 7.925781 -22.160156 8.65625 -22.828125 C 9.394531 -23.503906 10.363281 -23.84375 11.5625 -23.84375 Z M 11.5625 -23.84375 "/></g></g></g><g fill="#2c3152" fill-opacity="1"><g transform="translate(186.2235, 197.249987)"><g><path d="M 12.78125 -23.84375 C 14.695312 -23.84375 16.25 -23.65625 17.4375 -23.28125 C 18.625 -22.90625 19.5625 -22.359375 20.25 -21.640625 C 20.90625 -20.953125 21.351562 -20.1875 21.59375 -19.34375 C 21.832031 -18.507812 21.953125 -17.398438 21.953125 -16.015625 L 21.953125 -6.609375 C 21.953125 -3.578125 22.375 -1.375 23.21875 0 L 19.078125 0 C 18.691406 -0.8125 18.421875 -1.769531 18.265625 -2.875 C 16.828125 -1.675781 15.425781 -0.804688 14.0625 -0.265625 C 12.695312 0.273438 11.28125 0.546875 9.8125 0.546875 C 7.289062 0.546875 5.304688 -0.0664062 3.859375 -1.296875 C 2.421875 -2.535156 1.703125 -4.160156 1.703125 -6.171875 C 1.703125 -7.210938 1.941406 -8.222656 2.421875 -9.203125 C 2.910156 -10.179688 3.570312 -10.9375 4.40625 -11.46875 C 5.3125 -12.070312 6.226562 -12.507812 7.15625 -12.78125 C 8.082031 -13.050781 9.222656 -13.257812 10.578125 -13.40625 C 12.015625 -13.5625 13.445312 -13.765625 14.875 -14.015625 C 16.300781 -14.273438 17.34375 -14.539062 18 -14.8125 L 18 -15.796875 C 18 -17.390625 17.570312 -18.585938 16.71875 -19.390625 C 15.863281 -20.203125 14.398438 -20.609375 12.328125 -20.609375 C 10.378906 -20.609375 8.976562 -20.265625 8.125 -19.578125 C 7.269531 -18.890625 6.644531 -17.75 6.25 -16.15625 L 2.390625 -16.65625 C 2.921875 -19.175781 4.050781 -21.003906 5.78125 -22.140625 C 7.507812 -23.273438 9.84375 -23.84375 12.78125 -23.84375 Z M 12.328125 -10.34375 C 10.796875 -10.101562 9.617188 -9.867188 8.796875 -9.640625 C 7.972656 -9.421875 7.289062 -9.046875 6.75 -8.515625 C 6.207031 -7.992188 5.9375 -7.238281 5.9375 -6.25 C 5.9375 -5.082031 6.363281 -4.175781 7.21875 -3.53125 C 8.070312 -2.882812 9.28125 -2.5625 10.84375 -2.5625 C 11.738281 -2.5625 12.710938 -2.75 13.765625 -3.125 C 14.816406 -3.5 15.734375 -4.148438 16.515625 -5.078125 C 17.023438 -5.679688 17.398438 -6.359375 17.640625 -7.109375 C 17.878906 -7.859375 18 -8.816406 18 -9.984375 L 18 -11.703125 C 16.800781 -11.222656 14.910156 -10.769531 12.328125 -10.34375 Z M 12.328125 -10.34375 "/></g></g></g><g fill="#2c3152" fill-opacity="1"><g transform="translate(211.243476, 197.249987)"><g><path d="M 13.359375 -23.84375 C 15.335938 -23.84375 17.078125 -23.347656 18.578125 -22.359375 C 20.078125 -21.367188 21.238281 -19.984375 22.0625 -18.203125 C 22.894531 -16.421875 23.3125 -14.359375 23.3125 -12.015625 C 23.3125 -9.460938 22.859375 -7.238281 21.953125 -5.34375 C 21.054688 -3.457031 19.832031 -2.007812 18.28125 -1 C 16.738281 0 15.023438 0.5 13.140625 0.5 C 11.910156 0.5 10.769531 0.238281 9.71875 -0.28125 C 8.664062 -0.8125 7.765625 -1.53125 7.015625 -2.4375 L 7.015625 8.953125 L 3.0625 8.953125 L 3.0625 -23.3125 L 6.65625 -23.3125 L 6.65625 -20.296875 C 7.53125 -21.492188 8.484375 -22.382812 9.515625 -22.96875 C 10.546875 -23.550781 11.828125 -23.84375 13.359375 -23.84375 Z M 6.609375 -11.515625 C 6.609375 -8.703125 7.175781 -6.535156 8.3125 -5.015625 C 9.457031 -3.503906 10.976562 -2.75 12.875 -2.75 C 14.726562 -2.75 16.253906 -3.523438 17.453125 -5.078125 C 18.660156 -6.640625 19.265625 -8.890625 19.265625 -11.828125 C 19.265625 -14.585938 18.691406 -16.765625 17.546875 -18.359375 C 16.410156 -19.953125 14.894531 -20.75 13 -20.75 C 11.769531 -20.75 10.675781 -20.363281 9.71875 -19.59375 C 8.757812 -18.832031 8 -17.742188 7.4375 -16.328125 C 6.882812 -14.921875 6.609375 -13.316406 6.609375 -11.515625 Z M 6.609375 -11.515625 "/></g></g></g><g fill="#2c3152" fill-opacity="1"><g transform="translate(236.263452, 197.249987)"><g><path d="M 6.96875 -27.71875 L 3.015625 -27.71875 L 3.015625 -32.21875 L 6.96875 -32.21875 Z M 6.96875 0 L 3.015625 0 L 3.015625 -23.3125 L 6.96875 -23.3125 Z M 6.96875 0 "/></g></g></g><g fill="#2c3152" fill-opacity="1"><g transform="translate(246.253445, 197.249987)"><g><path d="M 10.703125 -23.84375 C 13.347656 -23.84375 15.476562 -23.296875 17.09375 -22.203125 C 18.71875 -21.109375 19.648438 -19.484375 19.890625 -17.328125 L 16.015625 -16.78125 C 15.835938 -17.957031 15.34375 -18.890625 14.53125 -19.578125 C 13.71875 -20.265625 12.519531 -20.609375 10.9375 -20.609375 C 9.34375 -20.609375 8.101562 -20.335938 7.21875 -19.796875 C 6.332031 -19.253906 5.890625 -18.503906 5.890625 -17.546875 C 5.890625 -16.890625 6.148438 -16.34375 6.671875 -15.90625 C 7.203125 -15.46875 7.828125 -15.132812 8.546875 -14.90625 C 9.265625 -14.6875 10.359375 -14.398438 11.828125 -14.046875 C 13.722656 -13.585938 15.257812 -13.132812 16.4375 -12.6875 C 17.625 -12.238281 18.644531 -11.546875 19.5 -10.609375 C 20.363281 -9.679688 20.796875 -8.441406 20.796875 -6.890625 C 20.796875 -5.535156 20.421875 -4.296875 19.671875 -3.171875 C 18.921875 -2.046875 17.847656 -1.148438 16.453125 -0.484375 C 15.054688 0.171875 13.457031 0.5 11.65625 0.5 C 8.53125 0.5 6.144531 -0.113281 4.5 -1.34375 C 2.851562 -2.570312 1.816406 -4.445312 1.390625 -6.96875 L 5.3125 -7.5625 C 5.519531 -5.96875 6.15625 -4.765625 7.21875 -3.953125 C 8.28125 -3.148438 9.65625 -2.75 11.34375 -2.75 C 13.050781 -2.75 14.375 -3.097656 15.3125 -3.796875 C 16.257812 -4.503906 16.734375 -5.382812 16.734375 -6.4375 C 16.734375 -7.425781 16.257812 -8.160156 15.3125 -8.640625 C 14.375 -9.117188 12.929688 -9.582031 10.984375 -10.03125 C 9.054688 -10.476562 7.515625 -10.921875 6.359375 -11.359375 C 5.210938 -11.796875 4.207031 -12.476562 3.34375 -13.40625 C 2.488281 -14.34375 2.0625 -15.585938 2.0625 -17.140625 C 2.0625 -18.398438 2.398438 -19.539062 3.078125 -20.5625 C 3.753906 -21.582031 4.742188 -22.382812 6.046875 -22.96875 C 7.359375 -23.550781 8.910156 -23.84375 10.703125 -23.84375 Z M 10.703125 -23.84375 "/></g></g></g><g fill="#2c3152" fill-opacity="1"><g transform="translate(268.75342, 197.249987)"><g><path d="M 7.609375 -23.3125 L 11.5625 -23.3125 L 11.5625 -20.34375 L 7.609375 -20.34375 L 7.609375 -5.890625 C 7.609375 -4.867188 7.75 -4.148438 8.03125 -3.734375 C 8.3125 -3.316406 8.90625 -3.109375 9.8125 -3.109375 C 10.019531 -3.109375 10.601562 -3.179688 11.5625 -3.328125 L 12.15625 0.1875 C 10.945312 0.425781 9.96875 0.546875 9.21875 0.546875 C 7.695312 0.546875 6.53125 0.300781 5.71875 -0.1875 C 4.90625 -0.6875 4.351562 -1.378906 4.0625 -2.265625 C 3.78125 -3.148438 3.640625 -4.300781 3.640625 -5.71875 L 3.640625 -20.34375 L 0.765625 -20.34375 L 0.765625 -23.3125 L 3.640625 -23.3125 L 3.640625 -29.109375 L 7.609375 -31.5 Z M 7.609375 -23.3125 "/></g></g></g></svg>