<svg xmlns="http://www.w3.org/2000/svg" xmlns:xlink="http://www.w3.org/1999/xlink" width="500" zoomAndPan="magnify" viewBox="0 0 375 374.999991" height="500" preserveAspectRatio="xMidYMid meet" version="1.0"><path fill="#996553" d="M 294.4375 322.933594 L 289.351562 322.933594 C 289.351562 322.933594 280.363281 301.179688 274.464844 296.617188 L 279.574219 292.128906 L 285.308594 299.058594 L 292.644531 312.71875 Z M 294.4375 322.933594 " fill-opacity="1" fill-rule="nonzero"/><path fill="#ad7760" d="M 287.371094 288.957031 L 299.296875 319.949219 L 294.4375 322.933594 C 294.4375 322.933594 285.765625 302.5 280.382812 293.105469 Z M 287.371094 288.957031 " fill-opacity="1" fill-rule="nonzero"/><path fill="#996553" d="M 66.53125 351.234375 L 72.207031 348.136719 C 72.207031 348.136719 77.859375 322.246094 82.21875 313.519531 C 84.167969 309.847656 88.515625 308.75 92.648438 308.378906 L 94.257812 303.074219 L 79.695312 300.78125 C 79.695312 300.78125 73.222656 315.53125 70.40625 323.621094 C 66.53125 334.757812 66.53125 351.234375 66.53125 351.234375 Z M 66.53125 351.234375 " fill-opacity="1" fill-rule="nonzero"/><path fill="#ad7760" d="M 66.53125 303.988281 L 60.683594 350.269531 L 66.53125 351.234375 C 66.53125 351.234375 73.558594 321.289062 74.59375 318.550781 C 75.625 315.816406 78.550781 307.53125 87.664062 307.542969 L 87.664062 303.988281 L 66.621094 299.796875 Z M 66.53125 303.988281 " fill-opacity="1" fill-rule="nonzero"/><path fill="#ad7760" d="M 192.453125 325.167969 C 192.453125 325.167969 199.828125 326.734375 201.363281 340.613281 C 202.941406 354.816406 203.746094 373.839844 203.746094 373.839844 L 210.566406 374.964844 L 213.40625 360.5 L 223.46875 324.082031 Z M 192.453125 325.167969 " fill-opacity="1" fill-rule="nonzero"/><path fill="#ad7760" d="M 289.351562 273.378906 L 287.371094 288.957031 L 222.074219 327.714844 C 220.03125 328.925781 217.625 329.386719 215.277344 329.007812 L 66.53125 303.988281 L 66.785156 292.121094 Z M 289.351562 273.378906 " fill-opacity="1" fill-rule="nonzero"/><path fill="#b5aba9" d="M 154.039062 150.363281 C 154.039062 150.363281 95.8125 165.433594 77.238281 172.210938 C 58.660156 178.992188 48.984375 183.640625 49.371094 203.789062 C 49.757812 223.933594 50.144531 284.953125 66.785156 292.121094 C 83.429688 299.285156 165.867188 259.578125 165.867188 259.578125 Z M 154.039062 150.363281 " fill-opacity="1" fill-rule="nonzero"/><path fill="#d6d4d4" d="M 74.675781 292.882812 C 79.183594 271.597656 83.984375 209.21875 77.429688 190.226562 C 73.753906 179.574219 56.878906 182.355469 56.878906 182.355469 C 51.726562 186.9375 49.167969 193.234375 49.371094 203.789062 C 49.757812 223.933594 50.144531 284.953125 66.785156 292.121094 C 68.65625 292.925781 71.355469 293.136719 74.675781 292.882812 Z M 74.675781 292.882812 " fill-opacity="1" fill-rule="nonzero"/><path fill="#c1b9b7" d="M 160.253906 203.789062 C 160.253906 203.789062 90.589844 222.382812 78.203125 228 C 65.820312 233.617188 63.304688 244.464844 63.304688 252.796875 C 63.304688 261.125 68.335938 268.679688 73.558594 270.8125 C 78.785156 272.941406 190.25 291.730469 200.3125 292.121094 C 210.375 292.507812 226.628906 280.109375 228.757812 274.492188 C 230.886719 268.875 280.722656 220.921875 280.722656 220.921875 Z M 160.253906 203.789062 " fill-opacity="1" fill-rule="nonzero"/><path fill="#cec9c8" d="M 242.308594 259 C 216 262.105469 97.75 243.5 86.523438 240.011719 C 75.300781 236.523438 72.757812 231.242188 72.757812 231.242188 C 65.046875 237.195312 63.304688 245.867188 63.304688 252.796875 C 63.304688 261.125 68.335938 268.679688 73.558594 270.8125 C 78.785156 272.941406 190.25 291.730469 200.3125 292.121094 C 210.375 292.507812 226.628906 280.109375 228.757812 274.492188 C 229.441406 272.691406 235.03125 266.535156 242.308594 259 Z M 242.308594 259 " fill-opacity="1" fill-rule="nonzero"/><path fill="#c1b9b7" d="M 158.125 207.273438 C 158.125 207.273438 148.835938 204.367188 148.835938 194.488281 C 148.835938 184.609375 155.996094 134.632812 158.125 126.304688 C 160.253906 117.972656 168.960938 110.613281 179.800781 109.644531 C 190.636719 108.675781 276.75 110.226562 292.8125 124.171875 C 308.871094 138.121094 286 210.609375 283.300781 216.757812 C 280.382812 223.402344 262.035156 222.300781 240.238281 219.738281 C 204.21875 215.496094 158.125 207.273438 158.125 207.273438 Z M 158.125 207.273438 " fill-opacity="1" fill-rule="nonzero"/><path fill="#b5aba9" d="M 292.8125 124.171875 C 276.75 110.226562 190.636719 108.675781 179.800781 109.644531 C 177.21875 109.875 174.761719 110.472656 172.480469 111.355469 C 173.148438 111.394531 243.023438 115.546875 266.105469 122.621094 C 297.0625 132.113281 261.921875 224.347656 261.910156 224.378906 C 272.867188 224.414062 280.730469 222.855469 282.554688 218.703125 C 285.253906 212.554688 308.871094 138.121094 292.8125 124.171875 Z M 292.8125 124.171875 " fill-opacity="1" fill-rule="nonzero"/><path fill="#d6d4d4" d="M 73.558594 270.8125 C 73.558594 270.8125 66.785156 271.585938 65.046875 278.949219 C 63.304688 286.308594 64.851562 293.667969 69.300781 295.21875 C 73.753906 296.769531 202.597656 318.558594 204.921875 318.472656 C 207.242188 318.382812 208.222656 292.488281 208.332031 290.464844 C 208.4375 288.4375 73.558594 270.8125 73.558594 270.8125 Z M 73.558594 270.8125 " fill-opacity="1" fill-rule="nonzero"/><path fill="#f7e5dc" d="M 208.8125 124.226562 C 208.8125 124.226562 201.183594 121.230469 197.957031 120.3125 C 194.730469 119.394531 191.027344 123.214844 192.371094 127.996094 C 193.714844 132.777344 191.726562 142.117188 187.988281 149.0625 C 184.25 156.007812 181.402344 165.96875 178.757812 173.824219 C 176.113281 181.679688 169.273438 189.773438 169.863281 192.5625 C 170.453125 195.355469 183.539062 192.242188 187.691406 193.050781 C 191.84375 193.859375 216.71875 196.242188 224.40625 198.257812 C 232.09375 200.273438 248.070312 199.164062 253.589844 201.890625 C 259.109375 204.617188 261.261719 198.640625 261.722656 193.773438 C 262.1875 188.90625 270.796875 157.199219 271.632812 150.597656 C 272.46875 143.996094 274.59375 140 275.378906 135.667969 C 276.167969 131.332031 275.019531 126.007812 272.046875 125.058594 C 269.078125 124.109375 252.410156 128.167969 247.765625 128.457031 C 243.125 128.746094 239.234375 131.546875 236.996094 131.03125 C 234.757812 130.519531 227.597656 129.285156 222.804688 128.292969 C 218.011719 127.300781 214.933594 123.242188 208.8125 124.226562 Z M 208.8125 124.226562 " fill-opacity="1" fill-rule="nonzero"/><path fill="#efe8e6" d="M 275.378906 135.667969 C 276.167969 131.332031 275.019531 126.007812 272.046875 125.058594 C 271.90625 125.015625 271.738281 124.980469 271.539062 124.957031 C 269.5625 125.925781 267.058594 127.484375 265.375 129.75 C 262.195312 134.03125 253.472656 161.332031 251.597656 178.457031 C 250.457031 187.863281 254.367188 190.875 253.523438 194.746094 C 253.113281 196.640625 252.523438 199.085938 252.402344 201.410156 C 252.835938 201.554688 253.234375 201.714844 253.589844 201.890625 C 259.109375 204.617188 261.261719 198.640625 261.722656 193.773438 C 262.1875 188.90625 270.796875 157.199219 271.632812 150.597656 C 272.46875 143.996094 274.59375 140 275.378906 135.667969 Z M 275.378906 135.667969 " fill-opacity="1" fill-rule="nonzero"/><path fill="#ebab98" d="M 228.0625 207.589844 C 228.0625 207.589844 224.074219 184.792969 185.257812 191.570312 C 155.675781 196.738281 99.417969 209.453125 89.007812 221.289062 C 86.464844 224.230469 79.421875 235.683594 96.203125 238.921875 C 112.980469 242.160156 138.609375 241.09375 153.75 240.84375 C 168.890625 240.59375 235.371094 239.996094 228.0625 207.589844 Z M 228.0625 207.589844 " fill-opacity="1" fill-rule="nonzero"/><path fill="#d7e2f7" d="M 230.714844 212.800781 C 230.714844 212.800781 232.199219 237.09375 173.910156 242.34375 C 115.621094 247.597656 88.339844 244.90625 86.292969 225.09375 C 86.210938 218.996094 82.773438 211.996094 119.992188 202.730469 C 157.207031 193.464844 180.871094 186.046875 199.417969 185.671875 C 217.964844 185.300781 230.667969 199.160156 230.714844 212.800781 Z M 230.714844 212.800781 " fill-opacity="1" fill-rule="nonzero"/><path fill="#b5c8e8" d="M 105.75 225.976562 C 117.648438 219.742188 166.144531 206.378906 166.558594 204.164062 C 166.972656 201.945312 165.3125 194.46875 165.3125 194.46875 C 168.910156 196.960938 171.675781 206.792969 174.582031 204.992188 C 177.488281 203.191406 198.378906 200.5625 198.378906 200.5625 C 198.378906 200.5625 221.554688 205.429688 224.371094 225.40625 C 217.53125 232.1875 203.34375 239.695312 173.910156 242.34375 C 136.871094 245.683594 115.945312 244.445312 100.691406 239.6875 C 100.203125 233.554688 101.304688 228.304688 105.75 225.976562 Z M 105.75 225.976562 " fill-opacity="1" fill-rule="nonzero"/><path fill="#ebab98" d="M 99.03125 219.71875 C 91.929688 221.910156 87.820312 229.316406 89.554688 236.542969 C 92.140625 247.328125 95.964844 259.855469 107.507812 293.324219 C 123.46875 339.605469 123.644531 341.320312 130.339844 339.710938 C 135.871094 338.378906 134.835938 331.339844 133.066406 312.667969 C 131.976562 301.191406 128.617188 268.609375 124.246094 252.367188 C 119.875 236.121094 113.980469 217.480469 102.574219 218.957031 C 101.292969 219.121094 100.113281 219.386719 99.03125 219.71875 Z M 99.03125 219.71875 " fill-opacity="1" fill-rule="nonzero"/><path fill="#d7e2f7" d="M 84.441406 226.796875 C 84.441406 226.796875 95.820312 278.417969 116.3125 320.820312 C 116.3125 320.820312 123.421875 321.5 134.433594 317.957031 C 134.433594 317.957031 132.949219 282.925781 128.367188 258.34375 C 123.78125 233.757812 113.570312 221 110.464844 215.035156 C 105.332031 205.167969 84.179688 209.394531 84.441406 226.796875 Z M 84.441406 226.796875 " fill-opacity="1" fill-rule="nonzero"/><path fill="#b5c8e8" d="M 108.378906 268.355469 C 105.890625 259.351562 93.851562 232.207031 105.75 225.976562 C 107.722656 224.941406 110.863281 223.652344 114.734375 222.207031 C 119.097656 229.546875 125.132812 241 128.367188 258.34375 C 132.949219 282.925781 134.433594 317.957031 134.433594 317.957031 C 130.8125 319.121094 127.617188 319.828125 124.953125 320.253906 C 120.703125 307.25 110.347656 275.472656 108.378906 268.355469 Z M 108.378906 268.355469 " fill-opacity="1" fill-rule="nonzero"/><path fill="#455487" d="M 139.820312 351.148438 L 138.460938 362.585938 C 138.460938 362.585938 134.960938 363.589844 129.761719 362.714844 L 129.925781 353.550781 Z M 139.820312 351.148438 " fill-opacity="1" fill-rule="nonzero"/><path fill="#394778" d="M 129.761719 362.714844 L 127.238281 360.882812 L 127.121094 353.914062 L 129.925781 353.550781 Z M 129.761719 362.714844 " fill-opacity="1" fill-rule="nonzero"/><path fill="#455487" d="M 95.257812 358.589844 C 95.257812 358.589844 95.125 360.75 95.246094 361.621094 C 95.371094 362.492188 109.21875 363.828125 117.300781 362.378906 C 119.726562 361.765625 126.066406 355.640625 130.613281 354.089844 C 135.160156 352.539062 138.832031 352.210938 139.570312 351.535156 C 140.304688 350.855469 140.628906 346.617188 138.878906 346.152344 Z M 95.257812 358.589844 " fill-opacity="1" fill-rule="nonzero"/><path fill="#ebab98" d="M 126.773438 320.015625 C 126.773438 320.015625 120.152344 320.34375 120.355469 327.984375 C 120.5625 335.667969 119.429688 340.503906 115.011719 344.734375 C 110.59375 348.96875 100.890625 351.496094 98.332031 352.574219 C 95.769531 353.652344 93.785156 356.09375 95.257812 358.589844 C 96.734375 361.089844 113.300781 360.015625 117.042969 358.984375 C 119.691406 358.253906 124.992188 353 128.738281 351.8125 C 132.484375 350.621094 137.539062 350.113281 138.671875 347.328125 C 139.808594 344.539062 137.710938 339.8125 135.972656 336.042969 C 134.234375 332.273438 134.335938 326.53125 134.113281 324.238281 C 133.890625 321.945312 131.671875 319.460938 126.773438 320.015625 Z M 126.773438 320.015625 " fill-opacity="1" fill-rule="nonzero"/><path fill="#455487" d="M 125.808594 353.683594 C 125.808594 353.683594 126.785156 348.019531 128.539062 345.144531 C 130.558594 341.828125 134.621094 336.59375 135.410156 334.5625 C 135.410156 334.5625 136.847656 336.914062 137.117188 338.59375 C 137.117188 338.59375 133.242188 343.351562 131.847656 345.777344 C 130.453125 348.199219 129.910156 350.007812 129.824219 352.191406 C 129.824219 352.191406 127 353.433594 125.808594 353.683594 Z M 125.808594 353.683594 " fill-opacity="1" fill-rule="nonzero"/><path fill="#455487" d="M 105.066406 349.910156 C 105.066406 349.910156 103.777344 357.117188 103.695312 360.65625 C 103.695312 360.65625 106.75 361.074219 108.117188 360.773438 C 108.117188 360.773438 109.324219 349.746094 109.558594 348.28125 C 109.558594 348.28125 106.878906 349.074219 105.066406 349.910156 Z M 105.066406 349.910156 " fill-opacity="1" fill-rule="nonzero"/><path fill="#394778" d="M 108.691406 355.621094 C 109.035156 352.53125 109.433594 349.058594 109.558594 348.28125 C 109.558594 348.28125 106.878906 349.074219 105.066406 349.910156 C 105.066406 349.910156 104.882812 350.929688 104.652344 352.390625 C 105.648438 353.066406 107.503906 354.390625 108.691406 355.621094 Z M 108.691406 355.621094 " fill-opacity="1" fill-rule="nonzero"/><path fill="#455487" d="M 103.527344 350.75 C 103.527344 350.75 110.359375 354.898438 113.214844 360.207031 C 113.214844 360.207031 116.769531 359.9375 118.164062 358.929688 C 118.164062 358.929688 112.773438 352.148438 107.707031 348.878906 C 107.707031 348.878906 105.050781 349.511719 103.527344 350.75 Z M 103.527344 350.75 " fill-opacity="1" fill-rule="nonzero"/><path fill="#f5bcab" d="M 177.125 147.121094 C 172.996094 151.335938 173.605469 156.851562 173.15625 162.734375 C 172.707031 168.601562 166.144531 183.261719 166.003906 189.117188 C 165.8125 197.136719 168.773438 202.359375 177.554688 216.488281 C 186.339844 230.621094 193.976562 244.753906 218.800781 239.40625 C 243.621094 234.058594 238.59375 207.246094 236.917969 199.074219 C 235.328125 191.335938 234.855469 185.839844 226.070312 174.953125 C 224.464844 173.214844 223.703125 166.378906 223.691406 162.449219 C 223.667969 155.882812 222.574219 150.3125 217.445312 146.210938 C 213.117188 142.746094 206.597656 139.925781 196.859375 139.925781 C 185.832031 139.925781 181.4375 142.722656 177.125 147.121094 Z M 177.125 147.121094 " fill-opacity="1" fill-rule="nonzero"/><path fill="#d7e2f7" d="M 223.675781 165.988281 C 224.160156 165.941406 224.601562 166.28125 224.671875 166.765625 C 224.96875 168.699219 225.941406 173.457031 228.699219 176.660156 C 232.230469 180.757812 236.558594 187.914062 238.59375 203.691406 C 240.628906 219.464844 237.21875 232.125 227.484375 236.992188 C 217.746094 241.863281 202.238281 244.054688 193.011719 236.992188 C 183.789062 229.933594 176.488281 215.789062 174.054688 211.96875 C 171.617188 208.144531 164.925781 199.640625 164.925781 189.285156 C 164.925781 186.085938 168.578125 176.980469 169.914062 172.355469 C 170.835938 169.171875 171.527344 166.738281 171.867188 165.53125 C 171.988281 165.105469 172.449219 164.882812 172.859375 165.050781 C 175.640625 166.183594 187.152344 169.371094 223.675781 165.988281 Z M 223.675781 165.988281 " fill-opacity="1" fill-rule="nonzero"/><path fill="#b5c8e8" d="M 165.5 194.605469 C 169.007812 197.300781 171.726562 206.761719 174.582031 204.992188 C 177.488281 203.191406 198.378906 200.5625 198.378906 200.5625 C 198.378906 200.5625 231.371094 207.492188 223.410156 238.746094 C 213.8125 242.277344 201.035156 243.132812 193.011719 236.992188 C 183.789062 229.933594 176.488281 215.789062 174.054688 211.96875 C 172.050781 208.824219 167.167969 202.507812 165.5 194.605469 Z M 165.5 194.605469 " fill-opacity="1" fill-rule="nonzero"/><path fill="#b5c8e8" d="M 171 168.589844 C 171.382812 167.25 171.679688 166.199219 171.867188 165.53125 C 171.988281 165.105469 172.449219 164.882812 172.859375 165.050781 C 175.640625 166.183594 187.152344 169.371094 223.675781 165.988281 C 224.160156 165.941406 224.601562 166.28125 224.671875 166.765625 C 224.757812 167.328125 224.902344 168.128906 225.128906 169.0625 C 218.855469 170.164062 197.402344 173.183594 171 168.589844 Z M 171 168.589844 " fill-opacity="1" fill-rule="nonzero"/><path fill="#f5bcab" d="M 228.398438 235.273438 C 237.902344 226.707031 238.476562 213.875 228.734375 205.578125 C 223.417969 201.042969 216.453125 198.328125 204.304688 200.765625 C 179.886719 205.671875 166.0625 211.21875 146.660156 217.566406 C 127.085938 223.972656 130.183594 222.320312 121.078125 227.8125 C 111.976562 233.308594 108.75 241.488281 111.066406 246.414062 C 113.382812 251.339844 112.558594 259.191406 127.679688 257.675781 C 142.796875 256.15625 167.75 254.167969 182.796875 251.355469 C 192.988281 249.449219 216.222656 246.242188 228.398438 235.273438 Z M 228.398438 235.273438 " fill-opacity="1" fill-rule="nonzero"/><path fill="#d7e2f7" d="M 238.25 217.652344 C 238.25 217.652344 244.617188 244.5 179.039062 253.242188 C 116.492188 261.578125 112.425781 260.503906 106.386719 245.121094 C 99.242188 226.933594 120.914062 222.773438 133.40625 219.566406 C 145.894531 216.355469 184.890625 203.535156 200.746094 199.132812 C 216.605469 194.726562 234.78125 198.554688 238.25 217.652344 Z M 238.25 217.652344 " fill-opacity="1" fill-rule="nonzero"/><path fill="#b5c8e8" d="M 179.039062 253.242188 C 156.4375 256.253906 141.472656 258.035156 131.292969 258.359375 C 132.902344 248.578125 140.0625 239.0625 140.0625 239.0625 C 140.0625 239.0625 144.007812 243.113281 147.847656 251.632812 C 149.285156 254.824219 168.882812 253.902344 183.027344 252.671875 C 181.726562 252.871094 180.398438 253.058594 179.039062 253.242188 Z M 179.039062 253.242188 " fill-opacity="1" fill-rule="nonzero"/><path fill="#f5bcab" d="M 106.433594 240.460938 C 106.433594 240.460938 114.851562 271.0625 119.550781 285.980469 C 124.246094 300.894531 133.582031 327.316406 135.472656 336.089844 C 137.367188 344.859375 142.03125 342.242188 143.90625 341.246094 C 145.777344 340.25 147.027344 336.898438 147.199219 328.609375 C 147.375 320.320312 148.324219 314.527344 148.070312 301.03125 C 147.816406 287.535156 144.226562 251.070312 135.707031 237.011719 C 126.140625 221.230469 103.949219 225.253906 106.433594 240.460938 Z M 106.433594 240.460938 " fill-opacity="1" fill-rule="nonzero"/><path fill="#d7e2f7" d="M 120.96875 225.769531 C 120.96875 225.769531 137.15625 226.183594 141.929688 243.011719 C 146.703125 259.839844 149.195312 287.46875 148.78125 317.382812 C 148.78125 317.382812 137.574219 321.121094 130.308594 320.707031 C 130.308594 320.707031 109.347656 262.125 105.613281 242.804688 C 104.988281 235.117188 106.027344 225.558594 120.96875 225.769531 Z M 120.96875 225.769531 " fill-opacity="1" fill-rule="nonzero"/><path fill="#455487" d="M 156.808594 353.035156 L 153.753906 369.335938 C 153.753906 369.335938 152.597656 369.605469 149.6875 369.371094 C 146.777344 369.132812 145.035156 368.621094 145.035156 368.621094 L 145.964844 357.347656 Z M 156.808594 353.035156 " fill-opacity="1" fill-rule="nonzero"/><path fill="#394778" d="M 145.035156 368.621094 L 141.65625 366.328125 L 142.191406 359.8125 L 145.964844 357.347656 Z M 145.035156 368.621094 " fill-opacity="1" fill-rule="nonzero"/><path fill="#455487" d="M 108.484375 362.6875 L 108.265625 365.339844 C 108.214844 365.949219 108.59375 366.507812 109.175781 366.683594 C 112.179688 367.597656 121.539062 370.039062 131.324219 368.382812 C 134.53125 367.675781 141.984375 360.804688 146.25 358.96875 C 149.503906 357.570312 153.886719 355.480469 155.785156 354.566406 C 156.382812 354.28125 156.703125 353.6875 156.808594 353.035156 C 157.007812 351.824219 157.144531 349.820312 156.613281 348.128906 Z M 108.484375 362.6875 " fill-opacity="1" fill-rule="nonzero"/><path fill="#f5bcab" d="M 139.855469 320.394531 C 139.855469 320.394531 132.660156 319.101562 133.25 329.238281 C 133.839844 339.375 132.800781 343.828125 127.945312 348.726562 C 123.089844 353.628906 116.050781 355.488281 112.046875 357.179688 C 109.285156 358.34375 107.800781 360.78125 108.484375 362.6875 C 109.167969 364.59375 119.332031 366.601562 126.726562 365.527344 C 134.125 364.449219 139.121094 359.898438 142.601562 357.410156 C 146.082031 354.921875 155.421875 351.648438 156.519531 348.542969 C 157.613281 345.441406 154.289062 339.957031 151.667969 337.34375 C 149.429688 335.117188 147.390625 331.910156 147.472656 326.871094 C 147.550781 321.835938 145.445312 319.84375 139.855469 320.394531 Z M 139.855469 320.394531 " fill-opacity="1" fill-rule="nonzero"/><path fill="#455487" d="M 140.046875 359.847656 C 140.046875 359.847656 140.144531 355.632812 141.035156 350.914062 C 141.820312 346.773438 144.253906 338.574219 149.378906 334.453125 C 149.378906 334.453125 150.589844 335.386719 151.667969 337.34375 C 151.667969 337.34375 147.84375 340.941406 145.855469 346.703125 C 143.867188 352.46875 144.394531 357.554688 144.394531 357.554688 C 144.394531 357.554688 143.046875 360.15625 140.046875 359.847656 Z M 140.046875 359.847656 " fill-opacity="1" fill-rule="nonzero"/><path fill="#455487" d="M 123.207031 352.347656 C 123.207031 352.347656 122.265625 358.519531 122.273438 366.085938 C 122.273438 366.085938 118.378906 366.714844 115.964844 365.445312 C 115.964844 365.445312 115.964844 357.816406 116.738281 355.292969 C 116.738281 355.292969 121.117188 352.773438 123.207031 352.347656 Z M 123.207031 352.347656 " fill-opacity="1" fill-rule="nonzero"/><path fill="#394778" d="M 116.738281 355.292969 C 116.632812 355.640625 116.539062 356.085938 116.460938 356.59375 C 117.476562 356.96875 120.804688 358.277344 122.464844 359.882812 C 122.738281 355.417969 123.207031 352.347656 123.207031 352.347656 C 121.117188 352.773438 116.738281 355.292969 116.738281 355.292969 Z M 116.738281 355.292969 " fill-opacity="1" fill-rule="nonzero"/><path fill="#455487" d="M 115.890625 355.699219 C 115.890625 355.699219 123.015625 357.066406 128.253906 365.378906 C 128.253906 365.378906 132.042969 365.246094 133.578125 363.417969 C 133.578125 363.417969 130.320312 356.90625 122.039062 352.699219 C 122.039062 352.699219 118.484375 353.265625 115.890625 355.699219 Z M 115.890625 355.699219 " fill-opacity="1" fill-rule="nonzero"/><path fill="#f5bcab" d="M 159.367188 93.867188 C 159.714844 88.632812 162.0625 83.570312 167.375 81.988281 C 174.199219 79.960938 181.371094 83.851562 183.398438 90.679688 C 183.816406 92.101562 183.984375 93.535156 183.917969 94.933594 C 183.90625 95.265625 183.878906 95.59375 183.835938 95.917969 C 183.304688 102.1875 181.0625 126.65625 176.890625 148.292969 C 176.613281 151.972656 174.117188 155.277344 170.371094 156.390625 C 165.53125 157.828125 160.441406 155.066406 159 150.222656 C 158.4375 148.324219 158.074219 104.992188 159.367188 93.867188 Z M 159.367188 93.867188 " fill-opacity="1" fill-rule="nonzero"/><path fill="#b35d73" d="M 182.738281 114.625 C 182.320312 120.757812 178.148438 142.882812 177.335938 147.40625 C 176.535156 151.835938 175.074219 154.253906 172.855469 156.109375 C 168.464844 160.070312 158.929688 156.054688 157.9375 152.410156 C 156.933594 148.246094 158.152344 133.878906 158.066406 126.253906 C 158.011719 121.980469 158.011719 116.804688 158.082031 112.363281 C 158.429688 103.753906 157.660156 93.019531 161.035156 86.578125 C 162.367188 84.035156 164.46875 82.226562 167.355469 81.382812 C 169.742188 80.746094 177.222656 79.550781 181.996094 86.125 C 186.949219 93.742188 182.925781 108.996094 182.738281 114.625 Z M 182.738281 114.625 " fill-opacity="1" fill-rule="nonzero"/><path fill="#a35065" d="M 182.738281 114.625 C 182.320312 120.753906 178.148438 142.882812 177.335938 147.40625 C 176.535156 151.835938 175.074219 154.253906 172.855469 156.109375 C 168.464844 160.070312 158.929688 156.054688 157.9375 152.410156 C 157.683594 139.128906 158.179688 125.273438 158.082031 112.363281 C 158.914062 114.03125 159.777344 115.355469 160.214844 114.863281 C 161.246094 113.730469 165.300781 102.511719 166.164062 100.277344 C 167.019531 98.042969 168.226562 90.980469 168.226562 90.980469 C 168.226562 90.980469 175.878906 88.21875 182.8125 87.503906 C 186.363281 95.316406 182.992188 109.34375 182.738281 114.625 Z M 182.738281 114.625 " fill-opacity="1" fill-rule="nonzero"/><path fill="#a35065" d="M 130.964844 133.125 C 128.9375 131.15625 126.058594 120.097656 140.476562 116.050781 L 146.59375 121.046875 L 139.488281 134.335938 Z M 130.964844 133.125 " fill-opacity="1" fill-rule="nonzero"/><path fill="#e09282" d="M 115.558594 131.300781 C 115.558594 131.300781 114.792969 135.425781 113.871094 135.761719 C 112.945312 136.09375 112.515625 135.132812 112.242188 133.777344 C 111.964844 132.421875 112.089844 125.800781 112.347656 124.757812 C 112.609375 123.714844 117.875 120.875 117.875 120.875 C 117.875 120.875 118.785156 119.144531 119.507812 118.066406 C 120.234375 116.988281 123.988281 117.179688 123.988281 117.179688 Z M 115.558594 131.300781 " fill-opacity="1" fill-rule="nonzero"/><path fill="#f5bcab" d="M 144.996094 126.144531 C 144.515625 125.957031 142.828125 124.613281 141.34375 123.507812 C 133.503906 120.242188 127.503906 115.394531 123.523438 116.890625 C 122.371094 117.320312 115.203125 121.875 114.660156 122.628906 C 114.117188 123.378906 112.554688 126.964844 112.210938 127.726562 C 111.867188 128.492188 110.472656 130.949219 110.113281 131.628906 C 109.753906 132.308594 109.253906 134.019531 110.585938 134.003906 C 111.917969 133.984375 114.207031 131.046875 114.207031 131.046875 C 114.261719 131.0625 114.316406 131.066406 114.367188 131.074219 C 114.46875 126.195312 119.289062 121.476562 124.445312 121.574219 C 124.753906 121.777344 124.933594 122.171875 125.066406 122.632812 C 126.414062 122.960938 127.507812 124.453125 127.5 125.601562 C 130.597656 126.113281 139.355469 133.882812 139.375 133.882812 C 140.828125 134.523438 144.007812 134.480469 145.429688 132.46875 C 146.851562 130.460938 147.199219 126.996094 144.996094 126.144531 Z M 144.996094 126.144531 " fill-opacity="1" fill-rule="nonzero"/><path fill="#f5bcab" d="M 114.367188 131.074219 C 116.621094 131.359375 119.25 126.714844 119.546875 126.511719 C 119.851562 126.300781 122.125 123.15625 123.953125 122.644531 C 124.332031 122.535156 124.707031 122.546875 125.066406 122.632812 C 124.933594 122.171875 124.753906 121.777344 124.445312 121.574219 C 119.289062 121.476562 114.46875 126.195312 114.367188 131.074219 Z M 114.367188 131.074219 " fill-opacity="1" fill-rule="nonzero"/><path fill="#e09282" d="M 114.101562 128.65625 C 114.597656 127.445312 115.085938 126.230469 115.59375 125.019531 C 116.191406 123.015625 117.851562 121.714844 119.472656 120.550781 C 120.019531 120.191406 120.582031 119.703125 121.171875 119.476562 C 120.320312 120.460938 119.277344 121.335938 118.351562 122.253906 C 116.253906 123.898438 115.574219 126.5 114.402344 128.789062 C 114.054688 129.433594 113.757812 130.042969 113.691406 130.617188 C 113.625 131.195312 113.5625 129.773438 114.101562 128.65625 Z M 114.101562 128.65625 " fill-opacity="1" fill-rule="nonzero"/><path fill="#242c61" d="M 134.425781 107.882812 L 115.46875 135.355469 C 115.097656 135.890625 114.363281 136.027344 113.828125 135.65625 C 113.292969 135.285156 113.15625 134.550781 113.527344 134.011719 L 132.484375 106.539062 C 132.851562 106.003906 133.589844 105.867188 134.125 106.238281 C 134.660156 106.609375 134.796875 107.347656 134.425781 107.882812 Z M 134.425781 107.882812 " fill-opacity="1" fill-rule="nonzero"/><path fill="#f5bcab" d="M 126.949219 121.960938 C 126.757812 121.113281 125.636719 122.050781 125.636719 122.070312 C 125.800781 124.832031 121.582031 125.871094 119.707031 126.992188 C 117.21875 128.480469 116.953125 130.089844 117.773438 130.597656 C 118.59375 131.105469 121.648438 129.648438 124.28125 128.777344 C 127.949219 127.722656 127.070312 131.730469 133.832031 128.390625 C 133.828125 128.257812 136.589844 129.363281 136.570312 129.234375 C 136.691406 125.652344 130.082031 122.144531 126.949219 121.960938 Z M 126.949219 121.960938 " fill-opacity="1" fill-rule="nonzero"/><path fill="#f5bcab" d="M 114.832031 131.519531 C 115.46875 131.46875 116.050781 131.035156 116.566406 130.429688 C 117.894531 128.867188 118.785156 126.179688 118.964844 125.992188 C 119.222656 125.722656 123.089844 120.289062 122.75 120.148438 C 117.683594 121.117188 111.640625 131.457031 114.832031 131.519531 Z M 114.832031 131.519531 " fill-opacity="1" fill-rule="nonzero"/><path fill="#f5bcab" d="M 140.046875 123.105469 C 143.175781 123.519531 165.058594 137.546875 167.707031 139.257812 C 170.355469 140.96875 172.320312 147.292969 169.828125 151.800781 C 167.339844 156.304688 160.90625 156.585938 156.402344 152.382812 C 149.585938 145.683594 137.390625 133.285156 135.945312 130.933594 C 134.5 128.582031 135.402344 126.519531 135.773438 125.851562 C 136.148438 125.183594 136.921875 122.6875 140.046875 123.105469 Z M 140.046875 123.105469 " fill-opacity="1" fill-rule="nonzero"/><path fill="#b35d73" d="M 172.066406 156.308594 C 167.929688 160.289062 163.289062 158.769531 158.484375 156.308594 C 157.996094 156.054688 157.324219 155.617188 156.503906 155.023438 C 149.328125 149.875 131.21875 133.410156 130.96875 133.128906 C 135.433594 134.644531 148.59375 129.433594 140.480469 116.054688 C 140.699219 116.203125 147.863281 120.996094 155.167969 126.683594 C 162.527344 132.410156 172.582031 141.582031 173.84375 144.390625 C 175.097656 147.203125 176.207031 152.320312 172.066406 156.308594 Z M 172.066406 156.308594 " fill-opacity="1" fill-rule="nonzero"/><path fill="#a35065" d="M 172.066406 156.308594 C 167.929688 160.289062 163.289062 158.769531 158.484375 156.308594 C 157.996094 156.054688 157.324219 155.617188 156.503906 155.023438 C 159.476562 150.140625 161.660156 141.261719 155.167969 126.683594 C 162.527344 132.410156 172.582031 141.582031 173.84375 144.390625 C 175.097656 147.203125 176.207031 152.320312 172.066406 156.308594 Z M 172.066406 156.308594 " fill-opacity="1" fill-rule="nonzero"/><path fill="#f5bcab" d="M 169.757812 141.265625 C 169.757812 141.265625 163.917969 137.308594 163.003906 131.550781 C 162.085938 125.792969 166.257812 110.472656 167.269531 101.582031 C 168.28125 92.691406 163.988281 88.421875 163.144531 83.972656 C 163.144531 83.972656 172.425781 76.746094 192.847656 74.300781 C 192.847656 74.300781 205.285156 74.984375 217.191406 77.472656 C 226.902344 79.503906 230.300781 83.429688 232.128906 86.542969 C 233.957031 89.65625 233.542969 98.523438 230.644531 107.574219 C 227.75 116.625 225.148438 124.5625 224.601562 134.210938 C 224.339844 138.871094 223.695312 155.511719 223.699219 166.417969 C 223.699219 166.417969 224.074219 172.226562 200.824219 176.789062 C 177.570312 181.355469 171.910156 167.597656 171.910156 167.597656 C 171.320312 158.613281 169.757812 141.265625 169.757812 141.265625 Z M 169.757812 141.265625 " fill-opacity="1" fill-rule="nonzero"/><path fill="#f5bcab" d="M 180.753906 78.523438 C 180.753906 78.523438 177.945312 55.566406 177.945312 55.566406 C 177.289062 51.035156 179.636719 46.425781 184.003906 44.414062 C 189.316406 41.964844 195.609375 44.292969 198.054688 49.613281 C 198.390625 50.335938 198.632812 51.078125 198.792969 51.828125 C 198.792969 51.828125 205.171875 75.867188 205.171875 75.867188 C 205.21875 76.035156 205.402344 76.800781 205.402344 76.800781 C 206.777344 82.480469 203.910156 88.117188 198.40625 90.65625 C 192.152344 93.535156 185.027344 91.070312 182.148438 84.8125 C 181.253906 82.863281 181.003906 80.726562 180.753906 78.523438 Z M 180.753906 78.523438 " fill-opacity="1" fill-rule="nonzero"/><path fill="#ebab98" d="M 177.945312 55.566406 C 177.289062 51.035156 179.636719 46.425781 184.003906 44.414062 C 189.316406 41.964844 195.609375 44.292969 198.054688 49.613281 C 198.390625 50.335938 198.632812 51.078125 198.792969 51.828125 C 198.792969 51.828125 199.125 53.078125 199.125 53.078125 C 196.351562 64.394531 189.28125 73.71875 180.597656 77.230469 Z M 177.945312 55.566406 " fill-opacity="1" fill-rule="nonzero"/><path fill="#9c4040" d="M 158.417969 43.03125 C 158.433594 44.335938 158.339844 45.71875 158.632812 47.246094 C 159.28125 50.628906 160.863281 52.945312 162.550781 55.378906 C 164.238281 57.808594 161.527344 60.453125 162.898438 65.855469 C 164.269531 71.261719 167.835938 71.070312 167.835938 71.070312 C 164.203125 68.441406 164.175781 61.964844 165.164062 59.34375 C 166.15625 56.722656 166.816406 54.796875 165.523438 52.46875 C 164.351562 50.355469 165.453125 48.6875 166.164062 48.128906 C 164.445312 45.742188 161.429688 44.140625 158.417969 43.03125 Z M 158.417969 43.03125 " fill-opacity="1" fill-rule="nonzero"/><path fill="#f5bcab" d="M 169.269531 10.34375 C 169.269531 10.34375 146.957031 17.144531 155.601562 41.378906 C 164.246094 65.613281 171.867188 76.550781 181.554688 73.027344 C 191.242188 69.503906 200.816406 55.882812 201.386719 40.714844 C 201.960938 25.546875 190.515625 3.847656 169.269531 10.34375 Z M 169.269531 10.34375 " fill-opacity="1" fill-rule="nonzero"/><path fill="#192b4f" d="M 173.828125 46.554688 C 174.097656 47.75 175.070312 48.550781 176 48.339844 C 176.929688 48.128906 177.460938 46.988281 177.191406 45.792969 C 176.921875 44.597656 175.949219 43.800781 175.019531 44.011719 C 174.089844 44.222656 173.558594 45.359375 173.828125 46.554688 Z M 173.828125 46.554688 " fill-opacity="1" fill-rule="nonzero"/><path fill="#192b4f" d="M 161.289062 49.980469 C 161.558594 51.175781 162.53125 51.976562 163.460938 51.765625 C 164.390625 51.554688 164.921875 50.414062 164.652344 49.21875 C 164.382812 48.023438 163.410156 47.226562 162.480469 47.4375 C 161.554688 47.648438 161.019531 48.785156 161.289062 49.980469 Z M 161.289062 49.980469 " fill-opacity="1" fill-rule="nonzero"/><path fill="#ebab98" d="M 174.121094 65.199219 C 173.007812 65.523438 172.035156 65.585938 171.976562 65.589844 C 171.734375 65.601562 171.523438 65.414062 171.507812 65.171875 C 171.492188 64.925781 171.679688 64.714844 171.925781 64.699219 C 171.945312 64.699219 173.78125 64.582031 175.164062 63.824219 C 175.378906 63.707031 175.648438 63.789062 175.765625 64.003906 C 175.882812 64.21875 175.804688 64.488281 175.589844 64.605469 C 175.117188 64.867188 174.605469 65.058594 174.121094 65.199219 Z M 174.121094 65.199219 " fill-opacity="1" fill-rule="nonzero"/><path fill="#e09282" d="M 177.402344 61.507812 C 172.566406 63.886719 168.628906 63.585938 168.445312 63.570312 C 168.1875 63.546875 167.992188 63.320312 168.015625 63.058594 C 168.039062 62.800781 168.265625 62.605469 168.527344 62.628906 C 168.570312 62.632812 173.234375 62.980469 178.476562 59.847656 C 178.699219 59.714844 178.992188 59.785156 179.125 60.011719 C 179.257812 60.234375 179.183594 60.523438 178.960938 60.660156 C 178.433594 60.972656 177.914062 61.253906 177.402344 61.507812 Z M 177.402344 61.507812 " fill-opacity="1" fill-rule="nonzero"/><path fill="#ebab98" d="M 173.820312 53.214844 C 173.820312 53.214844 174.097656 51.277344 178.285156 50.160156 C 181.691406 49.25 184.386719 49.027344 184.964844 51.144531 C 185.980469 53.820312 173.257812 57.949219 173.820312 53.214844 Z M 173.820312 53.214844 " fill-opacity="1" fill-rule="nonzero"/><path fill="#ebab98" d="M 166.816406 55.488281 C 166.269531 53.496094 163.875 53.695312 160.765625 54.480469 C 161.453125 56.035156 162.144531 57.496094 162.832031 58.863281 C 165.246094 57.988281 167.242188 56.613281 166.816406 55.488281 Z M 166.816406 55.488281 " fill-opacity="1" fill-rule="nonzero"/><path fill="#b04545" d="M 171.039062 41.050781 C 171.039062 41.050781 170.195312 41.285156 170.378906 41.839844 C 170.5625 42.390625 170.941406 43.179688 171.34375 43.203125 C 171.75 43.230469 175.148438 41.734375 177.355469 41.183594 C 179.050781 40.757812 182.238281 40.378906 182.296875 40.144531 C 182.359375 39.910156 180.976562 39.25 178.925781 39.398438 C 177.183594 39.523438 173.164062 40.140625 171.039062 41.050781 Z M 171.039062 41.050781 " fill-opacity="1" fill-rule="nonzero"/><path fill="#b04545" d="M 157.808594 47.160156 C 157.808594 47.160156 157.007812 47.734375 156.785156 47.257812 C 156.5 46.644531 159.113281 44.683594 163.726562 43.363281 C 165.097656 43.042969 165.175781 44.183594 165.09375 45.023438 C 165.015625 45.796875 163.472656 45.246094 157.808594 47.160156 Z M 157.808594 47.160156 " fill-opacity="1" fill-rule="nonzero"/><path fill="#e09282" d="M 171.3125 58.242188 C 170.996094 58.332031 170.632812 58.414062 170.269531 58.4375 L 170.128906 58.445312 C 169.625 58.484375 168.996094 58.53125 168.539062 58.066406 C 168.160156 57.679688 168.023438 57.050781 168.105469 56.085938 C 168.699219 49.359375 167.566406 47.007812 167.554688 46.988281 C 167.417969 46.714844 167.527344 46.386719 167.800781 46.25 C 168.070312 46.113281 168.398438 46.222656 168.535156 46.496094 C 168.589844 46.597656 169.816406 49.148438 169.199219 56.179688 C 169.125 57.027344 169.273438 57.25 169.320312 57.296875 C 169.421875 57.398438 169.753906 57.375 170.050781 57.351562 C 170.097656 57.347656 170.148438 57.34375 170.199219 57.34375 C 170.953125 57.292969 171.769531 56.902344 171.78125 56.898438 C 172.050781 56.769531 172.378906 56.882812 172.511719 57.15625 C 172.640625 57.429688 172.527344 57.757812 172.253906 57.886719 C 172.230469 57.898438 171.839844 58.085938 171.3125 58.242188 Z M 171.3125 58.242188 " fill-opacity="1" fill-rule="nonzero"/><path fill="#b54c4c" d="M 176.121094 8.03125 C 176.121094 8.03125 177.230469 3.835938 181.964844 3.53125 C 181.964844 3.53125 185.371094 0.0273438 190.019531 0.753906 C 194.671875 1.480469 196.839844 4.128906 198.882812 7.097656 C 200.921875 10.070312 201.902344 9.632812 205.105469 11.367188 C 208.3125 13.097656 209.640625 16.296875 209.109375 19.964844 C 208.574219 23.632812 206.84375 26.027344 210.007812 27.867188 C 213.167969 29.707031 216.40625 31.515625 215.507812 35.980469 C 214.605469 40.441406 212.941406 43.800781 217.140625 46.351562 C 217.140625 46.351562 214.289062 47.441406 212.960938 45.867188 C 211.628906 44.296875 209.546875 43.058594 209.160156 40.972656 C 208.773438 38.886719 207.46875 38.386719 207.46875 38.386719 C 207.46875 38.386719 206.175781 43.382812 210 46.917969 C 210 46.917969 208.453125 48.507812 206.71875 47.65625 C 204.988281 46.800781 204.058594 45.320312 202.21875 44.425781 C 200.378906 43.53125 176.148438 8.289062 176.121094 8.03125 Z M 176.121094 8.03125 " fill-opacity="1" fill-rule="nonzero"/><path fill="#9c4040" d="M 177.097656 9.519531 C 181.472656 8.5625 184.773438 8.121094 184.773438 8.121094 C 184.773438 8.121094 189.066406 7.621094 192.382812 8.3125 C 195.699219 9 202.746094 14.054688 204.894531 21.007812 C 207.042969 27.960938 207.464844 33.140625 207.398438 34.679688 C 207.328125 36.214844 210.023438 37.839844 210.523438 38.75 C 211.019531 39.65625 213.066406 46.195312 217.140625 46.351562 C 217.140625 46.351562 214.289062 47.441406 212.960938 45.867188 C 211.628906 44.296875 209.546875 43.058594 209.160156 40.972656 C 208.773438 38.886719 207.46875 38.386719 207.46875 38.386719 C 207.46875 38.386719 206.175781 43.386719 210 46.917969 C 210 46.917969 208.453125 48.507812 206.71875 47.65625 C 204.988281 46.800781 204.058594 45.320312 202.21875 44.425781 C 200.597656 43.636719 181.644531 16.261719 177.097656 9.519531 Z M 177.097656 9.519531 " fill-opacity="1" fill-rule="nonzero"/><path fill="#b54c4c" d="M 154.207031 36.460938 C 154.207031 36.460938 150.875 30.042969 154.648438 22.226562 C 157.21875 17.105469 165.503906 8.78125 174.804688 6.988281 C 177.867188 6.164062 183.609375 8.035156 183.609375 8.035156 C 183.609375 8.035156 193.855469 7.351562 199.117188 14.9375 C 204.382812 22.519531 206.847656 30.898438 205.542969 37.707031 C 204.242188 44.515625 201.636719 49.199219 201.535156 52.21875 C 201.4375 55.242188 200.894531 57.761719 200.476562 58.039062 C 200.058594 58.3125 197.429688 51.703125 196.441406 49.886719 C 195.453125 48.070312 192.8125 44.753906 191.203125 42.761719 C 189.597656 40.769531 189.023438 40.515625 188.367188 40.902344 C 187.714844 41.289062 186.320312 43.132812 187.691406 45.410156 C 189.066406 47.683594 190.121094 48.839844 189.226562 51.496094 C 188.332031 54.148438 188.59375 60.621094 192.316406 63.117188 C 192.316406 63.117188 188.761719 63.433594 187.195312 58.085938 C 185.628906 52.734375 187.980469 51.328125 186.207031 48.960938 C 184.429688 46.589844 181.386719 43.796875 180.613281 40.4375 C 179.84375 37.082031 181 34.363281 178.683594 31.773438 C 176.371094 29.1875 170.351562 34.949219 161.753906 27.109375 C 161.367188 26.652344 154.863281 31.664062 154.207031 36.460938 Z M 154.207031 36.460938 " fill-opacity="1" fill-rule="nonzero"/><path fill="#9c4040" d="M 163.0625 23.683594 C 166.910156 15.515625 174.929688 9.992188 183.609375 8.035156 C 174.703125 9.167969 166.167969 15.097656 163.0625 23.683594 Z M 163.0625 23.683594 " fill-opacity="1" fill-rule="nonzero"/><path fill="#f5bcab" d="M 188.300781 44.761719 C 188.300781 44.761719 187.214844 37.558594 191.925781 36.546875 C 196.636719 35.535156 196.738281 43.75 196.253906 46.238281 C 195.675781 49.191406 189.96875 53.117188 188.300781 44.761719 Z M 188.300781 44.761719 " fill-opacity="1" fill-rule="nonzero"/><path fill="#e09282" d="M 193.953125 41.074219 C 192.890625 41.351562 192.230469 42.21875 191.863281 42.902344 C 191.714844 41.800781 191.859375 40.617188 192.757812 39.75 C 192.898438 39.617188 192.902344 39.398438 192.769531 39.257812 C 192.636719 39.121094 192.417969 39.117188 192.277344 39.25 C 189.683594 41.746094 192.195312 46.089844 192.300781 46.273438 C 192.398438 46.4375 192.613281 46.492188 192.785156 46.390625 C 192.945312 46.289062 192.996094 46.082031 192.898438 45.921875 C 192.890625 45.902344 192.433594 45.109375 192.113281 44.046875 C 192.125 44.027344 192.140625 44.007812 192.144531 43.988281 C 192.152344 43.96875 192.710938 42.117188 194.128906 41.746094 C 194.3125 41.699219 194.421875 41.507812 194.375 41.324219 C 194.328125 41.136719 194.136719 41.027344 193.953125 41.074219 Z M 193.953125 41.074219 " fill-opacity="1" fill-rule="nonzero"/><path fill="#455487" d="M 205.0625 75.46875 C 205.0625 75.46875 204.117188 79.738281 191.738281 83.550781 C 186.253906 85.238281 180.164062 82 180.515625 76.582031 C 180.515625 76.582031 175.238281 77.144531 171.089844 79.1875 C 166.941406 81.226562 163.425781 83.410156 162.792969 83.972656 C 162.160156 84.535156 166.800781 93.472656 167.011719 97.976562 C 167.222656 102.484375 164.339844 116.136719 162.933594 123.175781 C 161.527344 130.214844 161.949219 136.828125 169.191406 141.40625 C 169.191406 141.40625 170.175781 157.242188 170.386719 161.324219 C 170.597656 165.40625 170.175781 168.714844 171.019531 170.332031 C 171.863281 171.949219 180.089844 179.902344 196.191406 178.074219 C 212.292969 176.242188 224.667969 170.472656 227.199219 166.460938 C 228.042969 164.703125 226.425781 158.4375 225.441406 154.214844 C 224.457031 149.992188 225.160156 132.113281 225.792969 127.539062 C 226.425781 122.964844 232.894531 104.804688 233.457031 96.429688 C 234.019531 88.054688 231.910156 81.71875 231.910156 81.71875 C 231.910156 81.71875 219.546875 75.890625 205.0625 75.46875 Z M 205.0625 75.46875 " fill-opacity="1" fill-rule="nonzero"/><path fill="#374778" d="M 169.191406 141.40625 C 171.097656 143.046875 174.0625 143.144531 176.328125 142.207031 C 174.070312 141.222656 171.617188 141.207031 169.191406 141.40625 Z M 169.191406 141.40625 " fill-opacity="1" fill-rule="nonzero"/><path fill="#374778" d="M 183.542969 141.855469 C 191.585938 145.789062 202.449219 146.589844 209.761719 140.710938 C 201.589844 144.738281 192.160156 143.863281 183.542969 141.855469 Z M 183.542969 141.855469 " fill-opacity="1" fill-rule="nonzero"/><path fill="#b35d73" d="M 180.515625 76.582031 C 180.515625 76.582031 176.832031 82 175.238281 87.820312 C 173.644531 93.636719 175.226562 109.617188 172.425781 117.566406 C 166.707031 133.804688 169.191406 141.40625 169.191406 141.40625 C 169.191406 141.40625 170.644531 167.398438 170.644531 172.46875 C 170.644531 177.535156 165.535156 203.75 145.675781 194.769531 C 146.03125 190.933594 159.8125 187.515625 162.292969 175.566406 C 164.800781 163.460938 166.144531 142.34375 166.144531 142.34375 C 166.144531 142.34375 161.269531 136.429688 161.269531 130.425781 C 161.269531 124.417969 165.582031 104.898438 166.050781 101.332031 C 166.503906 97.871094 162.652344 87.929688 162.664062 84.347656 C 162.664062 84.160156 162.738281 83.984375 162.878906 83.859375 C 164.191406 82.679688 171.664062 76.367188 180.515625 76.582031 Z M 180.515625 76.582031 " fill-opacity="1" fill-rule="nonzero"/><path fill="#b35d73" d="M 205.0625 75.46875 C 205.0625 75.46875 206.644531 84.535156 203.738281 93.449219 C 201.765625 99.5 198.394531 113.53125 198.160156 125.5 C 197.953125 135.960938 201.113281 144.5 202.800781 151.679688 C 204.488281 158.859375 206.597656 170.261719 206.878906 183.070312 C 207.160156 195.882812 208.144531 224.105469 208.707031 227.625 C 209.691406 229.171875 238.238281 228.539062 244.285156 227.695312 C 244.285156 227.695312 245.269531 218.121094 243.019531 200.246094 C 241.671875 189.554688 230.363281 162.800781 229.238281 154.355469 C 228.113281 145.910156 227.128906 128.875 228.394531 122.824219 C 229.632812 116.886719 236.511719 96.910156 232 82.332031 C 231.789062 81.660156 231.355469 81.078125 230.765625 80.699219 C 226.375 77.871094 212.261719 74.929688 205.0625 75.46875 Z M 205.0625 75.46875 " fill-opacity="1" fill-rule="nonzero"/><path fill="#a35065" d="M 228.5 171.976562 C 233.023438 170.703125 236.410156 181.363281 239.757812 187.523438 C 236.570312 177.316406 232.527344 167.390625 229.777344 157.070312 C 228.15625 147.089844 226.753906 132.632812 228.6875 121.550781 C 231.613281 110.691406 235.714844 94.625 232.097656 82.6875 C 224.714844 85.734375 213.597656 95.613281 213.597656 95.613281 C 213.597656 95.613281 219.320312 135.105469 216.851562 137.929688 C 214.613281 140.492188 206.960938 140.597656 200.207031 141.683594 C 201.089844 145.292969 202.078125 148.613281 202.800781 151.679688 C 204.671875 159.679688 205.9375 167.847656 206.542969 176.058594 C 212.882812 175.039062 224.488281 173.105469 228.5 171.976562 Z M 228.5 171.976562 " fill-opacity="1" fill-rule="nonzero"/><path fill="#3f4a8a" d="M 112.269531 127.9375 L 109.65625 123.164062 C 109.34375 122.597656 109.761719 121.902344 110.410156 121.910156 L 128.148438 122.101562 C 128.441406 122.101562 128.710938 122.253906 128.863281 122.503906 L 131.792969 127.28125 C 132.144531 127.847656 131.730469 128.582031 131.0625 128.574219 L 113.003906 128.378906 C 112.699219 128.375 112.417969 128.207031 112.269531 127.9375 Z M 112.269531 127.9375 " fill-opacity="1" fill-rule="nonzero"/><path fill="#353f7a" d="M 110.789062 127.921875 L 108.175781 123.148438 C 107.863281 122.582031 108.277344 121.886719 108.925781 121.890625 L 126.667969 122.082031 C 126.957031 122.085938 127.226562 122.238281 127.378906 122.488281 L 130.3125 127.265625 C 130.660156 127.832031 130.246094 128.5625 129.578125 128.558594 L 111.523438 128.363281 C 111.214844 128.359375 110.933594 128.191406 110.789062 127.921875 Z M 110.789062 127.921875 " fill-opacity="1" fill-rule="nonzero"/><path fill="#353f7a" d="M 145.054688 125.96875 L 179.828125 182.625 C 180.199219 183.230469 179.761719 184.007812 179.054688 184 L 166.472656 183.863281 L 134.472656 125.433594 L 144.296875 125.539062 C 144.605469 125.542969 144.890625 125.707031 145.054688 125.96875 Z M 145.054688 125.96875 " fill-opacity="1" fill-rule="nonzero"/><path fill="#2c356b" d="M 143.316406 126.542969 L 177.957031 182.976562 C 178.230469 183.417969 177.910156 183.988281 177.390625 183.980469 L 128.703125 183.457031 C 128.140625 183.449219 127.625 183.140625 127.355469 182.648438 L 96.453125 126.21875 C 96.160156 125.683594 96.550781 125.027344 97.164062 125.03125 L 141.5 125.511719 C 142.242188 125.519531 142.929688 125.90625 143.316406 126.542969 Z M 143.316406 126.542969 " fill-opacity="1" fill-rule="nonzero"/><path fill="#f5bcab" d="M 225.941406 79.222656 C 231.6875 80.582031 234.476562 84.828125 235.519531 90.820312 L 244.460938 151.972656 C 244.6875 153.1875 244.671875 154.472656 244.367188 155.753906 C 243.203125 160.671875 238.277344 163.71875 233.363281 162.554688 C 229.222656 161.574219 226.410156 157.917969 226.324219 153.847656 C 226.324219 153.847656 217.382812 111.5625 215.023438 94.886719 C 214.910156 94.308594 214.601562 90.519531 214.757812 89.28125 C 215.632812 82.277344 219.015625 77.582031 225.941406 79.222656 Z M 225.941406 79.222656 " fill-opacity="1" fill-rule="nonzero"/><path fill="#b35d73" d="M 231.910156 81.71875 C 231.910156 81.71875 234.589844 82.984375 236.328125 89.820312 C 238.0625 96.65625 241.136719 116.84375 243.066406 127.636719 C 244.992188 138.425781 246.628906 155.183594 244.871094 159.335938 C 243.117188 163.488281 237.472656 166.507812 230.078125 162.78125 C 222.679688 159.058594 220.964844 132.824219 218.957031 123.929688 C 216.949219 115.035156 212.265625 97.566406 213.527344 88.0625 C 214.789062 78.558594 223.980469 75.789062 231.910156 81.71875 Z M 231.910156 81.71875 " fill-opacity="1" fill-rule="nonzero"/><path fill="#a35065" d="M 232.902344 142.734375 L 222.617188 145.910156 C 222.175781 143.71875 221.78125 141.46875 221.425781 139.257812 C 228.972656 139.839844 232.902344 142.734375 232.902344 142.734375 Z M 232.902344 142.734375 " fill-opacity="1" fill-rule="nonzero"/><path fill="#a35065" d="M 179.304688 169.941406 C 179.304688 169.941406 174.238281 163.457031 176.230469 150.632812 L 184.125 150.773438 L 186.75 165.613281 Z M 179.304688 169.941406 " fill-opacity="1" fill-rule="nonzero"/><path fill="#f5bcab" d="M 204.46875 149.597656 C 218.875 146.460938 224.765625 145.882812 230.683594 145.5625 C 231.464844 145.429688 232.25 145.402344 233.015625 145.472656 C 236.5625 145.796875 239.738281 148.183594 240.898438 151.785156 C 242.445312 156.597656 239.800781 161.757812 234.996094 163.304688 C 234.050781 163.609375 233.09375 163.75 232.152344 163.746094 C 232.152344 163.746094 178.367188 166.078125 178.367188 166.078125 C 178.175781 166.09375 177.984375 166.101562 177.796875 166.09375 C 175.703125 166.023438 173.789062 164.664062 173.109375 162.5625 C 172.25 159.882812 174.035156 156.296875 176.710938 155.4375 C 177.191406 155.28125 192.050781 152.300781 204.46875 149.597656 Z M 204.46875 149.597656 " fill-opacity="1" fill-rule="nonzero"/><path fill="#f5bcab" d="M 179.398438 154.722656 C 177.527344 154.804688 175.171875 155.101562 173.019531 155.242188 C 169.703125 155.363281 167.527344 154.113281 166.675781 153.453125 C 164.898438 152.074219 164.175781 151.609375 162.546875 150.707031 C 161.007812 149.855469 159.707031 149.84375 159.707031 149.84375 L 164.597656 157.835938 C 164.996094 158.492188 164.933594 159.328125 164.445312 159.917969 C 163.394531 161.179688 161.625 163.226562 160.945312 163.515625 C 160.335938 163.773438 156.804688 165.253906 153.730469 166.054688 C 151.773438 166.566406 149.746094 166.726562 149.601562 166.917969 C 148.8125 168.300781 150.378906 169.03125 150.378906 169.03125 C 149.152344 171.210938 151.460938 171.917969 151.460938 171.917969 C 151.460938 171.917969 151.164062 173.585938 152.492188 173.816406 C 153.011719 173.90625 154.839844 173.964844 154.839844 173.964844 C 154.839844 173.964844 155.261719 174.957031 155.878906 175.027344 C 156.496094 175.097656 167.105469 174.859375 169.46875 173.277344 C 170.238281 172.761719 172.816406 168.9375 174.617188 166.410156 C 177.035156 166.152344 182.296875 165.683594 182.296875 165.683594 C 190.382812 164.070312 186.179688 154.425781 179.398438 154.722656 Z M 179.398438 154.722656 " fill-opacity="1" fill-rule="nonzero"/><path fill="#e09282" d="M 150.378906 169.03125 C 152.648438 168.753906 155.136719 168.449219 157.398438 168.089844 C 159.605469 167.8125 162.683594 167.257812 163.886719 165.347656 C 159.804688 167.410156 154.457031 167.667969 150.378906 169.03125 Z M 150.378906 169.03125 " fill-opacity="1" fill-rule="nonzero"/><path fill="#e09282" d="M 151.460938 171.917969 C 153.953125 171.636719 156.6875 171.320312 159.175781 170.957031 C 162.164062 170.671875 164.257812 170.214844 166.214844 167.769531 C 164.917969 168.277344 163.753906 169.316406 162.363281 169.582031 C 158.980469 170.382812 154.578125 171.007812 151.460938 171.917969 Z M 151.460938 171.917969 " fill-opacity="1" fill-rule="nonzero"/><path fill="#e09282" d="M 154.839844 173.964844 C 157.523438 173.734375 160.199219 173.445312 162.875 173.140625 C 164.492188 173.09375 166.507812 172.320312 167.203125 170.949219 C 163.496094 172.808594 158.539062 172.785156 154.839844 173.964844 Z M 154.839844 173.964844 " fill-opacity="1" fill-rule="nonzero"/><path fill="#b35d73" d="M 243.589844 147.804688 C 243.589844 147.804688 248.105469 159.421875 240.882812 163.390625 C 233.992188 167.175781 179.304688 169.941406 179.304688 169.941406 C 179.304688 169.941406 183.507812 158.726562 176.230469 150.632812 C 176.230469 150.632812 220.777344 142.9375 226.449219 142.691406 C 232.117188 142.445312 241.539062 144.417969 243.589844 147.804688 Z M 243.589844 147.804688 " fill-opacity="1" fill-rule="nonzero"/><path fill="#c1b9b7" d="M 297.003906 161.363281 L 296.101562 166.894531 C 296.101562 166.894531 266.6875 175.894531 255.269531 179.960938 C 243.851562 184.027344 227.984375 191.777344 223.535156 207.855469 C 219.082031 223.933594 202.632812 304.90625 200.503906 314.203125 C 198.375 323.5 226.824219 317.6875 256.238281 298.707031 C 285.652344 279.722656 294.359375 271.199219 301.132812 253.765625 C 307.90625 236.332031 321.257812 185.191406 321.257812 175.894531 C 321.257812 166.59375 306.226562 161.945312 297.003906 161.363281 Z M 297.003906 161.363281 " fill-opacity="1" fill-rule="nonzero"/><path fill="#cec9c8" d="M 297.003906 161.363281 L 296.101562 166.894531 C 296.101562 166.894531 266.6875 175.894531 255.269531 179.960938 C 243.851562 184.027344 227.984375 191.777344 223.535156 207.855469 C 223.296875 208.710938 223.027344 209.75 222.726562 210.953125 L 256.820312 210.949219 C 256.820312 210.949219 306.742188 190.421875 321.257812 175.894531 C 321.257812 166.59375 306.226562 161.945312 297.003906 161.363281 Z M 297.003906 161.363281 " fill-opacity="1" fill-rule="nonzero"/><path fill="#d6d4d4" d="M 252.558594 201.074219 C 238.628906 191.195312 229.441406 196.417969 229.441406 196.417969 C 226.832031 199.667969 224.753906 203.449219 223.53125 207.855469 C 219.082031 223.933594 202.632812 304.90625 200.503906 314.203125 C 199.148438 320.128906 210.210938 319.917969 226.027344 314.070312 C 247.125 275.683594 265.96875 210.582031 252.558594 201.074219 Z M 252.558594 201.074219 " fill-opacity="1" fill-rule="nonzero"/><path fill="#ad7760" d="M 316.957031 198.835938 L 316.269531 201.699219 C 316.269531 201.699219 267.21875 224.128906 260.824219 226.96875 C 257.058594 228.519531 255.320312 233.085938 254.5 236.902344 C 253.679688 240.722656 240.96875 287.527344 226.027344 314.070312 C 211.082031 340.613281 210.566406 374.964844 210.566406 374.964844 L 216.242188 371.863281 C 216.242188 371.863281 215.273438 352.75 222.726562 336.222656 C 230.175781 319.691406 251.863281 271.820312 257.058594 255.378906 C 262.253906 238.9375 264.664062 232.761719 267.246094 231.242188 C 269.824219 229.722656 320.914062 208.027344 323.320312 205.789062 C 325.730469 203.550781 323.839844 198.941406 316.957031 198.835938 Z M 316.957031 198.835938 " fill-opacity="1" fill-rule="nonzero"/></svg>