<svg xmlns="http://www.w3.org/2000/svg" xmlns:xlink="http://www.w3.org/1999/xlink" width="500" zoomAndPan="magnify" viewBox="0 0 375 374.999991" height="500" preserveAspectRatio="xMidYMid meet" version="1.0"><defs><clipPath id="032476a00a"><path d="M 153 357 L 181 357 L 181 374.65625 L 153 374.65625 Z M 153 357 " clip-rule="nonzero"/></clipPath><clipPath id="d08b24cf5e"><path d="M 130.953125 104 L 181 104 L 181 152 L 130.953125 152 Z M 130.953125 104 " clip-rule="nonzero"/></clipPath><clipPath id="9397622572"><path d="M 229 77 L 244.203125 77 L 244.203125 138 L 229 138 Z M 229 77 " clip-rule="nonzero"/></clipPath><clipPath id="c91d21aaad"><path d="M 196 357 L 225 357 L 225 374.65625 L 196 374.65625 Z M 196 357 " clip-rule="nonzero"/></clipPath></defs><path fill="#fab88b" d="M 172.503906 317.40625 L 161.9375 362.769531 L 155.164062 362.769531 L 156.011719 322.144531 L 172.503906 317.40625 " fill-opacity="1" fill-rule="nonzero"/><g clip-path="url(#032476a00a)"><path fill="#f14e45" d="M 155.121094 360.796875 C 155.121094 360.796875 156.5625 362.148438 159.472656 361.867188 C 162.378906 361.585938 161.027344 359.101562 163.699219 358.085938 C 166.371094 357.070312 166.371094 359.609375 165.964844 360.398438 C 165.558594 361.191406 164.476562 362.542969 164.476562 362.542969 C 164.476562 362.542969 167.65625 366.242188 172.832031 368.355469 C 178.011719 370.472656 179.53125 370.304688 180.648438 372.335938 C 181.765625 374.367188 180.140625 374.617188 174.660156 374.535156 C 169.179688 374.449219 161.875 373.433594 160.046875 373.519531 C 158.21875 373.605469 156.289062 374.195312 153.449219 372.757812 C 152.738281 367.425781 155.121094 360.796875 155.121094 360.796875 " fill-opacity="1" fill-rule="nonzero"/></g><path fill="#fab88b" d="M 212.875 325.699219 L 205.25 362.769531 L 198.476562 362.769531 L 199.324219 322.144531 L 212.875 325.699219 " fill-opacity="1" fill-rule="nonzero"/><path fill="#8aa1c6" d="M 226.949219 174.167969 C 226.949219 174.167969 229.953125 196.230469 225 244.980469 C 220.050781 293.730469 215.742188 332.773438 215.742188 332.773438 C 215.742188 332.773438 204.765625 334.355469 192.496094 332.773438 C 194.21875 293.503906 199.171875 207.964844 199.171875 207.964844 C 199.171875 207.964844 207.996094 170.277344 207.996094 171.179688 C 207.996094 172.082031 226.949219 174.167969 226.949219 174.167969 " fill-opacity="1" fill-rule="nonzero"/><path fill="#8aa1c6" d="M 200.890625 215.640625 C 200.890625 215.640625 185.75 291.722656 173.480469 333.476562 C 162.714844 334.605469 151.910156 331.644531 151.910156 331.644531 C 151.910156 331.644531 160.855469 278.382812 161.933594 263.035156 C 163.007812 247.6875 167.042969 192.507812 177.542969 170.164062 C 195.933594 168.828125 211.976562 170.238281 212.140625 172.0625 C 212.300781 173.886719 215.742188 203.679688 200.890625 215.640625 " fill-opacity="1" fill-rule="nonzero"/><path fill="#6f8db4" d="M 197.960938 229.167969 L 200.890625 215.640625 L 182.601562 203.027344 C 182.601562 203.027344 203.796875 210.953125 204.535156 210.109375 C 205.273438 209.265625 226.328125 204.015625 226.328125 204.015625 C 226.328125 204.015625 205.097656 217.660156 205.605469 217.410156 C 206.113281 217.164062 213.316406 216.484375 212.59375 216.824219 C 211.875 217.164062 203.800781 221.394531 203.800781 221.394531 L 195.152344 279.964844 L 197.960938 229.167969 " fill-opacity="1" fill-rule="nonzero"/><path fill="#6f8db4" d="M 204.464844 211.351562 C 204.464844 211.351562 207.003906 202.691406 207.851562 193.632812 C 208.699219 184.578125 208.953125 173.632812 208.953125 173.632812 L 209.515625 173.632812 C 209.515625 173.632812 209.941406 180.035156 208.53125 193.859375 C 207.117188 207.683594 204.464844 213.496094 204.464844 213.496094 L 204.464844 211.351562 " fill-opacity="1" fill-rule="nonzero"/><path fill="#f14e45" d="M 224.214844 28.988281 C 224.214844 28.988281 222.574219 38.582031 223.492188 44.449219 C 224.410156 50.320312 230.808594 57.492188 223.714844 69.703125 C 214.132812 71.421875 199.453125 64.539062 199.453125 64.539062 L 205.097656 39.105469 C 205.097656 39.105469 215.097656 23.011719 224.214844 28.988281 " fill-opacity="1" fill-rule="nonzero"/><path fill="#fab88b" d="M 182.851562 69.054688 C 182.851562 69.054688 186.632812 67.359375 188.582031 62.789062 C 190.53125 58.21875 192.261719 53.058594 192.261719 53.058594 L 203.234375 59.660156 C 203.234375 59.660156 201.203125 65.074219 201.625 67.359375 C 202.050781 69.644531 203.855469 70.519531 203.855469 70.519531 C 203.855469 70.519531 214.667969 81.664062 197.136719 85.808594 C 179.605469 89.957031 182.851562 69.054688 182.851562 69.054688 " fill-opacity="1" fill-rule="nonzero"/><path fill="#f89c72" d="M 186.917969 65.625 C 186.917969 65.625 189.570312 67.246094 194.765625 66.683594 C 199.960938 66.117188 201.902344 64.128906 201.902344 64.128906 L 202.660156 61.347656 L 195.355469 56.132812 L 187.96875 64.039062 L 186.917969 65.625 " fill-opacity="1" fill-rule="nonzero"/><path fill="#f89c72" d="M 224.859375 101.550781 L 235.8125 119.492188 L 236.867188 136.898438 C 236.867188 136.898438 227.117188 131.90625 217.519531 115.882812 C 207.921875 99.859375 210.40625 100.308594 210.40625 100.308594 C 210.40625 100.308594 223.617188 96.359375 224.859375 101.550781 " fill-opacity="1" fill-rule="nonzero"/><path fill="#fab88b" d="M 220.128906 27.78125 C 220.128906 27.78125 221.085938 41.152344 214.390625 52.070312 C 207.699219 62.988281 202.046875 64.34375 195.355469 56.132812 C 188.664062 47.921875 194.136719 26.59375 199.441406 20.839844 C 204.742188 15.085938 208.914062 16.695312 210.828125 18.300781 C 212.742188 19.910156 219.695312 27.78125 219.695312 27.78125 L 220.128906 27.78125 " fill-opacity="1" fill-rule="nonzero"/><path fill="#f14e45" d="M 201.175781 21.09375 C 201.175781 21.09375 198.578125 27.636719 198.578125 34.183594 C 198.578125 40.726562 201.710938 54.664062 192.261719 65.15625 C 170.203125 59.910156 157.589844 49.078125 157.589844 49.078125 C 157.589844 49.078125 158.953125 37.214844 169.695312 32.488281 C 175.808594 29.800781 178.367188 28.765625 180.625 23.234375 C 182.882812 17.707031 186.609375 5.628906 201.855469 5.179688 C 217.101562 4.730469 225.792969 14.320312 224.214844 28.992188 C 212.921875 30.683594 201.175781 21.09375 201.175781 21.09375 " fill-opacity="1" fill-rule="nonzero"/><path fill="#fab88b" d="M 233.863281 77.773438 C 233.863281 77.773438 229.617188 68.875 225.78125 64.664062 C 221.945312 60.457031 217.554688 56.699219 217.199219 57.683594 C 216.847656 58.667969 224.394531 66.484375 224.394531 66.484375 C 224.394531 66.484375 215.238281 59.4375 214.753906 60.03125 C 214.269531 60.625 222.570312 67.832031 222.570312 67.832031 C 222.570312 67.832031 213.5625 61.746094 213.285156 62.824219 C 213.003906 63.902344 220.757812 68.929688 220.398438 69.144531 C 220.035156 69.363281 213.324219 65.804688 213.265625 66.394531 C 213.207031 66.984375 219.539062 70.929688 220.371094 71.953125 C 221.207031 72.96875 227.128906 78.71875 229.210938 80.035156 C 231.292969 81.347656 234.132812 80.183594 233.863281 77.773438 " fill-opacity="1" fill-rule="nonzero"/><path fill="#fbeadf" d="M 182.851562 69.050781 C 182.851562 69.050781 185.675781 79.886719 196.628906 81.238281 C 207.582031 82.59375 203.855469 70.519531 203.855469 70.519531 C 203.855469 70.519531 211.988281 70.179688 215.148438 75.824219 C 218.3125 81.464844 228.132812 100.988281 228.132812 100.988281 L 220.910156 105.050781 C 220.910156 105.050781 222.035156 106.96875 222.148438 110.355469 C 222.261719 113.742188 217.40625 121.414062 217.40625 121.414062 C 217.40625 121.414062 224.859375 156.957031 228.132812 173.886719 C 205.4375 179.300781 175.625 171.855469 175.625 171.855469 C 175.625 171.855469 177.433594 157.410156 175.625 144.09375 C 173.816406 130.78125 168.851562 103.472656 168.851562 103.472656 L 161.253906 112.925781 L 144.683594 102.679688 C 144.683594 102.679688 156.652344 79.660156 161.621094 74.808594 C 166.589844 69.953125 172.6875 66.34375 182.851562 69.050781 " fill-opacity="1" fill-rule="nonzero"/><path fill="#ebd4c9" d="M 168.851562 103.46875 L 174.269531 96.132812 C 174.269531 96.132812 180.796875 121.523438 182.617188 144.714844 C 184.433594 167.902344 184.46875 173.628906 184.46875 173.628906 L 175.625 171.855469 C 175.625 171.855469 176.660156 152.246094 174.25 134.910156 C 172.191406 120.074219 168.851562 103.46875 168.851562 103.46875 " fill-opacity="1" fill-rule="nonzero"/><path fill="#fab88b" d="M 178.492188 126.542969 C 178.492188 126.542969 188.320312 125.628906 193.902344 126.765625 C 199.484375 127.898438 204.960938 129.746094 204.296875 130.550781 C 203.628906 131.363281 193.050781 128.882812 193.050781 128.882812 C 193.050781 128.882812 203.792969 133.136719 203.53125 133.855469 C 203.269531 134.574219 192.824219 131.140625 192.824219 131.140625 C 192.824219 131.140625 202.667969 135.757812 201.886719 136.546875 C 201.101562 137.339844 192.808594 133.257812 192.808594 133.679688 C 192.804688 134.105469 199.300781 138.039062 198.824219 138.390625 C 198.347656 138.742188 191.714844 135.332031 190.410156 135.136719 C 189.105469 134.941406 181.128906 132.804688 178.9375 131.691406 C 176.742188 130.578125 176.285156 127.546875 178.492188 126.542969 " fill-opacity="1" fill-rule="nonzero"/><g clip-path="url(#d08b24cf5e)"><path fill="#fab88b" d="M 147.414062 104.367188 C 147.414062 104.367188 137.175781 123.722656 132.769531 136.253906 C 128.367188 148.777344 130.230469 153.855469 143.101562 150.300781 C 155.976562 146.746094 180.875 130.835938 180.875 130.835938 L 178.496094 126.542969 L 145.699219 136.53125 L 160.019531 112.164062 L 147.414062 104.367188 " fill-opacity="1" fill-rule="nonzero"/></g><g clip-path="url(#9397622572)"><path fill="#fab88b" d="M 233.863281 77.777344 C 233.863281 77.777344 236.265625 81.917969 240.5 100.539062 C 244.734375 119.15625 249.476562 135.238281 240.5 137.097656 C 233.082031 138.636719 231.351562 129.652344 231.691406 119.324219 C 232.03125 109.003906 229.210938 80.03125 229.210938 80.03125 L 233.863281 77.777344 " fill-opacity="1" fill-rule="nonzero"/></g><path fill="#ebd4c9" d="M 220.910156 105.046875 C 220.910156 105.046875 216.109375 96.726562 215.007812 94.613281 C 213.90625 92.496094 211.367188 79.714844 211.367188 79.714844 L 223.574219 103.550781 L 220.910156 105.046875 " fill-opacity="1" fill-rule="nonzero"/><path fill="#ebd4c9" d="M 206.324219 109.589844 C 206.324219 109.589844 204.511719 115.484375 200.582031 119.832031 C 205.460938 116.464844 207.191406 115.34375 206.324219 109.589844 " fill-opacity="1" fill-rule="nonzero"/><g clip-path="url(#c91d21aaad)"><path fill="#f14e45" d="M 198.433594 360.796875 C 198.433594 360.796875 199.875 362.148438 202.78125 361.867188 C 205.691406 361.585938 204.339844 359.101562 207.011719 358.085938 C 209.683594 357.070312 209.683594 359.609375 209.277344 360.398438 C 208.875 361.191406 207.789062 362.542969 207.789062 362.542969 C 207.789062 362.542969 210.96875 366.242188 216.144531 368.355469 C 221.324219 370.472656 222.84375 370.304688 223.960938 372.335938 C 225.078125 374.367188 223.453125 374.617188 217.972656 374.535156 C 212.492188 374.449219 205.183594 373.433594 203.359375 373.519531 C 201.53125 373.605469 199.601562 374.195312 196.761719 372.757812 C 196.050781 367.425781 198.433594 360.796875 198.433594 360.796875 " fill-opacity="1" fill-rule="nonzero"/></g><path fill="#6f8db4" d="M 192.496094 332.773438 C 192.496094 332.773438 195.667969 334.1875 203.96875 334.1875 C 212.269531 334.1875 215.742188 332.773438 215.742188 332.773438 L 216.253906 328.113281 C 216.253906 328.113281 206.457031 329.601562 192.707031 328.113281 C 192.585938 330.75 192.496094 332.773438 192.496094 332.773438 " fill-opacity="1" fill-rule="nonzero"/><path fill="#6f8db4" d="M 151.910156 331.644531 C 151.910156 331.644531 154.621094 333 162.074219 333.734375 C 169.527344 334.46875 173.480469 333.476562 173.480469 333.476562 L 174.914062 328.484375 C 174.914062 328.484375 171.277344 329.214844 163.035156 328.484375 C 154.789062 327.753906 152.726562 326.730469 152.726562 326.730469 L 151.910156 331.644531 " fill-opacity="1" fill-rule="nonzero"/></svg>